<?xml version="1.0" encoding="utf-8"?>
<svg xmlns="http://www.w3.org/2000/svg" xmlns:xlink="http://www.w3.org/1999/xlink" width="600" height="400" viewBox="0 0 2400 1600">
<defs>
  <clipPath id="clip200">
    <rect x="0" y="0" width="2400" height="1600"/>
  </clipPath>
</defs>
<path clip-path="url(#clip200)" d="
M0 1600 L2400 1600 L2400 0 L0 0  Z
  " fill="#ffffff" fill-rule="evenodd" fill-opacity="1"/>
<defs>
  <clipPath id="clip201">
    <rect x="480" y="0" width="1681" height="1600"/>
  </clipPath>
</defs>
<path clip-path="url(#clip200)" d="
M147.108 1486.45 L2352.76 1486.45 L2352.76 47.2441 L147.108 47.2441  Z
  " fill="#ffffff" fill-rule="evenodd" fill-opacity="1"/>
<defs>
  <clipPath id="clip202">
    <rect x="147" y="47" width="2207" height="1440"/>
  </clipPath>
</defs>
<polyline clip-path="url(#clip202)" style="stroke:#000000; stroke-linecap:butt; stroke-linejoin:round; stroke-width:2; stroke-opacity:0.1; fill:none" points="
  208.515,1486.45 208.515,47.2441 
  "/>
<polyline clip-path="url(#clip202)" style="stroke:#000000; stroke-linecap:butt; stroke-linejoin:round; stroke-width:2; stroke-opacity:0.1; fill:none" points="
  717.019,1486.45 717.019,47.2441 
  "/>
<polyline clip-path="url(#clip202)" style="stroke:#000000; stroke-linecap:butt; stroke-linejoin:round; stroke-width:2; stroke-opacity:0.1; fill:none" points="
  1225.52,1486.45 1225.52,47.2441 
  "/>
<polyline clip-path="url(#clip202)" style="stroke:#000000; stroke-linecap:butt; stroke-linejoin:round; stroke-width:2; stroke-opacity:0.1; fill:none" points="
  1734.03,1486.45 1734.03,47.2441 
  "/>
<polyline clip-path="url(#clip202)" style="stroke:#000000; stroke-linecap:butt; stroke-linejoin:round; stroke-width:2; stroke-opacity:0.1; fill:none" points="
  2242.53,1486.45 2242.53,47.2441 
  "/>
<polyline clip-path="url(#clip200)" style="stroke:#000000; stroke-linecap:butt; stroke-linejoin:round; stroke-width:4; stroke-opacity:1; fill:none" points="
  147.108,1486.45 2352.76,1486.45 
  "/>
<polyline clip-path="url(#clip200)" style="stroke:#000000; stroke-linecap:butt; stroke-linejoin:round; stroke-width:4; stroke-opacity:1; fill:none" points="
  208.515,1486.45 208.515,1467.55 
  "/>
<polyline clip-path="url(#clip200)" style="stroke:#000000; stroke-linecap:butt; stroke-linejoin:round; stroke-width:4; stroke-opacity:1; fill:none" points="
  717.019,1486.45 717.019,1467.55 
  "/>
<polyline clip-path="url(#clip200)" style="stroke:#000000; stroke-linecap:butt; stroke-linejoin:round; stroke-width:4; stroke-opacity:1; fill:none" points="
  1225.52,1486.45 1225.52,1467.55 
  "/>
<polyline clip-path="url(#clip200)" style="stroke:#000000; stroke-linecap:butt; stroke-linejoin:round; stroke-width:4; stroke-opacity:1; fill:none" points="
  1734.03,1486.45 1734.03,1467.55 
  "/>
<polyline clip-path="url(#clip200)" style="stroke:#000000; stroke-linecap:butt; stroke-linejoin:round; stroke-width:4; stroke-opacity:1; fill:none" points="
  2242.53,1486.45 2242.53,1467.55 
  "/>
<path clip-path="url(#clip200)" d="M208.515 1517.37 Q204.903 1517.37 203.075 1520.93 Q201.269 1524.47 201.269 1531.6 Q201.269 1538.71 203.075 1542.27 Q204.903 1545.82 208.515 1545.82 Q212.149 1545.82 213.954 1542.27 Q215.783 1538.71 215.783 1531.6 Q215.783 1524.47 213.954 1520.93 Q212.149 1517.37 208.515 1517.37 M208.515 1513.66 Q214.325 1513.66 217.38 1518.27 Q220.459 1522.85 220.459 1531.6 Q220.459 1540.33 217.38 1544.94 Q214.325 1549.52 208.515 1549.52 Q202.704 1549.52 199.626 1544.94 Q196.57 1540.33 196.57 1531.6 Q196.57 1522.85 199.626 1518.27 Q202.704 1513.66 208.515 1513.66 Z" fill="#000000" fill-rule="evenodd" fill-opacity="1" /><path clip-path="url(#clip200)" d="M676.637 1514.29 L694.994 1514.29 L694.994 1518.22 L680.92 1518.22 L680.92 1526.7 Q681.938 1526.35 682.957 1526.19 Q683.975 1526 684.994 1526 Q690.781 1526 694.16 1529.17 Q697.54 1532.34 697.54 1537.76 Q697.54 1543.34 694.068 1546.44 Q690.596 1549.52 684.276 1549.52 Q682.1 1549.52 679.832 1549.15 Q677.586 1548.78 675.179 1548.04 L675.179 1543.34 Q677.262 1544.47 679.485 1545.03 Q681.707 1545.58 684.184 1545.58 Q688.188 1545.58 690.526 1543.48 Q692.864 1541.37 692.864 1537.76 Q692.864 1534.15 690.526 1532.04 Q688.188 1529.94 684.184 1529.94 Q682.309 1529.94 680.434 1530.35 Q678.582 1530.77 676.637 1531.65 L676.637 1514.29 Z" fill="#000000" fill-rule="evenodd" fill-opacity="1" /><path clip-path="url(#clip200)" d="M716.753 1517.37 Q713.142 1517.37 711.313 1520.93 Q709.507 1524.47 709.507 1531.6 Q709.507 1538.71 711.313 1542.27 Q713.142 1545.82 716.753 1545.82 Q720.387 1545.82 722.193 1542.27 Q724.021 1538.71 724.021 1531.6 Q724.021 1524.47 722.193 1520.93 Q720.387 1517.37 716.753 1517.37 M716.753 1513.66 Q722.563 1513.66 725.619 1518.27 Q728.697 1522.85 728.697 1531.6 Q728.697 1540.33 725.619 1544.94 Q722.563 1549.52 716.753 1549.52 Q710.943 1549.52 707.864 1544.94 Q704.808 1540.33 704.808 1531.6 Q704.808 1522.85 707.864 1518.27 Q710.943 1513.66 716.753 1513.66 Z" fill="#000000" fill-rule="evenodd" fill-opacity="1" /><path clip-path="url(#clip200)" d="M746.915 1517.37 Q743.304 1517.37 741.475 1520.93 Q739.669 1524.47 739.669 1531.6 Q739.669 1538.71 741.475 1542.27 Q743.304 1545.82 746.915 1545.82 Q750.549 1545.82 752.354 1542.27 Q754.183 1538.71 754.183 1531.6 Q754.183 1524.47 752.354 1520.93 Q750.549 1517.37 746.915 1517.37 M746.915 1513.66 Q752.725 1513.66 755.78 1518.27 Q758.859 1522.85 758.859 1531.6 Q758.859 1540.33 755.78 1544.94 Q752.725 1549.52 746.915 1549.52 Q741.105 1549.52 738.026 1544.94 Q734.97 1540.33 734.97 1531.6 Q734.97 1522.85 738.026 1518.27 Q741.105 1513.66 746.915 1513.66 Z" fill="#000000" fill-rule="evenodd" fill-opacity="1" /><path clip-path="url(#clip200)" d="M1170.05 1544.91 L1177.69 1544.91 L1177.69 1518.55 L1169.38 1520.21 L1169.38 1515.95 L1177.64 1514.29 L1182.32 1514.29 L1182.32 1544.91 L1189.96 1544.91 L1189.96 1548.85 L1170.05 1548.85 L1170.05 1544.91 Z" fill="#000000" fill-rule="evenodd" fill-opacity="1" /><path clip-path="url(#clip200)" d="M1209.4 1517.37 Q1205.79 1517.37 1203.96 1520.93 Q1202.16 1524.47 1202.16 1531.6 Q1202.16 1538.71 1203.96 1542.27 Q1205.79 1545.82 1209.4 1545.82 Q1213.04 1545.82 1214.84 1542.27 Q1216.67 1538.71 1216.67 1531.6 Q1216.67 1524.47 1214.84 1520.93 Q1213.04 1517.37 1209.4 1517.37 M1209.4 1513.66 Q1215.21 1513.66 1218.27 1518.27 Q1221.35 1522.85 1221.35 1531.6 Q1221.35 1540.33 1218.27 1544.94 Q1215.21 1549.52 1209.4 1549.52 Q1203.59 1549.52 1200.51 1544.94 Q1197.46 1540.33 1197.46 1531.6 Q1197.46 1522.85 1200.51 1518.27 Q1203.59 1513.66 1209.4 1513.66 Z" fill="#000000" fill-rule="evenodd" fill-opacity="1" /><path clip-path="url(#clip200)" d="M1239.56 1517.37 Q1235.95 1517.37 1234.12 1520.93 Q1232.32 1524.47 1232.32 1531.6 Q1232.32 1538.71 1234.12 1542.27 Q1235.95 1545.82 1239.56 1545.82 Q1243.2 1545.82 1245 1542.27 Q1246.83 1538.71 1246.83 1531.6 Q1246.83 1524.47 1245 1520.93 Q1243.2 1517.37 1239.56 1517.37 M1239.56 1513.66 Q1245.37 1513.66 1248.43 1518.27 Q1251.51 1522.85 1251.51 1531.6 Q1251.51 1540.33 1248.43 1544.94 Q1245.37 1549.52 1239.56 1549.52 Q1233.75 1549.52 1230.67 1544.94 Q1227.62 1540.33 1227.62 1531.6 Q1227.62 1522.85 1230.67 1518.27 Q1233.75 1513.66 1239.56 1513.66 Z" fill="#000000" fill-rule="evenodd" fill-opacity="1" /><path clip-path="url(#clip200)" d="M1269.72 1517.37 Q1266.11 1517.37 1264.28 1520.93 Q1262.48 1524.47 1262.48 1531.6 Q1262.48 1538.71 1264.28 1542.27 Q1266.11 1545.82 1269.72 1545.82 Q1273.36 1545.82 1275.16 1542.27 Q1276.99 1538.71 1276.99 1531.6 Q1276.99 1524.47 1275.16 1520.93 Q1273.36 1517.37 1269.72 1517.37 M1269.72 1513.66 Q1275.53 1513.66 1278.59 1518.27 Q1281.67 1522.85 1281.67 1531.6 Q1281.67 1540.33 1278.59 1544.94 Q1275.53 1549.52 1269.72 1549.52 Q1263.91 1549.52 1260.84 1544.94 Q1257.78 1540.33 1257.78 1531.6 Q1257.78 1522.85 1260.84 1518.27 Q1263.91 1513.66 1269.72 1513.66 Z" fill="#000000" fill-rule="evenodd" fill-opacity="1" /><path clip-path="url(#clip200)" d="M1678.55 1544.91 L1686.19 1544.91 L1686.19 1518.55 L1677.88 1520.21 L1677.88 1515.95 L1686.15 1514.29 L1690.82 1514.29 L1690.82 1544.91 L1698.46 1544.91 L1698.46 1548.85 L1678.55 1548.85 L1678.55 1544.91 Z" fill="#000000" fill-rule="evenodd" fill-opacity="1" /><path clip-path="url(#clip200)" d="M1707.95 1514.29 L1726.31 1514.29 L1726.31 1518.22 L1712.23 1518.22 L1712.23 1526.7 Q1713.25 1526.35 1714.27 1526.19 Q1715.29 1526 1716.31 1526 Q1722.1 1526 1725.47 1529.17 Q1728.85 1532.34 1728.85 1537.76 Q1728.85 1543.34 1725.38 1546.44 Q1721.91 1549.52 1715.59 1549.52 Q1713.41 1549.52 1711.15 1549.15 Q1708.9 1548.78 1706.49 1548.04 L1706.49 1543.34 Q1708.58 1544.47 1710.8 1545.03 Q1713.02 1545.58 1715.5 1545.58 Q1719.5 1545.58 1721.84 1543.48 Q1724.18 1541.37 1724.18 1537.76 Q1724.18 1534.15 1721.84 1532.04 Q1719.5 1529.94 1715.5 1529.94 Q1713.62 1529.94 1711.75 1530.35 Q1709.9 1530.77 1707.95 1531.65 L1707.95 1514.29 Z" fill="#000000" fill-rule="evenodd" fill-opacity="1" /><path clip-path="url(#clip200)" d="M1748.07 1517.37 Q1744.46 1517.37 1742.63 1520.93 Q1740.82 1524.47 1740.82 1531.6 Q1740.82 1538.71 1742.63 1542.27 Q1744.46 1545.82 1748.07 1545.82 Q1751.7 1545.82 1753.51 1542.27 Q1755.34 1538.71 1755.34 1531.6 Q1755.34 1524.47 1753.51 1520.93 Q1751.7 1517.37 1748.07 1517.37 M1748.07 1513.66 Q1753.88 1513.66 1756.93 1518.27 Q1760.01 1522.85 1760.01 1531.6 Q1760.01 1540.33 1756.93 1544.94 Q1753.88 1549.52 1748.07 1549.52 Q1742.26 1549.52 1739.18 1544.94 Q1736.12 1540.33 1736.12 1531.6 Q1736.12 1522.85 1739.18 1518.27 Q1742.26 1513.66 1748.07 1513.66 Z" fill="#000000" fill-rule="evenodd" fill-opacity="1" /><path clip-path="url(#clip200)" d="M1778.23 1517.37 Q1774.62 1517.37 1772.79 1520.93 Q1770.98 1524.47 1770.98 1531.6 Q1770.98 1538.71 1772.79 1542.27 Q1774.62 1545.82 1778.23 1545.82 Q1781.86 1545.82 1783.67 1542.27 Q1785.5 1538.71 1785.5 1531.6 Q1785.5 1524.47 1783.67 1520.93 Q1781.86 1517.37 1778.23 1517.37 M1778.23 1513.66 Q1784.04 1513.66 1787.09 1518.27 Q1790.17 1522.85 1790.17 1531.6 Q1790.17 1540.33 1787.09 1544.94 Q1784.04 1549.52 1778.23 1549.52 Q1772.42 1549.52 1769.34 1544.94 Q1766.28 1540.33 1766.28 1531.6 Q1766.28 1522.85 1769.34 1518.27 Q1772.42 1513.66 1778.23 1513.66 Z" fill="#000000" fill-rule="evenodd" fill-opacity="1" /><path clip-path="url(#clip200)" d="M2191.14 1544.91 L2207.46 1544.91 L2207.46 1548.85 L2185.52 1548.85 L2185.52 1544.91 Q2188.18 1542.16 2192.76 1537.53 Q2197.37 1532.88 2198.55 1531.53 Q2200.8 1529.01 2201.68 1527.27 Q2202.58 1525.51 2202.58 1523.82 Q2202.58 1521.07 2200.63 1519.33 Q2198.71 1517.6 2195.61 1517.6 Q2193.41 1517.6 2190.96 1518.36 Q2188.53 1519.13 2185.75 1520.68 L2185.75 1515.95 Q2188.57 1514.82 2191.03 1514.24 Q2193.48 1513.66 2195.52 1513.66 Q2200.89 1513.66 2204.08 1516.35 Q2207.28 1519.03 2207.28 1523.52 Q2207.28 1525.65 2206.47 1527.57 Q2205.68 1529.47 2203.57 1532.07 Q2203 1532.74 2199.89 1535.95 Q2196.79 1539.15 2191.14 1544.91 Z" fill="#000000" fill-rule="evenodd" fill-opacity="1" /><path clip-path="url(#clip200)" d="M2227.28 1517.37 Q2223.67 1517.37 2221.84 1520.93 Q2220.03 1524.47 2220.03 1531.6 Q2220.03 1538.71 2221.84 1542.27 Q2223.67 1545.82 2227.28 1545.82 Q2230.91 1545.82 2232.72 1542.27 Q2234.55 1538.71 2234.55 1531.6 Q2234.55 1524.47 2232.72 1520.93 Q2230.91 1517.37 2227.28 1517.37 M2227.28 1513.66 Q2233.09 1513.66 2236.14 1518.27 Q2239.22 1522.85 2239.22 1531.6 Q2239.22 1540.33 2236.14 1544.94 Q2233.09 1549.52 2227.28 1549.52 Q2221.47 1549.52 2218.39 1544.94 Q2215.33 1540.33 2215.33 1531.6 Q2215.33 1522.85 2218.39 1518.27 Q2221.47 1513.66 2227.28 1513.66 Z" fill="#000000" fill-rule="evenodd" fill-opacity="1" /><path clip-path="url(#clip200)" d="M2257.44 1517.37 Q2253.83 1517.37 2252 1520.93 Q2250.19 1524.47 2250.19 1531.6 Q2250.19 1538.71 2252 1542.27 Q2253.83 1545.82 2257.44 1545.82 Q2261.07 1545.82 2262.88 1542.27 Q2264.71 1538.71 2264.71 1531.6 Q2264.71 1524.47 2262.88 1520.93 Q2261.07 1517.37 2257.44 1517.37 M2257.44 1513.66 Q2263.25 1513.66 2266.31 1518.27 Q2269.38 1522.85 2269.38 1531.6 Q2269.38 1540.33 2266.31 1544.94 Q2263.25 1549.52 2257.44 1549.52 Q2251.63 1549.52 2248.55 1544.94 Q2245.5 1540.33 2245.5 1531.6 Q2245.5 1522.85 2248.55 1518.27 Q2251.63 1513.66 2257.44 1513.66 Z" fill="#000000" fill-rule="evenodd" fill-opacity="1" /><path clip-path="url(#clip200)" d="M2287.6 1517.37 Q2283.99 1517.37 2282.16 1520.93 Q2280.36 1524.47 2280.36 1531.6 Q2280.36 1538.71 2282.16 1542.27 Q2283.99 1545.82 2287.6 1545.82 Q2291.24 1545.82 2293.04 1542.27 Q2294.87 1538.71 2294.87 1531.6 Q2294.87 1524.47 2293.04 1520.93 Q2291.24 1517.37 2287.6 1517.37 M2287.6 1513.66 Q2293.41 1513.66 2296.47 1518.27 Q2299.55 1522.85 2299.55 1531.6 Q2299.55 1540.33 2296.47 1544.94 Q2293.41 1549.52 2287.6 1549.52 Q2281.79 1549.52 2278.71 1544.94 Q2275.66 1540.33 2275.66 1531.6 Q2275.66 1522.85 2278.71 1518.27 Q2281.79 1513.66 2287.6 1513.66 Z" fill="#000000" fill-rule="evenodd" fill-opacity="1" /><polyline clip-path="url(#clip202)" style="stroke:#000000; stroke-linecap:butt; stroke-linejoin:round; stroke-width:2; stroke-opacity:0.1; fill:none" points="
  147.108,1276 2352.76,1276 
  "/>
<polyline clip-path="url(#clip202)" style="stroke:#000000; stroke-linecap:butt; stroke-linejoin:round; stroke-width:2; stroke-opacity:0.1; fill:none" points="
  147.108,936.563 2352.76,936.563 
  "/>
<polyline clip-path="url(#clip202)" style="stroke:#000000; stroke-linecap:butt; stroke-linejoin:round; stroke-width:2; stroke-opacity:0.1; fill:none" points="
  147.108,597.129 2352.76,597.129 
  "/>
<polyline clip-path="url(#clip202)" style="stroke:#000000; stroke-linecap:butt; stroke-linejoin:round; stroke-width:2; stroke-opacity:0.1; fill:none" points="
  147.108,257.694 2352.76,257.694 
  "/>
<polyline clip-path="url(#clip200)" style="stroke:#000000; stroke-linecap:butt; stroke-linejoin:round; stroke-width:4; stroke-opacity:1; fill:none" points="
  147.108,1486.45 147.108,47.2441 
  "/>
<polyline clip-path="url(#clip200)" style="stroke:#000000; stroke-linecap:butt; stroke-linejoin:round; stroke-width:4; stroke-opacity:1; fill:none" points="
  147.108,1276 166.005,1276 
  "/>
<polyline clip-path="url(#clip200)" style="stroke:#000000; stroke-linecap:butt; stroke-linejoin:round; stroke-width:4; stroke-opacity:1; fill:none" points="
  147.108,936.563 166.005,936.563 
  "/>
<polyline clip-path="url(#clip200)" style="stroke:#000000; stroke-linecap:butt; stroke-linejoin:round; stroke-width:4; stroke-opacity:1; fill:none" points="
  147.108,597.129 166.005,597.129 
  "/>
<polyline clip-path="url(#clip200)" style="stroke:#000000; stroke-linecap:butt; stroke-linejoin:round; stroke-width:4; stroke-opacity:1; fill:none" points="
  147.108,257.694 166.005,257.694 
  "/>
<path clip-path="url(#clip200)" d="M50.9921 1276.45 L80.6679 1276.45 L80.6679 1280.38 L50.9921 1280.38 L50.9921 1276.45 Z" fill="#000000" fill-rule="evenodd" fill-opacity="1" /><path clip-path="url(#clip200)" d="M94.7882 1289.34 L111.108 1289.34 L111.108 1293.28 L89.1632 1293.28 L89.1632 1289.34 Q91.8252 1286.59 96.4085 1281.96 Q101.015 1277.31 102.196 1275.96 Q104.441 1273.44 105.321 1271.7 Q106.223 1269.95 106.223 1268.26 Q106.223 1265.5 104.279 1263.76 Q102.358 1262.03 99.2558 1262.03 Q97.0567 1262.03 94.603 1262.79 Q92.1725 1263.56 89.3947 1265.11 L89.3947 1260.38 Q92.2188 1259.25 94.6724 1258.67 Q97.1261 1258.09 99.1632 1258.09 Q104.534 1258.09 107.728 1260.78 Q110.922 1263.46 110.922 1267.95 Q110.922 1270.08 110.112 1272.01 Q109.325 1273.9 107.219 1276.5 Q106.64 1277.17 103.538 1280.38 Q100.436 1283.58 94.7882 1289.34 Z" fill="#000000" fill-rule="evenodd" fill-opacity="1" /><path clip-path="url(#clip200)" d="M99.1632 922.362 Q95.5521 922.362 93.7234 925.927 Q91.9178 929.469 91.9178 936.598 Q91.9178 943.705 93.7234 947.269 Q95.5521 950.811 99.1632 950.811 Q102.797 950.811 104.603 947.269 Q106.432 943.705 106.432 936.598 Q106.432 929.469 104.603 925.927 Q102.797 922.362 99.1632 922.362 M99.1632 918.658 Q104.973 918.658 108.029 923.265 Q111.108 927.848 111.108 936.598 Q111.108 945.325 108.029 949.931 Q104.973 954.515 99.1632 954.515 Q93.353 954.515 90.2743 949.931 Q87.2188 945.325 87.2188 936.598 Q87.2188 927.848 90.2743 923.265 Q93.353 918.658 99.1632 918.658 Z" fill="#000000" fill-rule="evenodd" fill-opacity="1" /><path clip-path="url(#clip200)" d="M94.7882 610.473 L111.108 610.473 L111.108 614.409 L89.1632 614.409 L89.1632 610.473 Q91.8252 607.719 96.4085 603.089 Q101.015 598.436 102.196 597.094 Q104.441 594.571 105.321 592.835 Q106.223 591.075 106.223 589.386 Q106.223 586.631 104.279 584.895 Q102.358 583.159 99.2558 583.159 Q97.0567 583.159 94.603 583.923 Q92.1725 584.686 89.3947 586.237 L89.3947 581.515 Q92.2188 580.381 94.6724 579.802 Q97.1261 579.224 99.1632 579.224 Q104.534 579.224 107.728 581.909 Q110.922 584.594 110.922 589.085 Q110.922 591.214 110.112 593.136 Q109.325 595.034 107.219 597.626 Q106.64 598.298 103.538 601.515 Q100.436 604.71 94.7882 610.473 Z" fill="#000000" fill-rule="evenodd" fill-opacity="1" /><path clip-path="url(#clip200)" d="M101.524 244.488 L89.7188 262.937 L101.524 262.937 L101.524 244.488 M100.297 240.414 L106.177 240.414 L106.177 262.937 L111.108 262.937 L111.108 266.826 L106.177 266.826 L106.177 274.974 L101.524 274.974 L101.524 266.826 L85.9225 266.826 L85.9225 262.312 L100.297 240.414 Z" fill="#000000" fill-rule="evenodd" fill-opacity="1" /><polyline clip-path="url(#clip202)" style="stroke:#009af9; stroke-linecap:butt; stroke-linejoin:round; stroke-width:4; stroke-opacity:1; fill:none" points="
  209.532,937.826 210.549,940.177 211.566,934.228 212.583,929.841 213.6,937.568 214.617,928.452 215.634,930.703 216.651,925.875 217.668,923.161 218.685,924.082 
  219.702,960.917 220.719,914.696 221.736,925.551 222.753,930.015 223.77,928.035 224.787,942.348 225.804,927.409 226.821,939.057 227.838,938.718 228.855,925.991 
  229.872,934.25 230.889,925.739 231.906,939.545 232.923,925.044 233.94,926.936 234.957,918.917 235.974,934.546 236.991,943.993 238.008,945.409 239.025,939.042 
  240.042,953.125 241.059,922.257 242.076,920.868 243.093,940.307 244.11,927.324 245.127,943.936 246.144,935.009 247.161,929.235 248.178,924.322 249.195,927.616 
  250.212,931.63 251.229,936.911 252.246,921.543 253.263,929.986 254.28,940.444 255.297,925.89 256.314,926.78 257.331,937.781 258.348,940.113 259.365,923.053 
  260.382,950.412 261.399,922.828 262.416,949.025 263.433,941.508 264.45,927.354 265.467,938.607 266.484,926.152 267.501,936.196 268.518,913.094 269.535,940.969 
  270.552,942.194 271.569,945.02 272.586,923.846 273.603,935.108 274.62,938.609 275.637,954.136 276.654,938.028 277.671,932.33 278.688,941.413 279.705,942.103 
  280.722,945.449 281.739,939.445 282.756,954.292 283.773,943.605 284.79,943.562 285.807,950.493 286.824,931.215 287.841,933.365 288.858,932.651 289.875,950.288 
  290.892,938.798 291.909,943.69 292.926,934.393 293.943,943.02 294.96,947.077 295.977,932.9 296.994,931.11 298.011,951.854 299.028,936.217 300.045,953.672 
  301.062,946.628 302.079,937.888 303.096,942.359 304.113,924.225 305.13,927.038 306.147,926.197 307.164,945.563 308.181,935.016 309.198,932.671 310.215,938.446 
  311.232,933.864 312.249,916.736 313.266,940.002 314.283,915.434 315.3,923.141 316.317,934.741 317.335,924.697 318.352,914.429 319.369,929.926 320.386,921.187 
  321.403,942.242 322.42,937.428 323.437,916.566 324.454,914.999 325.471,913.194 326.488,916.698 327.505,926.68 328.522,918.424 329.539,903.558 330.556,915.146 
  331.573,923.028 332.59,935.249 333.607,929.845 334.624,918.351 335.641,920.995 336.658,922.343 337.675,914.033 338.692,919.673 339.709,914.822 340.726,926.201 
  341.743,923.04 342.76,931.294 343.777,920.407 344.794,926.93 345.811,895.769 346.828,932.107 347.845,922.962 348.862,916.403 349.879,925.542 350.896,915.315 
  351.913,947.059 352.93,923.758 353.947,933.37 354.964,925.491 355.981,931.608 356.998,944.316 358.015,942.235 359.032,937.309 360.049,936.787 361.066,936.048 
  362.083,951.346 363.1,944.326 364.117,958.247 365.134,958.82 366.151,951.086 367.168,953.067 368.185,941.123 369.202,943.983 370.219,954.449 371.236,965.377 
  372.253,955.588 373.27,972.121 374.287,966.744 375.304,961.062 376.321,970.351 377.338,974.06 378.355,960.257 379.372,957.483 380.389,970.52 381.406,962.954 
  382.423,968.542 383.44,981.949 384.457,984.666 385.474,970.189 386.491,969.36 387.508,967.667 388.525,962.839 389.542,960.986 390.559,954.436 391.576,940.526 
  392.593,947.095 393.61,928.125 394.627,938.29 395.644,927.817 396.661,911.519 397.678,912.691 398.695,904.313 399.712,907.862 400.729,900.056 401.746,909.545 
  402.763,899.767 403.78,880.2 404.797,876.553 405.814,868.755 406.831,854.811 407.848,864.416 408.865,840.513 409.882,835.957 410.899,836.847 411.916,799.735 
  412.933,809.184 413.95,803.308 414.967,778.816 415.984,764.947 417.001,758.759 418.018,408.696 419.035,404.61 420.052,381.192 421.069,379.981 422.086,358.847 
  423.103,357.688 424.12,354.082 425.137,340.048 426.154,339.369 427.171,308.706 428.188,305.873 429.205,294.57 430.223,290.128 431.24,295.045 432.257,282.286 
  433.274,270.99 434.291,282.203 435.308,272.268 436.325,246.154 437.342,241.029 438.359,246.726 439.376,252.88 440.393,238.43 441.41,227.771 442.427,215.915 
  443.444,217.132 444.461,223.407 445.478,225.026 446.495,211.254 447.512,216.239 448.529,212.089 449.546,221.051 450.563,246.361 451.58,214.064 452.597,238.038 
  453.614,234.92 454.631,228.187 455.648,250.181 456.665,218.499 457.682,250.663 458.699,252.098 459.716,276.262 460.733,269.604 461.75,273.766 462.767,301.227 
  463.784,298.481 464.801,316.134 465.818,314.362 466.835,337.447 467.852,335.15 468.869,351.353 469.886,349.995 470.903,372.799 471.92,378.054 472.937,414.98 
  473.954,414.399 474.971,421.372 475.988,424.36 477.005,447.646 478.022,457.872 479.039,483.973 480.056,476.485 481.073,914.568 482.09,930.263 483.107,937.443 
  484.124,934.861 485.141,950.31 486.158,963.617 487.175,980.389 488.192,993.638 489.209,1007.39 490.226,996.042 491.243,1019.9 492.26,1007.61 493.277,1028.87 
  494.294,1032.65 495.311,1035.73 496.328,1051.25 497.345,1046.36 498.362,1044.91 499.379,1054.95 500.396,1059.41 501.413,1054.9 502.43,1069.65 503.447,1078.97 
  504.464,1071.22 505.481,1084.5 506.498,1073.62 507.515,1077.62 508.532,1080.6 509.549,1065.98 510.566,1066.85 511.583,1069.61 512.6,1068.02 513.617,1052.85 
  514.634,1065.21 515.651,1061.01 516.668,1044.63 517.685,1044.6 518.702,1037.71 519.719,1037.21 520.736,1025.89 521.753,1029.36 522.77,750.141 523.787,758.963 
  524.804,759.143 525.821,734.18 526.838,726.414 527.855,735.76 528.872,726.123 529.889,698.867 530.906,693.654 531.923,678.083 532.94,685.214 533.957,673.54 
  534.974,670.424 535.991,678.838 537.008,637.862 538.025,637.313 539.042,635.592 540.059,637.899 541.076,620.843 542.093,598.755 543.11,609.386 544.128,611.831 
  545.145,596.835 546.162,602.765 547.179,583.765 548.196,583.063 549.213,583.144 550.23,564.2 551.247,571.009 552.264,545.702 553.281,571.717 554.298,550.077 
  555.315,546.535 556.332,558.123 557.349,563.097 558.366,565.529 559.383,547.031 560.4,548.17 561.417,555.269 562.434,557.653 563.451,549.886 564.468,548.027 
  565.485,540.708 566.502,557.326 567.519,556.819 568.536,536.737 569.553,548.327 570.57,545.214 571.587,546.414 572.604,569.124 573.621,558.326 574.638,564.097 
  575.655,544.002 576.672,561.032 577.689,554.811 578.706,569.817 579.723,579.016 580.74,573.276 581.757,587.406 582.774,592.866 583.791,579.096 584.808,599.239 
  585.825,588.607 586.842,598.097 587.859,594.358 588.876,599.566 589.893,608.629 590.91,613.95 591.927,620.702 592.944,614.992 593.961,611.594 594.978,614.776 
  595.995,606.041 597.012,646.359 598.029,630.609 599.046,634.659 600.063,632.584 601.08,631.729 602.097,642.478 603.114,623.604 604.131,640.67 605.148,630.753 
  606.165,640.272 607.182,620.776 608.199,634.821 609.216,626.291 610.233,642.474 611.25,610.472 612.267,633.712 613.284,617.479 614.301,616.036 615.318,608.467 
  616.335,627.182 617.352,597.967 618.369,607.725 619.386,629.862 620.403,603.81 621.42,595.643 622.437,605.303 623.454,591.15 624.471,591.932 625.488,606.063 
  626.505,587.768 627.522,582.397 628.539,578.801 629.556,585.135 630.573,570.357 631.59,572.303 632.607,572.017 633.624,559.771 634.641,552.459 635.658,555.17 
  636.675,549.24 637.692,552.461 638.709,540.721 639.726,549.678 640.743,554.544 641.76,541.441 642.777,528.694 643.794,545.57 644.811,554.964 645.828,543.47 
  646.845,546.258 647.862,565.2 648.879,552.765 649.896,551.359 650.913,557.714 651.93,533.704 652.947,552.232 653.964,538.3 654.981,555.688 655.998,557.7 
  657.015,557.833 658.033,572.139 659.05,589.057 660.067,576.918 661.084,602.198 662.101,616.314 663.118,601.722 664.135,602.08 665.152,596.566 666.169,604.001 
  667.186,626.442 668.203,638.307 669.22,650.984 670.237,655.398 671.254,623.9 672.271,662.68 673.288,673.417 674.305,693.869 675.322,702.203 676.339,697.098 
  677.356,705.481 678.373,717.929 679.39,725.995 680.407,719.646 681.424,742.362 682.441,763.594 683.458,792.253 684.475,764.251 685.492,781.631 686.509,784.992 
  687.526,785.31 688.543,1151.69 689.56,1150.69 690.577,1165.77 691.594,1171.08 692.611,1183.49 693.628,1173.51 694.645,1200.29 695.662,1185.87 696.679,1203.07 
  697.696,1207.89 698.713,1223.45 699.73,1205.08 700.747,1199.07 701.764,1220.63 702.781,1226.53 703.798,1225.65 704.815,1218.3 705.832,1229.56 706.849,1220.41 
  707.866,1204.38 708.883,1219.87 709.9,1229 710.917,1219.78 711.934,1218.74 712.951,1205.27 713.968,1204.22 714.985,1203.29 716.002,1197.05 717.019,1193.5 
  718.036,1184.64 719.053,1179.78 720.07,1163.76 721.087,1169.46 722.104,1152.36 723.121,1149.53 724.138,1139.08 725.155,1129.01 726.172,1141.29 727.189,1115.91 
  728.206,1095.94 729.223,1099.86 730.24,663.804 731.257,648.53 732.274,648.832 733.291,632.387 734.308,623.312 735.325,625.954 736.342,594.094 737.359,598.482 
  738.376,566.614 739.393,563.399 740.41,567.287 741.427,557.133 742.444,532.572 743.461,519.856 744.478,531.061 745.495,522.043 746.512,501.079 747.529,475.583 
  748.546,476.245 749.563,485.853 750.58,476.608 751.597,445.542 752.614,454.903 753.631,442.17 754.648,437.328 755.665,411.657 756.682,415.518 757.699,415.748 
  758.716,401.145 759.733,410.806 760.75,415.826 761.767,400.225 762.784,387.451 763.801,384.657 764.818,382.219 765.835,386.708 766.852,383.551 767.869,381.393 
  768.886,377.595 769.903,383.941 770.921,371.274 771.938,387.406 772.955,380.745 773.972,375.546 774.989,376.419 776.006,397.797 777.023,391.076 778.04,389.26 
  779.057,385.698 780.074,372.279 781.091,388.944 782.108,402.536 783.125,397.487 784.142,403.016 785.159,397.011 786.176,396.9 787.193,415.444 788.21,393.059 
  789.227,422.829 790.244,404.645 791.261,404.76 792.278,414.235 793.295,417.455 794.312,417.437 795.329,420.484 796.346,425.594 797.363,420.804 798.38,410.233 
  799.397,434.507 800.414,414.476 801.431,438.621 802.448,425.065 803.465,442.577 804.482,443.585 805.499,424.454 806.516,435.062 807.533,446.986 808.55,448.639 
  809.567,450.897 810.584,445.72 811.601,444.969 812.618,438.83 813.635,446.078 814.652,451.177 815.669,450.456 816.686,451.97 817.703,437.43 818.72,433.728 
  819.737,442.166 820.754,438.038 821.771,454.266 822.788,436.019 823.805,434.762 824.822,446.436 825.839,442.909 826.856,437.628 827.873,449.649 828.89,439.971 
  829.907,437.482 830.924,421.41 831.941,419.789 832.958,421.896 833.975,431.765 834.992,442.069 836.009,416.485 837.026,419.83 838.043,430.443 839.06,426.06 
  840.077,424.145 841.094,418.41 842.111,419.538 843.128,425.024 844.145,421.812 845.162,417.49 846.179,425.706 847.196,409.237 848.213,419.583 849.23,424.685 
  850.247,403.843 851.264,404.762 852.281,405.207 853.298,400.594 854.315,419.678 855.332,412.146 856.349,411.236 857.366,441.225 858.383,410.359 859.4,414.704 
  860.417,414.501 861.434,423.246 862.451,427.507 863.468,424.358 864.485,416.918 865.502,405.714 866.519,406.915 867.536,409.687 868.553,411.316 869.57,412.674 
  870.587,429.622 871.604,437.245 872.621,429.242 873.638,419.641 874.655,417.795 875.672,409.128 876.689,432.673 877.706,409.894 878.723,419.564 879.74,425.494 
  880.757,434.902 881.774,424.265 882.791,419.833 883.808,430.762 884.826,439.714 885.843,432.181 886.86,410.122 887.877,431.804 888.894,422.686 889.911,426.347 
  890.928,433.039 891.945,425.215 892.962,423.714 893.979,431.381 894.996,428.673 896.013,421.063 897.03,414.03 898.047,418.623 899.064,413.739 900.081,438.912 
  901.098,418.902 902.115,438.657 903.132,419.221 904.149,426.275 905.166,428.197 906.183,427.118 907.2,432.55 908.217,429.277 909.234,417.164 910.251,435.628 
  911.268,427.579 912.285,426.728 913.302,416.16 914.319,401.355 915.336,415.239 916.353,411.128 917.37,439.094 918.387,418.214 919.404,428.211 920.421,435.256 
  921.438,430.469 922.455,408.371 923.472,413.593 924.489,433.564 925.506,424.969 926.523,420.075 927.54,420.45 928.557,427.053 929.574,422.852 930.591,423.759 
  931.608,435.514 932.625,410.367 933.642,428.944 934.659,439.059 935.676,431.11 936.693,437.165 937.71,430.152 938.727,429.201 939.744,415.776 940.761,438.42 
  941.778,431.664 942.795,440.942 943.812,433.217 944.829,416.379 945.846,431.168 946.863,431.136 947.88,430.339 948.897,455.596 949.914,427.985 950.931,435.095 
  951.948,432.731 952.965,451.354 953.982,432.844 954.999,445.936 956.016,428.818 957.033,426.999 958.05,431.571 959.067,439.117 960.084,445.939 961.101,444.164 
  962.118,437.6 963.135,434.676 964.152,447.336 965.169,426.698 966.186,430.189 967.203,433.774 968.22,441.417 969.237,435.028 970.254,430.819 971.271,441.687 
  972.288,438.537 973.305,430.503 974.322,422.894 975.339,438.801 976.356,429.324 977.373,421.645 978.39,423.828 979.407,423.375 980.424,428.531 981.441,408.026 
  982.458,405.313 983.475,415.482 984.492,413.767 985.509,411.271 986.526,400.829 987.543,406.376 988.56,418.846 989.577,411.49 990.594,422.316 991.611,412.42 
  992.628,409.308 993.645,414.171 994.662,410.722 995.679,416.368 996.696,399.759 997.714,403.978 998.731,405.063 999.748,422.829 1000.76,401.094 1001.78,414.921 
  1002.8,405.523 1003.82,392.129 1004.83,413.439 1005.85,404.174 1006.87,407.263 1007.88,409.154 1008.9,417.957 1009.92,419.955 1010.93,421.668 1011.95,406.05 
  1012.97,419.057 1013.99,422.688 1015,441.687 1016.02,417.072 1017.04,434.681 1018.05,441.342 1019.07,434.02 1020.09,437.169 1021.1,460.183 1022.12,463.879 
  1023.14,464.983 1024.16,464.736 1025.17,473.048 1026.19,469.944 1027.21,481.76 1028.22,481.894 1029.24,501.659 1030.26,515.992 1031.27,517.325 1032.29,511.382 
  1033.31,521.121 1034.33,537.689 1035.34,543.714 1036.36,562.758 1037.38,563.984 1038.39,572.408 1039.41,588.987 1040.43,582.755 1041.44,595.534 1042.46,974.129 
  1043.48,975.866 1044.5,969.969 1045.51,991.1 1046.53,985.938 1047.55,994.479 1048.56,1023.72 1049.58,1019 1050.6,1023.56 1051.61,1027.19 1052.63,1033.9 
  1053.65,1049.88 1054.67,1079.61 1055.68,1075.2 1056.7,1073.33 1057.72,1092.82 1058.73,1098.61 1059.75,1107.66 1060.77,1110.29 1061.79,1099.29 1062.8,1120.46 
  1063.82,1137.82 1064.84,1115.55 1065.85,1131.57 1066.87,1146.54 1067.89,1144.37 1068.9,1152.53 1069.92,1170.31 1070.94,1164.61 1071.96,1162.09 1072.97,1169.71 
  1073.99,1163.29 1075.01,1178.38 1076.02,1170.86 1077.04,1188.39 1078.06,1171.68 1079.07,1168.69 1080.09,1181.49 1081.11,1182.57 1082.13,1189.7 1083.14,1173.26 
  1084.16,1188.31 1085.18,1165.15 1086.19,1194.24 1087.21,1182.86 1088.23,1178.99 1089.24,1172.79 1090.26,1185.99 1091.28,1172.54 1092.3,1171.37 1093.31,1165.67 
  1094.33,1160.95 1095.35,1162.08 1096.36,1154.63 1097.38,1161.7 1098.4,1150.76 1099.41,1147.79 1100.43,1139.52 1101.45,1150.71 1102.47,1138.04 1103.48,1144.91 
  1104.5,1130.44 1105.52,1143.32 1106.53,1115.58 1107.55,1127.87 1108.57,1117.53 1109.58,1115.71 1110.6,1110.44 1111.62,1099.1 1112.64,1104.72 1113.65,1105.82 
  1114.67,1094.82 1115.69,1083.19 1116.7,1072.5 1117.72,1091.78 1118.74,1064.46 1119.75,1063.22 1120.77,1077.15 1121.79,1058.93 1122.81,1056.95 1123.82,1050.77 
  1124.84,1040.88 1125.86,861.722 1126.87,850.448 1127.89,843.41 1128.91,848.511 1129.92,854.462 1130.94,829.614 1131.96,838.441 1132.98,831.645 1133.99,817.524 
  1135.01,812.827 1136.03,801.743 1137.04,817.77 1138.06,828.401 1139.08,811.6 1140.09,816.361 1141.11,800.925 1142.13,809.017 1143.15,813.353 1144.16,809.933 
  1145.18,795.018 1146.2,802.737 1147.21,793.226 1148.23,779.513 1149.25,785.299 1150.26,794.464 1151.28,769.559 1152.3,785.816 1153.32,787.653 1154.33,797.114 
  1155.35,771.749 1156.37,766.153 1157.38,765.749 1158.4,787.061 1159.42,770.253 1160.43,788.121 1161.45,768.9 1162.47,785.76 1163.49,775.729 1164.5,775.123 
  1165.52,780.788 1166.54,768.567 1167.55,772.818 1168.57,770.63 1169.59,770.582 1170.61,761.399 1171.62,776.213 1172.64,772.525 1173.66,779.322 1174.67,764.956 
  1175.69,775.762 1176.71,767.931 1177.72,777.581 1178.74,758.785 1179.76,784.181 1180.78,784.031 1181.79,780.956 1182.81,783.236 1183.83,804.053 1184.84,780.743 
  1185.86,804.108 1186.88,770.377 1187.89,785.681 1188.91,779.771 1189.93,776.15 1190.95,785.254 1191.96,775.885 1192.98,786.928 1194,791.269 1195.01,782.694 
  1196.03,762.214 1197.05,788.566 1198.06,796.276 1199.08,775.81 1200.1,770.547 1201.12,794.428 1202.13,779.012 1203.15,784.638 1204.17,776.178 1205.18,798.024 
  1206.2,773.124 1207.22,773.662 1208.23,789.182 1209.25,778 1210.27,773.907 1211.29,774.768 1212.3,774.766 1213.32,795.414 1214.34,772.707 1215.35,787.295 
  1216.37,771.959 1217.39,789.525 1218.4,780.952 1219.42,796 1220.44,782.188 1221.46,778.565 1222.47,780.164 1223.49,775.198 1224.51,775.807 1225.52,772.776 
  1226.54,776.652 1227.56,780.505 1228.57,770.315 1229.59,782.083 1230.61,788.921 1231.63,772.549 1232.64,781.735 1233.66,780.806 1234.68,776.664 1235.69,765.792 
  1236.71,781.698 1237.73,792.411 1238.74,777.178 1239.76,768.723 1240.78,773.572 1241.8,763.69 1242.81,779.081 1243.83,775.705 1244.85,777.198 1245.86,784.523 
  1246.88,783.224 1247.9,790.16 1248.91,768.369 1249.93,789.273 1250.95,780.926 1251.97,779.591 1252.98,773.298 1254,795.743 1255.02,783.216 1256.03,779.079 
  1257.05,773.032 1258.07,785.024 1259.08,780.957 1260.1,774.919 1261.12,777.968 1262.14,763.378 1263.15,773.246 1264.17,788.419 1265.19,767.728 1266.2,772.497 
  1267.22,786.847 1268.24,784.518 1269.25,782.825 1270.27,787.4 1271.29,774.43 1272.31,779.711 1273.32,776.648 1274.34,783.141 1275.36,772.045 1276.37,798.03 
  1277.39,796.989 1278.41,788.131 1279.42,780.584 1280.44,783.497 1281.46,785.542 1282.48,770.056 1283.49,791.245 1284.51,789.218 1285.53,782.427 1286.54,765.719 
  1287.56,787.2 1288.58,780.659 1289.6,784.397 1290.61,779.032 1291.63,790.519 1292.65,781.281 1293.66,780.41 1294.68,776.338 1295.7,794.199 1296.71,787.702 
  1297.73,779.511 1298.75,777.218 1299.77,770.573 1300.78,788.044 1301.8,782.381 1302.82,770.336 1303.83,766.503 1304.85,777.779 1305.87,797.921 1306.88,787.477 
  1307.9,801.907 1308.92,807.249 1309.94,779.596 1310.95,790.147 1311.97,770.476 1312.99,769.45 1314,803.269 1315.02,798.254 1316.04,781.052 1317.05,781.159 
  1318.07,804.112 1319.09,770.348 1320.11,796.508 1321.12,788.971 1322.14,772.816 1323.16,783.415 1324.17,788.286 1325.19,763.466 1326.21,797.001 1327.22,789.159 
  1328.24,800.035 1329.26,788.482 1330.28,778.744 1331.29,790.694 1332.31,784.409 1333.33,777.477 1334.34,799.465 1335.36,778.762 1336.38,780.172 1337.39,783.857 
  1338.41,797.824 1339.43,786.488 1340.45,799.758 1341.46,801.403 1342.48,779.987 1343.5,782.514 1344.51,790.328 1345.53,786.532 1346.55,794.062 1347.56,797.082 
  1348.58,793.412 1349.6,798.268 1350.62,795.205 1351.63,766.353 1352.65,773.165 1353.67,780.173 1354.68,785.74 1355.7,776.997 1356.72,780.208 1357.73,783.252 
  1358.75,794.909 1359.77,785.203 1360.79,794.02 1361.8,792.478 1362.82,788.362 1363.84,782.611 1364.85,772.777 1365.87,780.162 1366.89,786.682 1367.9,788.323 
  1368.92,792.834 1369.94,772.07 1370.96,789.253 1371.97,787.888 1372.99,779.552 1374.01,789.31 1375.02,790.715 1376.04,788.166 1377.06,782.169 1378.07,789.867 
  1379.09,786.097 1380.11,778.481 1381.13,786.193 1382.14,780.356 1383.16,782.936 1384.18,779.209 1385.19,781.341 1386.21,765.235 1387.23,786.532 1388.24,774.457 
  1389.26,770.278 1390.28,773.545 1391.3,770.638 1392.31,797.55 1393.33,779.562 1394.35,763.656 1395.36,785.628 1396.38,770.554 1397.4,789.084 1398.42,780.759 
  1399.43,779.863 1400.45,788.241 1401.47,785.835 1402.48,786.483 1403.5,781.967 1404.52,769.13 1405.53,782.138 1406.55,769.455 1407.57,786.869 1408.59,771.456 
  1409.6,790.01 1410.62,798.354 1411.64,778.679 1412.65,795.022 1413.67,772.122 1414.69,782.059 1415.7,788.297 1416.72,779.587 1417.74,777.695 1418.76,784.8 
  1419.77,781.397 1420.79,791.005 1421.81,785.552 1422.82,794.223 1423.84,780.985 1424.86,799.316 1425.87,794.626 1426.89,793.397 1427.91,786.673 1428.93,785.106 
  1429.94,794.43 1430.96,793.03 1431.98,797.649 1432.99,789.338 1434.01,791.094 1435.03,797.808 1436.04,798.718 1437.06,788.196 1438.08,790.013 1439.1,795.095 
  1440.11,781.881 1441.13,789.968 1442.15,785.409 1443.16,779.947 1444.18,804.996 1445.2,789.834 1446.21,794.053 1447.23,779.416 1448.25,784.491 1449.27,782.682 
  1450.28,796.005 1451.3,779.147 1452.32,783.815 1453.33,785.864 1454.35,783.005 1455.37,779.365 1456.38,779.641 1457.4,785.722 1458.42,773.339 1459.44,768.949 
  1460.45,781.057 1461.47,776.901 1462.49,780.083 1463.5,784.377 1464.52,773.043 1465.54,763.643 1466.55,774.361 1467.57,767.282 1468.59,793.699 1469.61,775.813 
  1470.62,771.598 1471.64,768.446 1472.66,774.218 1473.67,770.418 1474.69,766.828 1475.71,760.129 1476.72,772.036 1477.74,774.329 1478.76,772.129 1479.78,774.762 
  1480.79,757.117 1481.81,763.214 1482.83,778.698 1483.84,749.234 1484.86,760.954 1485.88,767.873 1486.89,778.415 1487.91,769.815 1488.93,775.438 1489.95,772.211 
  1490.96,766.595 1491.98,790.235 1493,769.676 1494.01,782.043 1495.03,778.257 1496.05,778.252 1497.06,782.551 1498.08,802.956 1499.1,799.344 1500.12,786.727 
  1501.13,795.514 1502.15,787.404 1503.17,792.328 1504.18,798.287 1505.2,804.2 1506.22,800.322 1507.23,803.686 1508.25,801.338 1509.27,801.624 1510.29,805.017 
  1511.3,823.725 1512.32,801.786 1513.34,817.808 1514.35,832.432 1515.37,827.613 1516.39,820.075 1517.41,832.407 1518.42,820.09 1519.44,814.215 1520.46,804.89 
  1521.47,815.311 1522.49,811.644 1523.51,817.496 1524.52,798.798 1525.54,804.627 1526.56,801.222 1527.58,810.87 1528.59,804.194 1529.61,801.944 1530.63,795.125 
  1531.64,799.419 1532.66,793.056 1533.68,784.557 1534.69,790.22 1535.71,771.28 1536.73,784.77 1537.75,772.938 1538.76,767.009 1539.78,752.883 1540.8,765.602 
  1541.81,731.649 1542.83,741.219 1543.85,743.268 1544.86,734.829 1545.88,753.619 1546.9,727.926 1547.92,733.349 1548.93,707.061 1549.95,709.149 1550.97,684.3 
  1551.98,698.394 1553,676.037 1554.02,680.627 1555.03,667.661 1556.05,656.967 1557.07,661.823 1558.09,637.739 1559.1,635.654 1560.12,624.144 1561.14,616.472 
  1562.15,599.345 1563.17,234.861 1564.19,225.089 1565.2,216.197 1566.22,218.924 1567.24,197.296 1568.26,203.507 1569.27,190.739 1570.29,165.332 1571.31,158.88 
  1572.32,157.813 1573.34,145.836 1574.36,138.66 1575.37,142.036 1576.39,132.135 1577.41,118.054 1578.43,127.232 1579.44,116.469 1580.46,103.345 1581.48,91.3745 
  1582.49,84.8966 1583.51,85.5374 1584.53,81.0104 1585.54,76.3282 1586.56,63.8508 1587.58,68.7956 1588.6,71.6911 1589.61,59.0161 1590.63,40.3398 1591.65,46.3537 
  1592.66,37.6795 1593.68,39.9187 1594.7,48.093 1595.71,40.935 1596.73,42.667 1597.75,36.6715 1598.77,29.1472 1599.78,28.9443 1600.8,30.042 1601.82,23.2958 
  1602.83,6.07764 1603.85,37.1298 1604.87,47.821 1605.88,28.3236 1606.9,28.4573 1607.92,16.4048 1608.94,25.5563 1609.95,20.4892 1610.97,31.5637 1611.99,30.9381 
  1613,24.6616 1614.02,32.2152 1615.04,33.1434 1616.05,71.2255 1617.07,47.8412 1618.09,36.4598 1619.11,25.5219 1620.12,17.8172 1621.14,50.6904 1622.16,44.1203 
  1623.17,42.2566 1624.19,53.2676 1625.21,51.2776 1626.23,52.7311 1627.24,52.8978 1628.26,47.8361 1629.28,74.2061 1630.29,60.7924 1631.31,65.6708 1632.33,47.8295 
  1633.34,74.61 1634.36,61.4274 1635.38,65.2662 1636.4,72.0357 1637.41,71.0997 1638.43,68.5907 1639.45,68.0094 1640.46,80.5211 1641.48,59.7142 1642.5,62.785 
  1643.51,65.8498 1644.53,51.3964 1645.55,54.4293 1646.57,66.6224 1647.58,75.2565 1648.6,35.425 1649.62,66.7812 1650.63,79.149 1651.65,63.5485 1652.67,62.7475 
  1653.68,65.377 1654.7,72.2773 1655.72,50.1259 1656.74,60.9563 1657.75,60.8591 1658.77,56.131 1659.79,64.9612 1660.8,74.5813 1661.82,58.7856 1662.84,53.148 
  1663.85,67.7504 1664.87,55.5253 1665.89,53.2505 1666.91,34.9089 1667.92,48.5595 1668.94,60.8499 1669.96,57.0119 1670.97,40.3769 1671.99,40.021 1673.01,53.5319 
  1674.02,54.4849 1675.04,50.5858 1676.06,55.2255 1677.08,50.4198 1678.09,49.5751 1679.11,40.4161 1680.13,66.999 1681.14,42.132 1682.16,56.6632 1683.18,40.8608 
  1684.19,39.7809 1685.21,72.9133 1686.23,58.7968 1687.25,43.2204 1688.26,45.8435 1689.28,44.634 1690.3,58.2873 1691.31,54.6738 1692.33,64.673 1693.35,41.7417 
  1694.36,42.2752 1695.38,44.2147 1696.4,58.9988 1697.42,56.8386 1698.43,57.9925 1699.45,60.6067 1700.47,50.9002 1701.48,44.7694 1702.5,58.0637 1703.52,51.1147 
  1704.53,68.4559 1705.55,45.7177 1706.57,60.5542 1707.59,50.4655 1708.6,63.6332 1709.62,63.5276 1710.64,60.6925 1711.65,66.0914 1712.67,65.6156 1713.69,52.4523 
  1714.7,71.628 1715.72,53.6384 1716.74,65.5496 1717.76,42.9424 1718.77,57.5144 1719.79,60.8187 1720.81,44.4146 1721.82,61.4612 1722.84,66.593 1723.86,58.2411 
  1724.87,48.4043 1725.89,50.1403 1726.91,39.1926 1727.93,36.2023 1728.94,51.8105 1729.96,52.0101 1730.98,51.1706 1731.99,57.2793 1733.01,44.9085 1734.03,36.8448 
  1735.05,35.3735 1736.06,27.0649 1737.08,31.7131 1738.1,33.4471 1739.11,40.6867 1740.13,27.5288 1741.15,30.1788 1742.16,20.0817 1743.18,28.5819 1744.2,24.0374 
  1745.22,40.9585 1746.23,32.2978 1747.25,22.347 1748.27,28.108 1749.28,21.4202 1750.3,23.5603 1751.32,15.7445 1752.33,28.2032 1753.35,23.4141 1754.37,17.7183 
  1755.39,20.3884 1756.4,33.7683 1757.42,34.1162 1758.44,39.0003 1759.45,35.3435 1760.47,41.4401 1761.49,53.7596 1762.5,45.8885 1763.52,41.0091 1764.54,49.9508 
  1765.56,65.2485 1766.57,76.5889 1767.59,64.3145 1768.61,61.7064 1769.62,73.1974 1770.64,75.1385 1771.66,86.3029 1772.67,65.1004 1773.69,96.9715 1774.71,106.143 
  1775.73,85.6813 1776.74,94.4198 1777.76,116.034 1778.78,118.236 1779.79,133.909 1780.81,123.592 1781.83,139.617 1782.84,163.648 1783.86,155.471 1784.88,151.407 
  1785.9,175.872 1786.91,170.844 1787.93,177.751 1788.95,185.661 1789.96,198.846 1790.98,190.029 1792,472.465 1793.01,476.616 1794.03,496.014 1795.05,493.342 
  1796.07,513.98 1797.08,525.545 1798.1,506.425 1799.12,520.72 1800.13,537.036 1801.15,521.443 1802.17,534.067 1803.18,535.744 1804.2,532.284 1805.22,539.134 
  1806.24,549.106 1807.25,563.26 1808.27,551.675 1809.29,546.981 1810.3,554.923 1811.32,553.041 1812.34,551.052 1813.35,558.781 1814.37,562.411 1815.39,570.366 
  1816.41,556.144 1817.42,564.438 1818.44,542.073 1819.46,574.322 1820.47,561.327 1821.49,556.122 1822.51,555.751 1823.52,543.554 1824.54,547.934 1825.56,542.204 
  1826.58,543.68 1827.59,528.832 1828.61,526.879 1829.63,525.388 1830.64,506.627 1831.66,506.866 1832.68,499.047 1833.69,318.037 1834.71,316.216 1835.73,303.071 
  1836.75,308.993 1837.76,309.852 1838.78,293.597 1839.8,282.882 1840.81,274.719 1841.83,270.573 1842.85,260.164 1843.86,254.359 1844.88,266.963 1845.9,252.22 
  1846.92,244.846 1847.93,245.514 1848.95,234.32 1849.97,230.483 1850.98,218.246 1852,199.728 1853.02,202.344 1854.04,215.337 1855.05,210.624 1856.07,205.55 
  1857.09,207.952 1858.1,206.824 1859.12,198.731 1860.14,201.016 1861.15,203.008 1862.17,186.823 1863.19,205.488 1864.21,210.403 1865.22,190.109 1866.24,202.51 
  1867.26,213.161 1868.27,201.335 1869.29,200.407 1870.31,208.382 1871.32,205.002 1872.34,214.958 1873.36,219.503 1874.38,239.053 1875.39,223.942 1876.41,239.889 
  1877.43,241.962 1878.44,237.483 1879.46,248.039 1880.48,266.898 1881.49,271.887 1882.51,274.386 1883.53,281.686 1884.55,297.912 1885.56,295.439 1886.58,300.208 
  1887.6,325.311 1888.61,327.741 1889.63,329.271 1890.65,333.855 1891.66,362.144 1892.68,365.05 1893.7,370.962 1894.72,387.629 1895.73,389.451 1896.75,762.156 
  1897.77,747.4 1898.78,762.082 1899.8,772.738 1900.82,787.74 1901.83,797.087 1902.85,832.796 1903.87,809.373 1904.89,832.643 1905.9,846.545 1906.92,849.001 
  1907.94,850 1908.95,873.768 1909.97,875.228 1910.99,873.889 1912,900.097 1913.02,890.326 1914.04,907.274 1915.06,909.319 1916.07,890.266 1917.09,915.566 
  1918.11,913.965 1919.12,929.476 1920.14,947.142 1921.16,933.162 1922.17,939.293 1923.19,950.059 1924.21,956.698 1925.23,944.96 1926.24,942.817 1927.26,959.418 
  1928.28,947.395 1929.29,962.506 1930.31,949.272 1931.33,972.539 1932.34,959.12 1933.36,960.854 1934.38,956.118 1935.4,971.374 1936.41,984.581 1937.43,967.207 
  1938.45,975.589 1939.46,960.923 1940.48,966.306 1941.5,961.861 1942.51,965.748 1943.53,964.519 1944.55,951.77 1945.57,969.883 1946.58,949.347 1947.6,965.28 
  1948.62,961.115 1949.63,945.084 1950.65,942.16 1951.67,958.057 1952.68,957.91 1953.7,945.901 1954.72,943.811 1955.74,949.201 1956.75,950.079 1957.77,935.992 
  1958.79,951.831 1959.8,946.614 1960.82,940.649 1961.84,956.138 1962.86,926.413 1963.87,921.969 1964.89,938.918 1965.91,929.453 1966.92,932.673 1967.94,927.837 
  1968.96,937.276 1969.97,944.659 1970.99,924.092 1972.01,932.577 1973.03,930.863 1974.04,915.58 1975.06,925.916 1976.08,917.764 1977.09,922.474 1978.11,923.384 
  1979.13,921.031 1980.14,929.732 1981.16,915.984 1982.18,917.766 1983.2,931.225 1984.21,935.945 1985.23,934.998 1986.25,928.299 1987.26,919.526 1988.28,926.682 
  1989.3,931.237 1990.31,911.265 1991.33,934.669 1992.35,936.762 1993.37,941.123 1994.38,932.247 1995.4,934.47 1996.42,940.484 1997.43,938.84 1998.45,946.634 
  1999.47,935.876 2000.48,935.634 2001.5,944.608 2002.52,948.563 2003.54,950.131 2004.55,934.634 2005.57,941.998 2006.59,926.533 2007.6,944.191 2008.62,940.994 
  2009.64,946.362 2010.65,940.048 2011.67,930.066 2012.69,946.874 2013.71,944.572 2014.72,945.367 2015.74,934.809 2016.76,929.354 2017.77,951.646 2018.79,942.683 
  2019.81,941.268 2020.82,941.876 2021.84,955.538 2022.86,949.888 2023.88,943.787 2024.89,933.318 2025.91,956.969 2026.93,934.699 2027.94,943.938 2028.96,943.397 
  2029.98,944.494 2030.99,932.915 2032.01,943.616 2033.03,942.6 2034.05,941.602 2035.06,945.372 2036.08,936.877 2037.1,928.871 2038.11,946.625 2039.13,939.081 
  2040.15,953.109 2041.16,931.422 2042.18,934.578 2043.2,933.015 2044.22,923.951 2045.23,943.17 2046.25,942.895 2047.27,941.675 2048.28,962.384 2049.3,942.653 
  2050.32,925.535 2051.33,949.535 2052.35,931.43 2053.37,937.908 2054.39,946.87 2055.4,943.861 2056.42,941.87 2057.44,913.81 2058.45,942.153 2059.47,932.636 
  2060.49,927.457 2061.5,929.753 2062.52,934.041 2063.54,938.914 2064.56,939.924 2065.57,947.932 2066.59,916.908 2067.61,937.116 2068.62,947.809 2069.64,940.301 
  2070.66,935.09 2071.67,934.395 2072.69,932.888 2073.71,940.105 2074.73,934.701 2075.74,929.419 2076.76,936.484 2077.78,927.382 2078.79,944 2079.81,943.105 
  2080.83,936.084 2081.85,945.748 2082.86,947.152 2083.88,928.53 2084.9,940.356 2085.91,939.3 2086.93,940.661 2087.95,953.524 2088.96,941.378 2089.98,949.104 
  2091,935.098 2092.02,941.557 2093.03,950.054 2094.05,934.859 2095.07,944.567 2096.08,937.974 2097.1,943.174 2098.12,943.699 2099.13,935.805 2100.15,934.937 
  2101.17,939.779 2102.19,942.161 2103.2,944.216 2104.22,932.283 2105.24,936.762 2106.25,932.775 2107.27,945.301 2108.29,952.749 2109.3,933.137 2110.32,949.733 
  2111.34,943.471 2112.36,941.874 2113.37,941.391 2114.39,944.85 2115.41,936.003 2116.42,948.489 2117.44,930.386 2118.46,943.983 2119.47,930.041 2120.49,951.008 
  2121.51,944.131 2122.53,923.578 2123.54,935.076 2124.56,950.236 2125.58,952.574 2126.59,930.879 2127.61,942.646 2128.63,939.202 2129.64,938.003 2130.66,946.863 
  2131.68,944.696 2132.7,927.086 2133.71,929.848 2134.73,951.835 2135.75,942.376 2136.76,945.79 2137.78,947.379 2138.8,940.667 2139.81,938.527 2140.83,935.604 
  2141.85,941.465 2142.87,941.504 2143.88,926.6 2144.9,951.128 2145.92,928.271 2146.93,940.248 2147.95,926.504 2148.97,943.71 2149.98,936.747 2151,941.133 
  2152.02,933.945 2153.04,933.473 2154.05,937.485 2155.07,940.07 2156.09,941.822 2157.1,940.4 2158.12,938.573 2159.14,940.915 2160.15,945.607 2161.17,935.99 
  2162.19,947.762 2163.21,922.514 2164.22,929.419 2165.24,923.917 2166.26,943.091 2167.27,943.322 2168.29,942.536 2169.31,933.254 2170.32,942.856 2171.34,943.321 
  2172.36,920.097 2173.38,939.209 2174.39,946.393 2175.41,933.95 2176.43,943.864 2177.44,937.656 2178.46,930.869 2179.48,936.265 2180.49,940.989 2181.51,942.911 
  2182.53,953.136 2183.55,941.642 2184.56,942.665 2185.58,935.352 2186.6,950.578 2187.61,936.062 2188.63,922.313 2189.65,946.451 2190.67,935.215 2191.68,956.249 
  2192.7,938.419 2193.72,959.815 2194.73,958.497 2195.75,951.792 2196.77,932.872 2197.78,938.936 2198.8,939.549 2199.82,936.001 2200.84,938.865 2201.85,935.948 
  2202.87,944.516 2203.89,957.579 2204.9,936.41 2205.92,945.211 2206.94,946.897 2207.95,942.687 2208.97,923.24 2209.99,948.284 2211.01,942.951 2212.02,943.417 
  2213.04,941.712 2214.06,932.861 2215.07,941.904 2216.09,934.535 2217.11,931.298 2218.12,937.19 2219.14,946.85 2220.16,932.189 2221.18,943.409 2222.19,941.862 
  2223.21,945.841 2224.23,917.926 2225.24,923.67 2226.26,939.598 2227.28,936.116 2228.29,933.765 2229.31,926.406 2230.33,933.441 2231.35,933.092 2232.36,940.054 
  2233.38,931.251 2234.4,928.139 2235.41,932.937 2236.43,941.336 2237.45,932.798 2238.46,944.78 2239.48,947.101 2240.5,934.959 2241.52,935.327 2242.53,935.4 
  2243.55,924.651 2244.57,948.501 2245.58,947.853 2246.6,925.686 2247.62,956.996 2248.63,941.237 2249.65,921.083 2250.67,925.329 2251.69,929.462 2252.7,935.416 
  2253.72,929.144 2254.74,929.072 2255.75,946.826 2256.77,934.928 2257.79,944.098 2258.8,946.056 2259.82,942.564 2260.84,941.315 2261.86,929.091 2262.87,930.353 
  2263.89,939.443 2264.91,940.979 2265.92,939.86 2266.94,944.087 2267.96,929.144 2268.97,943.084 2269.99,944.237 2271.01,945.382 2272.03,934.081 2273.04,939.311 
  2274.06,949.432 2275.08,947.473 2276.09,935.632 2277.11,954.648 2278.13,940.969 2279.14,941.275 2280.16,968.925 2281.18,958.264 2282.2,941.011 2283.21,937.929 
  2284.23,942.054 2285.25,945.675 2286.26,943.518 2287.28,942.297 2288.3,938.117 2289.31,938.305 2290.33,932.282 
  "/>
<polyline clip-path="url(#clip202)" style="stroke:#e26f46; stroke-linecap:butt; stroke-linejoin:round; stroke-width:4; stroke-opacity:1; fill:none" points="
  209.532,932.96 210.549,945.832 211.566,927.769 212.583,925.523 213.6,935.572 214.617,923.333 215.634,922.761 216.651,918.787 217.668,908.523 218.685,915.814 
  219.702,984.856 220.719,897.666 221.736,914.938 222.753,928.945 223.77,920.722 224.787,954.265 225.804,920.285 226.821,948.348 227.838,943.711 228.855,922.881 
  229.872,935.571 230.889,923.031 231.906,946.931 232.923,922.271 233.94,922.443 234.957,910.61 235.974,938.341 236.991,961.3 238.008,960.675 239.025,951.864 
  240.042,976.632 241.059,918.674 242.076,912.544 243.093,955.055 244.11,925.766 245.127,962.474 246.144,941.318 247.161,933.103 248.178,919.985 249.195,929.756 
  250.212,934.495 251.229,948.086 252.246,914.056 253.263,933.82 254.28,951.428 255.297,925.051 256.314,923.508 257.331,948.095 258.348,949.42 259.365,917.741 
  260.382,969.103 261.399,916.24 262.416,965.263 263.433,952.409 264.45,920.72 265.467,945.288 266.484,916.994 267.501,939.037 268.518,889.453 269.535,947.066 
  270.552,946.152 271.569,953.589 272.586,907.905 273.603,932.154 274.62,935.862 275.637,968.595 276.654,933.142 277.671,923.404 278.688,938.405 279.705,941.438 
  280.722,945.055 281.739,934.719 282.756,961.447 283.773,941.78 284.79,938.853 285.807,954.482 286.824,913.229 287.841,919.371 288.858,915.406 289.875,952.619 
  290.892,927.279 291.909,939.114 292.926,918.348 293.943,937.781 294.96,943.924 295.977,917.887 296.994,912.547 298.011,956.5 299.028,923.682 300.045,961.209 
  301.062,945.794 302.079,931.089 303.096,938.917 304.113,905.576 305.13,910.298 306.147,911.691 307.164,949.716 308.181,931.831 309.198,926.618 310.215,941.494 
  311.232,931.971 312.249,901.14 313.266,947.45 314.283,901.81 315.3,917.113 316.317,943.852 317.335,923.729 318.352,906.742 319.369,937.739 320.386,923.781 
  321.403,965.895 322.42,959.72 323.437,917.957 324.454,918.165 325.471,914.43 326.488,924.625 327.505,944.331 328.522,930.808 329.539,900.643 330.556,926.566 
  331.573,941.675 332.59,968.582 333.607,956.857 334.624,936.009 335.641,940.078 336.658,944.554 337.675,926.382 338.692,939.052 339.709,927.434 340.726,951.169 
  341.743,942.545 342.76,959.597 343.777,935.121 344.794,948.273 345.811,882.842 346.828,955.18 347.845,933.381 348.862,919.496 349.879,933.875 350.896,912.242 
  351.913,971.47 352.93,923.309 353.947,937.947 354.964,920.29 355.981,927.659 356.998,950.894 358.015,941.647 359.032,929.394 360.049,923.113 361.066,919.093 
  362.083,944.382 363.1,927.74 364.117,950.296 365.134,948.88 366.151,928.246 367.168,929.786 368.185,900.956 369.202,904.509 370.219,920.836 371.236,940.892 
  372.253,917.167 373.27,948.92 374.287,934.593 375.304,922.524 376.321,938.227 377.338,945.669 378.355,916.004 379.372,911.326 380.389,936.272 381.406,922.972 
  382.423,934.058 383.44,963.77 384.457,970.258 385.474,945.364 386.491,945.992 387.508,947.914 388.525,941.853 389.542,944.775 390.559,936.642 391.576,916.824 
  392.593,936.348 393.61,907.819 394.627,935.983 395.644,925.877 396.661,902.568 397.678,917.181 398.695,911.151 399.712,931.919 400.729,928.438 401.746,962.442 
  402.763,956.361 403.78,933.54 404.797,940.985 405.814,942.894 406.831,930.906 407.848,968.698 408.865,937.825 409.882,948.238 410.899,967.837 411.916,913.922 
  412.933,951.359 413.95,960.526 414.967,930.617 415.984,924.215 417.001,931.247 418.018,252.667 419.035,264.025 420.052,238.728 421.069,255.734 422.086,234.767 
  423.103,251.544 424.12,265.163 425.137,255.624 426.154,274.393 427.171,230.791 428.188,244.312 429.205,238.393 430.223,247.529 431.24,272.788 432.257,263.898 
  433.274,255.254 434.291,292.71 435.308,285.106 436.325,246.117 437.342,246.267 438.359,268.931 439.376,289.61 440.393,269.86 441.41,254.739 442.427,237.928 
  443.444,244.27 444.461,261.368 445.478,266.141 446.495,240.718 447.512,249.788 448.529,241.143 449.546,255.706 450.563,303.503 451.58,233.092 452.597,275.758 
  453.614,261.287 454.631,240.136 455.648,273.54 456.665,200.175 457.682,251.671 458.699,242.339 459.716,275.72 460.733,248.15 461.75,239.573 462.767,278.364 
  463.784,254.202 464.801,271.7 465.818,247.932 466.835,274.837 467.852,248.698 468.869,260.627 469.886,235.294 470.903,259.472 471.92,246.56 472.937,298.299 
  473.954,273.186 474.971,264.615 475.988,246.391 477.005,270.327 478.022,266.614 479.039,296.344 480.056,257.522 481.073,1111.66 482.09,1119.8 483.107,1112.85 
  484.124,1085.29 485.141,1095.85 486.158,1101.18 487.175,1115.61 488.192,1122.18 489.209,1132 490.226,1090.94 491.243,1122.64 492.26,1081.43 493.277,1109.76 
  494.294,1102.6 495.311,1096.53 496.328,1114.92 497.345,1094.99 498.362,1081.59 499.379,1093.73 500.396,1094.38 501.413,1079.65 502.43,1103.15 503.447,1118.35 
  504.464,1099.13 505.481,1124.51 506.498,1101.29 507.515,1110.35 508.532,1117.06 509.549,1091.05 510.566,1095.66 511.583,1106.46 512.6,1108.19 513.617,1085.08 
  514.634,1116.58 515.651,1117.21 516.668,1092.97 517.685,1103.58 518.702,1099.88 519.719,1110.99 520.736,1099.8 521.753,1120.11 522.77,574.264 523.787,606.321 
  524.804,620.22 525.821,585.531 526.838,584.259 527.855,618.784 528.872,614.266 529.889,575.963 530.906,580.565 531.923,565.782 532.94,595.125 533.957,588.071 
  534.974,596.756 535.991,629.606 537.008,562.207 538.025,576.66 539.042,587.217 540.059,606.728 541.076,585.887 542.093,555.79 543.11,589.438 544.128,607.441 
  545.145,588.81 546.162,612.69 547.179,584.912 548.196,594.327 549.213,603.478 550.23,575.126 551.247,596.425 552.264,554.004 553.281,612.358 554.298,575.891 
  555.315,573.748 556.332,602.34 557.349,615.844 558.366,624.735 559.383,589.926 560.4,594.874 561.417,609.931 562.434,616.059 563.451,600.113 564.468,596.513 
  565.485,580.269 566.502,612.467 567.519,608.748 568.536,566.49 569.553,585.975 570.57,576.714 571.587,574.546 572.604,616.116 573.621,589.209 574.638,596.218 
  575.655,550.115 576.672,579.103 577.689,560.287 578.706,584.832 579.723,596.542 580.74,579.346 581.757,600.751 582.774,605.855 583.791,571.439 584.808,605.951 
  585.825,577.931 586.842,591.32 587.859,577.342 588.876,582.479 589.893,594.488 590.91,600.289 591.927,608.178 592.944,592.464 593.961,580.662 594.978,583.38 
  595.995,561.603 597.012,639.329 598.029,604.298 599.046,610.293 600.063,603.454 601.08,600.497 602.097,620.193 603.114,582.094 604.131,615.339 605.148,596.068 
  606.165,615.145 607.182,577.633 608.199,606.679 609.216,592.001 610.233,626.213 611.25,565.458 612.267,614.633 613.284,586.229 614.301,586.826 615.318,576.492 
  616.335,618.117 617.352,565.153 618.369,589.481 619.386,639.778 620.403,592.997 621.42,583.132 622.437,608.165 623.454,586.649 624.471,594.185 625.488,629.421 
  626.505,598.922 627.522,595.194 628.539,594.065 629.556,613.636 630.573,589.96 631.59,600.49 632.607,605.462 633.624,587.19 634.641,577.617 635.658,588.682 
  636.675,581.23 637.692,592.588 638.709,572.72 639.726,594.679 640.743,607.088 641.76,583.918 642.777,560.035 643.794,595.69 644.811,614.904 645.828,592.574 
  646.845,597.284 647.862,634.484 648.879,607.372 649.896,602.456 650.913,611.476 651.93,559.873 652.947,591.743 653.964,558.78 654.981,586.848 655.998,584.239 
  657.015,576.273 658.033,596.727 659.05,620.826 660.067,586.898 661.084,626.259 662.101,643.405 663.118,601.629 664.135,589.905 665.152,564.985 666.169,566.164 
  667.186,595.97 668.203,604.885 669.22,614.114 670.237,607.154 671.254,527.143 672.271,588.106 673.288,591.854 674.305,615.538 675.322,613.961 676.339,586.109 
  677.356,584.316 678.373,591.359 679.39,588.839 680.407,558.3 681.424,585.207 682.441,610.07 683.458,649.223 684.475,576.086 685.492,593.271 686.509,583.558 
  687.526,567.435 688.543,1284.67 689.56,1266.97 690.577,1282.76 691.594,1278.9 692.611,1290.7 693.628,1257.69 694.645,1299.77 695.662,1259.54 696.679,1284.14 
  697.696,1284.18 698.713,1307.38 699.73,1262.95 700.747,1244.98 701.764,1282.47 702.781,1290.41 703.798,1285.15 704.815,1268.75 705.832,1289.97 706.849,1272.18 
  707.866,1241.03 708.883,1274.75 709.9,1296.14 710.917,1282.65 711.934,1285.92 712.951,1266.09 713.968,1271.48 714.985,1278.83 716.002,1275.87 717.019,1279.99 
  718.036,1273.73 719.053,1277.11 720.07,1258.34 721.087,1284.54 722.104,1265.26 723.121,1275.95 724.138,1271.43 725.155,1268.99 726.172,1311.18 727.189,1279.29 
  728.206,1258.03 729.223,1285.67 730.24,433.07 731.257,423.026 732.274,443.737 733.291,431.823 734.308,434.142 735.325,460.645 736.342,417.521 737.359,447.526 
  738.376,404.288 739.393,418.87 740.41,446.821 741.427,447.094 742.444,417.616 743.461,412.128 744.478,453.455 745.495,454.538 746.512,430.618 747.529,397.753 
  748.546,416.015 749.563,452.211 750.58,449.452 751.597,403.027 752.614,436.152 753.631,425.013 754.648,428.314 755.665,389.838 756.682,409.057 757.699,420.867 
  758.716,401.625 759.733,430.749 760.75,449.202 761.767,426.244 762.784,407.562 763.801,408.679 764.818,409.147 765.835,423.327 766.852,420.886 767.869,420.328 
  768.886,415.203 769.903,430.287 770.921,406.104 771.938,439.489 772.955,426.102 773.972,415.661 774.989,416.24 776.006,457.909 777.023,442.322 778.04,436.688 
  779.057,426.576 780.074,396.955 781.091,426.589 782.108,450.348 783.125,435.986 784.142,443.118 785.159,426.417 786.176,421.905 787.193,454.009 788.21,404.72 
  789.227,459.114 790.244,418.126 791.261,413.174 792.278,427.521 793.295,428.856 794.312,424.348 795.329,425.519 796.346,431.491 797.363,417.265 798.38,392.189 
  799.397,436.441 800.414,392.832 801.431,437.247 802.448,407.03 803.465,438.651 804.482,438.05 805.499,396.893 806.516,416.01 807.533,437.495 808.55,439.237 
  809.567,441.931 810.584,430.553 811.601,427.766 812.618,414.994 813.635,428.729 814.652,438.939 815.669,437.234 816.686,440.753 817.703,411.872 818.72,405.396 
  819.737,422.891 820.754,415.957 821.771,449.398 822.788,414.564 823.805,413.351 824.822,438.639 825.839,433.141 826.856,424.743 827.873,450.536 828.89,433.504 
  829.907,430.409 830.924,400.691 831.941,399.407 832.958,406.086 833.975,427.797 834.992,450.857 836.009,401.622 837.026,410.698 838.043,433.769 839.06,427.275 
  840.077,425.157 841.094,415.803 842.111,419.602 843.128,432.498 844.145,427.414 845.162,420.476 846.179,438.021 847.196,406.551 848.213,428.113 849.23,439.532 
  850.247,398.462 851.264,401.255 852.281,402.503 853.298,393.972 854.315,432.244 855.332,417.625 856.349,415.664 857.366,475.848 858.383,413.75 859.4,422.423 
  860.417,421.443 861.434,438.721 862.451,446.485 863.468,439.801 864.485,424.01 865.502,401.076 866.519,402.444 867.536,407.351 868.553,409.483 869.57,411.485 
  870.587,444.196 871.604,458.683 872.621,441.466 873.638,421.494 874.655,416.596 875.672,398.507 876.689,444.428 877.706,398.164 878.723,416.395 879.74,427.62 
  880.757,445.415 881.774,423.598 882.791,413.817 883.808,435.246 884.826,452.356 885.843,436.985 886.86,392.204 887.877,435.398 888.894,416.639 889.911,423.928 
  890.928,436.932 891.945,421.389 892.962,418.143 893.979,433.717 894.996,428.188 896.013,413.33 897.03,399.271 898.047,408.93 899.064,399.274 900.081,450.186 
  901.098,410.363 902.115,450.513 903.132,411.903 904.149,426.701 905.166,430.848 906.183,429.407 907.2,440.593 908.217,434.764 909.234,410.85 910.251,448.475 
  911.268,432.653 912.285,431.598 913.302,410.682 914.319,381.645 915.336,409.551 916.353,401.809 917.37,457.778 918.387,416.384 919.404,436.295 920.421,450.623 
  921.438,440.832 922.455,396.73 923.472,406.812 924.489,446.701 925.506,428.998 926.523,419.001 927.54,419.088 928.557,431.934 929.574,422.723 930.591,424.029 
  931.608,446.589 932.625,395.655 933.642,431.733 934.659,451.201 935.676,434.122 936.693,445.373 937.71,430.079 938.727,427.244 939.744,399.07 940.761,443.379 
  941.778,428.514 942.795,446.079 943.812,429.283 944.829,394.634 945.846,422.905 946.863,421.925 947.88,419.103 948.897,468.793 949.914,412.456 950.931,425.984 
  951.948,420.29 952.965,457.008 953.982,419.207 954.999,445.062 956.016,410.262 957.033,406.523 958.05,415.348 959.067,430.596 960.084,444.191 961.101,441.076 
  962.118,428.185 963.135,423.067 964.152,448.926 965.169,408.684 966.186,416.512 967.203,425.02 968.22,441.46 969.237,430.321 970.254,423.353 971.271,447.014 
  972.288,442.443 973.305,428.566 974.322,415.331 975.339,449.568 976.356,432.814 977.373,420.076 978.39,426.817 979.407,428.679 980.424,441.489 981.441,403.34 
  982.458,400.477 983.475,423.703 984.492,422.834 985.509,420.693 986.526,402.297 987.543,416.127 988.56,443.4 989.577,431.232 990.594,454.985 991.611,437.459 
  992.628,433.017 993.645,444.645 994.662,439.127 995.679,451.871 996.696,419.541 997.714,428.896 998.731,431.376 999.748,467.205 1000.76,423.387 1001.78,450.635 
  1002.8,430.753 1003.82,402.783 1004.83,443.504 1005.85,422.945 1006.87,426.348 1007.88,427.191 1008.9,441.085 1009.92,441.18 1010.93,439.911 1011.95,403.766 
  1012.97,424.062 1013.99,425.376 1015,456.606 1016.02,400.368 1017.04,427.757 1018.05,433.002 1019.07,409.461 1020.09,406.62 1021.1,442.697 1022.12,439.906 
  1023.14,431.133 1024.16,419.441 1025.17,424.092 1026.19,405.715 1027.21,416.432 1028.22,403.62 1029.24,429.359 1030.26,444.099 1031.27,432.171 1032.29,405.597 
  1033.31,409.764 1034.33,427.541 1035.34,423.66 1036.36,445.818 1037.38,431.822 1038.39,432.279 1039.41,448.587 1040.43,419.383 1041.44,427.807 1042.46,1168.03 
  1043.48,1154.21 1044.5,1125.35 1045.51,1150.28 1046.53,1122.92 1047.55,1122.76 1048.56,1164.34 1049.58,1137.89 1050.6,1130.4 1051.61,1120.98 1052.63,1118.2 
  1053.65,1133.95 1054.67,1177.72 1055.68,1153.27 1056.7,1134.5 1057.72,1158.53 1058.73,1155.83 1059.75,1159.78 1060.77,1151.59 1061.79,1116.33 1062.8,1146.15 
  1063.82,1168.62 1064.84,1112.57 1065.85,1133.38 1066.87,1152.9 1067.89,1138.46 1068.9,1145.5 1069.92,1172.12 1070.94,1152.62 1071.96,1139.84 1072.97,1148.2 
  1073.99,1128.86 1075.01,1153.41 1076.02,1133.12 1077.04,1163.81 1078.06,1126.39 1079.07,1117.28 1080.09,1140.13 1081.11,1140.4 1082.13,1153.15 1083.14,1119.59 
  1084.16,1149.35 1085.18,1103.52 1086.19,1162.55 1087.21,1141.41 1088.23,1135.63 1089.24,1125.93 1090.26,1155.32 1091.28,1132.16 1092.3,1133.79 1093.31,1127.07 
  1094.33,1122.53 1095.35,1130.35 1096.36,1121.2 1097.38,1141.69 1098.4,1126.32 1099.41,1127.44 1100.43,1118.09 1101.45,1148.18 1102.47,1130.6 1103.48,1152.59 
  1104.5,1131.93 1105.52,1166.4 1106.53,1119.6 1107.55,1153.26 1108.57,1141.61 1109.58,1147.33 1110.6,1146.05 1111.62,1132.93 1112.64,1153.6 1113.65,1165.47 
  1114.67,1152.96 1115.69,1139.42 1116.7,1127.53 1117.72,1175.77 1118.74,1130.57 1119.75,1137.65 1120.77,1174.79 1121.79,1147.75 1122.81,1152.88 1123.82,1149.67 
  1124.84,1138.71 1125.86,789.266 1126.87,775.222 1127.89,769.679 1128.91,788.027 1129.92,808.077 1130.94,766.127 1131.96,791.512 1132.98,785.232 1133.99,764.269 
  1135.01,761.726 1136.03,746.364 1137.04,784.787 1138.06,812.362 1139.08,784.63 1140.09,799.959 1141.11,774.449 1142.13,795.931 1143.15,809.453 1144.16,807.396 
  1145.18,781.906 1146.2,801.619 1147.21,786.431 1148.23,762.78 1149.25,777.695 1150.26,799.312 1151.28,752.368 1152.3,787.702 1153.32,793.785 1154.33,815.076 
  1155.35,766.319 1156.37,757.073 1157.38,757.831 1158.4,802.006 1159.42,769.574 1160.43,806.493 1161.45,768.886 1162.47,803.453 1163.49,783.908 1164.5,783.242 
  1165.52,794.803 1166.54,770.636 1167.55,779.12 1168.57,774.786 1169.59,774.453 1170.61,755.927 1171.62,785.136 1172.64,777.43 1173.66,790.455 1174.67,761.257 
  1175.69,782.182 1176.71,765.95 1177.72,784.475 1178.74,746.238 1179.76,796.196 1180.78,795.204 1181.79,788.187 1182.81,792.033 1183.83,832.792 1184.84,785.459 
  1185.86,831.328 1186.88,763.177 1187.89,792.954 1188.91,780.485 1189.93,772.463 1190.95,790.077 1191.96,770.622 1192.98,792.182 1194,800.22 1195.01,782.622 
  1196.03,741.1 1197.05,793.439 1198.06,808.388 1199.08,767.178 1200.1,756.27 1201.12,803.846 1202.13,772.724 1203.15,783.88 1204.17,766.76 1205.18,810.441 
  1206.2,760.527 1207.22,761.677 1208.23,792.684 1209.25,770.469 1210.27,762.325 1211.29,764.266 1212.3,764.37 1213.32,805.945 1214.34,760.694 1215.35,790.2 
  1216.37,759.74 1217.39,795.242 1218.4,778.345 1219.42,808.843 1220.44,781.494 1221.46,774.67 1222.47,778.159 1223.49,768.657 1224.51,770.173 1225.52,764.541 
  1226.54,772.589 1227.56,780.715 1228.57,760.618 1229.59,784.558 1230.61,798.496 1231.63,766.13 1232.64,784.736 1233.66,783.225 1234.68,775.143 1235.69,753.708 
  1236.71,785.683 1237.73,807.378 1238.74,777.033 1239.76,760.346 1240.78,770.121 1241.8,750.535 1242.81,781.349 1243.83,774.729 1244.85,777.701 1245.86,792.436 
  1246.88,789.781 1247.9,803.693 1248.91,760.01 1249.93,801.817 1250.95,784.983 1251.97,782.271 1252.98,769.51 1254,814.323 1255.02,789.062 1256.03,780.682 
  1257.05,768.353 1258.07,792.205 1259.08,783.816 1260.1,771.587 1261.12,777.413 1262.14,748.066 1263.15,767.517 1264.17,797.686 1265.19,756.014 1266.2,765.371 
  1267.22,793.78 1268.24,788.939 1269.25,785.267 1270.27,794.239 1271.29,768.022 1272.31,778.415 1273.32,772.021 1274.34,784.849 1275.36,762.406 1276.37,814.233 
  1277.39,811.915 1278.41,794.073 1279.42,778.762 1280.44,784.478 1281.46,788.372 1282.48,757.31 1283.49,799.51 1284.51,795.384 1285.53,781.643 1286.54,748.174 
  1287.56,790.995 1288.58,777.876 1289.6,785.229 1290.61,774.475 1291.63,797.34 1292.65,778.852 1293.66,777.012 1294.68,768.866 1295.7,804.5 1296.71,791.507 
  1297.73,775.044 1298.75,770.462 1299.77,757.092 1300.78,792.04 1301.8,780.633 1302.82,756.546 1303.83,748.794 1304.85,771.342 1305.87,811.533 1306.88,790.63 
  1307.9,819.389 1308.92,830.048 1309.94,774.628 1310.95,795.691 1311.97,756.223 1312.99,754.117 1314,821.613 1315.02,811.513 1316.04,776.953 1317.05,777.082 
  1318.07,822.817 1319.09,755.188 1320.11,807.323 1321.12,792.135 1322.14,759.629 1323.16,780.699 1324.17,790.236 1325.19,740.46 1326.21,807.318 1327.22,791.491 
  1328.24,813.028 1329.26,789.776 1330.28,770.087 1331.29,793.841 1332.31,781.064 1333.33,767.062 1334.34,810.84 1335.36,769.31 1336.38,771.946 1337.39,779.206 
  1338.41,806.979 1339.43,784.218 1340.45,810.622 1341.46,813.851 1342.48,770.913 1343.5,775.936 1344.51,791.493 1345.53,783.906 1346.55,798.934 1347.56,805.017 
  1348.58,797.686 1349.6,807.485 1350.62,801.412 1351.63,743.838 1352.65,757.562 1353.67,771.755 1354.68,783.036 1355.7,765.772 1356.72,772.387 1357.73,778.743 
  1358.75,802.296 1359.77,783.193 1360.79,801.109 1361.8,798.375 1362.82,790.464 1363.84,779.347 1364.85,760.033 1365.87,775.219 1366.89,788.641 1367.9,792.363 
  1368.92,801.787 1369.94,760.714 1370.96,795.497 1371.97,793.23 1372.99,776.98 1374.01,796.956 1375.02,800.182 1376.04,795.534 1377.06,783.941 1378.07,799.766 
  1379.09,792.602 1380.11,777.767 1381.13,793.533 1382.14,782.215 1383.16,787.669 1384.18,780.52 1385.19,785.027 1386.21,753.059 1387.23,795.83 1388.24,771.856 
  1389.26,763.604 1390.28,770.238 1391.3,764.453 1392.31,818.295 1393.33,782.264 1394.35,750.383 1395.36,794.186 1396.38,763.88 1397.4,800.711 1398.42,783.814 
  1399.43,781.703 1400.45,798.123 1401.47,792.905 1402.48,793.779 1403.5,784.263 1404.52,758.087 1405.53,783.541 1406.55,757.6 1407.57,791.801 1408.59,760.337 
  1409.6,796.761 1410.62,812.763 1411.64,772.687 1412.65,804.648 1413.67,758.093 1414.69,777.222 1415.7,788.931 1416.72,770.762 1417.74,766.218 1418.76,779.689 
  1419.77,772.148 1420.79,790.658 1421.81,779.06 1422.82,795.748 1423.84,768.642 1424.86,804.722 1425.87,794.792 1426.89,791.842 1427.91,777.944 1428.93,774.424 
  1429.94,792.74 1430.96,789.678 1431.98,798.714 1432.99,781.97 1434.01,785.427 1435.03,798.882 1436.04,800.804 1437.06,779.947 1438.08,783.848 1439.1,794.365 
  1440.11,768.371 1441.13,785.066 1442.15,776.554 1443.16,766.319 1444.18,817.189 1445.2,787.716 1446.21,797.086 1447.23,768.816 1448.25,780.046 1449.27,777.571 
  1450.28,805.429 1451.3,772.979 1452.32,783.639 1453.33,789.101 1454.35,784.798 1455.37,778.957 1456.38,780.983 1457.4,794.629 1458.42,771.367 1459.44,764.084 
  1460.45,789.802 1461.47,782.963 1462.49,790.789 1463.5,800.793 1464.52,779.51 1465.54,762.028 1466.55,784.735 1467.57,771.758 1468.59,825.71 1469.61,790.947 
  1470.62,783.445 1471.64,777.939 1472.66,790.183 1473.67,783.138 1474.69,776.397 1475.71,763.278 1476.72,787.245 1477.74,791.805 1478.76,787.245 1479.78,792.162 
  1480.79,756.378 1481.81,767.882 1482.83,798.009 1483.84,738.04 1484.86,760.289 1485.88,772.735 1486.89,792.277 1487.91,773.337 1488.93,782.702 1489.95,774.174 
  1490.96,760.74 1491.98,805.636 1493,762.024 1494.01,784.094 1495.03,773.771 1496.05,770.862 1497.06,776.496 1498.08,814.219 1499.1,803.875 1500.12,775.425 
  1501.13,789.781 1502.15,770.283 1503.17,776.888 1504.18,785.539 1505.2,794.173 1506.22,783.24 1507.23,786.91 1508.25,779.212 1509.27,776.947 1510.29,780.996 
  1511.3,815.888 1512.32,769.629 1513.34,799.552 1514.35,826.869 1515.37,815.607 1516.39,799.144 1517.41,822.775 1518.42,797.388 1519.44,785.287 1520.46,766.607 
  1521.47,787.864 1522.49,781.306 1523.51,794.271 1524.52,758.534 1525.54,772.373 1526.56,768.174 1527.58,790.633 1528.59,780.903 1529.61,780.605 1530.63,771.646 
  1531.64,785.516 1532.66,778.564 1533.68,767.957 1534.69,786.177 1535.71,755.812 1536.73,790.814 1537.75,775.795 1538.76,773.081 1539.78,754.592 1540.8,790.277 
  1541.81,733.221 1542.83,763.679 1543.85,779.674 1544.86,775.133 1545.88,825.603 1546.9,787.511 1547.92,812.169 1548.93,773.765 1549.95,792.591 1550.97,757.857 
  1551.98,801.439 1553,772.378 1554.02,797.588 1555.03,787.889 1556.05,783.051 1557.07,809.455 1558.09,778.234 1559.1,791.089 1560.12,785.286 1561.14,787.167 
  1562.15,770.265 1563.17,58.5855 1564.19,56.3929 1565.2,55.8287 1566.22,78.4971 1567.24,52.2537 1568.26,81.6198 1569.27,72.7579 1570.29,38.4859 1571.31,41.7925 
  1572.32,55.6742 1573.34,47.3431 1574.36,48.3643 1575.37,70.0401 1576.39,64.8611 1577.41,50.8208 1578.43,82.9535 1579.44,74.6579 1580.46,61.2529 1581.48,49.5721 
  1582.49,48.4576 1583.51,60.9638 1584.53,62.6905 1585.54,63.4659 1586.56,48.1893 1587.58,67.099 1588.6,81.4383 1589.61,63.969 1590.63,34.0229 1591.65,52.7879 
  1592.66,41.7074 1593.68,51.7901 1594.7,73.2858 1595.71,63.4664 1596.73,70.9889 1597.75,62.4254 1598.77,50.3921 1599.78,52.3962 1600.8,56.6209 1601.82,44.5839 
  1602.83,11.259 1603.85,73.9372 1604.87,95.5911 1605.88,56.3704 1606.9,56.1547 1607.92,31.1131 1608.94,48.2699 1609.95,36.582 1610.97,57.018 1611.99,53.6939 
  1613,38.9595 1614.02,51.574 1615.04,50.8807 1616.05,124.232 1617.07,74.6435 1618.09,48.8446 1619.11,23.9756 1620.12,5.40193 1621.14,68.0737 1622.16,51.7304 
  1623.17,44.9336 1624.19,63.797 1625.21,56.8327 1626.23,56.7016 1627.24,54.2075 1628.26,41.2338 1629.28,91.366 1630.29,61.9341 1631.31,69.3558 1632.33,31.3629 
  1633.34,82.9047 1634.36,54.5607 1635.38,60.5671 1636.4,72.4862 1637.41,69.3126 1638.43,63.0498 1639.45,60.9666 1640.46,85.1262 1641.48,42.9737 1642.5,48.6283 
  1643.51,54.5918 1644.53,25.5612 1645.55,31.8157 1646.57,56.4193 1647.58,74.2049 1648.6,-4.92982 1649.62,58.5948 1650.63,84.1329 1651.65,53.9995 1652.67,53.432 
  1653.68,59.9691 1654.7,74.9894 1655.72,32.1273 1656.74,55.1434 1657.75,56.5012 1658.77,48.4847 1659.79,67.7574 1660.8,88.47 1661.82,58.4996 1662.84,48.6784 
  1663.85,79.4632 1664.87,56.4007 1665.89,53.343 1666.91,17.9358 1667.92,46.598 1668.94,72.3025 1669.96,65.8187 1670.97,33.4851 1671.99,33.7645 1673.01,61.5067 
  1674.02,64.1775 1675.04,56.8617 1676.06,66.6618 1677.08,57.2805 1678.09,55.8569 1679.11,37.5103 1680.13,90.6846 1681.14,40.6648 1682.16,69.484 1683.18,37.3457 
  1684.19,34.704 1685.21,100.205 1686.23,71.2722 1687.25,39.149 1688.26,43.5061 1689.28,39.9416 1690.3,66.2037 1691.31,57.6932 1692.33,76.5313 1693.35,29.2896 
  1694.36,29.1252 1695.38,31.5753 1696.4,59.8885 1697.42,54.1391 1698.43,55.2184 1699.45,59.0678 1700.47,38.504 1701.48,24.9651 1702.5,50.5311 1703.52,35.507 
  1704.53,69.3443 1705.55,22.9409 1706.57,51.9923 1707.59,31.1309 1708.6,57.1095 1709.62,56.4963 1710.64,50.7701 1711.65,61.4802 1712.67,60.8025 1713.69,34.728 
  1714.7,73.7044 1715.72,38.3338 1716.74,63.1443 1717.76,18.9025 1718.77,49.4007 1719.79,57.3435 1720.81,26.2475 1721.82,62.0235 1722.84,74.3394 1723.86,59.6434 
  1724.87,42.3329 1725.89,48.1031 1726.91,28.8418 1727.93,25.4048 1728.94,59.476 1729.96,62.6085 1730.98,63.9446 1731.99,79.0201 1733.01,57.3843 1734.03,44.1657 
  1735.05,44.3418 1736.06,30.6025 1737.08,42.9452 1738.1,49.1724 1739.11,66.5349 1740.13,42.7662 1741.15,50.6916 1742.16,32.7361 1743.18,52.0063 1744.2,44.7494 
  1745.22,80.408 1746.23,64.4141 1747.25,45.7783 1748.27,58.028 1749.28,45.2738 1750.3,49.5903 1751.32,33.8469 1752.33,58.0238 1753.35,47.5195 1754.37,34.5334 
  1755.39,38.0607 1756.4,62.3046 1757.42,60.2387 1758.44,66.5144 1759.45,55.4414 1760.47,63.1228 1761.49,82.9695 1762.5,61.6686 1763.52,46.0646 1764.54,57.3308 
  1765.56,81.0245 1766.57,96.0342 1767.59,63.541 1768.61,49.6222 1769.62,63.6482 1770.64,57.8363 1771.66,70.2461 1772.67,17.2132 1773.69,70.1402 1774.71,76.9959 
  1775.73,24.4457 1776.74,29.6696 1777.76,60.5583 1778.78,52.0499 1779.79,70.458 1780.81,36.3773 1781.83,55.0208 1782.84,89.235 1783.86,59.1479 1784.88,36.9177 
  1785.9,71.9405 1786.91,47.682 1787.93,47.574 1788.95,49.2549 1789.96,61.8507 1790.98,30.3102 1792,581.725 1793.01,576.516 1794.03,602.339 1795.05,584.051 
  1796.07,613.003 1797.08,623.919 1798.1,574.164 1799.12,591.424 1800.13,613.504 1801.15,572.019 1802.17,587.815 1803.18,582.035 1804.2,566.895 1805.22,572.747 
  1806.24,585.812 1807.25,607.661 1808.27,579.049 1809.29,564.675 1810.3,576.625 1811.32,569.412 1812.34,563.063 1813.35,576.649 1814.37,583.132 1815.39,598.768 
  1816.41,571.145 1817.42,589.048 1818.44,546.721 1819.46,614.096 1820.47,592.051 1821.49,586.026 1822.51,590.701 1823.52,572.121 1824.54,587.685 1825.56,583.371 
  1826.58,594.4 1827.59,573.059 1828.61,578.375 1829.63,584.816 1830.64,557.508 1831.66,568.32 1832.68,563.722 1833.69,212.769 1834.71,220.814 1835.73,206.139 
  1836.75,230.122 1837.76,243.804 1838.78,223.684 1839.8,214.365 1840.81,210.474 1841.83,214.23 1842.85,205.68 1843.86,205.845 1844.88,242.949 1845.9,224.757 
  1846.92,221.327 1847.93,233.276 1848.95,221.427 1849.97,223.493 1850.98,208.593 1852,180.239 1853.02,193.906 1854.04,227.352 1855.05,225.061 1856.07,220.997 
  1857.09,231.498 1858.1,233.819 1859.12,221.766 1860.14,229.297 1861.15,235.753 1862.17,204.64 1863.19,242.703 1864.21,252.019 1865.22,210.374 1866.24,232.851 
  1867.26,251.279 1868.27,223.477 1869.29,216.927 1870.31,226.912 1871.32,213.657 1872.34,225.825 1873.36,226.67 1874.38,256.301 1875.39,216.153 1876.41,236.939 
  1877.43,229.568 1878.44,207.963 1879.46,216.08 1880.48,239.734 1881.49,235.371 1882.51,225.026 1883.53,224.085 1884.55,240.071 1885.56,218.547 1886.58,210.659 
  1887.6,243.417 1888.61,230.073 1889.63,214.998 1890.65,205.362 1891.66,243.303 1892.68,229.899 1893.7,222.774 1894.72,236.67 1895.73,221.238 1896.75,947.173 
  1897.77,898.645 1898.78,908.681 1899.8,911.215 1900.82,922.216 1901.83,922.539 1902.85,975.442 1903.87,910.797 1904.89,939.465 1905.9,950.188 1906.92,938.012 
  1907.94,923.782 1908.95,955.138 1909.97,942.8 1910.99,924.963 1912,963.191 1913.02,929.602 1914.04,950.463 1915.06,941.689 1916.07,891.766 1917.09,930.739 
  1918.11,916.981 1919.12,937.651 1920.14,963.716 1921.16,926.694 1922.17,930.983 1923.19,944.744 1924.21,951.334 1925.23,921.356 1926.24,911.641 1927.26,939.576 
  1928.28,911.316 1929.29,937.458 1930.31,907.933 1931.33,951.509 1932.34,922.704 1933.36,924.257 1934.38,913.826 1935.4,943.385 1936.41,969.758 1937.43,934.924 
  1938.45,952.469 1939.46,923.819 1940.48,936.084 1941.5,928.54 1942.51,938.428 1943.53,937.871 1944.55,914.995 1945.57,953.573 1946.58,915.523 1947.6,950.089 
  1948.62,945.079 1949.63,915.957 1950.65,913.626 1951.67,948.508 1952.68,951.833 1953.7,930.956 1954.72,930.411 1955.74,944.302 1956.75,949.626 1957.77,924.457 
  1958.79,959.567 1959.8,951.965 1960.82,943.266 1961.84,976.846 1962.86,920.375 1963.87,913.809 1964.89,950.392 1965.91,933.468 1966.92,942.265 1967.94,934.255 
  1968.96,955.14 1969.97,971.207 1970.99,931.719 1972.01,949.619 1973.03,947.47 1974.04,917.465 1975.06,939.054 1976.08,922.951 1977.09,932.937 1978.11,934.615 
  1979.13,930.147 1980.14,947.082 1981.16,919.519 1982.18,922.325 1983.2,948.902 1984.21,957.321 1985.23,954.848 1986.25,940.203 1987.26,921.874 1988.28,934.753 
  1989.3,942.917 1990.31,901.392 1991.33,947.133 1992.35,949.63 1993.37,957.199 1994.38,937.692 1995.4,940.942 1996.42,951.187 1997.43,946.696 1998.45,960.506 
  1999.47,937.815 2000.48,935.595 2001.5,952.429 2002.52,958.672 2003.54,960.782 2004.55,928.22 2005.57,942.034 2006.59,909.654 2007.6,944.191 2008.62,936.484 
  2009.64,946.59 2010.65,932.799 2011.67,912.367 2012.69,944.98 2013.71,940.074 2014.72,940.826 2015.74,919.58 2016.76,907.997 2017.77,952.621 2018.79,934.186 
  2019.81,931.557 2020.82,932.42 2021.84,960.102 2022.86,948.594 2023.88,936.895 2024.89,915.884 2025.91,963.821 2026.93,919.324 2027.94,938.553 2028.96,937.617 
  2029.98,940.659 2030.99,917.732 2032.01,940.06 2033.03,938.323 2034.05,937.316 2035.06,945.197 2036.08,929.237 2037.1,913.595 2038.11,950.155 2039.13,935.444 
  2040.15,964.558 2041.16,921.553 2042.18,928.91 2043.2,926.129 2044.22,909.019 2045.23,947.761 2046.25,948.189 2047.27,945.999 2048.28,988.342 2049.3,949.067 
  2050.32,915.693 2051.33,963.809 2052.35,928.388 2053.37,941.379 2054.39,960.019 2055.4,953.951 2056.42,950.602 2057.44,894.347 2058.45,951.586 2059.47,932.326 
  2060.49,922.44 2061.5,926.723 2062.52,935.69 2063.54,945.045 2064.56,947.382 2065.57,962.928 2066.59,901.127 2067.61,941.001 2068.62,962.572 2069.64,946.948 
  2070.66,936.657 2071.67,934.602 2072.69,931.674 2073.71,945.395 2074.73,934.635 2075.74,923.322 2076.76,937.47 2077.78,918.488 2078.79,951.726 2079.81,949.138 
  2080.83,935.09 2081.85,953.608 2082.86,956.412 2083.88,918.358 2084.9,942.015 2085.91,939.101 2086.93,941.847 2087.95,966.785 2088.96,942.541 2089.98,957.229 
  2091,929.297 2092.02,941.477 2093.03,958.589 2094.05,927.495 2095.07,947.07 2096.08,933.217 2097.1,943.823 2098.12,944.244 2099.13,928.708 2100.15,926.387 
  2101.17,936.374 2102.19,940.595 2103.2,945.057 2104.22,920.688 2105.24,930.048 2106.25,921.614 2107.27,947.116 2108.29,961.593 2109.3,922.863 2110.32,955.673 
  2111.34,943.686 2112.36,940.143 2113.37,939.755 2114.39,946.354 2115.41,929.271 2116.42,953.952 2117.44,918.39 2118.46,945.312 2119.47,918.098 2120.49,959.775 
  2121.51,946.714 2122.53,905.363 2123.54,929.069 2124.56,959.151 2125.58,964.546 2126.59,920.921 2127.61,945.183 2128.63,938.055 2129.64,936.388 2130.66,953.859 
  2131.68,950.253 2132.7,914.774 2133.71,921.019 2134.73,964.716 2135.75,946.511 2136.76,953.042 2137.78,956.918 2138.8,943.175 2139.81,939.576 2140.83,933.384 
  2141.85,945.77 2142.87,945.474 2143.88,916.309 2144.9,964.96 2145.92,919.866 2146.93,943.382 2147.95,916.492 2148.97,950.433 2149.98,937.08 2151,945.349 
  2152.02,931.522 2153.04,930.039 2154.05,938.589 2155.07,943.188 2156.09,947.193 2157.1,943.745 2158.12,940.57 2159.14,944.62 2160.15,954.461 2161.17,934.562 
  2162.19,958.546 2163.21,907.357 2164.22,921.59 2165.24,909.868 2166.26,948.625 2167.27,948.344 2168.29,947.17 2169.31,927.844 2170.32,947.436 2171.34,947.586 
  2172.36,901.523 2173.38,938.953 2174.39,953.703 2175.41,928.013 2176.43,948.224 2177.44,934.997 2178.46,921.813 2179.48,931.79 2180.49,941.638 2181.51,944.667 
  2182.53,965.529 2183.55,941.732 2184.56,944.207 2185.58,928.78 2186.6,959.682 2187.61,929.861 2188.63,902.838 2189.65,950.338 2190.67,928.372 2191.68,969.682 
  2192.7,934.56 2193.72,976.616 2194.73,974.552 2195.75,960.432 2196.77,923.202 2197.78,934.646 2198.8,936.523 2199.82,928.773 2200.84,935.194 2201.85,928.736 
  2202.87,946.61 2203.89,972.144 2204.9,930.588 2205.92,947.629 2206.94,951.829 2207.95,942.882 2208.97,904.86 2209.99,954.452 2211.01,944.704 2212.02,945.169 
  2213.04,942.717 2214.06,924.577 2215.07,943.662 2216.09,928.509 2217.11,923.07 2218.12,934.46 2219.14,954.845 2220.16,925.147 2221.18,948.68 2222.19,945.218 
  2223.21,954.291 2224.23,898.097 2225.24,910.716 2226.26,942.207 2227.28,936.381 2228.29,931.303 2229.31,917.726 2230.33,931.402 2231.35,931.835 2232.36,945.341 
  2233.38,928.849 2234.4,922.173 2235.41,932.859 2236.43,949.16 2237.45,933.14 2238.46,956.555 2239.48,962.213 2240.5,937.318 2241.52,939.018 2242.53,938.485 
  2243.55,917.895 2244.57,964.84 2245.58,964.382 2246.6,919.21 2247.62,982.596 2248.63,950.152 2249.65,910.53 2250.67,918.002 2251.69,926.872 2252.7,937.664 
  2253.72,925.637 2254.74,924.28 2255.75,960.217 2256.77,935.11 2257.79,953.791 2258.8,956.3 2259.82,949.571 2260.84,945.58 2261.86,921.306 2262.87,922.254 
  2263.89,940.532 2264.91,941.96 2265.92,939.753 2266.94,946.507 2267.96,916.599 2268.97,942.742 2269.99,944.987 2271.01,945.527 2272.03,922.838 2273.04,931.566 
  2274.06,951.714 2275.08,946.117 2276.09,922.359 2277.11,958.809 2278.13,931.416 2279.14,930.602 2280.16,985.929 2281.18,963.416 2282.2,929.022 2283.21,922.01 
  2284.23,930.463 2285.25,937.381 2286.26,933.328 2287.28,931.414 2288.3,923.153 2289.31,925.815 2290.33,912.405 
  "/>
<path clip-path="url(#clip200)" d="
M1986.8 250.738 L2279.23 250.738 L2279.23 95.2176 L1986.8 95.2176  Z
  " fill="#ffffff" fill-rule="evenodd" fill-opacity="1"/>
<polyline clip-path="url(#clip200)" style="stroke:#000000; stroke-linecap:butt; stroke-linejoin:round; stroke-width:4; stroke-opacity:1; fill:none" points="
  1986.8,250.738 2279.23,250.738 2279.23,95.2176 1986.8,95.2176 1986.8,250.738 
  "/>
<polyline clip-path="url(#clip200)" style="stroke:#009af9; stroke-linecap:butt; stroke-linejoin:round; stroke-width:4; stroke-opacity:1; fill:none" points="
  2010.8,147.058 2154.8,147.058 
  "/>
<path clip-path="url(#clip200)" d="M2192.65 166.745 Q2190.84 171.375 2189.13 172.787 Q2187.42 174.199 2184.54 174.199 L2181.14 174.199 L2181.14 170.634 L2183.64 170.634 Q2185.4 170.634 2186.37 169.8 Q2187.35 168.967 2188.53 165.865 L2189.29 163.921 L2178.8 138.412 L2183.32 138.412 L2191.42 158.689 L2199.52 138.412 L2204.04 138.412 L2192.65 166.745 Z" fill="#000000" fill-rule="evenodd" fill-opacity="1" /><path clip-path="url(#clip200)" d="M2211.33 160.402 L2218.97 160.402 L2218.97 134.037 L2210.66 135.703 L2210.66 131.444 L2218.92 129.778 L2223.6 129.778 L2223.6 160.402 L2231.23 160.402 L2231.23 164.338 L2211.33 164.338 L2211.33 160.402 Z" fill="#000000" fill-rule="evenodd" fill-opacity="1" /><polyline clip-path="url(#clip200)" style="stroke:#e26f46; stroke-linecap:butt; stroke-linejoin:round; stroke-width:4; stroke-opacity:1; fill:none" points="
  2010.8,198.898 2154.8,198.898 
  "/>
<path clip-path="url(#clip200)" d="M2192.65 218.585 Q2190.84 223.215 2189.13 224.627 Q2187.42 226.039 2184.54 226.039 L2181.14 226.039 L2181.14 222.474 L2183.64 222.474 Q2185.4 222.474 2186.37 221.64 Q2187.35 220.807 2188.53 217.705 L2189.29 215.761 L2178.8 190.252 L2183.32 190.252 L2191.42 210.529 L2199.52 190.252 L2204.04 190.252 L2192.65 218.585 Z" fill="#000000" fill-rule="evenodd" fill-opacity="1" /><path clip-path="url(#clip200)" d="M2214.54 212.242 L2230.86 212.242 L2230.86 216.178 L2208.92 216.178 L2208.92 212.242 Q2211.58 209.488 2216.16 204.858 Q2220.77 200.205 2221.95 198.863 Q2224.2 196.34 2225.08 194.604 Q2225.98 192.844 2225.98 191.155 Q2225.98 188.4 2224.04 186.664 Q2222.11 184.928 2219.01 184.928 Q2216.81 184.928 2214.36 185.692 Q2211.93 186.455 2209.15 188.006 L2209.15 183.284 Q2211.98 182.15 2214.43 181.571 Q2216.88 180.993 2218.92 180.993 Q2224.29 180.993 2227.48 183.678 Q2230.68 186.363 2230.68 190.854 Q2230.68 192.983 2229.87 194.905 Q2229.08 196.803 2226.98 199.395 Q2226.4 200.067 2223.29 203.284 Q2220.19 206.479 2214.54 212.242 Z" fill="#000000" fill-rule="evenodd" fill-opacity="1" /></svg>
