<?xml version="1.0" encoding="utf-8"?>
<svg xmlns="http://www.w3.org/2000/svg" xmlns:xlink="http://www.w3.org/1999/xlink" width="600" height="400" viewBox="0 0 2400 1600">
<defs>
  <clipPath id="clip120">
    <rect x="0" y="0" width="2400" height="1600"/>
  </clipPath>
</defs>
<path clip-path="url(#clip120)" d="
M0 1600 L2400 1600 L2400 0 L0 0  Z
  " fill="#ffffff" fill-rule="evenodd" fill-opacity="1"/>
<defs>
  <clipPath id="clip121">
    <rect x="480" y="0" width="1681" height="1600"/>
  </clipPath>
</defs>
<path clip-path="url(#clip120)" d="
M147.108 1486.45 L2352.76 1486.45 L2352.76 47.2441 L147.108 47.2441  Z
  " fill="#ffffff" fill-rule="evenodd" fill-opacity="1"/>
<defs>
  <clipPath id="clip122">
    <rect x="147" y="47" width="2207" height="1440"/>
  </clipPath>
</defs>
<polyline clip-path="url(#clip122)" style="stroke:#000000; stroke-linecap:butt; stroke-linejoin:round; stroke-width:2; stroke-opacity:0.1; fill:none" points="
  208.515,1486.45 208.515,47.2441 
  "/>
<polyline clip-path="url(#clip122)" style="stroke:#000000; stroke-linecap:butt; stroke-linejoin:round; stroke-width:2; stroke-opacity:0.1; fill:none" points="
  717.019,1486.45 717.019,47.2441 
  "/>
<polyline clip-path="url(#clip122)" style="stroke:#000000; stroke-linecap:butt; stroke-linejoin:round; stroke-width:2; stroke-opacity:0.1; fill:none" points="
  1225.52,1486.45 1225.52,47.2441 
  "/>
<polyline clip-path="url(#clip122)" style="stroke:#000000; stroke-linecap:butt; stroke-linejoin:round; stroke-width:2; stroke-opacity:0.1; fill:none" points="
  1734.03,1486.45 1734.03,47.2441 
  "/>
<polyline clip-path="url(#clip122)" style="stroke:#000000; stroke-linecap:butt; stroke-linejoin:round; stroke-width:2; stroke-opacity:0.1; fill:none" points="
  2242.53,1486.45 2242.53,47.2441 
  "/>
<polyline clip-path="url(#clip120)" style="stroke:#000000; stroke-linecap:butt; stroke-linejoin:round; stroke-width:4; stroke-opacity:1; fill:none" points="
  147.108,1486.45 2352.76,1486.45 
  "/>
<polyline clip-path="url(#clip120)" style="stroke:#000000; stroke-linecap:butt; stroke-linejoin:round; stroke-width:4; stroke-opacity:1; fill:none" points="
  208.515,1486.45 208.515,1467.55 
  "/>
<polyline clip-path="url(#clip120)" style="stroke:#000000; stroke-linecap:butt; stroke-linejoin:round; stroke-width:4; stroke-opacity:1; fill:none" points="
  717.019,1486.45 717.019,1467.55 
  "/>
<polyline clip-path="url(#clip120)" style="stroke:#000000; stroke-linecap:butt; stroke-linejoin:round; stroke-width:4; stroke-opacity:1; fill:none" points="
  1225.52,1486.45 1225.52,1467.55 
  "/>
<polyline clip-path="url(#clip120)" style="stroke:#000000; stroke-linecap:butt; stroke-linejoin:round; stroke-width:4; stroke-opacity:1; fill:none" points="
  1734.03,1486.45 1734.03,1467.55 
  "/>
<polyline clip-path="url(#clip120)" style="stroke:#000000; stroke-linecap:butt; stroke-linejoin:round; stroke-width:4; stroke-opacity:1; fill:none" points="
  2242.53,1486.45 2242.53,1467.55 
  "/>
<path clip-path="url(#clip120)" d="M208.515 1517.37 Q204.903 1517.37 203.075 1520.93 Q201.269 1524.47 201.269 1531.6 Q201.269 1538.71 203.075 1542.27 Q204.903 1545.82 208.515 1545.82 Q212.149 1545.82 213.954 1542.27 Q215.783 1538.71 215.783 1531.6 Q215.783 1524.47 213.954 1520.93 Q212.149 1517.37 208.515 1517.37 M208.515 1513.66 Q214.325 1513.66 217.38 1518.27 Q220.459 1522.85 220.459 1531.6 Q220.459 1540.33 217.38 1544.94 Q214.325 1549.52 208.515 1549.52 Q202.704 1549.52 199.626 1544.94 Q196.57 1540.33 196.57 1531.6 Q196.57 1522.85 199.626 1518.27 Q202.704 1513.66 208.515 1513.66 Z" fill="#000000" fill-rule="evenodd" fill-opacity="1" /><path clip-path="url(#clip120)" d="M676.637 1514.29 L694.994 1514.29 L694.994 1518.22 L680.92 1518.22 L680.92 1526.7 Q681.938 1526.35 682.957 1526.19 Q683.975 1526 684.994 1526 Q690.781 1526 694.16 1529.17 Q697.54 1532.34 697.54 1537.76 Q697.54 1543.34 694.068 1546.44 Q690.596 1549.52 684.276 1549.52 Q682.1 1549.52 679.832 1549.15 Q677.586 1548.78 675.179 1548.04 L675.179 1543.34 Q677.262 1544.47 679.485 1545.03 Q681.707 1545.58 684.184 1545.58 Q688.188 1545.58 690.526 1543.48 Q692.864 1541.37 692.864 1537.76 Q692.864 1534.15 690.526 1532.04 Q688.188 1529.94 684.184 1529.94 Q682.309 1529.94 680.434 1530.35 Q678.582 1530.77 676.637 1531.65 L676.637 1514.29 Z" fill="#000000" fill-rule="evenodd" fill-opacity="1" /><path clip-path="url(#clip120)" d="M716.753 1517.37 Q713.142 1517.37 711.313 1520.93 Q709.507 1524.47 709.507 1531.6 Q709.507 1538.71 711.313 1542.27 Q713.142 1545.82 716.753 1545.82 Q720.387 1545.82 722.193 1542.27 Q724.021 1538.71 724.021 1531.6 Q724.021 1524.47 722.193 1520.93 Q720.387 1517.37 716.753 1517.37 M716.753 1513.66 Q722.563 1513.66 725.619 1518.27 Q728.697 1522.85 728.697 1531.6 Q728.697 1540.33 725.619 1544.94 Q722.563 1549.52 716.753 1549.52 Q710.943 1549.52 707.864 1544.94 Q704.808 1540.33 704.808 1531.6 Q704.808 1522.85 707.864 1518.27 Q710.943 1513.66 716.753 1513.66 Z" fill="#000000" fill-rule="evenodd" fill-opacity="1" /><path clip-path="url(#clip120)" d="M746.915 1517.37 Q743.304 1517.37 741.475 1520.93 Q739.669 1524.47 739.669 1531.6 Q739.669 1538.71 741.475 1542.27 Q743.304 1545.82 746.915 1545.82 Q750.549 1545.82 752.354 1542.27 Q754.183 1538.71 754.183 1531.6 Q754.183 1524.47 752.354 1520.93 Q750.549 1517.37 746.915 1517.37 M746.915 1513.66 Q752.725 1513.66 755.78 1518.27 Q758.859 1522.85 758.859 1531.6 Q758.859 1540.33 755.78 1544.94 Q752.725 1549.52 746.915 1549.52 Q741.105 1549.52 738.026 1544.94 Q734.97 1540.33 734.97 1531.6 Q734.97 1522.85 738.026 1518.27 Q741.105 1513.66 746.915 1513.66 Z" fill="#000000" fill-rule="evenodd" fill-opacity="1" /><path clip-path="url(#clip120)" d="M1170.05 1544.91 L1177.69 1544.91 L1177.69 1518.55 L1169.38 1520.21 L1169.38 1515.95 L1177.64 1514.29 L1182.32 1514.29 L1182.32 1544.91 L1189.96 1544.91 L1189.96 1548.85 L1170.05 1548.85 L1170.05 1544.91 Z" fill="#000000" fill-rule="evenodd" fill-opacity="1" /><path clip-path="url(#clip120)" d="M1209.4 1517.37 Q1205.79 1517.37 1203.96 1520.93 Q1202.16 1524.47 1202.16 1531.6 Q1202.16 1538.71 1203.96 1542.27 Q1205.79 1545.82 1209.4 1545.82 Q1213.04 1545.82 1214.84 1542.27 Q1216.67 1538.71 1216.67 1531.6 Q1216.67 1524.47 1214.84 1520.93 Q1213.04 1517.37 1209.4 1517.37 M1209.4 1513.66 Q1215.21 1513.66 1218.27 1518.27 Q1221.35 1522.85 1221.35 1531.6 Q1221.35 1540.33 1218.27 1544.94 Q1215.21 1549.52 1209.4 1549.52 Q1203.59 1549.52 1200.51 1544.94 Q1197.46 1540.33 1197.46 1531.6 Q1197.46 1522.85 1200.51 1518.27 Q1203.59 1513.66 1209.4 1513.66 Z" fill="#000000" fill-rule="evenodd" fill-opacity="1" /><path clip-path="url(#clip120)" d="M1239.56 1517.37 Q1235.95 1517.37 1234.12 1520.93 Q1232.32 1524.47 1232.32 1531.6 Q1232.32 1538.71 1234.12 1542.27 Q1235.95 1545.82 1239.56 1545.82 Q1243.2 1545.82 1245 1542.27 Q1246.83 1538.71 1246.83 1531.6 Q1246.83 1524.47 1245 1520.93 Q1243.2 1517.37 1239.56 1517.37 M1239.56 1513.66 Q1245.37 1513.66 1248.43 1518.27 Q1251.51 1522.85 1251.51 1531.6 Q1251.51 1540.33 1248.43 1544.94 Q1245.37 1549.52 1239.56 1549.52 Q1233.75 1549.52 1230.67 1544.94 Q1227.62 1540.33 1227.62 1531.6 Q1227.62 1522.85 1230.67 1518.27 Q1233.75 1513.66 1239.56 1513.66 Z" fill="#000000" fill-rule="evenodd" fill-opacity="1" /><path clip-path="url(#clip120)" d="M1269.72 1517.37 Q1266.11 1517.37 1264.28 1520.93 Q1262.48 1524.47 1262.48 1531.6 Q1262.48 1538.71 1264.28 1542.27 Q1266.11 1545.82 1269.72 1545.82 Q1273.36 1545.82 1275.16 1542.27 Q1276.99 1538.71 1276.99 1531.6 Q1276.99 1524.47 1275.16 1520.93 Q1273.36 1517.37 1269.72 1517.37 M1269.72 1513.66 Q1275.53 1513.66 1278.59 1518.27 Q1281.67 1522.85 1281.67 1531.6 Q1281.67 1540.33 1278.59 1544.94 Q1275.53 1549.52 1269.72 1549.52 Q1263.91 1549.52 1260.84 1544.94 Q1257.78 1540.33 1257.78 1531.6 Q1257.78 1522.85 1260.84 1518.27 Q1263.91 1513.66 1269.72 1513.66 Z" fill="#000000" fill-rule="evenodd" fill-opacity="1" /><path clip-path="url(#clip120)" d="M1678.55 1544.91 L1686.19 1544.91 L1686.19 1518.55 L1677.88 1520.21 L1677.88 1515.95 L1686.15 1514.29 L1690.82 1514.29 L1690.82 1544.91 L1698.46 1544.91 L1698.46 1548.85 L1678.55 1548.85 L1678.55 1544.91 Z" fill="#000000" fill-rule="evenodd" fill-opacity="1" /><path clip-path="url(#clip120)" d="M1707.95 1514.29 L1726.31 1514.29 L1726.31 1518.22 L1712.23 1518.22 L1712.23 1526.7 Q1713.25 1526.35 1714.27 1526.19 Q1715.29 1526 1716.31 1526 Q1722.1 1526 1725.47 1529.17 Q1728.85 1532.34 1728.85 1537.76 Q1728.85 1543.34 1725.38 1546.44 Q1721.91 1549.52 1715.59 1549.52 Q1713.41 1549.52 1711.15 1549.15 Q1708.9 1548.78 1706.49 1548.04 L1706.49 1543.34 Q1708.58 1544.47 1710.8 1545.03 Q1713.02 1545.58 1715.5 1545.58 Q1719.5 1545.58 1721.84 1543.48 Q1724.18 1541.37 1724.18 1537.76 Q1724.18 1534.15 1721.84 1532.04 Q1719.5 1529.94 1715.5 1529.94 Q1713.62 1529.94 1711.75 1530.35 Q1709.9 1530.77 1707.95 1531.65 L1707.95 1514.29 Z" fill="#000000" fill-rule="evenodd" fill-opacity="1" /><path clip-path="url(#clip120)" d="M1748.07 1517.37 Q1744.46 1517.37 1742.63 1520.93 Q1740.82 1524.47 1740.82 1531.6 Q1740.82 1538.71 1742.63 1542.27 Q1744.46 1545.82 1748.07 1545.82 Q1751.7 1545.82 1753.51 1542.27 Q1755.34 1538.71 1755.34 1531.6 Q1755.34 1524.47 1753.51 1520.93 Q1751.7 1517.37 1748.07 1517.37 M1748.07 1513.66 Q1753.88 1513.66 1756.93 1518.27 Q1760.01 1522.85 1760.01 1531.6 Q1760.01 1540.33 1756.93 1544.94 Q1753.88 1549.52 1748.07 1549.52 Q1742.26 1549.52 1739.18 1544.94 Q1736.12 1540.33 1736.12 1531.6 Q1736.12 1522.85 1739.18 1518.27 Q1742.26 1513.66 1748.07 1513.66 Z" fill="#000000" fill-rule="evenodd" fill-opacity="1" /><path clip-path="url(#clip120)" d="M1778.23 1517.37 Q1774.62 1517.37 1772.79 1520.93 Q1770.98 1524.47 1770.98 1531.6 Q1770.98 1538.71 1772.79 1542.27 Q1774.62 1545.82 1778.23 1545.82 Q1781.86 1545.82 1783.67 1542.27 Q1785.5 1538.71 1785.5 1531.6 Q1785.5 1524.47 1783.67 1520.93 Q1781.86 1517.37 1778.23 1517.37 M1778.23 1513.66 Q1784.04 1513.66 1787.09 1518.27 Q1790.17 1522.85 1790.17 1531.6 Q1790.17 1540.33 1787.09 1544.94 Q1784.04 1549.52 1778.23 1549.52 Q1772.42 1549.52 1769.34 1544.94 Q1766.28 1540.33 1766.28 1531.6 Q1766.28 1522.85 1769.34 1518.27 Q1772.42 1513.66 1778.23 1513.66 Z" fill="#000000" fill-rule="evenodd" fill-opacity="1" /><path clip-path="url(#clip120)" d="M2191.14 1544.91 L2207.46 1544.91 L2207.46 1548.85 L2185.52 1548.85 L2185.52 1544.91 Q2188.18 1542.16 2192.76 1537.53 Q2197.37 1532.88 2198.55 1531.53 Q2200.8 1529.01 2201.68 1527.27 Q2202.58 1525.51 2202.58 1523.82 Q2202.58 1521.07 2200.63 1519.33 Q2198.71 1517.6 2195.61 1517.6 Q2193.41 1517.6 2190.96 1518.36 Q2188.53 1519.13 2185.75 1520.68 L2185.75 1515.95 Q2188.57 1514.82 2191.03 1514.24 Q2193.48 1513.66 2195.52 1513.66 Q2200.89 1513.66 2204.08 1516.35 Q2207.28 1519.03 2207.28 1523.52 Q2207.28 1525.65 2206.47 1527.57 Q2205.68 1529.47 2203.57 1532.07 Q2203 1532.74 2199.89 1535.95 Q2196.79 1539.15 2191.14 1544.91 Z" fill="#000000" fill-rule="evenodd" fill-opacity="1" /><path clip-path="url(#clip120)" d="M2227.28 1517.37 Q2223.67 1517.37 2221.84 1520.93 Q2220.03 1524.47 2220.03 1531.6 Q2220.03 1538.71 2221.84 1542.27 Q2223.67 1545.82 2227.28 1545.82 Q2230.91 1545.82 2232.72 1542.27 Q2234.55 1538.71 2234.55 1531.6 Q2234.55 1524.47 2232.72 1520.93 Q2230.91 1517.37 2227.28 1517.37 M2227.28 1513.66 Q2233.09 1513.66 2236.14 1518.27 Q2239.22 1522.85 2239.22 1531.6 Q2239.22 1540.33 2236.14 1544.94 Q2233.09 1549.52 2227.28 1549.52 Q2221.47 1549.52 2218.39 1544.94 Q2215.33 1540.33 2215.33 1531.6 Q2215.33 1522.85 2218.39 1518.27 Q2221.47 1513.66 2227.28 1513.66 Z" fill="#000000" fill-rule="evenodd" fill-opacity="1" /><path clip-path="url(#clip120)" d="M2257.44 1517.37 Q2253.83 1517.37 2252 1520.93 Q2250.19 1524.47 2250.19 1531.6 Q2250.19 1538.71 2252 1542.27 Q2253.83 1545.82 2257.44 1545.82 Q2261.07 1545.82 2262.88 1542.27 Q2264.71 1538.71 2264.71 1531.6 Q2264.71 1524.47 2262.88 1520.93 Q2261.07 1517.37 2257.44 1517.37 M2257.44 1513.66 Q2263.25 1513.66 2266.31 1518.27 Q2269.38 1522.85 2269.38 1531.6 Q2269.38 1540.33 2266.31 1544.94 Q2263.25 1549.52 2257.44 1549.52 Q2251.63 1549.52 2248.55 1544.94 Q2245.5 1540.33 2245.5 1531.6 Q2245.5 1522.85 2248.55 1518.27 Q2251.63 1513.66 2257.44 1513.66 Z" fill="#000000" fill-rule="evenodd" fill-opacity="1" /><path clip-path="url(#clip120)" d="M2287.6 1517.37 Q2283.99 1517.37 2282.16 1520.93 Q2280.36 1524.47 2280.36 1531.6 Q2280.36 1538.71 2282.16 1542.27 Q2283.99 1545.82 2287.6 1545.82 Q2291.24 1545.82 2293.04 1542.27 Q2294.87 1538.71 2294.87 1531.6 Q2294.87 1524.47 2293.04 1520.93 Q2291.24 1517.37 2287.6 1517.37 M2287.6 1513.66 Q2293.41 1513.66 2296.47 1518.27 Q2299.55 1522.85 2299.55 1531.6 Q2299.55 1540.33 2296.47 1544.94 Q2293.41 1549.52 2287.6 1549.52 Q2281.79 1549.52 2278.71 1544.94 Q2275.66 1540.33 2275.66 1531.6 Q2275.66 1522.85 2278.71 1518.27 Q2281.79 1513.66 2287.6 1513.66 Z" fill="#000000" fill-rule="evenodd" fill-opacity="1" /><polyline clip-path="url(#clip122)" style="stroke:#000000; stroke-linecap:butt; stroke-linejoin:round; stroke-width:2; stroke-opacity:0.1; fill:none" points="
  147.108,1276 2352.76,1276 
  "/>
<polyline clip-path="url(#clip122)" style="stroke:#000000; stroke-linecap:butt; stroke-linejoin:round; stroke-width:2; stroke-opacity:0.1; fill:none" points="
  147.108,936.563 2352.76,936.563 
  "/>
<polyline clip-path="url(#clip122)" style="stroke:#000000; stroke-linecap:butt; stroke-linejoin:round; stroke-width:2; stroke-opacity:0.1; fill:none" points="
  147.108,597.129 2352.76,597.129 
  "/>
<polyline clip-path="url(#clip122)" style="stroke:#000000; stroke-linecap:butt; stroke-linejoin:round; stroke-width:2; stroke-opacity:0.1; fill:none" points="
  147.108,257.694 2352.76,257.694 
  "/>
<polyline clip-path="url(#clip120)" style="stroke:#000000; stroke-linecap:butt; stroke-linejoin:round; stroke-width:4; stroke-opacity:1; fill:none" points="
  147.108,1486.45 147.108,47.2441 
  "/>
<polyline clip-path="url(#clip120)" style="stroke:#000000; stroke-linecap:butt; stroke-linejoin:round; stroke-width:4; stroke-opacity:1; fill:none" points="
  147.108,1276 166.005,1276 
  "/>
<polyline clip-path="url(#clip120)" style="stroke:#000000; stroke-linecap:butt; stroke-linejoin:round; stroke-width:4; stroke-opacity:1; fill:none" points="
  147.108,936.563 166.005,936.563 
  "/>
<polyline clip-path="url(#clip120)" style="stroke:#000000; stroke-linecap:butt; stroke-linejoin:round; stroke-width:4; stroke-opacity:1; fill:none" points="
  147.108,597.129 166.005,597.129 
  "/>
<polyline clip-path="url(#clip120)" style="stroke:#000000; stroke-linecap:butt; stroke-linejoin:round; stroke-width:4; stroke-opacity:1; fill:none" points="
  147.108,257.694 166.005,257.694 
  "/>
<path clip-path="url(#clip120)" d="M50.9921 1276.45 L80.6679 1276.45 L80.6679 1280.38 L50.9921 1280.38 L50.9921 1276.45 Z" fill="#000000" fill-rule="evenodd" fill-opacity="1" /><path clip-path="url(#clip120)" d="M94.7882 1289.34 L111.108 1289.34 L111.108 1293.28 L89.1632 1293.28 L89.1632 1289.34 Q91.8252 1286.59 96.4085 1281.96 Q101.015 1277.31 102.196 1275.96 Q104.441 1273.44 105.321 1271.7 Q106.223 1269.95 106.223 1268.26 Q106.223 1265.5 104.279 1263.76 Q102.358 1262.03 99.2558 1262.03 Q97.0567 1262.03 94.603 1262.79 Q92.1725 1263.56 89.3947 1265.11 L89.3947 1260.38 Q92.2188 1259.25 94.6724 1258.67 Q97.1261 1258.09 99.1632 1258.09 Q104.534 1258.09 107.728 1260.78 Q110.922 1263.46 110.922 1267.95 Q110.922 1270.08 110.112 1272.01 Q109.325 1273.9 107.219 1276.5 Q106.64 1277.17 103.538 1280.38 Q100.436 1283.58 94.7882 1289.34 Z" fill="#000000" fill-rule="evenodd" fill-opacity="1" /><path clip-path="url(#clip120)" d="M99.1632 922.362 Q95.5521 922.362 93.7234 925.927 Q91.9178 929.469 91.9178 936.598 Q91.9178 943.705 93.7234 947.269 Q95.5521 950.811 99.1632 950.811 Q102.797 950.811 104.603 947.269 Q106.432 943.705 106.432 936.598 Q106.432 929.469 104.603 925.927 Q102.797 922.362 99.1632 922.362 M99.1632 918.658 Q104.973 918.658 108.029 923.265 Q111.108 927.848 111.108 936.598 Q111.108 945.325 108.029 949.931 Q104.973 954.515 99.1632 954.515 Q93.353 954.515 90.2743 949.931 Q87.2188 945.325 87.2188 936.598 Q87.2188 927.848 90.2743 923.265 Q93.353 918.658 99.1632 918.658 Z" fill="#000000" fill-rule="evenodd" fill-opacity="1" /><path clip-path="url(#clip120)" d="M94.7882 610.473 L111.108 610.473 L111.108 614.409 L89.1632 614.409 L89.1632 610.473 Q91.8252 607.719 96.4085 603.089 Q101.015 598.436 102.196 597.094 Q104.441 594.571 105.321 592.835 Q106.223 591.075 106.223 589.386 Q106.223 586.631 104.279 584.895 Q102.358 583.159 99.2558 583.159 Q97.0567 583.159 94.603 583.923 Q92.1725 584.686 89.3947 586.237 L89.3947 581.515 Q92.2188 580.381 94.6724 579.802 Q97.1261 579.224 99.1632 579.224 Q104.534 579.224 107.728 581.909 Q110.922 584.594 110.922 589.085 Q110.922 591.214 110.112 593.136 Q109.325 595.034 107.219 597.626 Q106.64 598.298 103.538 601.515 Q100.436 604.71 94.7882 610.473 Z" fill="#000000" fill-rule="evenodd" fill-opacity="1" /><path clip-path="url(#clip120)" d="M101.524 244.488 L89.7188 262.937 L101.524 262.937 L101.524 244.488 M100.297 240.414 L106.177 240.414 L106.177 262.937 L111.108 262.937 L111.108 266.826 L106.177 266.826 L106.177 274.974 L101.524 274.974 L101.524 266.826 L85.9225 266.826 L85.9225 262.312 L100.297 240.414 Z" fill="#000000" fill-rule="evenodd" fill-opacity="1" /><polyline clip-path="url(#clip122)" style="stroke:#009af9; stroke-linecap:butt; stroke-linejoin:round; stroke-width:4; stroke-opacity:1; fill:none" points="
  209.532,2636.95 210.549,-687.875 211.566,2550.39 212.583,-548.226 213.6,2368.77 214.617,-349.63 215.634,2153.76 216.651,-125.399 217.668,1936.1 218.685,103.626 
  219.702,1717.43 220.719,319.457 221.736,1517.65 222.753,495.212 223.77,1337.9 224.787,647.206 225.804,1198.2 226.821,776.064 227.838,1086.15 228.855,880.163 
  229.872,991.872 230.889,956.706 231.906,919.496 232.923,1025.84 233.94,895.923 234.957,1051.38 235.974,841.727 236.991,1074.04 238.008,812.463 239.025,1096.16 
  240.042,776.45 241.059,1119.15 242.076,765.131 243.093,1132.14 244.11,765.409 245.127,1141.41 246.144,753.815 247.161,1144.17 248.178,761.389 249.195,1125.01 
  250.212,777.936 251.229,1115.85 252.246,761.776 253.263,1138.58 254.28,767.721 255.297,1106.15 256.314,770.115 257.331,1116.09 258.348,762.98 259.365,1115.35 
  260.382,777.631 261.399,1100.64 262.416,773.085 263.433,1103.74 264.45,779.769 265.467,1079.87 266.484,788.412 267.501,1074 268.518,788.952 269.535,1056.61 
  270.552,808.867 271.569,1060.43 272.586,794.234 273.603,1051.17 274.62,797.422 275.637,1042.31 276.654,808.41 277.671,1044.56 278.688,798.793 279.705,1033.31 
  280.722,813.187 281.739,1022.88 282.756,811.209 283.773,1026.88 284.79,806.529 285.807,1015.48 286.824,815.967 287.841,1008.43 288.858,815.941 289.875,989.712 
  290.892,820.848 291.909,1003.65 292.926,808.001 293.943,1005.75 294.96,826.036 295.977,995.122 296.994,828.422 298.011,977.336 299.028,823.653 300.045,978.829 
  301.062,825.754 302.079,984.98 303.096,824.943 304.113,967.282 305.13,830.88 306.147,979.8 307.164,838.487 308.181,969.958 309.198,848.128 310.215,973.522 
  311.232,831.405 312.249,972.016 313.266,828.184 314.283,964.482 315.3,838.06 316.317,978.368 317.335,836.321 318.352,944.135 319.369,834.204 320.386,965.963 
  321.403,848.181 322.42,956.245 323.437,870.812 324.454,953.178 325.471,840.547 326.488,950.065 327.505,853.15 328.522,939.516 329.539,867.86 330.556,959.266 
  331.573,854.702 332.59,958.863 333.607,849.032 334.624,945.604 335.641,860.137 336.658,941.894 337.675,852.169 338.692,959.867 339.709,871.281 340.726,946.711 
  341.743,873.073 342.76,939.549 343.777,868.051 344.794,942.487 345.811,876.726 346.828,951.753 347.845,863.664 348.862,944.006 349.879,858.669 350.896,939.21 
  351.913,871.459 352.93,940.871 353.947,873.938 354.964,961.451 355.981,872.202 356.998,959.9 358.015,878.349 359.032,931.647 360.049,882.17 361.066,971.504 
  362.083,886.87 363.1,970.804 364.117,880.364 365.134,961.292 366.151,901.095 367.168,947.452 368.185,906.418 369.202,971.805 370.219,915.163 371.236,967.3 
  372.253,909.495 373.27,958.098 374.287,911.36 375.304,990.039 376.321,929.981 377.338,962.772 378.355,940.14 379.372,982.893 380.389,921.837 381.406,985.621 
  382.423,937.718 383.44,980.374 384.457,946.169 385.474,987.453 386.491,947.696 387.508,987.528 388.525,954.748 389.542,987.232 390.559,959.433 391.576,982.982 
  392.593,955.705 393.61,994.21 394.627,948.16 395.644,998.387 396.661,936.387 397.678,974.899 398.695,938.782 399.712,969.045 400.729,934.17 401.746,959.94 
  402.763,938.724 403.78,955.755 404.797,913.114 405.814,931.928 406.831,905.04 407.848,927.172 408.865,873.273 409.882,893.255 410.899,848.226 411.916,894.603 
  412.933,826.196 413.95,857.183 414.967,814.607 415.984,845.131 417.001,788.862 418.018,479.524 419.035,434.186 420.052,456.623 421.069,412.444 422.086,435.466 
  423.103,391.381 424.12,412.293 425.137,370.645 426.154,389.378 427.171,360.332 428.188,370.451 429.205,320.497 430.223,357.173 431.24,306.1 432.257,337.872 
  433.274,301.809 434.291,320.231 435.308,276.847 436.325,298.313 437.342,267.847 438.359,300.154 439.376,260.564 440.393,291.388 441.41,257.86 442.427,286.909 
  443.444,248.458 444.461,269.167 445.478,228.682 446.495,246.689 447.512,240.386 448.529,244.882 449.546,232.974 450.563,264.797 451.58,240.952 452.597,247.796 
  453.614,234.309 454.631,252.852 455.648,229.958 456.665,268.017 457.682,246.138 458.699,271.236 459.716,245.817 460.733,285.429 461.75,254.537 462.767,297.413 
  463.784,267.729 464.801,291.435 465.818,285.885 466.835,328.696 467.852,296.601 468.869,344.063 469.886,330.932 470.903,363.679 471.92,339.24 472.937,382.941 
  473.954,380.411 474.971,415.42 475.988,414.418 477.005,447.026 478.022,430.209 479.039,477.506 480.056,468.502 481.073,923.094 482.09,916.217 483.107,931.404 
  484.124,947.606 485.141,998.185 486.158,989.593 487.175,1016.3 488.192,1012.03 489.209,1043.51 490.226,1056.95 491.243,1076.21 492.26,1061.34 493.277,1071.34 
  494.294,1066.57 495.311,1092.72 496.328,1097.91 497.345,1108.8 498.362,1112.75 499.379,1125.41 500.396,1106.93 501.413,1126.88 502.43,1101.75 503.447,1136.29 
  504.464,1110.9 505.481,1124.9 506.498,1099.63 507.515,1120.88 508.532,1084.61 509.549,1098.31 510.566,1071.76 511.583,1090.66 512.6,1073.9 513.617,1074.34 
  514.634,1052.8 515.651,1033.59 516.668,1016.3 517.685,1031.04 518.702,988.105 519.719,1024.12 520.736,989.082 521.753,987.445 522.77,695.485 523.787,710.914 
  524.804,680.031 525.821,696.54 526.838,664.437 527.855,669.316 528.872,634.418 529.889,648.011 530.906,634.735 531.923,639.909 532.94,613.25 533.957,618.952 
  534.974,601.168 535.991,609.256 537.008,586.729 538.025,588.172 539.042,573.08 540.059,583.154 541.076,565.356 542.093,593.707 543.11,568.157 544.128,574.281 
  545.145,589.421 546.162,570.744 547.179,570.308 548.196,589.217 549.213,565.177 550.23,581.15 551.247,547.87 552.264,574.508 553.281,575.938 554.298,582.269 
  555.315,574.732 556.332,590.005 557.349,581.661 558.366,605.249 559.383,578.586 560.4,601.704 561.417,582.858 562.434,607.773 563.451,581.611 564.468,611.073 
  565.485,609.852 566.502,607.108 567.519,600.095 568.536,606.251 569.553,597.995 570.57,606.488 571.587,605.678 572.604,616.42 573.621,612.535 574.638,620.036 
  575.655,625.3 576.672,616.938 577.689,614.55 578.706,636.899 579.723,613.809 580.74,641 581.757,620.193 582.774,618.387 583.791,618.793 584.808,632.525 
  585.825,619.604 586.842,630.862 587.859,622.582 588.876,629.47 589.893,615.337 590.91,623.83 591.927,605.203 592.944,612.233 593.961,615.778 594.978,620.325 
  595.995,601.9 597.012,618.451 598.029,618.899 599.046,627.109 600.063,615.017 601.08,628.4 602.097,616.892 603.114,625.11 604.131,601.88 605.148,620.496 
  606.165,618.719 607.182,617.175 608.199,612.375 609.216,628.658 610.233,611.494 611.25,642.86 612.267,612.047 613.284,635.827 614.301,606.947 615.318,614.771 
  616.335,616.502 617.352,611.543 618.369,634.888 619.386,631.175 620.403,614.656 621.42,650.119 622.437,618.412 623.454,626.491 624.471,625.578 625.488,621.341 
  626.505,619.783 627.522,627.414 628.539,630.737 629.556,633.825 630.573,615.033 631.59,634.919 632.607,621.3 633.624,619.234 634.641,628.402 635.658,618.007 
  636.675,612.286 637.692,614.934 638.709,618.537 639.726,604.905 640.743,597.751 641.76,612.238 642.777,586.373 643.794,587.686 644.811,584.842 645.828,586.778 
  646.845,572.505 647.862,597.623 648.879,586.069 649.896,582.733 650.913,571.793 651.93,571.653 652.947,564.082 653.964,571.776 654.981,567.84 655.998,565.354 
  657.015,548.805 658.033,562.979 659.05,548.552 660.067,566.21 661.084,541.877 662.101,552.673 663.118,534.178 664.135,548.747 665.152,551.926 666.169,550.814 
  667.186,550.712 668.203,559.274 669.22,565.045 670.237,559.778 671.254,559.128 672.271,572.423 673.288,573.146 674.305,597.113 675.322,587.35 676.339,596.694 
  677.356,608.034 678.373,613.763 679.39,635.34 680.407,640.941 681.424,630.217 682.441,655.737 683.458,670.908 684.475,694.626 685.492,696.609 686.509,720.206 
  687.526,725.439 688.543,1066.32 689.56,1079.53 690.577,1099.08 691.594,1111.9 692.611,1137.99 693.628,1135.75 694.645,1147.96 695.662,1168.58 696.679,1174.29 
  697.696,1189.73 698.713,1205.21 699.73,1216.93 700.747,1216.78 701.764,1225.28 702.781,1246.76 703.798,1240.04 704.815,1246.59 705.832,1243.7 706.849,1244.16 
  707.866,1225.97 708.883,1252.49 709.9,1241 710.917,1243.28 711.934,1257.31 712.951,1250.78 713.968,1232.33 714.985,1222.97 716.002,1203.54 717.019,1230.66 
  718.036,1196.76 719.053,1190.62 720.07,1177.02 721.087,1159.84 722.104,1163.22 723.121,1140.44 724.138,1117.05 725.155,1114.36 726.172,1080.09 727.189,1077.76 
  728.206,1057.85 729.223,1032 730.24,596.547 731.257,586.271 732.274,555.037 733.291,546.087 734.308,530.63 735.325,529.678 736.342,499.503 737.359,475.149 
  738.376,474.264 739.393,473.211 740.41,458.422 741.427,441.908 742.444,426.623 743.461,426.68 744.478,408.92 745.495,415.754 746.512,382.946 747.529,403.134 
  748.546,385.541 749.563,402.591 750.58,392.361 751.597,373.681 752.614,387.643 753.631,384.64 754.648,384.851 755.665,391.912 756.682,376.364 757.699,383.506 
  758.716,387.941 759.733,387.225 760.75,376.834 761.767,391.322 762.784,399.627 763.801,408.728 764.818,408.812 765.835,405.917 766.852,429.763 767.869,405 
  768.886,412.906 769.903,426.82 770.921,425.224 771.938,427.161 772.955,424.505 773.972,426.761 774.989,429.187 776.006,438.911 777.023,427.68 778.04,438.067 
  779.057,441.228 780.074,455.356 781.091,420.415 782.108,451.195 783.125,443.818 784.142,460.526 785.159,449.039 786.176,457.354 787.193,450.54 788.21,453.303 
  789.227,446.579 790.244,453.111 791.261,459.92 792.278,460.481 793.295,447.299 794.312,451.859 795.329,448.126 796.346,450.756 797.363,448.564 798.38,444.325 
  799.397,448.87 800.414,468.884 801.431,454.237 802.448,462.838 803.465,457.239 804.482,457.86 805.499,452.33 806.516,467.242 807.533,454.578 808.55,458.245 
  809.567,448.056 810.584,446.596 811.601,444.877 812.618,455.661 813.635,444.869 814.652,459.635 815.669,454.663 816.686,452.914 817.703,445.521 818.72,454.396 
  819.737,462.499 820.754,464.744 821.771,449.612 822.788,437.095 823.805,450.093 824.822,448.843 825.839,455.403 826.856,466.975 827.873,453.107 828.89,452.226 
  829.907,452.575 830.924,459.336 831.941,454.349 832.958,447.609 833.975,448.957 834.992,469.742 836.009,452.377 837.026,464.205 838.043,462.19 839.06,455.854 
  840.077,445.659 841.094,451.388 842.111,442.173 843.128,458.665 844.145,436.501 845.162,479.896 846.179,436.046 847.196,453.401 848.213,436.841 849.23,453.645 
  850.247,445.223 851.264,431.432 852.281,448.727 853.298,437.596 854.315,436.655 855.332,461.903 856.349,436.62 857.366,458.272 858.383,431.839 859.4,449.85 
  860.417,437.225 861.434,427.723 862.451,433.836 863.468,443.472 864.485,433.528 865.502,435.388 866.519,446.214 867.536,453.938 868.553,435.278 869.57,451.511 
  870.587,438.136 871.604,423.143 872.621,428.467 873.638,438.655 874.655,432.888 875.672,443.421 876.689,428.242 877.706,433.508 878.723,430.552 879.74,437.489 
  880.757,438.442 881.774,438.663 882.791,421.823 883.808,432.671 884.826,420.714 885.843,433.606 886.86,434.339 887.877,440.92 888.894,443.13 889.911,422.155 
  890.928,436.002 891.945,427.605 892.962,427.741 893.979,447.713 894.996,426.253 896.013,429.429 897.03,422.586 898.047,449.144 899.064,450.789 900.081,454.759 
  901.098,431.379 902.115,437.957 903.132,444.518 904.149,443.753 905.166,452.91 906.183,446.179 907.2,438.035 908.217,435.544 909.234,434.982 910.251,441.548 
  911.268,432.995 912.285,450.147 913.302,437.581 914.319,452.016 915.336,455.872 916.353,458.114 917.37,457.217 918.387,453.132 919.404,446.814 920.421,454.464 
  921.438,442.743 922.455,445.882 923.472,462.361 924.489,455.603 925.506,451.376 926.523,468.844 927.54,437.782 928.557,445.643 929.574,447.953 930.591,456.508 
  931.608,442.387 932.625,467.315 933.642,464.618 934.659,451.255 935.676,453.436 936.693,463.072 937.71,455.588 938.727,459.23 939.744,458.048 940.761,459.935 
  941.778,467.684 942.795,484.487 943.812,459.66 944.829,458.35 945.846,472.652 946.863,454.332 947.88,450.013 948.897,479.953 949.914,459.256 950.931,462.139 
  951.948,446.281 952.965,465.654 953.982,464.244 954.999,480 956.016,458.43 957.033,463.077 958.05,464.879 959.067,483.989 960.084,478.27 961.101,470.698 
  962.118,459.688 963.135,475.523 964.152,472.762 965.169,476.516 966.186,471.868 967.203,465.584 968.22,478.149 969.237,466.777 970.254,485.205 971.271,500.492 
  972.288,464.752 973.305,488.125 974.322,468.744 975.339,469.397 976.356,475.593 977.373,483.772 978.39,473.9 979.407,472.846 980.424,475 981.441,467.547 
  982.458,475.843 983.475,471.645 984.492,486.873 985.509,472.992 986.526,486.37 987.543,465.769 988.56,470.197 989.577,464.588 990.594,466.008 991.611,481.477 
  992.628,460.558 993.645,473.777 994.662,470.395 995.679,470.659 996.696,451.672 997.714,473.686 998.731,449.915 999.748,447.765 1000.76,461.863 1001.78,442.861 
  1002.8,435.742 1003.82,448.625 1004.83,446.47 1005.85,432.801 1006.87,407.757 1007.88,436.556 1008.9,426.74 1009.92,438.95 1010.93,423.799 1011.95,431.668 
  1012.97,421.839 1013.99,423.235 1015,415.759 1016.02,412.573 1017.04,414.293 1018.05,417.579 1019.07,417.746 1020.09,415.408 1021.1,417.631 1022.12,421.05 
  1023.14,428.037 1024.16,426.907 1025.17,424.581 1026.19,444.646 1027.21,425.997 1028.22,443.932 1029.24,453.944 1030.26,462.222 1031.27,474.828 1032.29,478.076 
  1033.31,479.909 1034.33,477.43 1035.34,496.872 1036.36,517.499 1037.38,541.211 1038.39,527.947 1039.41,562.402 1040.43,567.392 1041.44,589.737 1042.46,952.144 
  1043.48,968.533 1044.5,964.909 1045.51,983.61 1046.53,976.631 1047.55,1016.31 1048.56,999.39 1049.58,1002.3 1050.6,1025.67 1051.61,1037.73 1052.63,1064.47 
  1053.65,1055.44 1054.67,1077.47 1055.68,1060.77 1056.7,1068.19 1057.72,1082.72 1058.73,1092.41 1059.75,1080.44 1060.77,1100.25 1061.79,1100.66 1062.8,1108.19 
  1063.82,1089.9 1064.84,1111.89 1065.85,1100.19 1066.87,1103.16 1067.89,1107.39 1068.9,1095.45 1069.92,1123.22 1070.94,1107.71 1071.96,1096.81 1072.97,1104.64 
  1073.99,1106.62 1075.01,1109.31 1076.02,1093.27 1077.04,1090.56 1078.06,1096.84 1079.07,1094.54 1080.09,1105.33 1081.11,1078.66 1082.13,1091.13 1083.14,1095.77 
  1084.16,1094.36 1085.18,1078.81 1086.19,1088.62 1087.21,1081.58 1088.23,1090.89 1089.24,1079.46 1090.26,1073.07 1091.28,1092.1 1092.3,1078.85 1093.31,1086.11 
  1094.33,1085.42 1095.35,1096.07 1096.36,1092.39 1097.38,1090.43 1098.4,1078.91 1099.41,1083.94 1100.43,1088.02 1101.45,1087.61 1102.47,1073.17 1103.48,1067.82 
  1104.5,1074.73 1105.52,1089.16 1106.53,1046.4 1107.55,1070.19 1108.57,1072.51 1109.58,1063.32 1110.6,1092.69 1111.62,1055.92 1112.64,1059.4 1113.65,1058.03 
  1114.67,1059.24 1115.69,1056.63 1116.7,1032.78 1117.72,1041.28 1118.74,1039.56 1119.75,1024.83 1120.77,1019.68 1121.79,1031.16 1122.81,1020.15 1123.82,1015.65 
  1124.84,1017.67 1125.86,840.748 1126.87,823.808 1127.89,808.922 1128.91,790.547 1129.92,815.468 1130.94,787.941 1131.96,797.18 1132.98,794.699 1133.99,792.204 
  1135.01,781.41 1136.03,782.18 1137.04,792.439 1138.06,775.623 1139.08,776.009 1140.09,786.536 1141.11,763.233 1142.13,762.415 1143.15,767.142 1144.16,767.258 
  1145.18,751.704 1146.2,758.785 1147.21,755.485 1148.23,769.258 1149.25,759.913 1150.26,754.469 1151.28,744.421 1152.3,766.344 1153.32,765.703 1154.33,763.435 
  1155.35,756.975 1156.37,765.069 1157.38,766.815 1158.4,785.393 1159.42,764.358 1160.43,778.762 1161.45,786.188 1162.47,768.207 1163.49,780.182 1164.5,780.82 
  1165.52,779.685 1166.54,788.052 1167.55,790.896 1168.57,790.045 1169.59,782.669 1170.61,794.35 1171.62,800.986 1172.64,787.182 1173.66,796.709 1174.67,790.237 
  1175.69,799.361 1176.71,802.416 1177.72,799.518 1178.74,786.163 1179.76,805.113 1180.78,795.999 1181.79,812.12 1182.81,803.541 1183.83,798.108 1184.84,815.762 
  1185.86,808.79 1186.88,799.1 1187.89,802.854 1188.91,807.61 1189.93,816.128 1190.95,816.495 1191.96,822.692 1192.98,810.135 1194,821.009 1195.01,805.704 
  1196.03,807.651 1197.05,817.168 1198.06,822.346 1199.08,817.716 1200.1,808.626 1201.12,802.409 1202.13,806.573 1203.15,819.981 1204.17,825.868 1205.18,810.057 
  1206.2,810.034 1207.22,800.656 1208.23,822.323 1209.25,815.499 1210.27,819.316 1211.29,807.225 1212.3,816.515 1213.32,815.236 1214.34,803.756 1215.35,810.238 
  1216.37,818.023 1217.39,803.156 1218.4,816.997 1219.42,814.376 1220.44,806.839 1221.46,817.347 1222.47,808.657 1223.49,819.35 1224.51,805.319 1225.52,825.24 
  1226.54,822.824 1227.56,804.997 1228.57,814.375 1229.59,818.045 1230.61,816.263 1231.63,809.959 1232.64,814.509 1233.66,816.159 1234.68,822.941 1235.69,813.411 
  1236.71,814.886 1237.73,819.764 1238.74,818.181 1239.76,815.98 1240.78,801.102 1241.8,808.568 1242.81,827.223 1243.83,816.858 1244.85,809.099 1245.86,810.177 
  1246.88,804.957 1247.9,810.045 1248.91,814.441 1249.93,811.657 1250.95,803.534 1251.97,820.834 1252.98,790.366 1254,818.673 1255.02,813.143 1256.03,815.444 
  1257.05,809.911 1258.07,796.921 1259.08,810.279 1260.1,798.457 1261.12,802.56 1262.14,813.374 1263.15,807.989 1264.17,808.446 1265.19,796.249 1266.2,805.92 
  1267.22,794.354 1268.24,798.236 1269.25,798.458 1270.27,799.36 1271.29,784.689 1272.31,803.523 1273.32,789.786 1274.34,798.246 1275.36,800.017 1276.37,796.943 
  1277.39,799.956 1278.41,805.261 1279.42,800.196 1280.44,796.027 1281.46,793.504 1282.48,788.126 1283.49,799.608 1284.51,799.896 1285.53,799.457 1286.54,806.93 
  1287.56,792.53 1288.58,787.35 1289.6,792.948 1290.61,783.634 1291.63,786.017 1292.65,786.755 1293.66,785.79 1294.68,796.567 1295.7,784.445 1296.71,795.14 
  1297.73,776.382 1298.75,777.573 1299.77,779.538 1300.78,795.564 1301.8,795.859 1302.82,771.286 1303.83,768.923 1304.85,784.762 1305.87,782.811 1306.88,790.066 
  1307.9,770.266 1308.92,784.213 1309.94,774.556 1310.95,770.686 1311.97,775.641 1312.99,809.889 1314,774.793 1315.02,779.245 1316.04,772.185 1317.05,792.016 
  1318.07,795.657 1319.09,802.496 1320.11,776.894 1321.12,786.234 1322.14,781.025 1323.16,797.473 1324.17,789.649 1325.19,778.283 1326.21,789.455 1327.22,780.124 
  1328.24,790.617 1329.26,779.808 1330.28,795.745 1331.29,768.595 1332.31,792.903 1333.33,792.596 1334.34,808.536 1335.36,798.515 1336.38,786.235 1337.39,791.965 
  1338.41,786.916 1339.43,789.226 1340.45,782.745 1341.46,783.953 1342.48,793.839 1343.5,791.908 1344.51,779.979 1345.53,804.527 1346.55,803.994 1347.56,793.815 
  1348.58,782.577 1349.6,802.625 1350.62,786.499 1351.63,784.923 1352.65,796.777 1353.67,802.549 1354.68,796.739 1355.7,797.166 1356.72,785.938 1357.73,797.301 
  1358.75,795.111 1359.77,801.411 1360.79,781.657 1361.8,801.689 1362.82,796.501 1363.84,787.664 1364.85,783.189 1365.87,807.165 1366.89,786.911 1367.9,803.476 
  1368.92,790.082 1369.94,800.773 1370.96,786.877 1371.97,795.116 1372.99,777.682 1374.01,804.196 1375.02,792.776 1376.04,798.504 1377.06,790.522 1378.07,799.1 
  1379.09,787.838 1380.11,794.609 1381.13,788.891 1382.14,790.1 1383.16,791.954 1384.18,804.659 1385.19,794.368 1386.21,792.199 1387.23,798.617 1388.24,792.021 
  1389.26,781.542 1390.28,794.646 1391.3,799.213 1392.31,787.278 1393.33,785.917 1394.35,800.803 1395.36,792.752 1396.38,778.482 1397.4,795.415 1398.42,782.534 
  1399.43,786.943 1400.45,781.372 1401.47,785.092 1402.48,792.507 1403.5,805.371 1404.52,792.788 1405.53,779.516 1406.55,783.929 1407.57,796.361 1408.59,788.423 
  1409.6,770.258 1410.62,793.402 1411.64,785.948 1412.65,777.723 1413.67,789.498 1414.69,777.242 1415.7,789.151 1416.72,789.757 1417.74,790.399 1418.76,785.779 
  1419.77,781.14 1420.79,779.659 1421.81,784.521 1422.82,773.68 1423.84,777.183 1424.86,778.54 1425.87,778.813 1426.89,766.364 1427.91,765.652 1428.93,785.374 
  1429.94,784.049 1430.96,764.428 1431.98,753.615 1432.99,767.501 1434.01,763.467 1435.03,767.758 1436.04,763.341 1437.06,752.917 1438.08,763.384 1439.1,742.69 
  1440.11,768.25 1441.13,771.787 1442.15,752.592 1443.16,762.427 1444.18,764.61 1445.2,767.298 1446.21,762.692 1447.23,763.405 1448.25,751.93 1449.27,740.136 
  1450.28,749.093 1451.3,756.586 1452.32,760.634 1453.33,752.772 1454.35,768.852 1455.37,752.762 1456.38,754.33 1457.4,763.489 1458.42,743.731 1459.44,754.629 
  1460.45,761.421 1461.47,748.173 1462.49,740.479 1463.5,727.628 1464.52,752.592 1465.54,750.855 1466.55,759 1467.57,739.622 1468.59,737.686 1469.61,743.933 
  1470.62,748.247 1471.64,736.114 1472.66,750.644 1473.67,751.549 1474.69,745.718 1475.71,736.863 1476.72,734.635 1477.74,740.142 1478.76,740.628 1479.78,738.983 
  1480.79,760.66 1481.81,732.394 1482.83,733.63 1483.84,732.644 1484.86,736.87 1485.88,728.715 1486.89,739.345 1487.91,736.419 1488.93,740.624 1489.95,727.349 
  1490.96,731.833 1491.98,743.114 1493,729.419 1494.01,728.141 1495.03,740.46 1496.05,721.53 1497.06,726.919 1498.08,722.397 1499.1,726.444 1500.12,732.016 
  1501.13,730.003 1502.15,731.677 1503.17,722.64 1504.18,728.18 1505.2,733.538 1506.22,723.072 1507.23,733.866 1508.25,731.908 1509.27,729.383 1510.29,747.38 
  1511.3,738.712 1512.32,725.771 1513.34,739.594 1514.35,737.543 1515.37,727.379 1516.39,729.781 1517.41,731.044 1518.42,737.84 1519.44,732.757 1520.46,747.95 
  1521.47,760.058 1522.49,749.037 1523.51,750.202 1524.52,761.1 1525.54,752.862 1526.56,761.687 1527.58,771.565 1528.59,770.201 1529.61,772.046 1530.63,783.244 
  1531.64,777.252 1532.66,772.056 1533.68,777.635 1534.69,765.989 1535.71,776.135 1536.73,789.051 1537.75,777.08 1538.76,777.172 1539.78,782.074 1540.8,763.287 
  1541.81,754.431 1542.83,762.148 1543.85,751.643 1544.86,761.962 1545.88,760.997 1546.9,731.344 1547.92,723.189 1548.93,726.793 1549.95,720.621 1550.97,721.401 
  1551.98,707.883 1553,686.048 1554.02,672.575 1555.03,667.612 1556.05,664.747 1557.07,645.294 1558.09,661.721 1559.1,640.071 1560.12,622.773 1561.14,608.583 
  1562.15,600.719 1563.17,217.602 1564.19,229.685 1565.2,184.629 1566.22,197.446 1567.24,169.128 1568.26,170.364 1569.27,142.395 1570.29,142.566 1571.31,142.091 
  1572.32,129.996 1573.34,109.058 1574.36,105.767 1575.37,101.769 1576.39,92.315 1577.41,93.1964 1578.43,84.1506 1579.44,67.8422 1580.46,59.0076 1581.48,70.1109 
  1582.49,60.9078 1583.51,44.6664 1584.53,69.5012 1585.54,66.3385 1586.56,49.3755 1587.58,52.0927 1588.6,57.8445 1589.61,79.3702 1590.63,55.9137 1591.65,53.2928 
  1592.66,80.978 1593.68,63.0919 1594.7,65.1403 1595.71,53.3017 1596.73,62.533 1597.75,69.3759 1598.77,86.3494 1599.78,71.4227 1600.8,65.4429 1601.82,63.2364 
  1602.83,89.9286 1603.85,91.068 1604.87,85.2542 1605.88,86.8267 1606.9,86.029 1607.92,92.8789 1608.94,86.4543 1609.95,92.0388 1610.97,97.0646 1611.99,88.2536 
  1613,90.9944 1614.02,96.1395 1615.04,113.664 1616.05,92.1696 1617.07,103.508 1618.09,98.5327 1619.11,100.799 1620.12,103.745 1621.14,106.084 1622.16,96.918 
  1623.17,112.627 1624.19,106.88 1625.21,105.581 1626.23,90.9222 1627.24,97.4327 1628.26,97.9105 1629.28,114.607 1630.29,97.8748 1631.31,99.5485 1632.33,93.6666 
  1633.34,118.801 1634.36,99.7956 1635.38,105.932 1636.4,88.3533 1637.41,98.7956 1638.43,104.255 1639.45,97.0631 1640.46,91.8771 1641.48,99.4705 1642.5,103.511 
  1643.51,110.523 1644.53,108.083 1645.55,96.6064 1646.57,111.948 1647.58,102.225 1648.6,97.6478 1649.62,88.0449 1650.63,95.3434 1651.65,92.9207 1652.67,104.271 
  1653.68,94.5555 1654.7,102.263 1655.72,115.538 1656.74,96.0397 1657.75,116.126 1658.77,92.6001 1659.79,104.112 1660.8,84.6238 1661.82,107.869 1662.84,97.4489 
  1663.85,93.5734 1664.87,95.1069 1665.89,97.9166 1666.91,83.7985 1667.92,97.3731 1668.94,102.245 1669.96,87.4659 1670.97,98.725 1671.99,84.9306 1673.01,80.0561 
  1674.02,94.8195 1675.04,82.9062 1676.06,89.2654 1677.08,75.4951 1678.09,92.9671 1679.11,85.0494 1680.13,78.9425 1681.14,93.7644 1682.16,86.072 1683.18,101.818 
  1684.19,80.4653 1685.21,67.4345 1686.23,86.2751 1687.25,86.4403 1688.26,84.3072 1689.28,69.9336 1690.3,78.3821 1691.31,78.8062 1692.33,80.9369 1693.35,65.9411 
  1694.36,87.8168 1695.38,80.7095 1696.4,75.3974 1697.42,81.1762 1698.43,76.452 1699.45,69.0661 1700.47,63.6943 1701.48,79.5631 1702.5,76.9958 1703.52,71.6185 
  1704.53,83.9821 1705.55,59.8171 1706.57,77.3499 1707.59,63.0314 1708.6,63.8333 1709.62,66.8981 1710.64,62.7423 1711.65,58.4039 1712.67,69.6156 1713.69,62.7482 
  1714.7,54.1657 1715.72,64.8981 1716.74,47.6879 1717.76,69.4403 1718.77,82.9603 1719.79,62.932 1720.81,63.6823 1721.82,65.3003 1722.84,50.161 1723.86,58.2531 
  1724.87,65.459 1725.89,68.4336 1726.91,65.9359 1727.93,45.3127 1728.94,57.4343 1729.96,48.9925 1730.98,64.8849 1731.99,70.6233 1733.01,61.0308 1734.03,52.3646 
  1735.05,59.9691 1736.06,51.2922 1737.08,67.307 1738.1,71.3638 1739.11,60.9552 1740.13,59.461 1741.15,57.0116 1742.16,46.92 1743.18,24.8307 1744.2,45.5222 
  1745.22,71.6522 1746.23,58.2058 1747.25,37.5742 1748.27,44.0608 1749.28,58.6073 1750.3,45.6501 1751.32,25.0422 1752.33,53.2474 1753.35,44.3967 1754.37,42.975 
  1755.39,20.9672 1756.4,36.117 1757.42,43.4793 1758.44,48.6541 1759.45,44.2024 1760.47,39.4648 1761.49,15.598 1762.5,33.5963 1763.52,23.3575 1764.54,24.2229 
  1765.56,31.1702 1766.57,32.4216 1767.59,41.8744 1768.61,50.6431 1769.62,52.8025 1770.64,40.8068 1771.66,29.0766 1772.67,50.3588 1773.69,51.8744 1774.71,53.2889 
  1775.73,57.6802 1776.74,51.2324 1777.76,68.7139 1778.78,61.8556 1779.79,93.2686 1780.81,96.4859 1781.83,86.0994 1782.84,106.248 1783.86,113.464 1784.88,129.455 
  1785.9,125.896 1786.91,151.154 1787.93,145.903 1788.95,167.516 1789.96,171.76 1790.98,190.989 1792,466.657 1793.01,478.148 1794.03,479.496 1795.05,491.028 
  1796.07,501.275 1797.08,512.279 1798.1,528.23 1799.12,529.165 1800.13,536.822 1801.15,531.418 1802.17,554.379 1803.18,584.363 1804.2,563.094 1805.22,576.8 
  1806.24,585.149 1807.25,588.961 1808.27,575.387 1809.29,587.961 1810.3,597.581 1811.32,598.631 1812.34,593.332 1813.35,606.577 1814.37,604.828 1815.39,597.623 
  1816.41,603.768 1817.42,593.794 1818.44,607.262 1819.46,582.8 1820.47,597.659 1821.49,584.625 1822.51,571.181 1823.52,570.282 1824.54,581.65 1825.56,558.894 
  1826.58,559.772 1827.59,576.642 1828.61,551.887 1829.63,539.507 1830.64,535.54 1831.66,524.354 1832.68,509.111 1833.69,327.888 1834.71,329.015 1835.73,324.107 
  1836.75,303.749 1837.76,301.038 1838.78,300.175 1839.8,290.278 1840.81,290.228 1841.83,259.995 1842.85,274.28 1843.86,273.029 1844.88,267.047 1845.9,253.876 
  1846.92,252.709 1847.93,262.191 1848.95,258.718 1849.97,229.698 1850.98,224.907 1852,225.498 1853.02,237.816 1854.04,214.489 1855.05,225.226 1856.07,209.737 
  1857.09,216.441 1858.1,205.16 1859.12,189.854 1860.14,214.048 1861.15,200.696 1862.17,192.686 1863.19,208.984 1864.21,197.198 1865.22,201.891 1866.24,188.665 
  1867.26,214.879 1868.27,205.239 1869.29,209.786 1870.31,224.568 1871.32,219.621 1872.34,209.303 1873.36,217.702 1874.38,213.322 1875.39,226.598 1876.41,225.023 
  1877.43,237.502 1878.44,247.92 1879.46,243.717 1880.48,239.074 1881.49,250.644 1882.51,231.827 1883.53,266.253 1884.55,276.842 1885.56,296.135 1886.58,277.221 
  1887.6,294.852 1888.61,311.535 1889.63,323.37 1890.65,340.03 1891.66,330.849 1892.68,355.242 1893.7,384.676 1894.72,381.578 1895.73,403.931 1896.75,769.429 
  1897.77,775.97 1898.78,789.118 1899.8,809.503 1900.82,808.501 1901.83,821.592 1902.85,836.09 1903.87,854.619 1904.89,861.022 1905.9,863.076 1906.92,882.588 
  1907.94,872.111 1908.95,886.42 1909.97,899.364 1910.99,896.422 1912,904.884 1913.02,918.46 1914.04,910.504 1915.06,918.447 1916.07,931.03 1917.09,933.943 
  1918.11,927.278 1919.12,927.883 1920.14,932.862 1921.16,925.159 1922.17,938.707 1923.19,937.37 1924.21,925.123 1925.23,948.048 1926.24,948.208 1927.26,937.151 
  1928.28,946.611 1929.29,943.534 1930.31,936.502 1931.33,915.035 1932.34,929.467 1933.36,921.838 1934.38,922.09 1935.4,925.224 1936.41,934.004 1937.43,928.905 
  1938.45,916.427 1939.46,907.636 1940.48,917.498 1941.5,907.837 1942.51,931.041 1943.53,904.739 1944.55,928.209 1945.57,893.901 1946.58,896.91 1947.6,909.568 
  1948.62,903.381 1949.63,892.618 1950.65,897.853 1951.67,905.086 1952.68,898.923 1953.7,915.602 1954.72,901.184 1955.74,899.103 1956.75,887.308 1957.77,906.683 
  1958.79,887.301 1959.8,900.599 1960.82,904.402 1961.84,904.33 1962.86,900.216 1963.87,895.137 1964.89,910.999 1965.91,900.959 1966.92,907.973 1967.94,896.267 
  1968.96,907.693 1969.97,907.74 1970.99,898.482 1972.01,910.921 1973.03,901.755 1974.04,880.075 1975.06,914.431 1976.08,890.919 1977.09,911.801 1978.11,885.482 
  1979.13,919.562 1980.14,902.613 1981.16,888.153 1982.18,896.021 1983.2,900.708 1984.21,890.185 1985.23,901.573 1986.25,902.736 1987.26,913.957 1988.28,896.819 
  1989.3,907.877 1990.31,904.626 1991.33,909.741 1992.35,907.548 1993.37,913.007 1994.38,897.748 1995.4,903.043 1996.42,904.162 1997.43,906.488 1998.45,898.109 
  1999.47,902.496 2000.48,902.981 2001.5,888.698 2002.52,890.466 2003.54,923.901 2004.55,894.466 2005.57,920.721 2006.59,913.659 2007.6,896.999 2008.62,914.632 
  2009.64,899.59 2010.65,915.411 2011.67,922.454 2012.69,911.981 2013.71,916.87 2014.72,914.375 2015.74,935.12 2016.76,909.244 2017.77,916.822 2018.79,923.342 
  2019.81,919.614 2020.82,916.243 2021.84,926.632 2022.86,914.14 2023.88,935.109 2024.89,921.422 2025.91,926.619 2026.93,924.537 2027.94,927.467 2028.96,921.196 
  2029.98,933.003 2030.99,928.973 2032.01,929.951 2033.03,930.768 2034.05,932.996 2035.06,919.524 2036.08,944.504 2037.1,928.587 2038.11,950.616 2039.13,915.938 
  2040.15,933.416 2041.16,925.241 2042.18,940.685 2043.2,928.521 2044.22,939.431 2045.23,927.207 2046.25,939.675 2047.27,935.824 2048.28,949.117 2049.3,926.551 
  2050.32,957.104 2051.33,931.451 2052.35,925.44 2053.37,940.453 2054.39,939.666 2055.4,929.97 2056.42,946.907 2057.44,940.004 2058.45,952.576 2059.47,935.473 
  2060.49,936.245 2061.5,924.581 2062.52,951.419 2063.54,935.662 2064.56,963.53 2065.57,947.129 2066.59,948.991 2067.61,934.96 2068.62,951.678 2069.64,942.861 
  2070.66,949.647 2071.67,935.867 2072.69,928.204 2073.71,931.831 2074.73,947.729 2075.74,951.6 2076.76,953.026 2077.78,935.075 2078.79,957.5 2079.81,937.908 
  2080.83,949.963 2081.85,924.738 2082.86,966.179 2083.88,946.425 2084.9,939.053 2085.91,937.98 2086.93,951.192 2087.95,938.419 2088.96,952.387 2089.98,942.042 
  2091,969.515 2092.02,950.929 2093.03,954.697 2094.05,951.083 2095.07,960.492 2096.08,934.418 2097.1,958.185 2098.12,946.9 2099.13,960.986 2100.15,956.8 
  2101.17,960.563 2102.19,942.36 2103.2,977.098 2104.22,937.73 2105.24,971.686 2106.25,938.826 2107.27,959.184 2108.29,950.945 2109.3,957.33 2110.32,948.84 
  2111.34,970.554 2112.36,955.356 2113.37,950.733 2114.39,933.391 2115.41,959.52 2116.42,948.567 2117.44,964.25 2118.46,936.852 2119.47,945.412 2120.49,932.133 
  2121.51,954.29 2122.53,932.304 2123.54,950.925 2124.56,934.565 2125.58,964.154 2126.59,944.478 2127.61,947.448 2128.63,926.459 2129.64,952.055 2130.66,934.271 
  2131.68,953.684 2132.7,940.916 2133.71,960.347 2134.73,919.095 2135.75,942.932 2136.76,929.784 2137.78,962.141 2138.8,937.282 2139.81,959.226 2140.83,930.635 
  2141.85,950.359 2142.87,929.671 2143.88,957.437 2144.9,920.132 2145.92,955.676 2146.93,941.265 2147.95,964.611 2148.97,941.32 2149.98,947.612 2151,933.406 
  2152.02,972.834 2153.04,913.751 2154.05,969.325 2155.07,909.693 2156.09,955.982 2157.1,923.453 2158.12,957.911 2159.14,923.927 2160.15,938.444 2161.17,928.096 
  2162.19,961.085 2163.21,913.065 2164.22,958.717 2165.24,922.85 2166.26,961.981 2167.27,921.187 2168.29,952.607 2169.31,910.496 2170.32,950.027 2171.34,922.894 
  2172.36,966.012 2173.38,915.329 2174.39,949.441 2175.41,903.688 2176.43,942.942 2177.44,914.757 2178.46,957.852 2179.48,900.173 2180.49,966.288 2181.51,912.777 
  2182.53,947.391 2183.55,914.094 2184.56,958.843 2185.58,915.414 2186.6,963.73 2187.61,910.426 2188.63,955.8 2189.65,902.291 2190.67,946.774 2191.68,909.174 
  2192.7,934.634 2193.72,902.274 2194.73,972.346 2195.75,913.068 2196.77,954.131 2197.78,916.736 2198.8,964.687 2199.82,911.371 2200.84,968.853 2201.85,912.727 
  2202.87,946.347 2203.89,894.878 2204.9,950.039 2205.92,896.125 2206.94,974.472 2207.95,900.581 2208.97,967.776 2209.99,889.914 2211.01,950.223 2212.02,884.003 
  2213.04,967.223 2214.06,891.707 2215.07,977.502 2216.09,892.036 2217.11,962.467 2218.12,891.88 2219.14,978.831 2220.16,885.909 2221.18,981.912 2222.19,887.721 
  2223.21,985.937 2224.23,872.816 2225.24,981.775 2226.26,876.189 2227.28,975.1 2228.29,889.784 2229.31,985.482 2230.33,876.514 2231.35,966.757 2232.36,870.214 
  2233.38,977.564 2234.4,877.007 2235.41,999.999 2236.43,880.562 2237.45,991.75 2238.46,870.572 2239.48,999.029 2240.5,864.95 2241.52,993.441 2242.53,868.367 
  2243.55,1008.01 2244.57,862.319 2245.58,995.077 2246.6,869 2247.62,1001.18 2248.63,852.294 2249.65,1007.9 2250.67,866.726 2251.69,1031.48 2252.7,871.845 
  2253.72,1007.74 2254.74,872.229 2255.75,1018.34 2256.77,870.446 2257.79,993.576 2258.8,874.457 2259.82,987.822 2260.84,887.545 2261.86,1001.54 2262.87,903.235 
  2263.89,975.146 2264.91,894.914 2265.92,969.408 2266.94,915.472 2267.96,939.61 2268.97,926.241 2269.99,917.378 2271.01,964.389 2272.03,894.673 2273.04,1014.8 
  2274.06,841.267 2275.08,1042.15 2276.09,781.278 2277.11,1104.95 2278.13,741.22 2279.14,1184.6 2280.16,636.619 2281.18,1265.77 2282.2,561.847 2283.21,1348.01 
  2284.23,477.875 2285.25,1437.09 2286.26,396.91 2287.28,1503.72 2288.3,326.58 2289.31,1557.82 2290.33,295.94 
  "/>
<polyline clip-path="url(#clip122)" style="stroke:#e26f46; stroke-linecap:butt; stroke-linejoin:round; stroke-width:4; stroke-opacity:1; fill:none" points="
  209.532,940.711 210.549,920.97 211.566,939.756 212.583,933.239 213.6,918.638 214.617,930.82 215.634,924.819 216.651,925.973 217.668,953.834 218.685,929.984 
  219.702,959.731 220.719,942.451 221.736,956.081 222.753,928.266 223.77,934.64 224.787,926.337 225.804,934.442 226.821,935.953 227.838,934.917 228.855,947.845 
  229.872,923.078 230.889,948.957 231.906,914.833 232.923,972.024 233.94,971.271 234.957,937.702 235.974,940.042 236.991,921.384 238.008,937.783 239.025,922.696 
  240.042,905.704 241.059,940.311 242.076,910.39 243.093,949.149 244.11,928.596 245.127,959.15 246.144,915.722 247.161,962.639 248.178,935.679 249.195,927.198 
  250.212,969.512 251.229,915.399 252.246,934.985 253.263,970.094 254.28,942.58 255.297,916.419 256.314,941.649 257.331,948.842 258.348,920.74 259.365,960.854 
  260.382,942.858 261.399,945.539 262.416,926.316 263.433,966.155 264.45,932.173 265.467,932.965 266.484,942.036 267.501,935.742 268.518,935.882 269.535,915.347 
  270.552,968.734 271.569,937.135 272.586,932.788 273.603,932.454 274.62,932.805 275.637,928.207 276.654,948.746 277.671,945.774 278.688,923.798 279.705,935.918 
  280.722,947.173 281.739,927.23 282.756,938.087 283.773,946.927 284.79,923.855 285.807,935.328 286.824,938.086 287.841,931.947 288.858,933.587 289.875,904.692 
  290.892,939.124 291.909,942.245 292.926,909.294 293.943,955.596 294.96,941.347 295.977,942.996 296.994,942.192 298.011,915.564 299.028,928.797 300.045,926.19 
  301.062,929.192 302.079,945.638 303.096,923.796 304.113,916.907 305.13,931.915 306.147,948.139 307.164,943.38 308.181,934.193 309.198,958.908 310.215,946.62 
  311.232,921.696 312.249,948.478 313.266,911.468 314.283,937.872 315.3,927.417 316.317,969.718 317.335,920.114 318.352,904.959 319.369,912.04 320.386,951.978 
  321.403,936.142 322.42,935.585 323.437,977.552 324.454,932.199 325.471,913.178 326.488,928.455 327.505,934.562 328.522,909.6 329.539,960.193 330.556,951.129 
  331.573,930.134 332.59,952.165 333.607,915.109 334.624,927.321 335.641,933.698 336.658,921.423 337.675,914.204 338.692,958.752 339.709,948.932 340.726,933.68 
  341.743,949.068 342.76,920.448 343.777,935.597 344.794,927.247 345.811,949.509 346.828,946.501 347.845,919.888 348.862,931.481 349.879,906.284 350.896,922.058 
  351.913,928.058 352.93,925.176 353.947,928.94 354.964,965.679 355.981,921.031 356.998,961.379 358.015,928.432 359.032,903.047 360.049,930.631 361.066,980.222 
  362.083,933.951 363.1,975.492 364.117,914.147 365.134,952.29 366.151,948.056 367.168,919.547 368.185,950.363 369.202,962.31 370.219,958.747 371.236,946.518 
  372.253,937.598 373.27,920.589 374.287,930.928 375.304,976.354 376.321,957.365 377.338,913.329 378.355,966.718 379.372,944.985 380.389,919.296 381.406,942.109 
  382.423,940.767 383.44,923.947 384.457,948.339 385.474,931.563 386.491,943.505 387.508,926.799 388.525,951.678 389.542,923.45 390.559,957.603 391.576,914.883 
  392.593,949.712 393.61,940.47 394.627,937.687 395.644,955.624 396.661,921.138 397.678,919.514 398.695,937.206 399.712,923.03 400.729,943.779 401.746,924.59 
  402.763,973.316 403.78,940.573 404.797,947.123 405.814,921.75 406.831,960.414 407.848,945.285 408.865,930.395 409.882,914.309 410.899,917.41 411.916,957.128 
  412.933,913.451 413.95,925.017 414.967,932.656 415.984,945.508 417.001,925.062 418.018,259.961 419.035,260.309 420.052,260.09 421.069,261.327 422.086,263.189 
  423.103,262.846 424.12,261.01 425.137,263.475 426.154,257.462 427.171,282.816 428.188,259.47 429.205,240.501 430.223,269.945 431.24,246.1 432.257,265.249 
  433.274,268.709 434.291,260.568 435.308,246.65 436.325,243.947 437.342,253.143 438.359,271.449 439.376,259.716 440.393,274.378 441.41,272.137 442.427,282.571 
  443.444,267.897 444.461,260.963 445.478,239.66 446.495,226.602 447.512,271.1 448.529,230.233 449.546,260.92 450.563,273.816 451.58,277.949 452.597,239.863 
  453.614,261.918 454.631,246.031 455.648,246.337 456.665,268.093 457.682,267.335 458.699,261.581 459.716,250.489 460.733,271.988 461.75,246.557 462.767,272.647 
  463.784,246.136 464.801,231.839 465.818,250.058 466.835,271.881 467.852,233.503 468.869,262.582 469.886,258.745 470.903,256.484 471.92,226.864 472.937,244.84 
  473.954,256.195 474.971,255.463 475.988,267.45 477.005,261.031 478.022,239.479 479.039,262.079 480.056,254.836 481.073,1092.26 482.09,1088.59 483.107,1048.08 
  484.124,1090.58 485.141,1122.38 486.158,1115.99 487.175,1102.23 488.192,1105.85 489.209,1104.44 490.226,1145.46 491.243,1123.01 492.26,1109.95 493.277,1072.84 
  494.294,1083 495.311,1082.48 496.328,1115.94 497.345,1089.47 498.362,1124.08 499.379,1105.91 500.396,1099.45 501.413,1100.63 502.43,1084.69 503.447,1119.82 
  504.464,1107.06 505.481,1105.69 506.498,1096.67 507.515,1114.08 508.532,1086.27 509.549,1092.52 510.566,1086.92 511.583,1107.04 512.6,1123.35 513.617,1109.52 
  514.634,1118.08 515.651,1067.32 516.668,1085.61 517.685,1104.56 518.702,1072.21 519.719,1134.91 520.736,1118.42 521.753,1106.41 522.77,575.594 523.787,597.756 
  524.804,588.077 525.821,611.925 526.838,598.317 527.855,597.978 528.872,576.887 529.889,592.667 530.906,612.6 531.923,609.934 532.94,600.637 533.957,597.21 
  534.974,603.047 535.991,602.445 537.008,596.111 538.025,580.234 539.042,586.096 540.059,585.536 541.076,583.4 542.093,617.553 543.11,597.478 544.128,585.505 
  545.145,644.573 546.162,581.533 547.179,607.452 548.196,618.361 549.213,595.339 550.23,599.413 551.247,556.454 552.264,581.158 553.281,606.435 554.298,590.087 
  555.315,596.508 556.332,597.85 557.349,601.982 558.366,619.98 559.383,587.02 560.4,604.301 561.417,586.708 562.434,607.969 563.451,575.633 564.468,606.506 
  565.485,624.066 566.502,591.141 567.519,597.225 568.536,582.781 569.553,586.547 570.57,577.498 571.587,596.355 572.604,592.537 573.621,605.458 574.638,595.881 
  575.655,627.299 576.672,586.694 577.689,602.984 578.706,624.454 579.723,599.475 580.74,631.234 581.757,610.91 582.774,585.221 583.791,607.358 584.808,613.228 
  585.825,608.694 586.842,610.037 587.859,614.712 588.876,607.676 589.893,600.519 590.91,596.995 591.927,580.676 592.944,574.478 593.961,602.287 594.978,591.326 
  595.995,574.946 597.012,588.158 598.029,609.242 599.046,605.904 600.063,601.606 601.08,608.724 602.097,605.278 603.114,602.159 604.131,574.95 605.148,592.716 
  606.165,608.095 607.182,585.627 608.199,594.655 609.216,607.937 610.233,591.952 611.25,635.518 612.267,591.977 613.284,620.51 614.301,580.617 615.318,577.415 
  616.335,598.568 617.352,570.021 618.369,634.276 619.386,608.493 620.403,592.956 621.42,645.849 622.437,599.938 623.454,598.456 624.471,614.203 625.488,588.547 
  626.505,603.146 627.522,601.752 628.539,626.333 629.556,616.445 630.573,597.084 631.59,621.452 632.607,612.794 633.624,593.971 634.641,631.299 635.658,596.579 
  636.675,604.583 637.692,596.737 638.709,623.868 639.726,584.261 640.743,590.354 641.76,607.765 642.777,576.886 643.794,568.68 644.811,584.232 645.828,577.919 
  646.845,570.906 647.862,611.483 648.879,610.06 649.896,594.094 650.913,593.875 651.93,584.463 652.947,590.736 653.964,596.911 654.981,609.955 655.998,595.41 
  657.015,582.434 658.033,600.54 659.05,590.698 660.067,614.772 661.084,583.675 662.101,592.683 663.118,571.478 664.135,586.352 665.152,606.382 666.169,587.889 
  667.186,598.942 668.203,597.506 669.22,617.628 670.237,586.004 671.254,590.401 672.271,593.202 673.288,597.336 674.305,618.692 675.322,598.806 676.339,588.127 
  677.356,607.455 678.373,586.871 679.39,623.846 680.407,600.541 681.424,570.355 682.441,584.746 683.458,604.169 684.475,613.234 685.492,604.573 686.509,612.189 
  687.526,608.878 688.543,1250.45 689.56,1262.57 690.577,1261.52 691.594,1273 692.611,1285.75 693.628,1267.97 694.645,1254.37 695.662,1283.89 696.679,1259.42 
  697.696,1280.79 698.713,1278.66 699.73,1295.47 700.747,1265.48 701.764,1279.31 702.781,1296.5 703.798,1283.84 704.815,1275.54 705.832,1274.9 706.849,1259.1 
  707.866,1232.48 708.883,1273.73 709.9,1265.27 710.917,1263.03 711.934,1310.41 712.951,1295.5 713.968,1282.59 714.985,1266.79 716.002,1256.35 717.019,1317.94 
  718.036,1282.6 719.053,1281.68 720.07,1290.49 721.087,1270.93 722.104,1316.65 723.121,1288.71 724.138,1283.15 725.155,1297.47 726.172,1271.69 727.189,1288.07 
  728.206,1291.75 729.223,1261.61 730.24,434.184 731.257,434.962 732.274,415.183 733.291,417.644 734.308,427.926 735.325,444.739 736.342,423.464 737.359,391.247 
  738.376,425.903 739.393,437.585 740.41,441.366 741.427,419.067 742.444,418.503 743.461,426.058 744.478,417.025 745.495,434.748 746.512,392.063 747.529,433.131 
  748.546,417.406 749.563,448.967 750.58,444.681 751.597,401.782 752.614,442.868 753.631,428.632 754.648,439.543 755.665,443.107 756.682,420.214 757.699,422.013 
  758.716,437.213 759.733,421.786 760.75,405.879 761.767,419.759 762.784,440.195 763.801,442.594 764.818,445.917 765.835,423.976 766.852,474.492 767.869,408.784 
  768.886,427.382 769.903,439.259 770.921,439.057 771.938,427.425 772.955,425.489 773.972,415.1 774.989,423.85 776.006,429.104 777.023,411.145 778.04,418.492 
  779.057,429.959 780.074,445.573 781.091,381.475 782.108,431.155 783.125,422.796 784.142,445.048 785.159,429.02 786.176,435.134 787.193,428.929 788.21,424.507 
  789.227,418.875 790.244,422.47 791.261,444.209 792.278,436.252 793.295,418.227 794.312,418.571 795.329,419.581 796.346,416.292 797.363,420.45 798.38,403.581 
  799.397,421.217 800.414,452.955 801.431,432.162 802.448,441.131 803.465,438.353 804.482,431.39 805.499,428.645 806.516,450.269 807.533,433.138 808.55,432.272 
  809.567,419.968 810.584,408.847 811.601,413.369 812.618,426.741 813.635,413.016 814.652,434.374 815.669,432.202 816.686,420.569 817.703,413.493 818.72,423.167 
  819.737,447.04 820.754,443.535 821.771,420.92 822.788,387.993 823.805,421.641 824.822,411.37 825.839,432.164 826.856,447.677 827.873,427.651 828.89,418.411 
  829.907,426.871 830.924,433.079 831.941,430.928 832.958,410.303 833.975,420.888 834.992,455.483 836.009,428.708 837.026,445.559 838.043,449.548 839.06,430.234 
  840.077,417.919 841.094,422.89 842.111,412.583 843.128,439.222 844.145,403.054 845.162,483.629 846.179,404.112 847.196,432.719 848.213,407.789 849.23,435.394 
  850.247,426.732 851.264,393.226 852.281,435.976 853.298,407.856 854.315,414.096 855.332,458.784 856.349,416.284 857.366,453.816 858.383,408.951 859.4,439.221 
  860.417,421.894 861.434,397.146 862.451,417.205 863.468,430.73 864.485,418.573 865.502,416.53 866.519,445.806 867.536,455.466 868.553,425.649 869.57,452.296 
  870.587,432.92 871.604,397.071 872.621,414.963 873.638,429.426 874.655,424.995 875.672,440.09 876.689,416.689 877.706,421.19 878.723,422.081 879.74,429.856 
  880.757,438.41 881.774,432.681 882.791,405.493 883.808,420.944 884.826,403.363 885.843,422.826 886.86,430.465 887.877,437.231 888.894,447.667 889.911,399.247 
  890.928,432.804 891.945,409.469 892.962,415.454 893.979,448.791 894.996,411.439 896.013,411.124 897.03,402.869 898.047,449.264 899.064,457.857 900.081,459.029 
  901.098,417.452 902.115,423.801 903.132,441.993 904.149,433.628 905.166,456.91 906.183,436.588 907.2,425.175 908.217,413.321 909.234,416.985 910.251,423.239 
  911.268,410.846 912.285,438.272 913.302,417.783 914.319,439.784 915.336,452.077 916.353,449.709 917.37,452.441 918.387,437.44 919.404,429.282 920.421,437.778 
  921.438,418.77 922.455,418.278 923.472,455.634 924.489,435.385 925.506,431.3 926.523,459.544 927.54,401.765 928.557,410.844 929.574,419.789 930.591,430.308 
  931.608,406.376 932.625,449.697 933.642,448.602 934.659,415.401 935.676,424.056 936.693,436.914 937.71,426.233 938.727,427.169 939.744,429.088 940.761,426.576 
  941.778,446.354 942.795,473.735 943.812,428.355 944.829,419.571 945.846,452.438 946.863,409.687 947.88,405.3 948.897,459.114 949.914,421.95 950.931,421.692 
  951.948,394.178 952.965,426.929 953.982,428.275 954.999,453.817 956.016,414.798 957.033,418.136 958.05,425.811 959.067,458.086 960.084,450.664 961.101,429.579 
  962.118,411.52 963.135,437.258 964.152,435.645 965.169,437.233 966.186,431.804 967.203,413.345 968.22,442.317 969.237,413.729 970.254,454.428 971.271,479.235 
  972.288,411.633 973.305,452.728 974.322,417.925 975.339,413.742 976.356,430.225 977.373,441.315 978.39,425.855 979.407,418.763 980.424,427.617 981.441,408.082 
  982.458,429.551 983.475,416.95 984.492,452.69 985.509,421.22 986.526,453.732 987.543,409.384 988.56,424.533 989.577,410.784 990.594,420.496 991.611,449.559 
  992.628,415.202 993.645,440.433 994.662,441.763 995.679,441.739 996.696,412.443 997.714,456.53 998.731,418.184 999.748,414.471 1000.76,452.28 1001.78,415.265 
  1002.8,410.91 1003.82,437.902 1004.83,443.559 1005.85,417.476 1006.87,377.213 1007.88,435.847 1008.9,425.633 1009.92,450.59 1010.93,429.007 1011.95,444.48 
  1012.97,432.525 1013.99,433.929 1015,425.348 1016.02,416.144 1017.04,424.303 1018.05,426.292 1019.07,429.398 1020.09,418.11 1021.1,423.123 1022.12,421.084 
  1023.14,433.217 1024.16,419.644 1025.17,410.607 1026.19,436.891 1027.21,392.608 1028.22,412.086 1029.24,422.56 1030.26,420.261 1031.27,433.488 1032.29,418.844 
  1033.31,408.316 1034.33,380.203 1035.34,402.999 1036.36,419.441 1037.38,449.279 1038.39,396.71 1039.41,446.993 1040.43,430.187 1041.44,455.714 1042.46,1153.51 
  1043.48,1167.12 1044.5,1133.15 1045.51,1151.89 1046.53,1112.03 1047.55,1173.72 1048.56,1115.27 1049.58,1104.87 1050.6,1128.7 1051.61,1138.46 1052.63,1171.05 
  1053.65,1140.75 1054.67,1166.2 1055.68,1122.89 1056.7,1121.59 1057.72,1143.18 1058.73,1148.88 1059.75,1119.92 1060.77,1148.34 1061.79,1146.48 1062.8,1152.66 
  1063.82,1115.61 1064.84,1152.83 1065.85,1130.92 1066.87,1131.96 1067.89,1143.57 1068.9,1116.37 1069.92,1176.4 1070.94,1143.29 1071.96,1127.01 1072.97,1141.49 
  1073.99,1151.66 1075.01,1156.43 1076.02,1130.94 1077.04,1125.15 1078.06,1144.42 1079.07,1139.47 1080.09,1167.59 1081.11,1113.7 1082.13,1144.88 1083.14,1153.25 
  1084.16,1156.19 1085.18,1123.71 1086.19,1148.58 1087.21,1132.64 1088.23,1155.93 1089.24,1130.73 1090.26,1122.16 1091.28,1157.47 1092.3,1134.77 1093.31,1146.25 
  1094.33,1148.41 1095.35,1166.54 1096.36,1162.63 1097.38,1155.58 1098.4,1136.12 1099.41,1143.29 1100.43,1155.35 1101.45,1152.1 1102.47,1127.6 1103.48,1115.14 
  1104.5,1134.02 1105.52,1161.94 1106.53,1082.36 1107.55,1129.95 1108.57,1141.51 1109.58,1124.21 1110.6,1190.95 1111.62,1119.61 1112.64,1135.65 1113.65,1136.23 
  1114.67,1148.81 1115.69,1147.98 1116.7,1111.44 1117.72,1133.82 1118.74,1142.38 1119.75,1119.12 1120.77,1121.52 1121.79,1151.31 1122.81,1142.48 1123.82,1140.71 
  1124.84,1158.18 1125.86,811.722 1126.87,791.261 1127.89,768.776 1128.91,745.18 1129.92,801.955 1130.94,759.542 1131.96,784.361 1132.98,791.302 1133.99,791.849 
  1135.01,781.23 1136.03,787.326 1137.04,817.722 1138.06,787.527 1139.08,796.975 1140.09,820.26 1141.11,781.057 1142.13,780.402 1143.15,795.971 1144.16,795.935 
  1145.18,769.676 1146.2,782.369 1147.21,779.414 1148.23,804.37 1149.25,788.223 1150.26,773.734 1151.28,755.199 1152.3,794.57 1153.32,794.013 1154.33,784.275 
  1155.35,771.398 1156.37,781.813 1157.38,784.818 1158.4,815.788 1159.42,772.858 1160.43,795.213 1161.45,808.976 1162.47,766.43 1163.49,789.191 1164.5,783.88 
  1165.52,780.435 1166.54,790.676 1167.55,795.296 1168.57,787.283 1169.59,771.644 1170.61,788.942 1171.62,801.564 1172.64,768.18 1173.66,786.858 1174.67,768.455 
  1175.69,786.619 1176.71,787.601 1177.72,782.017 1178.74,750.507 1179.76,788.91 1180.78,766.197 1181.79,799.217 1182.81,777.872 1183.83,768.033 1184.84,799.425 
  1185.86,786.734 1186.88,763.682 1187.89,772.639 1188.91,778.69 1189.93,797.342 1190.95,794.799 1191.96,808.944 1192.98,780.709 1194,804.32 1195.01,770.718 
  1196.03,776.561 1197.05,792.713 1198.06,805.083 1199.08,793.03 1200.1,776.913 1201.12,761.757 1202.13,772.181 1203.15,796.335 1204.17,810.228 1205.18,775.995 
  1206.2,778.084 1207.22,756.76 1208.23,802.239 1209.25,786.063 1210.27,795.85 1211.29,769.179 1212.3,789.922 1213.32,784.915 1214.34,764.127 1215.35,774.683 
  1216.37,792.441 1217.39,760.346 1218.4,790.233 1219.42,782.683 1220.44,769.838 1221.46,788.604 1222.47,773.485 1223.49,792.686 1224.51,766.922 1225.52,804.651 
  1226.54,802.16 1227.56,764.47 1228.57,785.618 1229.59,791.005 1230.61,789.886 1231.63,775.413 1232.64,787.018 1233.66,788.543 1234.68,804.671 1235.69,783.927 
  1236.71,789.505 1237.73,797.667 1238.74,797.188 1239.76,791.283 1240.78,764.271 1241.8,777.784 1242.81,817.892 1243.83,795.824 1244.85,783.151 1245.86,784.043 
  1246.88,776.488 1247.9,785.465 1248.91,797.177 1249.93,790.467 1250.95,777.164 1251.97,810.672 1252.98,752.695 1254,808.259 1255.02,800.165 1256.03,803.748 
  1257.05,795.647 1258.07,768.673 1259.08,798.347 1260.1,773.727 1261.12,784.878 1262.14,805.541 1263.15,797.697 1264.17,797.658 1265.19,776.168 1266.2,794.563 
  1267.22,774.312 1268.24,781.132 1269.25,784.434 1270.27,785.3 1271.29,758.79 1272.31,795.525 1273.32,770.863 1274.34,786.856 1275.36,793.186 1276.37,786.118 
  1277.39,794.913 1278.41,804.608 1279.42,797.226 1280.44,787.981 1281.46,785.66 1282.48,774.002 1283.49,799.665 1284.51,799.341 1285.53,801.132 1286.54,815.174 
  1287.56,789.008 1288.58,777.731 1289.6,791.517 1290.61,771.951 1291.63,779.255 1292.65,779.764 1293.66,780.307 1294.68,800.852 1295.7,779.008 1296.71,799.338 
  1297.73,764.136 1298.75,765.394 1299.77,771.542 1300.78,802.399 1301.8,805.104 1302.82,754.685 1303.83,751.961 1304.85,782.279 1305.87,780.265 1306.88,793.325 
  1307.9,755.496 1308.92,781.85 1309.94,764.191 1310.95,754.823 1311.97,766.274 1312.99,833.058 1314,764.3 1315.02,771.417 1316.04,758.629 1317.05,796.436 
  1318.07,804.961 1319.09,816.726 1320.11,766.684 1321.12,783.404 1322.14,774.08 1323.16,804.982 1324.17,790.372 1325.19,765.62 1326.21,788.956 1327.22,768.261 
  1328.24,790.206 1329.26,766.554 1330.28,799.362 1331.29,743.035 1332.31,792.569 1333.33,789.944 1334.34,822.736 1335.36,800.706 1336.38,777.057 1337.39,786.559 
  1338.41,777.378 1339.43,780.075 1340.45,768.04 1341.46,768.571 1342.48,789.283 1343.5,783.581 1344.51,760.681 1345.53,807.981 1346.55,807.891 1347.56,785.784 
  1348.58,764.304 1349.6,802.7 1350.62,771.466 1351.63,766.664 1352.65,791.413 1353.67,801.354 1354.68,790.798 1355.7,790.099 1356.72,768.729 1357.73,789.954 
  1358.75,786.684 1359.77,797.831 1360.79,759.454 1361.8,798.114 1362.82,788.892 1363.84,769.861 1364.85,762.087 1365.87,808.732 1366.89,769.418 1367.9,801.29 
  1368.92,775.717 1369.94,795.887 1370.96,769.331 1371.97,784.643 1372.99,751.031 1374.01,802.939 1375.02,781.376 1376.04,791.759 1377.06,777.091 1378.07,793.222 
  1379.09,772.014 1380.11,784.578 1381.13,774.48 1382.14,775.969 1383.16,781.037 1384.18,805.569 1385.19,786.371 1386.21,781.205 1387.23,795.45 1388.24,781.485 
  1389.26,761.964 1390.28,787.455 1391.3,798.059 1392.31,773.532 1393.33,772.317 1394.35,801.496 1395.36,786.941 1396.38,757.878 1397.4,793.335 1398.42,767.124 
  1399.43,777.583 1400.45,766.073 1401.47,775.208 1402.48,789.756 1403.5,817.244 1404.52,791.887 1405.53,767.168 1406.55,775.898 1407.57,802.659 1408.59,786.788 
  1409.6,752.432 1410.62,798.827 1411.64,785.969 1412.65,769.732 1413.67,795.409 1414.69,771.214 1415.7,797.234 1416.72,798.865 1417.74,802.424 1418.76,793.699 
  1419.77,786.762 1420.79,784.406 1421.81,796.529 1422.82,775.534 1423.84,784.988 1424.86,788.458 1425.87,791.492 1426.89,767.409 1427.91,768.498 1428.93,808.805 
  1429.94,808.68 1430.96,770.333 1431.98,751.233 1432.99,779.921 1434.01,774.367 1435.03,783.875 1436.04,777.528 1437.06,757.605 1438.08,780.994 1439.1,740.517 
  1440.11,794.048 1441.13,802.015 1442.15,765.984 1443.16,786.519 1444.18,793.186 1445.2,799.393 1446.21,792.42 1447.23,794.643 1448.25,773.866 1449.27,751.034 
  1450.28,771.052 1451.3,786.754 1452.32,796.885 1453.33,781.835 1454.35,815.963 1455.37,784.415 1456.38,789.452 1457.4,808.364 1458.42,770.683 1459.44,793.037 
  1460.45,808.393 1461.47,782.425 1462.49,768.755 1463.5,743.556 1464.52,795.15 1465.54,792.161 1466.55,810.077 1467.57,771.797 1468.59,769.517 1469.61,782.488 
  1470.62,792.686 1471.64,768.911 1472.66,799.531 1473.67,801.853 1474.69,791.752 1475.71,774.591 1476.72,771.709 1477.74,783.317 1478.76,785.883 1479.78,783.241 
  1480.79,828.219 1481.81,772.391 1482.83,776.516 1483.84,775.309 1484.86,785.441 1485.88,769.945 1486.89,792.902 1487.91,787.903 1488.93,798.011 1489.95,772.329 
  1490.96,782.968 1491.98,806.386 1493,780.602 1494.01,778.846 1495.03,804.983 1496.05,767.817 1497.06,779.931 1498.08,771.42 1499.1,780.626 1500.12,792.074 
  1501.13,788.866 1502.15,792.221 1503.17,774.605 1504.18,785.323 1505.2,796.064 1506.22,774.333 1507.23,795.449 1508.25,790.236 1509.27,784.161 1510.29,818.313 
  1511.3,799.358 1512.32,771.059 1513.34,796.474 1514.35,789.37 1515.37,766.204 1516.39,767.446 1517.41,766.564 1518.42,776.088 1519.44,762.018 1520.46,787.919 
  1521.47,807.846 1522.49,781.035 1523.51,778.844 1524.52,795.758 1525.54,774.717 1526.56,787.585 1527.58,802.962 1528.59,795.797 1529.61,795.556 1530.63,814.136 
  1531.64,798.956 1532.66,785.665 1533.68,794.671 1534.69,769.708 1535.71,789.198 1536.73,814.891 1537.75,791.8 1538.76,793.672 1539.78,806.256 1540.8,772.458 
  1541.81,759.697 1542.83,781.212 1543.85,767.509 1544.86,796.687 1545.88,804.54 1546.9,756.312 1547.92,752.306 1548.93,773.129 1549.95,775.558 1550.97,793.179 
  1551.98,783.247 1553,757.896 1554.02,750.157 1555.03,760.536 1556.05,775.793 1557.07,758.823 1558.09,814.054 1559.1,793.888 1560.12,782.606 1561.14,778.084 
  1562.15,786.105 1563.17,43.9411 1564.19,91.7757 1565.2,25.4244 1566.22,74.1267 1567.24,40.4371 1568.26,64.888 1569.27,30.6095 1570.29,51.3952 1571.31,70.4049 
  1572.32,64.7439 1573.34,40.7845 1574.36,50.516 1575.37,58.1381 1576.39,53.1154 1577.41,68.0333 1578.43,61.283 1579.44,39.2877 1580.46,30.3908 1581.48,60.706 
  1582.49,48.5663 1583.51,21.783 1584.53,75.3545 1585.54,72.4949 1586.56,40.3126 1587.58,47.2132 1588.6,58.5593 1589.61,101.354 1590.63,52.6735 1591.65,45.7539 
  1592.66,98.0571 1593.68,59.5003 1594.7,59.5433 1595.71,32.2846 1596.73,46.0101 1597.75,55.6117 1598.77,84.4201 1599.78,50.2477 1600.8,32.9999 1601.82,24.2672 
  1602.83,72.4288 1603.85,70.5827 1604.87,53.9725 1605.88,53.3418 1606.9,47.1373 1607.92,57.5235 1608.94,40.5308 1609.95,48.9214 1610.97,55.3497 1611.99,35.521 
  1613,37.9194 1614.02,46.5799 1615.04,79.0772 1616.05,35.0132 1617.07,55.6349 1618.09,45.124 1619.11,48.0506 1620.12,53.837 1621.14,57.2922 1622.16,39.2458 
  1623.17,69.7577 1624.19,58.8691 1625.21,55.6087 1626.23,27.1464 1627.24,39.6833 1628.26,41.6779 1629.28,74.7015 1630.29,42.402 1631.31,45.4399 1632.33,34.9184 
  1633.34,84.8927 1634.36,48.1633 1635.38,60.1251 1636.4,26.2584 1637.41,46.7912 1638.43,58.9929 1639.45,44.2046 1640.46,35.1017 1641.48,49.8263 1642.5,59.1616 
  1643.51,72.6719 1644.53,69.0384 1645.55,45.5277 1646.57,77.4655 1647.58,57.4328 1648.6,49.5533 1649.62,29.7477 1650.63,45.6596 1651.65,40.2194 1652.67,64.2906 
  1653.68,44.2873 1654.7,61.1469 1655.72,87.1599 1656.74,49.6932 1657.75,89.3778 1658.77,43.9534 1659.79,66.5453 1660.8,29.3019 1661.82,75.4233 1662.84,56.4248 
  1663.85,48.3694 1664.87,53.3875 1665.89,58.7662 1666.91,32.5888 1667.92,59.5575 1668.94,71.4627 1669.96,41.779 1670.97,66.5567 1671.99,38.8899 1673.01,31.4911 
  1674.02,60.9803 1675.04,39.5876 1676.06,52.3013 1677.08,27.2712 1678.09,62.2367 1679.11,48.9824 1680.13,36.8095 1681.14,69.0993 1682.16,53.7695 1683.18,87.967 
  1684.19,45.3257 1685.21,22.025 1686.23,59.7746 1687.25,62.9171 1688.26,58.719 1689.28,32.8307 1690.3,49.7903 1691.31,53.5391 1692.33,57.8515 1693.35,30.796 
  1694.36,74.5796 1695.38,63.3287 1696.4,52.7086 1697.42,67.2478 1698.43,57.7644 1699.45,45.9804 1700.47,35.1497 1701.48,69.868 1702.5,64.5793 1703.52,56.7829 
  1704.53,81.2733 1705.55,35.8634 1706.57,70.5926 1707.59,44.8215 1708.6,45.9733 1709.62,54.8992 1710.64,46.0051 1711.65,40.0422 1712.67,61.7406 1713.69,50.6275 
  1714.7,32.5869 1715.72,56.5762 1716.74,21.1268 1717.76,67.0595 1718.77,92.9208 1719.79,55.2032 1720.81,55.3866 1721.82,60.8883 1722.84,29.1729 1723.86,47.5733 
  1724.87,60.4561 1725.89,68.6039 1726.91,62.0223 1727.93,22.9965 1728.94,45.639 1729.96,31.0438 1730.98,61.2617 1731.99,75.1459 1733.01,54.4795 1734.03,39.7266 
  1735.05,53.5926 1736.06,39.0431 1737.08,69.9183 1738.1,81.1094 1739.11,59.3707 1740.13,59.7733 1741.15,54.22 1742.16,37.7685 1743.18,-6.77862 1744.2,38.688 
  1745.22,90.8654 1746.23,68.3972 1747.25,27.3137 1748.27,45.0167 1749.28,74.5017 1750.3,53.5579 1751.32,12.866 1752.33,74.3927 1753.35,57.2353 1754.37,59.5271 
  1755.39,15.9324 1756.4,51.2274 1757.42,66.076 1758.44,81.0944 1759.45,71.8168 1760.47,66.4715 1761.49,17.6431 1762.5,57.0001 1763.52,34.4692 1764.54,38.5503 
  1765.56,49.1897 1766.57,52.7914 1767.59,67.0024 1768.61,84.1567 1769.62,82.1206 1770.64,56.0577 1771.66,24.3907 1772.67,63.0242 1773.69,55.8483 1774.71,52.7641 
  1775.73,49.2435 1776.74,28.3888 1777.76,48.9213 1778.78,25.2037 1779.79,71.5113 1780.81,65.981 1781.83,26.7173 1782.84,53.2393 1783.86,47.4009 1784.88,64.0288 
  1785.9,35.1225 1786.91,69.0046 1787.93,35.5319 1788.95,61.2054 1789.96,45.9216 1790.98,66.3207 1792,593.514 1793.01,598.372 1794.03,577.013 1795.05,582.349 
  1796.07,579.335 1797.08,584.475 1798.1,593.869 1799.12,580.175 1800.13,574.412 1801.15,549.754 1802.17,576.415 1803.18,624.609 1804.2,564.959 1805.22,582.975 
  1806.24,584.979 1807.25,585.818 1808.27,546.589 1809.29,567.724 1810.3,577.615 1811.32,578.554 1812.34,561.382 1813.35,589.568 1814.37,582.235 1815.39,572.31 
  1816.41,583.398 1817.42,570.585 1818.44,598.781 1819.46,559.441 1820.47,592.655 1821.49,578.367 1822.51,556.933 1823.52,568.817 1824.54,598.653 1825.56,568.404 
  1826.58,578.572 1827.59,628.811 1828.61,588.676 1829.63,581.304 1830.64,583.362 1831.66,578.926 1832.68,558.717 1833.69,214.435 1834.71,226.937 1835.73,235.219 
  1836.75,204.45 1837.76,216.805 1838.78,224.485 1839.8,221.931 1840.81,230.505 1841.83,186.579 1842.85,222.948 1843.86,236.162 1844.88,231.02 1845.9,219.493 
  1846.92,222.944 1847.93,255.784 1848.95,253.564 1849.97,208.446 1850.98,202.526 1852,215.69 1853.02,242.939 1854.04,207.341 1855.05,230.393 1856.07,209.56 
  1857.09,223.521 1858.1,210.196 1859.12,179.097 1860.14,235.792 1861.15,207.528 1862.17,198.835 1863.19,228.731 1864.21,211.423 1865.22,216.87 1866.24,195.509 
  1867.26,242.63 1868.27,227.125 1869.29,229.389 1870.31,261.253 1871.32,242.836 1872.34,222.853 1873.36,229.265 1874.38,219.345 1875.39,233.483 1876.41,227.211 
  1877.43,237.596 1878.44,253.235 1879.46,228.005 1880.48,211.384 1881.49,215.414 1882.51,168.308 1883.53,215.798 1884.55,225.441 1885.56,240.524 1886.58,189.25 
  1887.6,199.063 1888.61,217.309 1889.63,213.851 1890.65,230.688 1891.66,183.867 1892.68,215.184 1893.7,244.665 1894.72,220.447 1895.73,235.287 1896.75,948.175 
  1897.77,931.389 1898.78,939.972 1899.8,951.348 1900.82,932.499 1901.83,930.219 1902.85,943.685 1903.87,953.634 1904.89,952.617 1905.9,931.334 1906.92,958.573 
  1907.94,914.231 1908.95,933.357 1909.97,938.071 1910.99,925.151 1912,923.236 1913.02,945.889 1914.04,913.503 1915.06,927.419 1916.07,938.427 1917.09,944.729 
  1918.11,919.433 1919.12,923.409 1920.14,923.404 1921.16,912.843 1922.17,931.745 1923.19,935.742 1924.21,904.55 1925.23,958.618 1926.24,953.446 1927.26,940.807 
  1928.28,955.147 1929.29,959.431 1930.31,941.411 1931.33,909.604 1932.34,934.863 1933.36,931.163 1934.38,928.172 1935.4,946.206 1936.41,960.167 1937.43,961.754 
  1938.45,932.921 1939.46,926.992 1940.48,942.422 1941.5,934.506 1942.51,976.107 1943.53,934.581 1944.55,976.138 1945.57,918.235 1946.58,918.261 1947.6,953.908 
  1948.62,934.933 1949.63,923.372 1950.65,926.652 1951.67,950.752 1952.68,930.683 1953.7,973.394 1954.72,936.317 1955.74,941.286 1956.75,909.013 1957.77,956.739 
  1958.79,908.915 1959.8,944.399 1960.82,942.627 1961.84,951.345 1962.86,933.481 1963.87,932.22 1964.89,954.1 1965.91,943.001 1966.92,947.017 1967.94,932.714 
  1968.96,945.419 1969.97,954.781 1970.99,926.003 1972.01,960.333 1973.03,931.639 1974.04,897.925 1975.06,956.176 1976.08,918.997 1977.09,950.195 1978.11,907.599 
  1979.13,965.079 1980.14,941.409 1981.16,901.675 1982.18,927.813 1983.2,926.22 1984.21,915.732 1985.23,927.366 1986.25,940.391 1987.26,951.49 1988.28,928.034 
  1989.3,938.584 1990.31,943.008 1991.33,941.428 1992.35,948.062 1993.37,946.903 1994.38,927.487 1995.4,925.72 1996.42,939.136 1997.43,931.138 1998.45,925.631 
  1999.47,921.455 2000.48,933.749 2001.5,891.927 2002.52,906.869 2003.54,960.178 2004.55,912.801 2005.57,951.449 2006.59,948.92 2007.6,901.441 2008.62,948.42 
  2009.64,903.892 2010.65,947.382 2011.67,946.746 2012.69,937.807 2013.71,932.598 2014.72,939.791 2015.74,966.04 2016.76,926.669 2017.77,926.342 2018.79,951.983 
  2019.81,928.814 2020.82,934.911 2021.84,939.753 2022.86,927.865 2023.88,953.653 2024.89,939.65 2025.91,933.684 2026.93,943.182 2027.94,932.474 2028.96,933.896 
  2029.98,940.738 2030.99,946.955 2032.01,931.933 2033.03,948.165 2034.05,935.433 2035.06,923.422 2036.08,955.978 2037.1,939.413 2038.11,965.848 2039.13,912.106 
  2040.15,929.21 2041.16,928.825 2042.18,941.62 2043.2,933.613 2044.22,937.095 2045.23,929.329 2046.25,935.67 2047.27,945.012 2048.28,952.735 2049.3,925.018 
  2050.32,966.983 2051.33,933.463 2052.35,902.012 2053.37,950.201 2054.39,928.896 2055.4,928.048 2056.42,941.875 2057.44,946.998 2058.45,951.769 2059.47,936.881 
  2060.49,917.71 2061.5,914.095 2062.52,946.698 2063.54,935.294 2064.56,969.585 2065.57,957.298 2066.59,939.189 2067.61,932.049 2068.62,943.249 2069.64,946.95 
  2070.66,937.869 2071.67,932.066 2072.69,893.655 2073.71,923.095 2074.73,931.36 2075.74,961.727 2076.76,940.593 2077.78,927.771 2078.79,948.164 2079.81,932.529 
  2080.83,931.706 2081.85,905.292 2082.86,962.758 2083.88,947.794 2084.9,907.145 2085.91,930.074 2086.93,930.1 2087.95,930.185 2088.96,931.225 2089.98,936.75 
  2091,964.301 2092.02,953.955 2093.03,933.591 2094.05,953.828 2095.07,944.236 2096.08,920.221 2097.1,938.827 2098.12,945.086 2099.13,943.803 2100.15,964.977 
  2101.17,942.509 2102.19,936.389 2103.2,975.314 2104.22,927.626 2105.24,964.407 2106.25,930.514 2107.27,939.495 2108.29,955.639 2109.3,936.038 2110.32,952.486 
  2111.34,962.874 2112.36,966.727 2113.37,923.735 2114.39,924.126 2115.41,941.893 2116.42,955.899 2117.44,951.988 2118.46,933.952 2119.47,914.966 2120.49,926.03 
  2121.51,933.366 2122.53,927.891 2123.54,927.242 2124.56,933.912 2125.58,954.242 2126.59,955.198 2127.61,921.296 2128.63,920.566 2129.64,930.884 2130.66,937.538 
  2131.68,934.421 2132.7,952.117 2133.71,947.934 2134.73,909.709 2135.75,913.201 2136.76,932.28 2137.78,951.641 2138.8,948.442 2139.81,945.773 2140.83,936.303 
  2141.85,927.956 2142.87,935.54 2143.88,942.002 2144.9,917.655 2145.92,938.359 2146.93,961.163 2147.95,956.113 2148.97,962.576 2149.98,922.013 2151,948.124 
  2152.02,972.378 2153.04,910.274 2154.05,965.306 2155.07,903.701 2156.09,938.588 2157.1,932.849 2158.12,942.43 2159.14,935.503 2160.15,903.489 2161.17,945.619 
  2162.19,948.755 2163.21,917.394 2164.22,943.981 2165.24,938.845 2166.26,950.428 2167.27,937.435 2168.29,931.545 2169.31,917.989 2170.32,926.173 2171.34,944.731 
  2172.36,957.844 2173.38,931.546 2174.39,924.298 2175.41,910.201 2176.43,910.784 2177.44,934.265 2178.46,939.966 2179.48,907.013 2180.49,956.076 2181.51,934.131 
  2182.53,917.394 2183.55,938.672 2184.56,939.286 2185.58,943.233 2186.6,947.927 2187.61,935.197 2188.63,930.819 2189.65,920.901 2190.67,911.408 2191.68,936.691 
  2192.7,885.665 2193.72,924.978 2194.73,959.526 2195.75,948.727 2196.77,921.439 2197.78,958.312 2198.8,940.797 2199.82,949.93 2200.84,947.28 2201.85,955.092 
  2202.87,900.317 2203.89,921.954 2204.9,905.642 2205.92,927.118 2206.94,952.334 2207.95,938.811 2208.97,936.637 2209.99,920.369 2211.01,899.085 2212.02,911.543 
  2213.04,930.483 2214.06,930.049 2215.07,948.269 2216.09,933.897 2217.11,915.239 2218.12,936.861 2219.14,944.809 2220.16,928.273 2221.18,947.599 2222.19,935.323 
  2223.21,952.058 2224.23,908.996 2225.24,939.918 2226.26,919.276 2227.28,922.528 2228.29,950.038 2229.31,939.032 2230.33,927.097 2231.35,897.124 2232.36,918.102 
  2233.38,914.107 2234.4,935.284 2235.41,954.218 2236.43,945.954 2237.45,932.893 2238.46,929.465 2239.48,942.639 2240.5,921.592 2241.52,926.772 2242.53,931.609 
  2243.55,951.465 2244.57,922.401 2245.58,921.59 2246.6,938.212 2247.62,930.412 2248.63,906.609 2249.65,941.349 2250.67,936.371 2251.69,987.261 2252.7,946.237 
  2253.72,940.181 2254.74,944.9 2255.75,963.986 2256.77,936.89 2257.79,919.977 2258.8,937.357 2259.82,917.809 2260.84,951.874 2261.86,959.52 2262.87,966.238 
  2263.89,927.365 2264.91,925.656 2265.92,944.594 2266.94,933.982 2267.96,923.869 2268.97,911.582 2269.99,930.895 2271.01,930.141 2272.03,952.326 2273.04,956.505 
  2274.06,930.529 2275.08,917.188 2276.09,916.43 2277.11,927.144 2278.13,964.714 2279.14,948.074 2280.16,905.413 2281.18,951.394 2282.2,923.546 2283.21,943.738 
  2284.23,931.758 2285.25,950.312 2286.26,933.837 2287.28,928.854 2288.3,920.801 2289.31,936.022 2290.33,926.57 
  "/>
<path clip-path="url(#clip120)" d="
M1986.8 250.738 L2279.23 250.738 L2279.23 95.2176 L1986.8 95.2176  Z
  " fill="#ffffff" fill-rule="evenodd" fill-opacity="1"/>
<polyline clip-path="url(#clip120)" style="stroke:#000000; stroke-linecap:butt; stroke-linejoin:round; stroke-width:4; stroke-opacity:1; fill:none" points="
  1986.8,250.738 2279.23,250.738 2279.23,95.2176 1986.8,95.2176 1986.8,250.738 
  "/>
<polyline clip-path="url(#clip120)" style="stroke:#009af9; stroke-linecap:butt; stroke-linejoin:round; stroke-width:4; stroke-opacity:1; fill:none" points="
  2010.8,147.058 2154.8,147.058 
  "/>
<path clip-path="url(#clip120)" d="M2192.65 166.745 Q2190.84 171.375 2189.13 172.787 Q2187.42 174.199 2184.54 174.199 L2181.14 174.199 L2181.14 170.634 L2183.64 170.634 Q2185.4 170.634 2186.37 169.8 Q2187.35 168.967 2188.53 165.865 L2189.29 163.921 L2178.8 138.412 L2183.32 138.412 L2191.42 158.689 L2199.52 138.412 L2204.04 138.412 L2192.65 166.745 Z" fill="#000000" fill-rule="evenodd" fill-opacity="1" /><path clip-path="url(#clip120)" d="M2211.33 160.402 L2218.97 160.402 L2218.97 134.037 L2210.66 135.703 L2210.66 131.444 L2218.92 129.778 L2223.6 129.778 L2223.6 160.402 L2231.23 160.402 L2231.23 164.338 L2211.33 164.338 L2211.33 160.402 Z" fill="#000000" fill-rule="evenodd" fill-opacity="1" /><polyline clip-path="url(#clip120)" style="stroke:#e26f46; stroke-linecap:butt; stroke-linejoin:round; stroke-width:4; stroke-opacity:1; fill:none" points="
  2010.8,198.898 2154.8,198.898 
  "/>
<path clip-path="url(#clip120)" d="M2192.65 218.585 Q2190.84 223.215 2189.13 224.627 Q2187.42 226.039 2184.54 226.039 L2181.14 226.039 L2181.14 222.474 L2183.64 222.474 Q2185.4 222.474 2186.37 221.64 Q2187.35 220.807 2188.53 217.705 L2189.29 215.761 L2178.8 190.252 L2183.32 190.252 L2191.42 210.529 L2199.52 190.252 L2204.04 190.252 L2192.65 218.585 Z" fill="#000000" fill-rule="evenodd" fill-opacity="1" /><path clip-path="url(#clip120)" d="M2214.54 212.242 L2230.86 212.242 L2230.86 216.178 L2208.92 216.178 L2208.92 212.242 Q2211.58 209.488 2216.16 204.858 Q2220.77 200.205 2221.95 198.863 Q2224.2 196.34 2225.08 194.604 Q2225.98 192.844 2225.98 191.155 Q2225.98 188.4 2224.04 186.664 Q2222.11 184.928 2219.01 184.928 Q2216.81 184.928 2214.36 185.692 Q2211.93 186.455 2209.15 188.006 L2209.15 183.284 Q2211.98 182.15 2214.43 181.571 Q2216.88 180.993 2218.92 180.993 Q2224.29 180.993 2227.48 183.678 Q2230.68 186.363 2230.68 190.854 Q2230.68 192.983 2229.87 194.905 Q2229.08 196.803 2226.98 199.395 Q2226.4 200.067 2223.29 203.284 Q2220.19 206.479 2214.54 212.242 Z" fill="#000000" fill-rule="evenodd" fill-opacity="1" /></svg>
