<?xml version="1.0" encoding="utf-8"?>
<svg xmlns="http://www.w3.org/2000/svg" xmlns:xlink="http://www.w3.org/1999/xlink" width="600" height="400" viewBox="0 0 2400 1600">
<defs>
  <clipPath id="clip960">
    <rect x="0" y="0" width="2400" height="1600"/>
  </clipPath>
</defs>
<path clip-path="url(#clip960)" d="
M0 1600 L2400 1600 L2400 0 L0 0  Z
  " fill="#ffffff" fill-rule="evenodd" fill-opacity="1"/>
<defs>
  <clipPath id="clip961">
    <rect x="480" y="0" width="1681" height="1600"/>
  </clipPath>
</defs>
<path clip-path="url(#clip960)" d="
M193.936 1486.45 L2352.76 1486.45 L2352.76 47.2441 L193.936 47.2441  Z
  " fill="#ffffff" fill-rule="evenodd" fill-opacity="1"/>
<defs>
  <clipPath id="clip962">
    <rect x="193" y="47" width="2160" height="1440"/>
  </clipPath>
</defs>
<polyline clip-path="url(#clip962)" style="stroke:#000000; stroke-linecap:butt; stroke-linejoin:round; stroke-width:2; stroke-opacity:0.1; fill:none" points="
  254.039,1486.45 254.039,47.2441 
  "/>
<polyline clip-path="url(#clip962)" style="stroke:#000000; stroke-linecap:butt; stroke-linejoin:round; stroke-width:2; stroke-opacity:0.1; fill:none" points="
  751.748,1486.45 751.748,47.2441 
  "/>
<polyline clip-path="url(#clip962)" style="stroke:#000000; stroke-linecap:butt; stroke-linejoin:round; stroke-width:2; stroke-opacity:0.1; fill:none" points="
  1249.46,1486.45 1249.46,47.2441 
  "/>
<polyline clip-path="url(#clip962)" style="stroke:#000000; stroke-linecap:butt; stroke-linejoin:round; stroke-width:2; stroke-opacity:0.1; fill:none" points="
  1747.16,1486.45 1747.16,47.2441 
  "/>
<polyline clip-path="url(#clip962)" style="stroke:#000000; stroke-linecap:butt; stroke-linejoin:round; stroke-width:2; stroke-opacity:0.1; fill:none" points="
  2244.87,1486.45 2244.87,47.2441 
  "/>
<polyline clip-path="url(#clip960)" style="stroke:#000000; stroke-linecap:butt; stroke-linejoin:round; stroke-width:4; stroke-opacity:1; fill:none" points="
  193.936,1486.45 2352.76,1486.45 
  "/>
<polyline clip-path="url(#clip960)" style="stroke:#000000; stroke-linecap:butt; stroke-linejoin:round; stroke-width:4; stroke-opacity:1; fill:none" points="
  254.039,1486.45 254.039,1467.55 
  "/>
<polyline clip-path="url(#clip960)" style="stroke:#000000; stroke-linecap:butt; stroke-linejoin:round; stroke-width:4; stroke-opacity:1; fill:none" points="
  751.748,1486.45 751.748,1467.55 
  "/>
<polyline clip-path="url(#clip960)" style="stroke:#000000; stroke-linecap:butt; stroke-linejoin:round; stroke-width:4; stroke-opacity:1; fill:none" points="
  1249.46,1486.45 1249.46,1467.55 
  "/>
<polyline clip-path="url(#clip960)" style="stroke:#000000; stroke-linecap:butt; stroke-linejoin:round; stroke-width:4; stroke-opacity:1; fill:none" points="
  1747.16,1486.45 1747.16,1467.55 
  "/>
<polyline clip-path="url(#clip960)" style="stroke:#000000; stroke-linecap:butt; stroke-linejoin:round; stroke-width:4; stroke-opacity:1; fill:none" points="
  2244.87,1486.45 2244.87,1467.55 
  "/>
<path clip-path="url(#clip960)" d="M254.039 1517.37 Q250.428 1517.37 248.599 1520.93 Q246.794 1524.47 246.794 1531.6 Q246.794 1538.71 248.599 1542.27 Q250.428 1545.82 254.039 1545.82 Q257.673 1545.82 259.479 1542.27 Q261.308 1538.71 261.308 1531.6 Q261.308 1524.47 259.479 1520.93 Q257.673 1517.37 254.039 1517.37 M254.039 1513.66 Q259.849 1513.66 262.905 1518.27 Q265.984 1522.85 265.984 1531.6 Q265.984 1540.33 262.905 1544.94 Q259.849 1549.52 254.039 1549.52 Q248.229 1549.52 245.15 1544.94 Q242.095 1540.33 242.095 1531.6 Q242.095 1522.85 245.15 1518.27 Q248.229 1513.66 254.039 1513.66 Z" fill="#000000" fill-rule="evenodd" fill-opacity="1" /><path clip-path="url(#clip960)" d="M711.366 1514.29 L729.722 1514.29 L729.722 1518.22 L715.648 1518.22 L715.648 1526.7 Q716.667 1526.35 717.685 1526.19 Q718.704 1526 719.722 1526 Q725.509 1526 728.889 1529.17 Q732.269 1532.34 732.269 1537.76 Q732.269 1543.34 728.796 1546.44 Q725.324 1549.52 719.005 1549.52 Q716.829 1549.52 714.56 1549.15 Q712.315 1548.78 709.908 1548.04 L709.908 1543.34 Q711.991 1544.47 714.213 1545.03 Q716.435 1545.58 718.912 1545.58 Q722.917 1545.58 725.255 1543.48 Q727.593 1541.37 727.593 1537.76 Q727.593 1534.15 725.255 1532.04 Q722.917 1529.94 718.912 1529.94 Q717.037 1529.94 715.162 1530.35 Q713.31 1530.77 711.366 1531.65 L711.366 1514.29 Z" fill="#000000" fill-rule="evenodd" fill-opacity="1" /><path clip-path="url(#clip960)" d="M751.481 1517.37 Q747.87 1517.37 746.042 1520.93 Q744.236 1524.47 744.236 1531.6 Q744.236 1538.71 746.042 1542.27 Q747.87 1545.82 751.481 1545.82 Q755.116 1545.82 756.921 1542.27 Q758.75 1538.71 758.75 1531.6 Q758.75 1524.47 756.921 1520.93 Q755.116 1517.37 751.481 1517.37 M751.481 1513.66 Q757.292 1513.66 760.347 1518.27 Q763.426 1522.85 763.426 1531.6 Q763.426 1540.33 760.347 1544.94 Q757.292 1549.52 751.481 1549.52 Q745.671 1549.52 742.593 1544.94 Q739.537 1540.33 739.537 1531.6 Q739.537 1522.85 742.593 1518.27 Q745.671 1513.66 751.481 1513.66 Z" fill="#000000" fill-rule="evenodd" fill-opacity="1" /><path clip-path="url(#clip960)" d="M781.643 1517.37 Q778.032 1517.37 776.203 1520.93 Q774.398 1524.47 774.398 1531.6 Q774.398 1538.71 776.203 1542.27 Q778.032 1545.82 781.643 1545.82 Q785.278 1545.82 787.083 1542.27 Q788.912 1538.71 788.912 1531.6 Q788.912 1524.47 787.083 1520.93 Q785.278 1517.37 781.643 1517.37 M781.643 1513.66 Q787.453 1513.66 790.509 1518.27 Q793.588 1522.85 793.588 1531.6 Q793.588 1540.33 790.509 1544.94 Q787.453 1549.52 781.643 1549.52 Q775.833 1549.52 772.754 1544.94 Q769.699 1540.33 769.699 1531.6 Q769.699 1522.85 772.754 1518.27 Q775.833 1513.66 781.643 1513.66 Z" fill="#000000" fill-rule="evenodd" fill-opacity="1" /><path clip-path="url(#clip960)" d="M1193.98 1544.91 L1201.62 1544.91 L1201.62 1518.55 L1193.31 1520.21 L1193.31 1515.95 L1201.57 1514.29 L1206.25 1514.29 L1206.25 1544.91 L1213.89 1544.91 L1213.89 1548.85 L1193.98 1548.85 L1193.98 1544.91 Z" fill="#000000" fill-rule="evenodd" fill-opacity="1" /><path clip-path="url(#clip960)" d="M1233.33 1517.37 Q1229.72 1517.37 1227.89 1520.93 Q1226.09 1524.47 1226.09 1531.6 Q1226.09 1538.71 1227.89 1542.27 Q1229.72 1545.82 1233.33 1545.82 Q1236.97 1545.82 1238.77 1542.27 Q1240.6 1538.71 1240.6 1531.6 Q1240.6 1524.47 1238.77 1520.93 Q1236.97 1517.37 1233.33 1517.37 M1233.33 1513.66 Q1239.14 1513.66 1242.2 1518.27 Q1245.28 1522.85 1245.28 1531.6 Q1245.28 1540.33 1242.2 1544.94 Q1239.14 1549.52 1233.33 1549.52 Q1227.52 1549.52 1224.44 1544.94 Q1221.39 1540.33 1221.39 1531.6 Q1221.39 1522.85 1224.44 1518.27 Q1227.52 1513.66 1233.33 1513.66 Z" fill="#000000" fill-rule="evenodd" fill-opacity="1" /><path clip-path="url(#clip960)" d="M1263.5 1517.37 Q1259.88 1517.37 1258.06 1520.93 Q1256.25 1524.47 1256.25 1531.6 Q1256.25 1538.71 1258.06 1542.27 Q1259.88 1545.82 1263.5 1545.82 Q1267.13 1545.82 1268.94 1542.27 Q1270.76 1538.71 1270.76 1531.6 Q1270.76 1524.47 1268.94 1520.93 Q1267.13 1517.37 1263.5 1517.37 M1263.5 1513.66 Q1269.31 1513.66 1272.36 1518.27 Q1275.44 1522.85 1275.44 1531.6 Q1275.44 1540.33 1272.36 1544.94 Q1269.31 1549.52 1263.5 1549.52 Q1257.69 1549.52 1254.61 1544.94 Q1251.55 1540.33 1251.55 1531.6 Q1251.55 1522.85 1254.61 1518.27 Q1257.69 1513.66 1263.5 1513.66 Z" fill="#000000" fill-rule="evenodd" fill-opacity="1" /><path clip-path="url(#clip960)" d="M1293.66 1517.37 Q1290.05 1517.37 1288.22 1520.93 Q1286.41 1524.47 1286.41 1531.6 Q1286.41 1538.71 1288.22 1542.27 Q1290.05 1545.82 1293.66 1545.82 Q1297.29 1545.82 1299.1 1542.27 Q1300.93 1538.71 1300.93 1531.6 Q1300.93 1524.47 1299.1 1520.93 Q1297.29 1517.37 1293.66 1517.37 M1293.66 1513.66 Q1299.47 1513.66 1302.52 1518.27 Q1305.6 1522.85 1305.6 1531.6 Q1305.6 1540.33 1302.52 1544.94 Q1299.47 1549.52 1293.66 1549.52 Q1287.85 1549.52 1284.77 1544.94 Q1281.71 1540.33 1281.71 1531.6 Q1281.71 1522.85 1284.77 1518.27 Q1287.85 1513.66 1293.66 1513.66 Z" fill="#000000" fill-rule="evenodd" fill-opacity="1" /><path clip-path="url(#clip960)" d="M1691.69 1544.91 L1699.33 1544.91 L1699.33 1518.55 L1691.02 1520.21 L1691.02 1515.95 L1699.28 1514.29 L1703.96 1514.29 L1703.96 1544.91 L1711.6 1544.91 L1711.6 1548.85 L1691.69 1548.85 L1691.69 1544.91 Z" fill="#000000" fill-rule="evenodd" fill-opacity="1" /><path clip-path="url(#clip960)" d="M1721.09 1514.29 L1739.44 1514.29 L1739.44 1518.22 L1725.37 1518.22 L1725.37 1526.7 Q1726.39 1526.35 1727.41 1526.19 Q1728.43 1526 1729.44 1526 Q1735.23 1526 1738.61 1529.17 Q1741.99 1532.34 1741.99 1537.76 Q1741.99 1543.34 1738.52 1546.44 Q1735.05 1549.52 1728.73 1549.52 Q1726.55 1549.52 1724.28 1549.15 Q1722.04 1548.78 1719.63 1548.04 L1719.63 1543.34 Q1721.71 1544.47 1723.94 1545.03 Q1726.16 1545.58 1728.63 1545.58 Q1732.64 1545.58 1734.98 1543.48 Q1737.31 1541.37 1737.31 1537.76 Q1737.31 1534.15 1734.98 1532.04 Q1732.64 1529.94 1728.63 1529.94 Q1726.76 1529.94 1724.88 1530.35 Q1723.03 1530.77 1721.09 1531.65 L1721.09 1514.29 Z" fill="#000000" fill-rule="evenodd" fill-opacity="1" /><path clip-path="url(#clip960)" d="M1761.2 1517.37 Q1757.59 1517.37 1755.76 1520.93 Q1753.96 1524.47 1753.96 1531.6 Q1753.96 1538.71 1755.76 1542.27 Q1757.59 1545.82 1761.2 1545.82 Q1764.84 1545.82 1766.64 1542.27 Q1768.47 1538.71 1768.47 1531.6 Q1768.47 1524.47 1766.64 1520.93 Q1764.84 1517.37 1761.2 1517.37 M1761.2 1513.66 Q1767.01 1513.66 1770.07 1518.27 Q1773.15 1522.85 1773.15 1531.6 Q1773.15 1540.33 1770.07 1544.94 Q1767.01 1549.52 1761.2 1549.52 Q1755.39 1549.52 1752.31 1544.94 Q1749.26 1540.33 1749.26 1531.6 Q1749.26 1522.85 1752.31 1518.27 Q1755.39 1513.66 1761.2 1513.66 Z" fill="#000000" fill-rule="evenodd" fill-opacity="1" /><path clip-path="url(#clip960)" d="M1791.37 1517.37 Q1787.75 1517.37 1785.93 1520.93 Q1784.12 1524.47 1784.12 1531.6 Q1784.12 1538.71 1785.93 1542.27 Q1787.75 1545.82 1791.37 1545.82 Q1795 1545.82 1796.81 1542.27 Q1798.63 1538.71 1798.63 1531.6 Q1798.63 1524.47 1796.81 1520.93 Q1795 1517.37 1791.37 1517.37 M1791.37 1513.66 Q1797.18 1513.66 1800.23 1518.27 Q1803.31 1522.85 1803.31 1531.6 Q1803.31 1540.33 1800.23 1544.94 Q1797.18 1549.52 1791.37 1549.52 Q1785.56 1549.52 1782.48 1544.94 Q1779.42 1540.33 1779.42 1531.6 Q1779.42 1522.85 1782.48 1518.27 Q1785.56 1513.66 1791.37 1513.66 Z" fill="#000000" fill-rule="evenodd" fill-opacity="1" /><path clip-path="url(#clip960)" d="M2193.48 1544.91 L2209.8 1544.91 L2209.8 1548.85 L2187.86 1548.85 L2187.86 1544.91 Q2190.52 1542.16 2195.1 1537.53 Q2199.71 1532.88 2200.89 1531.53 Q2203.14 1529.01 2204.02 1527.27 Q2204.92 1525.51 2204.92 1523.82 Q2204.92 1521.07 2202.97 1519.33 Q2201.05 1517.6 2197.95 1517.6 Q2195.75 1517.6 2193.3 1518.36 Q2190.87 1519.13 2188.09 1520.68 L2188.09 1515.95 Q2190.91 1514.82 2193.37 1514.24 Q2195.82 1513.66 2197.86 1513.66 Q2203.23 1513.66 2206.42 1516.35 Q2209.62 1519.03 2209.62 1523.52 Q2209.62 1525.65 2208.81 1527.57 Q2208.02 1529.47 2205.91 1532.07 Q2205.34 1532.74 2202.23 1535.95 Q2199.13 1539.15 2193.48 1544.91 Z" fill="#000000" fill-rule="evenodd" fill-opacity="1" /><path clip-path="url(#clip960)" d="M2229.62 1517.37 Q2226.01 1517.37 2224.18 1520.93 Q2222.37 1524.47 2222.37 1531.6 Q2222.37 1538.71 2224.18 1542.27 Q2226.01 1545.82 2229.62 1545.82 Q2233.25 1545.82 2235.06 1542.27 Q2236.89 1538.71 2236.89 1531.6 Q2236.89 1524.47 2235.06 1520.93 Q2233.25 1517.37 2229.62 1517.37 M2229.62 1513.66 Q2235.43 1513.66 2238.48 1518.27 Q2241.56 1522.85 2241.56 1531.6 Q2241.56 1540.33 2238.48 1544.94 Q2235.43 1549.52 2229.62 1549.52 Q2223.81 1549.52 2220.73 1544.94 Q2217.67 1540.33 2217.67 1531.6 Q2217.67 1522.85 2220.73 1518.27 Q2223.81 1513.66 2229.62 1513.66 Z" fill="#000000" fill-rule="evenodd" fill-opacity="1" /><path clip-path="url(#clip960)" d="M2259.78 1517.37 Q2256.17 1517.37 2254.34 1520.93 Q2252.53 1524.47 2252.53 1531.6 Q2252.53 1538.71 2254.34 1542.27 Q2256.17 1545.82 2259.78 1545.82 Q2263.41 1545.82 2265.22 1542.27 Q2267.05 1538.71 2267.05 1531.6 Q2267.05 1524.47 2265.22 1520.93 Q2263.41 1517.37 2259.78 1517.37 M2259.78 1513.66 Q2265.59 1513.66 2268.65 1518.27 Q2271.72 1522.85 2271.72 1531.6 Q2271.72 1540.33 2268.65 1544.94 Q2265.59 1549.52 2259.78 1549.52 Q2253.97 1549.52 2250.89 1544.94 Q2247.84 1540.33 2247.84 1531.6 Q2247.84 1522.85 2250.89 1518.27 Q2253.97 1513.66 2259.78 1513.66 Z" fill="#000000" fill-rule="evenodd" fill-opacity="1" /><path clip-path="url(#clip960)" d="M2289.94 1517.37 Q2286.33 1517.37 2284.5 1520.93 Q2282.7 1524.47 2282.7 1531.6 Q2282.7 1538.71 2284.5 1542.27 Q2286.33 1545.82 2289.94 1545.82 Q2293.58 1545.82 2295.38 1542.27 Q2297.21 1538.71 2297.21 1531.6 Q2297.21 1524.47 2295.38 1520.93 Q2293.58 1517.37 2289.94 1517.37 M2289.94 1513.66 Q2295.75 1513.66 2298.81 1518.27 Q2301.89 1522.85 2301.89 1531.6 Q2301.89 1540.33 2298.81 1544.94 Q2295.75 1549.52 2289.94 1549.52 Q2284.13 1549.52 2281.05 1544.94 Q2278 1540.33 2278 1531.6 Q2278 1522.85 2281.05 1518.27 Q2284.13 1513.66 2289.94 1513.66 Z" fill="#000000" fill-rule="evenodd" fill-opacity="1" /><polyline clip-path="url(#clip962)" style="stroke:#000000; stroke-linecap:butt; stroke-linejoin:round; stroke-width:2; stroke-opacity:0.1; fill:none" points="
  193.936,1309.94 2352.76,1309.94 
  "/>
<polyline clip-path="url(#clip962)" style="stroke:#000000; stroke-linecap:butt; stroke-linejoin:round; stroke-width:2; stroke-opacity:0.1; fill:none" points="
  193.936,970.508 2352.76,970.508 
  "/>
<polyline clip-path="url(#clip962)" style="stroke:#000000; stroke-linecap:butt; stroke-linejoin:round; stroke-width:2; stroke-opacity:0.1; fill:none" points="
  193.936,631.073 2352.76,631.073 
  "/>
<polyline clip-path="url(#clip962)" style="stroke:#000000; stroke-linecap:butt; stroke-linejoin:round; stroke-width:2; stroke-opacity:0.1; fill:none" points="
  193.936,291.637 2352.76,291.637 
  "/>
<polyline clip-path="url(#clip960)" style="stroke:#000000; stroke-linecap:butt; stroke-linejoin:round; stroke-width:4; stroke-opacity:1; fill:none" points="
  193.936,1486.45 193.936,47.2441 
  "/>
<polyline clip-path="url(#clip960)" style="stroke:#000000; stroke-linecap:butt; stroke-linejoin:round; stroke-width:4; stroke-opacity:1; fill:none" points="
  193.936,1309.94 212.834,1309.94 
  "/>
<polyline clip-path="url(#clip960)" style="stroke:#000000; stroke-linecap:butt; stroke-linejoin:round; stroke-width:4; stroke-opacity:1; fill:none" points="
  193.936,970.508 212.834,970.508 
  "/>
<polyline clip-path="url(#clip960)" style="stroke:#000000; stroke-linecap:butt; stroke-linejoin:round; stroke-width:4; stroke-opacity:1; fill:none" points="
  193.936,631.073 212.834,631.073 
  "/>
<polyline clip-path="url(#clip960)" style="stroke:#000000; stroke-linecap:butt; stroke-linejoin:round; stroke-width:4; stroke-opacity:1; fill:none" points="
  193.936,291.637 212.834,291.637 
  "/>
<path clip-path="url(#clip960)" d="M50.9921 1310.39 L80.6679 1310.39 L80.6679 1314.33 L50.9921 1314.33 L50.9921 1310.39 Z" fill="#000000" fill-rule="evenodd" fill-opacity="1" /><path clip-path="url(#clip960)" d="M90.8067 1292.66 L109.163 1292.66 L109.163 1296.6 L95.0891 1296.6 L95.0891 1305.07 Q96.1076 1304.72 97.1261 1304.56 Q98.1447 1304.38 99.1632 1304.38 Q104.95 1304.38 108.33 1307.55 Q111.709 1310.72 111.709 1316.14 Q111.709 1321.71 108.237 1324.82 Q104.765 1327.89 98.4456 1327.89 Q96.2697 1327.89 94.0012 1327.52 Q91.7558 1327.15 89.3484 1326.41 L89.3484 1321.71 Q91.4317 1322.85 93.6539 1323.4 Q95.8761 1323.96 98.353 1323.96 Q102.358 1323.96 104.696 1321.85 Q107.033 1319.75 107.033 1316.14 Q107.033 1312.52 104.696 1310.42 Q102.358 1308.31 98.353 1308.31 Q96.478 1308.31 94.603 1308.73 Q92.7512 1309.14 90.8067 1310.02 L90.8067 1292.66 Z" fill="#000000" fill-rule="evenodd" fill-opacity="1" /><path clip-path="url(#clip960)" d="M120.922 1321.34 L125.807 1321.34 L125.807 1327.22 L120.922 1327.22 L120.922 1321.34 Z" fill="#000000" fill-rule="evenodd" fill-opacity="1" /><path clip-path="url(#clip960)" d="M145.992 1295.74 Q142.381 1295.74 140.552 1299.31 Q138.746 1302.85 138.746 1309.98 Q138.746 1317.08 140.552 1320.65 Q142.381 1324.19 145.992 1324.19 Q149.626 1324.19 151.431 1320.65 Q153.26 1317.08 153.26 1309.98 Q153.26 1302.85 151.431 1299.31 Q149.626 1295.74 145.992 1295.74 M145.992 1292.04 Q151.802 1292.04 154.857 1296.64 Q157.936 1301.23 157.936 1309.98 Q157.936 1318.7 154.857 1323.31 Q151.802 1327.89 145.992 1327.89 Q140.181 1327.89 137.103 1323.31 Q134.047 1318.7 134.047 1309.98 Q134.047 1301.23 137.103 1296.64 Q140.181 1292.04 145.992 1292.04 Z" fill="#000000" fill-rule="evenodd" fill-opacity="1" /><path clip-path="url(#clip960)" d="M51.9875 970.959 L81.6633 970.959 L81.6633 974.894 L51.9875 974.894 L51.9875 970.959 Z" fill="#000000" fill-rule="evenodd" fill-opacity="1" /><path clip-path="url(#clip960)" d="M95.7836 983.853 L112.103 983.853 L112.103 987.788 L90.1586 987.788 L90.1586 983.853 Q92.8206 981.098 97.4039 976.468 Q102.01 971.816 103.191 970.473 Q105.436 967.95 106.316 966.214 Q107.219 964.455 107.219 962.765 Q107.219 960.01 105.274 958.274 Q103.353 956.538 100.251 956.538 Q98.0521 956.538 95.5984 957.302 Q93.1678 958.066 90.3901 959.617 L90.3901 954.894 Q93.2141 953.76 95.6678 953.181 Q98.1215 952.603 100.159 952.603 Q105.529 952.603 108.723 955.288 Q111.918 957.973 111.918 962.464 Q111.918 964.593 111.108 966.515 Q110.321 968.413 108.214 971.005 Q107.635 971.677 104.534 974.894 Q101.432 978.089 95.7836 983.853 Z" fill="#000000" fill-rule="evenodd" fill-opacity="1" /><path clip-path="url(#clip960)" d="M121.918 981.908 L126.802 981.908 L126.802 987.788 L121.918 987.788 L121.918 981.908 Z" fill="#000000" fill-rule="evenodd" fill-opacity="1" /><path clip-path="url(#clip960)" d="M137.033 953.228 L155.39 953.228 L155.39 957.163 L141.316 957.163 L141.316 965.635 Q142.334 965.288 143.353 965.126 Q144.371 964.941 145.39 964.941 Q151.177 964.941 154.556 968.112 Q157.936 971.283 157.936 976.7 Q157.936 982.279 154.464 985.38 Q150.992 988.459 144.672 988.459 Q142.496 988.459 140.228 988.089 Q137.982 987.718 135.575 986.978 L135.575 982.279 Q137.658 983.413 139.881 983.968 Q142.103 984.524 144.58 984.524 Q148.584 984.524 150.922 982.417 Q153.26 980.311 153.26 976.7 Q153.26 973.089 150.922 970.982 Q148.584 968.876 144.58 968.876 Q142.705 968.876 140.83 969.293 Q138.978 969.709 137.033 970.589 L137.033 953.228 Z" fill="#000000" fill-rule="evenodd" fill-opacity="1" /><path clip-path="url(#clip960)" d="M100.76 616.871 Q97.1493 616.871 95.3206 620.436 Q93.515 623.978 93.515 631.107 Q93.515 638.214 95.3206 641.778 Q97.1493 645.32 100.76 645.32 Q104.395 645.32 106.2 641.778 Q108.029 638.214 108.029 631.107 Q108.029 623.978 106.2 620.436 Q104.395 616.871 100.76 616.871 M100.76 613.168 Q106.571 613.168 109.626 617.774 Q112.705 622.357 112.705 631.107 Q112.705 639.834 109.626 644.441 Q106.571 649.024 100.76 649.024 Q94.9502 649.024 91.8715 644.441 Q88.816 639.834 88.816 631.107 Q88.816 622.357 91.8715 617.774 Q94.9502 613.168 100.76 613.168 Z" fill="#000000" fill-rule="evenodd" fill-opacity="1" /><path clip-path="url(#clip960)" d="M120.922 642.473 L125.807 642.473 L125.807 648.353 L120.922 648.353 L120.922 642.473 Z" fill="#000000" fill-rule="evenodd" fill-opacity="1" /><path clip-path="url(#clip960)" d="M145.992 616.871 Q142.381 616.871 140.552 620.436 Q138.746 623.978 138.746 631.107 Q138.746 638.214 140.552 641.778 Q142.381 645.32 145.992 645.32 Q149.626 645.32 151.431 641.778 Q153.26 638.214 153.26 631.107 Q153.26 623.978 151.431 620.436 Q149.626 616.871 145.992 616.871 M145.992 613.168 Q151.802 613.168 154.857 617.774 Q157.936 622.357 157.936 631.107 Q157.936 639.834 154.857 644.441 Q151.802 649.024 145.992 649.024 Q140.181 649.024 137.103 644.441 Q134.047 639.834 134.047 631.107 Q134.047 622.357 137.103 617.774 Q140.181 613.168 145.992 613.168 Z" fill="#000000" fill-rule="evenodd" fill-opacity="1" /><path clip-path="url(#clip960)" d="M95.7836 304.982 L112.103 304.982 L112.103 308.917 L90.1586 308.917 L90.1586 304.982 Q92.8206 302.227 97.4039 297.598 Q102.01 292.945 103.191 291.603 Q105.436 289.079 106.316 287.343 Q107.219 285.584 107.219 283.894 Q107.219 281.14 105.274 279.404 Q103.353 277.667 100.251 277.667 Q98.0521 277.667 95.5984 278.431 Q93.1678 279.195 90.3901 280.746 L90.3901 276.024 Q93.2141 274.89 95.6678 274.311 Q98.1215 273.732 100.159 273.732 Q105.529 273.732 108.723 276.417 Q111.918 279.103 111.918 283.593 Q111.918 285.723 111.108 287.644 Q110.321 289.542 108.214 292.135 Q107.635 292.806 104.534 296.024 Q101.432 299.218 95.7836 304.982 Z" fill="#000000" fill-rule="evenodd" fill-opacity="1" /><path clip-path="url(#clip960)" d="M121.918 303.038 L126.802 303.038 L126.802 308.917 L121.918 308.917 L121.918 303.038 Z" fill="#000000" fill-rule="evenodd" fill-opacity="1" /><path clip-path="url(#clip960)" d="M137.033 274.357 L155.39 274.357 L155.39 278.292 L141.316 278.292 L141.316 286.765 Q142.334 286.417 143.353 286.255 Q144.371 286.07 145.39 286.07 Q151.177 286.07 154.556 289.241 Q157.936 292.413 157.936 297.829 Q157.936 303.408 154.464 306.51 Q150.992 309.589 144.672 309.589 Q142.496 309.589 140.228 309.218 Q137.982 308.848 135.575 308.107 L135.575 303.408 Q137.658 304.542 139.881 305.098 Q142.103 305.653 144.58 305.653 Q148.584 305.653 150.922 303.547 Q153.26 301.44 153.26 297.829 Q153.26 294.218 150.922 292.112 Q148.584 290.005 144.58 290.005 Q142.705 290.005 140.83 290.422 Q138.978 290.839 137.033 291.718 L137.033 274.357 Z" fill="#000000" fill-rule="evenodd" fill-opacity="1" /><polyline clip-path="url(#clip962)" style="stroke:#009af9; stroke-linecap:butt; stroke-linejoin:round; stroke-width:4; stroke-opacity:1; fill:none" points="
  255.035,606.359 256.03,530.788 257.026,602.871 258.021,531.799 259.016,596.535 260.012,533.371 261.007,588.405 262.003,534.911 262.998,579.328 263.993,535.893 
  264.989,569.945 265.984,535.998 266.98,560.645 267.975,535.11 268.971,551.646 269.966,533.244 270.961,543.043 271.957,530.499 272.952,534.862 273.948,527.009 
  274.943,527.091 275.938,522.916 276.934,519.699 277.929,518.354 278.925,512.647 279.92,513.442 280.916,505.897 281.911,508.277 282.906,499.411 283.902,502.938 
  284.897,493.158 285.893,497.489 286.888,487.109 287.883,491.981 288.879,481.242 289.874,486.455 290.87,475.544 291.865,480.944 292.861,470.002 293.856,475.478 
  294.851,464.611 295.847,470.077 296.842,459.363 297.838,464.758 298.833,454.252 299.828,459.529 300.824,449.265 301.819,454.389 302.815,444.389 303.81,449.332 
  304.806,439.606 305.801,444.346 306.796,434.895 307.792,439.417 308.787,430.237 309.783,434.53 310.778,425.613 311.773,429.673 312.769,421.01 313.764,424.834 
  314.76,416.416 315.755,420.005 316.751,411.823 317.746,415.18 318.741,407.225 319.737,410.357 320.732,402.619 321.728,405.533 322.723,398.002 323.718,400.706 
  324.714,393.374 325.709,395.876 326.705,388.735 327.7,391.044 328.696,384.085 329.691,386.209 330.686,379.425 331.682,381.372 332.677,374.756 333.673,376.536 
  334.668,370.081 335.663,371.703 336.659,365.401 337.654,366.873 338.65,360.72 339.645,362.05 340.641,356.04 341.636,357.236 342.631,351.363 343.627,352.433 
  344.622,346.691 345.618,347.642 346.613,342.028 347.608,342.866 348.604,337.374 349.599,338.106 350.595,332.731 351.59,333.361 352.586,328.099 353.581,328.634 
  354.576,323.479 355.572,323.923 356.567,318.872 357.563,319.23 358.558,314.278 359.553,314.553 360.549,309.697 361.544,309.894 362.54,305.129 363.535,305.253 
  364.531,300.575 365.526,300.629 366.521,296.035 367.517,296.022 368.512,291.511 369.508,291.435 370.503,287.002 371.498,286.866 372.494,282.51 373.489,282.318 
  374.485,278.035 375.48,277.79 376.476,273.58 377.471,273.285 378.466,269.145 379.462,268.804 380.457,264.731 381.453,264.347 382.448,260.342 383.443,259.917 
  384.439,255.977 385.434,255.515 386.43,251.64 387.425,251.143 388.421,247.331 389.416,246.803 390.411,243.054 391.407,242.497 392.402,238.809 393.398,238.226 
  394.393,234.6 395.388,233.993 396.384,230.427 397.379,229.799 398.375,226.293 399.37,225.647 400.366,222.199 401.361,221.537 402.356,218.148 403.352,217.472 
  404.347,214.141 405.343,213.453 406.338,210.181 407.333,209.483 408.329,206.268 409.324,205.563 410.32,202.404 411.315,201.693 412.311,198.592 413.306,197.877 
  414.301,194.832 415.297,194.115 416.292,191.126 417.288,190.408 418.283,187.475 419.278,186.759 420.274,183.882 421.269,183.168 422.265,180.346 423.26,179.637 
  424.256,176.871 425.251,176.168 426.246,173.456 427.242,172.76 428.237,170.104 429.233,169.416 430.228,166.815 431.223,166.138 432.219,163.591 433.214,162.925 
  434.21,160.432 435.205,159.779 436.201,157.341 437.196,156.701 438.191,154.318 439.187,153.693 440.182,151.364 441.178,150.755 442.173,148.48 443.168,147.888 
  444.164,145.667 445.159,145.093 446.155,142.927 447.15,142.372 448.146,140.259 449.141,139.724 450.136,137.666 451.132,137.152 452.127,135.147 453.123,134.655 
  454.118,132.704 455.113,132.234 456.109,130.337 457.104,129.891 458.1,128.047 459.095,127.625 460.091,125.835 461.086,125.438 462.081,123.701 463.077,123.33 
  464.072,121.647 465.068,121.301 466.063,119.671 467.058,119.353 468.054,117.776 469.049,117.485 470.045,115.961 471.04,115.698 472.036,114.227 473.031,113.992 
  474.026,112.574 475.022,112.369 476.017,111.003 477.013,110.827 478.008,109.514 479.003,109.369 479.999,108.108 480.994,107.993 481.99,106.785 482.985,106.7 
  483.981,105.544 484.976,105.491 485.971,104.387 486.967,104.365 487.962,103.313 488.958,103.323 489.953,102.323 490.948,102.366 491.944,101.417 492.939,101.492 
  493.935,100.594 494.93,100.703 495.926,99.8564 496.921,99.9982 497.916,99.2027 498.912,99.378 499.907,98.6334 500.903,98.8424 501.898,98.1485 502.893,98.3915 
  503.889,97.7481 504.884,98.0252 505.88,97.4322 506.875,97.7437 507.871,97.2008 508.866,97.5469 509.861,97.0539 510.857,97.4347 511.852,96.9915 512.848,97.4071 
  513.843,97.0134 514.838,97.464 515.834,97.1197 516.829,97.6054 517.825,97.3102 518.82,97.831 519.816,97.5847 520.811,98.1408 521.806,97.9433 522.802,98.5347 
  523.797,98.3855 524.793,99.0124 525.788,98.9114 526.783,99.5737 527.779,99.5207 528.774,100.218 529.77,100.213 530.765,100.946 531.761,100.988 532.756,101.757 
  533.751,101.846 534.747,102.651 535.742,102.787 536.738,103.626 537.733,103.809 538.728,104.684 539.724,104.914 540.719,105.824 541.715,106.099 542.71,107.045 
  543.706,107.366 544.701,108.346 545.696,108.713 546.692,109.729 547.687,110.141 548.683,111.191 549.678,111.648 550.673,112.734 551.669,113.235 552.664,114.355 
  553.66,114.901 554.655,116.056 555.651,116.645 556.646,117.834 557.641,118.467 558.637,119.691 559.632,120.367 560.628,121.625 561.623,122.344 562.618,123.635 
  563.614,124.397 564.609,125.722 565.605,126.526 566.6,127.885 567.596,128.731 568.591,130.123 569.586,131.01 570.582,132.435 571.577,133.363 572.573,134.822 
  573.568,135.791 574.563,137.282 575.559,138.291 576.554,139.815 577.55,140.864 578.545,142.42 579.541,143.508 580.536,145.096 581.531,146.224 582.527,147.844 
  583.522,149.01 584.518,150.662 585.513,151.867 586.508,153.55 587.504,154.793 588.499,156.507 589.495,157.788 590.49,159.532 591.486,160.85 592.481,162.626 
  593.476,163.981 594.472,165.787 595.467,167.179 596.463,169.014 597.458,170.443 598.453,172.308 599.449,173.772 600.444,175.668 601.44,177.168 602.435,179.092 
  603.431,180.628 604.426,182.581 605.421,184.152 606.417,186.135 607.412,187.74 608.408,189.751 609.403,191.391 610.398,193.431 611.394,195.104 612.389,197.173 
  613.385,198.88 614.38,200.977 615.376,202.718 616.371,204.843 617.366,206.617 618.362,208.77 619.357,210.578 620.353,212.758 621.348,214.598 622.343,216.807 
  623.339,218.679 624.334,220.915 625.33,222.82 626.325,225.083 627.321,227.021 628.316,229.311 629.311,231.28 630.307,233.598 631.302,235.599 632.298,237.944 
  633.293,239.977 634.288,242.348 635.284,244.413 636.279,246.811 637.275,248.907 638.27,251.332 639.266,253.459 640.261,255.912 641.256,258.07 642.252,260.549 
  643.247,262.738 644.243,265.244 645.238,267.464 646.233,269.997 647.229,272.248 648.224,274.807 649.22,277.089 650.215,279.675 651.211,281.988 652.206,284.6 
  653.201,286.944 654.197,289.583 655.192,291.957 656.188,294.623 657.183,297.028 658.178,299.721 659.174,302.157 660.169,304.876 661.165,307.342 662.16,310.089 
  663.156,312.585 664.151,315.359 665.146,317.886 666.142,320.686 667.137,323.244 668.133,326.071 669.128,328.659 670.123,331.513 671.119,334.132 672.114,337.013 
  673.11,339.662 674.105,342.57 675.101,345.25 676.096,348.185 677.091,350.895 678.087,353.856 679.082,356.596 680.078,359.585 681.073,362.355 682.068,365.37 
  683.064,368.17 684.059,371.212 685.055,374.041 686.05,377.109 687.046,379.968 688.041,383.063 689.036,385.951 690.032,389.072 691.027,391.989 692.023,395.135 
  693.018,398.081 694.013,401.252 695.009,404.226 696.004,407.423 697,410.425 697.995,413.647 698.991,416.676 699.986,419.922 700.981,422.979 701.977,426.249 
  702.972,429.332 703.968,432.626 704.963,435.735 705.958,439.052 706.954,442.186 707.949,445.526 708.945,448.686 709.94,452.048 710.936,455.232 711.931,458.616 
  712.926,461.825 713.922,465.23 714.917,468.462 715.913,471.888 716.908,475.144 717.903,478.59 718.899,481.869 719.894,485.335 720.89,488.636 721.885,492.121 
  722.881,495.444 723.876,498.948 724.871,502.291 725.867,505.814 726.862,509.178 727.858,512.718 728.853,516.101 729.848,519.659 730.844,523.061 731.839,526.634 
  732.835,530.054 733.83,533.643 734.826,537.08 735.821,540.682 736.816,544.135 737.812,547.75 738.807,551.217 739.803,554.843 740.798,558.323 741.793,561.959 
  742.789,565.45 743.784,569.094 744.78,572.594 745.775,576.244 746.771,579.75 747.766,583.404 748.761,586.916 749.757,590.572 750.752,594.086 751.748,597.741 
  752.743,601.256 753.738,604.908 754.734,608.421 755.729,612.068 756.725,615.576 757.72,619.216 758.716,622.717 759.711,626.348 760.706,629.841 761.702,633.461 
  762.697,636.945 763.693,640.551 764.688,644.024 765.683,647.618 766.679,651.079 767.674,654.659 768.67,658.107 769.665,661.673 770.661,665.111 771.656,668.663 
  772.651,672.089 773.647,675.63 774.642,679.047 775.638,682.576 776.633,685.985 777.628,689.506 778.624,692.909 779.619,696.424 780.615,699.823 781.61,703.334 
  782.606,706.732 783.601,710.241 784.596,713.639 785.592,717.148 786.587,720.549 787.583,724.058 788.578,727.462 789.573,730.974 790.569,734.381 791.564,737.892 
  792.56,741.301 793.555,744.811 794.551,748.218 795.546,751.723 796.541,755.123 797.537,758.616 798.532,762.004 799.528,765.479 800.523,768.844 801.518,772.291 
  802.514,775.624 803.509,779.032 804.505,782.321 805.5,785.676 806.496,788.908 807.491,792.198 808.486,795.358 809.482,798.568 810.477,801.643 811.473,804.759 
  812.468,807.735 813.463,810.744 814.459,813.61 815.454,816.502 816.45,819.247 817.445,822.015 818.441,824.635 819.436,827.274 820.431,829.767 821.427,832.28 
  822.422,834.652 823.418,837.047 824.413,839.309 825.408,841.601 826.404,843.772 827.399,845.983 828.395,848.089 829.39,850.251 830.386,852.326 831.381,854.475 
  832.376,856.561 833.372,858.744 834.367,860.889 835.363,863.156 836.358,865.413 837.353,867.82 838.349,870.248 839.344,872.852 840.34,875.508 841.335,878.369 
  842.331,881.312 843.326,884.486 844.321,887.769 845.317,891.307 846.312,894.977 847.308,898.921 848.303,903.016 849.298,907.396 850.294,911.941 851.289,916.776 
  852.285,921.78 853.28,927.072 854.276,932.528 855.271,938.261 856.266,944.145 857.262,950.286 858.257,956.556 859.253,963.055 860.248,969.652 861.243,976.443 
  862.239,983.294 863.234,990.296 864.23,997.317 865.225,1004.44 866.221,1011.54 867.216,1154.46 868.211,1161.53 869.207,1168.6 870.202,1175.55 871.198,1182.46 
  872.193,1189.19 873.188,1195.84 874.184,1202.27 875.179,1208.58 876.175,1214.64 877.17,1220.53 878.166,1226.16 879.161,1231.6 880.156,1236.76 881.152,1241.71 
  882.147,1246.36 883.143,1250.81 884.138,1254.95 885.133,1258.9 886.129,1262.55 887.124,1266.01 888.12,1269.19 889.115,1272.19 890.111,1274.94 891.106,1277.53 
  892.101,1279.89 893.097,1282.12 894.092,1284.15 895.088,1286.08 896.083,1287.83 897.078,1289.51 898.074,1291.05 899.069,1292.54 900.065,1293.92 901.06,1295.28 
  902.056,1296.56 903.051,1297.83 904.046,1299.05 905.042,1300.3 906.037,1301.5 907.033,1302.75 908.028,1303.97 909.023,1305.25 910.019,1306.52 911.014,1307.85 
  912.01,1309.19 913.005,1310.6 914.001,1312.01 914.996,1313.49 915.991,1314.99 916.987,1316.55 917.982,1318.13 918.978,1319.77 919.973,1321.43 920.968,1323.14 
  921.964,1324.86 922.959,1326.64 923.955,1328.41 924.95,1330.23 925.946,1332.05 926.941,1333.91 927.936,1335.75 928.932,1337.63 929.927,1339.49 930.923,1341.37 
  931.918,1343.23 932.913,1345.11 933.909,1346.96 934.904,1348.82 935.9,1350.65 936.895,1352.48 937.891,1354.28 938.886,1356.08 939.881,1357.85 940.877,1359.61 
  941.872,1361.34 942.868,1363.06 943.863,1364.74 944.858,1366.41 945.854,1368.05 946.849,1369.68 947.845,1371.28 948.84,1372.86 949.836,1374.41 950.831,1375.96 
  951.826,1377.47 952.822,1378.97 953.817,1380.44 954.813,1381.91 955.808,1383.34 956.803,1384.77 957.799,1386.17 958.794,1387.57 959.79,1388.94 960.785,1390.31 
  961.781,1391.65 962.776,1392.98 963.771,1394.3 964.767,1395.61 965.762,1396.9 966.758,1398.18 967.753,1399.44 968.748,1400.69 969.744,1401.93 970.739,1403.16 
  971.735,1404.37 972.73,1405.57 973.726,1406.76 974.721,1407.93 975.716,1409.09 976.712,1410.23 977.707,1411.36 978.703,1412.47 979.698,1413.57 980.693,1414.65 
  981.689,1415.71 982.684,1416.75 983.68,1417.78 984.675,1418.79 985.671,1419.78 986.666,1420.75 987.661,1421.7 988.657,1422.63 989.652,1423.54 990.648,1424.43 
  991.643,1425.29 992.638,1426.14 993.634,1426.96 994.629,1427.76 995.625,1428.54 996.62,1429.29 997.616,1430.02 998.611,1430.73 999.606,1431.42 1000.6,1432.07 
  1001.6,1432.71 1002.59,1433.32 1003.59,1433.91 1004.58,1434.46 1005.58,1435 1006.57,1435.51 1007.57,1436 1008.57,1436.46 1009.56,1436.9 1010.56,1437.31 
  1011.55,1437.7 1012.55,1438.06 1013.54,1438.4 1014.54,1438.71 1015.53,1439 1016.53,1439.26 1017.52,1439.5 1018.52,1439.7 1019.51,1439.9 1020.51,1440.05 
  1021.51,1440.19 1022.5,1440.3 1023.5,1440.39 1024.49,1440.44 1025.49,1440.48 1026.48,1440.48 1027.48,1440.48 1028.47,1440.43 1029.47,1440.37 1030.46,1440.27 
  1031.46,1440.16 1032.46,1440.01 1033.45,1439.86 1034.45,1439.66 1035.44,1439.45 1036.44,1439.2 1037.43,1438.94 1038.43,1438.64 1039.42,1438.33 1040.42,1437.98 
  1041.41,1437.63 1042.41,1437.23 1043.4,1436.82 1044.4,1436.37 1045.4,1435.92 1046.39,1435.42 1047.39,1434.91 1048.38,1434.37 1049.38,1433.81 1050.37,1433.22 
  1051.37,1432.62 1052.36,1431.97 1053.36,1431.32 1054.35,1430.63 1055.35,1429.94 1056.35,1429.19 1057.34,1428.45 1058.34,1427.66 1059.33,1426.88 1060.33,1426.04 
  1061.32,1425.21 1062.32,1424.33 1063.31,1423.45 1064.31,1422.52 1065.3,1421.6 1066.3,1420.63 1067.29,1419.66 1068.29,1418.64 1069.29,1417.63 1070.28,1416.57 
  1071.28,1415.52 1072.27,1414.41 1073.27,1413.32 1074.26,1412.17 1075.26,1411.03 1076.25,1409.84 1077.25,1408.66 1078.24,1407.44 1079.24,1406.21 1080.24,1404.94 
  1081.23,1403.68 1082.23,1402.37 1083.22,1401.07 1084.22,1399.72 1085.21,1398.38 1086.21,1396.99 1087.2,1395.61 1088.2,1394.18 1089.19,1392.77 1090.19,1391.3 
  1091.18,1389.85 1092.18,1388.34 1093.18,1386.85 1094.17,1385.31 1095.17,1383.79 1096.16,1382.21 1097.16,1380.65 1098.15,1379.03 1099.15,1377.44 1100.14,1375.79 
  1101.14,1374.15 1102.13,1372.47 1103.13,1370.8 1104.13,1369.08 1105.12,1367.38 1106.12,1365.63 1107.11,1363.9 1108.11,1362.11 1109.1,1360.34 1110.1,1358.52 
  1111.09,1356.72 1112.09,1354.87 1113.08,1353.04 1114.08,1351.15 1115.07,1349.29 1116.07,1347.37 1117.07,1345.48 1118.06,1343.53 1119.06,1341.6 1120.05,1339.62 
  1121.05,1337.67 1122.04,1335.66 1123.04,1333.67 1124.03,1331.63 1125.03,1329.61 1126.02,1327.54 1127.02,1325.5 1128.02,1323.39 1129.01,1321.32 1130.01,1319.19 
  1131,1317.09 1132,1314.93 1132.99,1312.79 1133.99,1310.6 1134.98,1308.45 1135.98,1306.23 1136.97,1304.04 1137.97,1301.79 1138.96,1299.58 1139.96,1297.31 
  1140.96,1295.06 1141.95,1292.76 1142.95,1290.49 1143.94,1288.16 1144.94,1285.87 1145.93,1283.51 1146.93,1281.19 1147.92,1278.81 1148.92,1276.46 1149.91,1274.05 
  1150.91,1271.67 1151.91,1269.24 1152.9,1266.84 1153.9,1264.37 1154.89,1261.95 1155.89,1259.46 1156.88,1257.01 1157.88,1254.5 1158.87,1252.02 1159.87,1249.48 
  1160.86,1246.98 1161.86,1244.42 1162.85,1241.89 1163.85,1239.3 1164.85,1236.76 1165.84,1234.14 1166.84,1231.57 1167.83,1228.93 1168.83,1226.34 1169.82,1223.68 
  1170.82,1221.06 1171.81,1218.37 1172.81,1215.73 1173.8,1213.02 1174.8,1210.36 1175.8,1207.62 1176.79,1204.94 1177.79,1202.18 1178.78,1199.47 1179.78,1196.7 
  1180.77,1193.97 1181.77,1191.17 1182.76,1188.42 1183.76,1185.6 1184.75,1182.82 1185.75,1179.98 1186.74,1177.19 1187.74,1174.32 1188.74,1171.51 1189.73,1168.62 
  1190.73,1165.79 1191.72,1162.89 1192.72,1160.03 1193.71,1157.11 1194.71,1154.23 1195.7,1151.29 1196.7,1148.4 1197.69,1145.43 1198.69,1142.52 1199.69,1139.54 
  1200.68,1136.61 1201.68,1133.61 1202.67,1130.66 1203.67,1127.64 1204.66,1124.68 1205.66,1121.64 1206.65,1118.66 1207.65,1115.61 1208.64,1112.61 1209.64,1109.54 
  1210.63,1106.53 1211.63,1103.44 1212.63,1100.41 1213.62,1097.31 1214.62,1094.26 1215.61,1091.15 1216.61,1088.09 1217.6,1084.95 1218.6,1081.88 1219.59,1078.73 
  1220.59,1075.65 1221.58,1072.49 1222.58,1069.38 1223.58,1066.21 1224.57,1063.1 1225.57,1059.91 1226.56,1056.78 1227.56,1053.58 1228.55,1050.45 1229.55,1047.23 
  1230.54,1044.09 1231.54,1040.86 1232.53,1037.7 1233.53,1034.47 1234.52,1031.3 1235.52,1028.06 1236.52,1024.88 1237.51,1021.62 1238.51,1018.43 1239.5,1015.17 
  1240.5,1011.97 1241.49,1008.7 1242.49,1005.5 1243.48,1002.22 1244.48,999.004 1245.47,995.715 1246.47,992.496 1247.47,989.2 1248.46,985.974 1249.46,982.672 
  1250.45,979.44 1251.45,976.132 1252.44,972.895 1253.44,969.581 1254.43,966.339 1255.43,963.02 1256.42,959.775 1257.42,956.451 1258.41,953.202 1259.41,949.874 
  1260.41,946.622 1261.4,943.291 1262.4,940.036 1263.39,936.702 1264.39,933.445 1265.38,930.109 1266.38,926.85 1267.37,923.513 1268.37,920.253 1269.36,916.914 
  1270.36,913.654 1271.36,910.315 1272.35,907.055 1273.35,903.716 1274.34,900.456 1275.34,897.117 1276.33,893.859 1277.33,890.521 1278.32,887.265 1279.32,883.928 
  1280.31,880.674 1281.31,877.34 1282.3,874.088 1283.3,870.756 1284.3,867.508 1285.29,864.179 1286.29,860.935 1287.28,857.61 1288.28,854.37 1289.27,851.049 
  1290.27,847.814 1291.26,844.497 1292.26,841.267 1293.25,837.955 1294.25,834.732 1295.25,831.425 1296.24,828.208 1297.24,824.908 1298.23,821.697 1299.23,818.404 
  1300.22,815.201 1301.22,811.914 1302.21,808.718 1303.21,805.439 1304.2,802.252 1305.2,798.981 1306.19,795.803 1307.19,792.54 1308.19,789.371 1309.18,786.117 
  1310.18,782.957 1311.17,779.713 1312.17,776.563 1313.16,773.329 1314.16,770.19 1315.15,766.965 1316.15,763.837 1317.14,760.624 1318.14,757.507 1319.14,754.305 
  1320.13,751.2 1321.13,748.009 1322.12,744.917 1323.12,741.738 1324.11,738.659 1325.11,735.492 1326.1,732.426 1327.1,729.272 1328.09,726.219 1329.09,723.079 
  1330.08,720.04 1331.08,716.914 1332.08,713.889 1333.07,710.777 1334.07,707.767 1335.06,704.669 1336.06,701.675 1337.05,698.592 1338.05,695.614 1339.04,692.546 
  1340.04,689.583 1341.03,686.531 1342.03,683.585 1343.03,680.549 1344.02,677.62 1345.02,674.601 1346.01,671.689 1347.01,668.686 1348,665.792 1349,662.807 
  1349.99,659.93 1350.99,656.963 1351.98,654.105 1352.98,651.155 1353.97,648.316 1354.97,645.385 1355.97,642.566 1356.96,639.654 1357.96,636.853 1358.95,633.961 
  1359.95,631.18 1360.94,628.307 1361.94,625.547 1362.93,622.694 1363.93,619.955 1364.92,617.122 1365.92,614.405 1366.92,611.593 1367.91,608.896 1368.91,606.106 
  1369.9,603.431 1370.9,600.662 1371.89,598.01 1372.89,595.263 1373.88,592.634 1374.88,589.909 1375.87,587.303 1376.87,584.601 1377.86,582.019 1378.86,579.34 
  1379.86,576.782 1380.85,574.126 1381.85,571.592 1382.84,568.961 1383.84,566.452 1384.83,563.845 1385.83,561.361 1386.82,558.779 1387.82,556.32 1388.81,553.764 
  1389.81,551.331 1390.81,548.8 1391.8,546.394 1392.8,543.889 1393.79,541.51 1394.79,539.031 1395.78,536.68 1396.78,534.228 1397.77,531.904 1398.77,529.479 
  1399.76,527.183 1400.76,524.787 1401.75,522.519 1402.75,520.151 1403.75,517.912 1404.74,515.573 1405.74,513.364 1406.73,511.053 1407.73,508.874 1408.72,506.592 
  1409.72,504.443 1410.71,502.192 1411.71,500.074 1412.7,497.853 1413.7,495.765 1414.7,493.575 1415.69,491.519 1416.69,489.36 1417.68,487.337 1418.68,485.209 
  1419.67,483.218 1420.67,481.122 1421.66,479.164 1422.66,477.101 1423.65,475.176 1424.65,473.145 1425.64,471.254 1426.64,469.257 1427.64,467.4 1428.63,465.436 
  1429.63,463.613 1430.62,461.684 1431.62,459.896 1432.61,458.001 1433.61,456.249 1434.6,454.389 1435.6,452.671 1436.59,450.847 1437.59,449.166 1438.59,447.376 
  1439.58,445.732 1440.58,443.979 1441.57,442.371 1442.57,440.654 1443.56,439.083 1444.56,437.402 1445.55,435.869 1446.55,434.226 1447.54,432.73 1448.54,431.124 
  1449.53,429.666 1450.53,428.098 1451.53,426.678 1452.52,425.148 1453.52,423.767 1454.51,422.274 1455.51,420.932 1456.5,419.478 1457.5,418.175 1458.49,416.76 
  1459.49,415.496 1460.48,414.119 1461.48,412.895 1462.48,411.557 1463.47,410.373 1464.47,409.074 1465.46,407.93 1466.46,406.67 1467.45,405.566 1468.45,404.345 
  1469.44,403.281 1470.44,402.1 1471.43,401.076 1472.43,399.935 1473.42,398.951 1474.42,397.85 1475.42,396.907 1476.41,395.845 1477.41,394.942 1478.4,393.919 
  1479.4,393.057 1480.39,392.074 1481.39,391.252 1482.38,390.309 1483.38,389.528 1484.37,388.624 1485.37,387.883 1486.37,387.019 1487.36,386.318 1488.36,385.493 
  1489.35,384.832 1490.35,384.047 1491.34,383.426 1492.34,382.68 1493.33,382.099 1494.33,381.392 1495.32,380.85 1496.32,380.182 1497.31,379.68 1498.31,379.05 
  1499.31,378.587 1500.3,377.996 1501.3,377.572 1502.29,377.019 1503.29,376.634 1504.28,376.119 1505.28,375.772 1506.27,375.295 1507.27,374.986 1508.26,374.546 
  1509.26,374.275 1510.26,373.872 1511.25,373.639 1512.25,373.272 1513.24,373.076 1514.24,372.745 1515.23,372.586 1516.23,372.291 1517.22,372.168 1518.22,371.909 
  1519.21,371.823 1520.21,371.598 1521.2,371.547 1522.2,371.358 1523.2,371.342 1524.19,371.187 1525.19,371.206 1526.18,371.084 1527.18,371.138 1528.17,371.05 
  1529.17,371.138 1530.16,371.083 1531.16,371.204 1532.15,371.182 1533.15,371.336 1534.15,371.346 1535.14,371.534 1536.14,371.576 1537.13,371.796 1538.13,371.87 
  1539.12,372.122 1540.12,372.227 1541.11,372.511 1542.11,372.647 1543.1,372.963 1544.1,373.129 1545.09,373.477 1546.09,373.674 1547.09,374.052 1548.08,374.28 
  1549.08,374.689 1550.07,374.947 1551.07,375.387 1552.06,375.674 1553.06,376.145 1554.05,376.462 1555.05,376.964 1556.04,377.31 1557.04,377.842 1558.04,378.218 
  1559.03,378.78 1560.03,379.186 1561.02,379.778 1562.02,380.213 1563.01,380.835 1564.01,381.299 1565,381.951 1566,382.444 1566.99,383.126 1567.99,383.648 
  1568.98,384.36 1569.98,384.91 1570.98,385.652 1571.97,386.231 1572.97,387.002 1573.96,387.609 1574.96,388.41 1575.95,389.046 1576.95,389.875 1577.94,390.54 
  1578.94,391.399 1579.93,392.091 1580.93,392.979 1581.93,393.7 1582.92,394.617 1583.92,395.366 1584.91,396.313 1585.91,397.091 1586.9,398.067 1587.9,398.873 
  1588.89,399.879 1589.89,400.715 1590.88,401.751 1591.88,402.616 1592.87,403.684 1593.87,404.579 1594.87,405.678 1595.86,406.604 1596.86,407.736 1597.85,408.694 
  1598.85,409.86 1599.84,410.851 1600.84,412.052 1601.83,413.078 1602.83,414.315 1603.82,415.377 1604.82,416.652 1605.82,417.752 1606.81,419.067 1607.81,420.206 
  1608.8,421.561 1609.8,422.741 1610.79,424.139 1611.79,425.362 1612.78,426.804 1613.78,428.07 1614.77,429.558 1615.77,430.869 1616.76,432.402 1617.76,433.759 
  1618.76,435.34 1619.75,436.743 1620.75,438.371 1621.74,439.819 1622.74,441.494 1623.73,442.988 1624.73,444.71 1625.72,446.248 1626.72,448.014 1627.71,449.596 
  1628.71,451.405 1629.71,453.027 1630.7,454.877 1631.7,456.537 1632.69,458.425 1633.69,460.121 1634.68,462.043 1635.68,463.771 1636.67,465.726 1637.67,467.483 
  1638.66,469.467 1639.66,471.25 1640.65,473.26 1641.65,475.068 1642.65,477.102 1643.64,478.932 1644.64,480.99 1645.63,482.841 1646.63,484.922 1647.62,486.796 
  1648.62,488.901 1649.61,490.8 1650.61,492.933 1651.6,494.86 1652.6,497.025 1653.6,498.987 1654.59,501.192 1655.59,503.196 1656.58,505.448 1657.58,507.504 
  1658.57,509.815 1659.57,511.933 1660.56,514.314 1661.56,516.508 1662.55,518.972 1663.55,521.254 1664.54,523.815 1665.54,526.199 1666.54,528.869 1667.53,531.367 
  1668.53,534.158 1669.52,536.782 1670.52,539.704 1671.51,542.462 1672.51,545.522 1673.5,548.417 1674.5,551.618 1675.49,554.652 1676.49,557.99 1677.49,561.157 
  1678.48,564.624 1679.48,567.91 1680.47,571.49 1681.47,574.877 1682.46,578.546 1683.46,582.007 1684.45,585.734 1685.45,589.232 1686.44,592.979 1687.44,596.473 
  1688.43,600.193 1689.43,603.634 1690.43,607.275 1691.42,610.609 1692.42,614.115 1693.41,617.282 1694.41,620.594 1695.4,623.536 1696.4,626.594 1697.39,629.251 
  1698.39,631.999 1699.38,634.318 1700.38,636.703 1701.38,638.635 1702.37,640.614 1703.37,642.121 1704.36,643.663 1705.36,644.719 1706.35,645.805 1707.35,646.4 
  1708.34,647.027 1709.34,647.167 1710.33,647.349 1711.33,647.057 1712.32,646.827 1713.32,646.145 1714.32,645.553 1715.31,644.536 1716.31,643.648 1717.3,642.371 
  1718.3,641.264 1719.29,639.811 1720.29,638.575 1721.28,637.039 1722.28,499.996 1723.27,498.474 1724.27,497.27 1725.27,495.859 1726.26,494.815 1727.26,493.609 
  1728.25,492.815 1729.25,491.898 1730.24,491.433 1731.24,490.877 1732.23,490.806 1733.23,490.669 1734.22,491.041 1735.22,491.364 1736.21,492.213 1737.21,493.019 
  1738.21,494.358 1739.2,495.654 1740.2,497.48 1741.19,499.255 1742.19,501.55 1743.18,503.778 1744.18,506.511 1745.17,509.153 1746.17,512.279 1747.16,515.288 
  1748.16,518.757 1749.16,522.078 1750.15,525.832 1751.15,529.406 1752.14,533.385 1753.14,537.153 1754.13,541.299 1755.13,545.202 1756.12,549.457 1757.12,553.442 
  1758.11,557.754 1759.11,561.771 1760.1,566.095 1761.1,570.101 1762.1,574.398 1763.09,578.357 1764.09,582.596 1765.08,586.482 1766.08,590.639 1767.07,594.432 
  1768.07,598.491 1769.06,602.179 1770.06,606.13 1771.05,609.707 1772.05,613.548 1773.05,617.013 1774.04,620.747 1775.04,624.105 1776.03,627.738 1777.03,630.997 
  1778.02,634.539 1779.02,637.711 1780.01,641.173 1781.01,644.269 1782,647.665 1783,650.699 1783.99,654.041 1784.99,657.026 1785.99,660.328 1786.98,663.276 
  1787.98,666.549 1788.97,669.471 1789.97,672.726 1790.96,675.631 1791.96,678.876 1792.95,681.772 1793.95,685.013 1794.94,687.906 1795.94,691.149 1796.94,694.042 
  1797.93,697.289 1798.93,700.185 1799.92,703.437 1800.92,706.336 1801.91,709.594 1802.91,712.495 1803.9,715.757 1804.9,718.659 1805.89,721.922 1806.89,724.822 
  1807.88,728.084 1808.88,730.978 1809.88,734.237 1810.87,737.123 1811.87,740.373 1812.86,743.248 1813.86,746.488 1814.85,749.348 1815.85,752.574 1816.84,755.416 
  1817.84,758.627 1818.83,761.449 1819.83,764.642 1820.83,767.443 1821.82,770.616 1822.82,773.394 1823.81,776.546 1824.81,779.3 1825.8,782.432 1826.8,785.162 
  1827.79,788.273 1828.79,790.979 1829.78,794.069 1830.78,796.752 1831.77,799.823 1832.77,802.483 1833.77,805.535 1834.76,808.174 1835.76,811.209 1836.75,813.828 
  1837.75,816.846 1838.74,819.446 1839.74,822.45 1840.73,825.033 1841.73,828.023 1842.72,830.59 1843.72,833.567 1844.72,836.119 1845.71,839.086 1846.71,841.624 
  1847.7,844.581 1848.7,847.106 1849.69,850.054 1850.69,852.567 1851.68,855.505 1852.68,858.007 1853.67,860.938 1854.67,863.428 1855.66,866.351 1856.66,868.83 
  1857.66,871.746 1858.65,874.213 1859.65,877.122 1860.64,879.579 1861.64,882.479 1862.63,884.925 1863.63,887.818 1864.62,890.252 1865.62,893.137 1866.61,895.559 
  1867.61,898.436 1868.61,900.846 1869.6,903.715 1870.6,906.112 1871.59,908.971 1872.59,911.356 1873.58,914.206 1874.58,916.576 1875.57,919.417 1876.57,921.773 
  1877.56,924.603 1878.56,926.946 1879.55,929.765 1880.55,932.092 1881.55,934.901 1882.54,937.213 1883.54,940.01 1884.53,942.306 1885.53,945.091 1886.52,947.371 
  1887.52,950.144 1888.51,952.407 1889.51,955.167 1890.5,957.413 1891.5,960.16 1892.5,962.388 1893.49,965.122 1894.49,967.331 1895.48,970.051 1896.48,972.242 
  1897.47,974.948 1898.47,977.118 1899.46,979.809 1900.46,981.96 1901.45,984.635 1902.45,986.765 1903.44,989.425 1904.44,991.534 1905.44,994.176 1906.43,996.263 
  1907.43,998.889 1908.42,1000.95 1909.42,1003.56 1910.41,1005.6 1911.41,1008.19 1912.4,1010.21 1913.4,1012.78 1914.39,1014.77 1915.39,1017.32 1916.39,1019.28 
  1917.38,1021.81 1918.38,1023.75 1919.37,1026.26 1920.37,1028.17 1921.36,1030.66 1922.36,1032.54 1923.35,1035.01 1924.35,1036.86 1925.34,1039.3 1926.34,1041.13 
  1927.33,1043.54 1928.33,1045.34 1929.33,1047.73 1930.32,1049.49 1931.32,1051.86 1932.31,1053.59 1933.31,1055.93 1934.3,1057.63 1935.3,1059.94 1936.29,1061.61 
  1937.29,1063.89 1938.28,1065.53 1939.28,1067.78 1940.28,1069.38 1941.27,1071.61 1942.27,1073.17 1943.26,1075.37 1944.26,1076.89 1945.25,1079.06 1946.25,1080.55 
  1947.24,1082.69 1948.24,1084.14 1949.23,1086.24 1950.23,1087.66 1951.22,1089.73 1952.22,1091.11 1953.22,1093.15 1954.21,1094.48 1955.21,1096.5 1956.2,1097.79 
  1957.2,1099.77 1958.19,1101.02 1959.19,1102.97 1960.18,1104.18 1961.18,1106.09 1962.17,1107.27 1963.17,1109.14 1964.17,1110.27 1965.16,1112.12 1966.16,1113.2 
  1967.15,1115.01 1968.15,1116.06 1969.14,1117.83 1970.14,1118.83 1971.13,1120.57 1972.13,1121.53 1973.12,1123.23 1974.12,1124.15 1975.11,1125.82 1976.11,1126.68 
  1977.11,1128.32 1978.1,1129.14 1979.1,1130.74 1980.09,1131.52 1981.09,1133.08 1982.08,1133.81 1983.08,1135.34 1984.07,1136.02 1985.07,1137.51 1986.06,1138.15 
  1987.06,1139.6 1988.06,1140.2 1989.05,1141.62 1990.05,1142.16 1991.04,1143.54 1992.04,1144.05 1993.03,1145.39 1994.03,1145.84 1995.02,1147.15 1996.02,1147.56 
  1997.01,1148.83 1998.01,1149.19 1999,1150.42 2000,1150.73 2001,1151.93 2001.99,1152.2 2002.99,1153.36 2003.98,1153.57 2004.98,1154.7 2005.97,1154.87 
  2006.97,1155.95 2007.96,1156.08 2008.96,1157.13 2009.95,1157.2 2010.95,1158.22 2011.95,1158.24 2012.94,1159.22 2013.94,1159.2 2014.93,1160.14 2015.93,1160.07 
  2016.92,1160.97 2017.92,1160.85 2018.91,1161.72 2019.91,1161.55 2020.9,1162.39 2021.9,1162.17 2022.89,1162.97 2023.89,1162.7 2024.89,1163.47 2025.88,1163.15 
  2026.88,1163.88 2027.87,1163.51 2028.87,1164.21 2029.86,1163.79 2030.86,1164.45 2031.85,1163.99 2032.85,1164.61 2033.84,1164.1 2034.84,1164.69 2035.84,1164.12 
  2036.83,1164.68 2037.83,1164.06 2038.82,1164.59 2039.82,1163.92 2040.81,1164.41 2041.81,1163.7 2042.8,1164.15 2043.8,1163.39 2044.79,1163.81 2045.79,1162.99 
  2046.78,1163.38 2047.78,1162.51 2048.78,1162.87 2049.77,1161.95 2050.77,1162.28 2051.76,1161.31 2052.76,1161.6 2053.75,1160.58 2054.75,1160.84 2055.74,1159.76 
  2056.74,1160 2057.73,1158.87 2058.73,1159.07 2059.73,1157.89 2060.72,1158.06 2061.72,1156.83 2062.71,1156.97 2063.71,1155.68 2064.7,1155.79 2065.7,1154.46 
  2066.69,1154.54 2067.69,1153.15 2068.68,1153.2 2069.68,1151.76 2070.67,1151.78 2071.67,1150.29 2072.67,1150.28 2073.66,1148.73 2074.66,1148.7 2075.65,1147.1 
  2076.65,1147.03 2077.64,1145.38 2078.64,1145.29 2079.63,1143.58 2080.63,1143.46 2081.62,1141.7 2082.62,1141.56 2083.62,1139.75 2084.61,1139.58 2085.61,1137.71 
  2086.6,1137.51 2087.6,1135.59 2088.59,1135.37 2089.59,1133.4 2090.58,1133.16 2091.58,1131.12 2092.57,1130.86 2093.57,1128.77 2094.56,1128.49 2095.56,1126.34 
  2096.56,1126.04 2097.55,1123.84 2098.55,1123.51 2099.54,1121.26 2100.54,1120.91 2101.53,1118.61 2102.53,1118.24 2103.52,1115.88 2104.52,1115.5 2105.51,1113.08 
  2106.51,1112.68 2107.51,1110.2 2108.5,1109.79 2109.5,1107.26 2110.49,1106.83 2111.49,1104.24 2112.48,1103.8 2113.48,1101.16 2114.47,1100.7 2115.47,1098 
  2116.46,1097.54 2117.46,1094.78 2118.45,1094.31 2119.45,1091.49 2120.45,1091.01 2121.44,1088.14 2122.44,1087.65 2123.43,1084.72 2124.43,1084.23 2125.42,1081.24 
  2126.42,1080.74 2127.41,1077.7 2128.41,1077.2 2129.4,1074.1 2130.4,1073.6 2131.4,1070.44 2132.39,1069.94 2133.39,1066.73 2134.38,1066.23 2135.38,1062.95 
  2136.37,1062.46 2137.37,1059.13 2138.36,1058.64 2139.36,1055.24 2140.35,1054.76 2141.35,1051.31 2142.34,1050.84 2143.34,1047.33 2144.34,1046.87 2145.33,1043.3 
  2146.33,1042.86 2147.32,1039.23 2148.32,1038.8 2149.31,1035.1 2150.31,1034.7 2151.3,1030.94 2152.3,1030.55 2153.29,1026.74 2154.29,1026.37 2155.29,1022.5 
  2156.28,1022.16 2157.28,1018.22 2158.27,1017.91 2159.27,1013.9 2160.26,1013.63 2161.26,1009.55 2162.25,1009.31 2163.25,1005.17 2164.24,1004.97 2165.24,1000.77 
  2166.23,1000.61 2167.23,996.33 2168.23,996.214 2169.22,991.868 2170.22,991.8 2171.21,987.382 2172.21,987.364 2173.2,982.872 2174.2,982.909 2175.19,978.341 
  2176.19,978.435 2177.18,973.789 2178.18,973.944 2179.18,969.217 2180.17,969.436 2181.17,964.626 2182.16,964.913 2183.16,960.016 2184.15,960.375 2185.15,955.388 
  2186.14,955.823 2187.14,950.743 2188.13,951.257 2189.13,946.079 2190.12,946.677 2191.12,941.399 2192.12,942.085 2193.11,936.701 2194.11,937.479 2195.1,931.985 
  2196.1,932.861 2197.09,927.253 2198.09,928.231 2199.08,922.504 2200.08,923.591 2201.07,917.739 2202.07,918.941 2203.07,912.96 2204.06,914.283 2205.06,908.168 
  2206.05,909.619 2207.05,903.365 2208.04,904.952 2209.04,898.553 2210.03,900.284 2211.03,893.735 2212.02,895.618 2213.02,888.912 2214.01,890.956 2215.01,884.087 
  2216.01,886.301 2217,879.262 2218,881.654 2218.99,874.438 2219.99,877.018 2220.98,869.616 2221.98,872.392 2222.97,864.798 2223.97,867.778 2224.96,859.982 
  2225.96,863.176 2226.96,855.169 2227.95,858.583 2228.95,850.357 2229.94,853.999 2230.94,845.544 2231.93,849.42 2232.93,840.726 2233.92,844.841 2234.92,835.898 
  2235.91,840.252 2236.91,831.052 2237.9,835.643 2238.9,826.176 2239.9,830.999 2240.89,821.259 2241.89,826.303 2242.88,816.284 2243.88,821.534 2244.87,811.238 
  2245.87,816.672 2246.86,806.108 2247.86,811.7 2248.85,800.889 2249.85,806.602 2250.85,795.58 2251.84,801.368 2252.84,790.19 2253.83,795.99 2254.83,784.733 
  2255.82,790.462 2256.82,779.231 2257.81,784.777 2258.81,773.714 2259.8,778.924 2260.8,768.214 2261.79,772.887 2262.79,762.773 2263.79,766.646 2264.78,757.442 
  2265.78,760.172 2266.77,752.284 2267.77,753.433 2268.76,747.378 2269.76,746.392 2270.75,742.823 2271.75,739.01 2272.74,738.735 2273.74,731.25 2274.74,735.25 
  2275.73,723.079 2276.73,732.509 2277.72,714.485 2278.72,730.648 2279.71,705.493 2280.71,729.765 2281.7,696.202 2282.7,729.874 2283.69,686.827 2284.69,730.86 
  2285.68,677.758 2286.68,732.405 2287.68,669.635 2288.67,733.982 2289.67,663.305 2290.66,734.998 2291.66,659.823 
  "/>
<polyline clip-path="url(#clip962)" style="stroke:#e26f46; stroke-linecap:butt; stroke-linejoin:round; stroke-width:4; stroke-opacity:1; fill:none" points="
  255.035,631.073 256.03,627.739 257.026,624.405 258.021,621.071 259.016,617.738 260.012,614.405 261.007,611.073 262.003,607.742 262.998,604.411 263.993,601.082 
  264.989,597.753 265.984,594.426 266.98,591.1 267.975,587.776 268.971,584.454 269.966,581.133 270.961,577.814 271.957,574.497 272.952,571.182 273.948,567.87 
  274.943,564.559 275.938,561.252 276.934,557.947 277.929,554.644 278.925,551.345 279.92,548.049 280.916,544.755 281.911,541.465 282.906,538.179 283.902,534.896 
  284.897,531.616 285.893,528.34 286.888,525.069 287.883,521.801 288.879,518.537 289.874,515.277 290.87,512.022 291.865,508.772 292.861,505.526 293.856,502.284 
  294.851,499.048 295.847,495.816 296.842,492.59 297.838,489.369 298.833,486.153 299.828,482.942 300.824,479.738 301.819,476.538 302.815,473.345 303.81,470.158 
  304.806,466.977 305.801,463.801 306.796,460.633 307.792,457.47 308.787,454.315 309.783,451.165 310.778,448.023 311.773,444.888 312.769,441.759 313.764,438.638 
  314.76,435.524 315.755,432.417 316.751,429.318 317.746,426.226 318.741,423.142 319.737,420.066 320.732,416.998 321.728,413.938 322.723,410.886 323.718,407.843 
  324.714,404.808 325.709,401.781 326.705,398.763 327.7,395.754 328.696,392.753 329.691,389.762 330.686,386.78 331.682,383.807 332.677,380.843 333.673,377.889 
  334.668,374.944 335.663,372.009 336.659,369.083 337.654,366.168 338.65,363.262 339.645,360.367 340.641,357.482 341.636,354.607 342.631,351.742 343.627,348.888 
  344.622,346.045 345.618,343.212 346.613,340.391 347.608,337.58 348.604,334.78 349.599,331.992 350.595,329.214 351.59,326.448 352.586,323.694 353.581,320.951 
  354.576,318.22 355.572,315.501 356.567,312.793 357.563,310.098 358.558,307.414 359.553,304.743 360.549,302.084 361.544,299.438 362.54,296.804 363.535,294.182 
  364.531,291.574 365.526,288.978 366.521,286.395 367.517,283.825 368.512,281.268 369.508,278.724 370.503,276.194 371.498,273.677 372.494,271.173 373.489,268.683 
  374.485,266.207 375.48,263.744 376.476,261.295 377.471,258.86 378.466,256.439 379.462,254.033 380.457,251.64 381.453,249.262 382.448,246.898 383.443,244.549 
  384.439,242.214 385.434,239.894 386.43,237.588 387.425,235.298 388.421,233.022 389.416,230.762 390.411,228.516 391.407,226.286 392.402,224.07 393.398,221.871 
  394.393,219.686 395.388,217.517 396.384,215.364 397.379,213.227 398.375,211.105 399.37,208.999 400.366,206.908 401.361,204.834 402.356,202.776 403.352,200.734 
  404.347,198.709 405.343,196.699 406.338,194.706 407.333,192.729 408.329,190.769 409.324,188.826 410.32,186.899 411.315,184.989 412.311,183.096 413.306,181.219 
  414.301,179.36 415.297,177.517 416.292,175.692 417.288,173.884 418.283,172.093 419.278,170.319 420.274,168.563 421.269,166.824 422.265,165.103 423.26,163.399 
  424.256,161.713 425.251,160.044 426.246,158.393 427.242,156.761 428.237,155.145 429.233,153.548 430.228,151.969 431.223,150.408 432.219,148.865 433.214,147.34 
  434.21,145.834 435.205,144.346 436.201,142.876 437.196,141.424 438.191,139.991 439.187,138.577 440.182,137.181 441.178,135.803 442.173,134.445 443.168,133.105 
  444.164,131.783 445.159,130.481 446.155,129.197 447.15,127.933 448.146,126.687 449.141,125.46 450.136,124.253 451.132,123.064 452.127,121.895 453.123,120.745 
  454.118,119.614 455.113,118.502 456.109,117.41 457.104,116.337 458.1,115.283 459.095,114.249 460.091,113.234 461.086,112.239 462.081,111.263 463.077,110.307 
  464.072,109.371 465.068,108.454 466.063,107.557 467.058,106.68 468.054,105.822 469.049,104.985 470.045,104.167 471.04,103.369 472.036,102.59 473.031,101.832 
  474.026,101.094 475.022,100.375 476.017,99.6771 477.013,98.9988 478.008,98.3405 479.003,97.7023 479.999,97.0842 480.994,96.4863 481.99,95.9084 482.985,95.3508 
  483.981,94.8133 484.976,94.2961 485.971,93.799 486.967,93.3222 487.962,92.8657 488.958,92.4295 489.953,92.0136 490.948,91.6179 491.944,91.2427 492.939,90.8877 
  493.935,90.5531 494.93,90.2389 495.926,89.9451 496.921,89.6716 497.916,89.4186 498.912,89.186 499.907,88.9738 500.903,88.782 501.898,88.6106 502.893,88.4597 
  503.889,88.3293 504.884,88.2193 505.88,88.1298 506.875,88.0607 507.871,88.0121 508.866,87.984 509.861,87.9763 510.857,87.9891 511.852,88.0223 512.848,88.0761 
  513.843,88.1502 514.838,88.2449 515.834,88.36 516.829,88.4956 517.825,88.6516 518.82,88.828 519.816,89.0249 520.811,89.2422 521.806,89.4799 522.802,89.7381 
  523.797,90.0166 524.793,90.3155 525.788,90.6349 526.783,90.9745 527.779,91.3346 528.774,91.7149 529.77,92.1156 530.765,92.5367 531.761,92.978 532.756,93.4395 
  533.751,93.9214 534.747,94.4235 535.742,94.9458 536.738,95.4883 537.733,96.051 538.728,96.6339 539.724,97.2369 540.719,97.86 541.715,98.5032 542.71,99.1665 
  543.706,99.8499 544.701,100.553 545.696,101.277 546.692,102.02 547.687,102.783 548.683,103.566 549.678,104.369 550.673,105.192 551.669,106.035 552.664,106.897 
  553.66,107.78 554.655,108.682 555.651,109.603 556.646,110.545 557.641,111.506 558.637,112.486 559.632,113.486 560.628,114.506 561.623,115.545 562.618,116.603 
  563.614,117.681 564.609,118.778 565.605,119.895 566.6,121.03 567.596,122.185 568.591,123.36 569.586,124.553 570.582,125.765 571.577,126.997 572.573,128.247 
  573.568,129.516 574.563,130.805 575.559,132.112 576.554,133.438 577.55,134.782 578.545,136.146 579.541,137.528 580.536,138.929 581.531,140.348 582.527,141.785 
  583.522,143.242 584.518,144.716 585.513,146.209 586.508,147.72 587.504,149.249 588.499,150.797 589.495,152.362 590.49,153.946 591.486,155.548 592.481,157.167 
  593.476,158.804 594.472,160.46 595.467,162.133 596.463,163.823 597.458,165.531 598.453,167.257 599.449,169 600.444,170.761 601.44,172.539 602.435,174.334 
  603.431,176.147 604.426,177.976 605.421,179.823 606.417,181.687 607.412,183.567 608.408,185.465 609.403,187.379 610.398,189.31 611.394,191.258 612.389,193.222 
  613.385,195.203 614.38,197.2 615.376,199.213 616.371,201.243 617.366,203.289 618.362,205.351 619.357,207.43 620.353,209.524 621.348,211.634 622.343,213.759 
  623.339,215.901 624.334,218.058 625.33,220.231 626.325,222.419 627.321,224.623 628.316,226.842 629.311,229.076 630.307,231.325 631.302,233.59 632.298,235.869 
  633.293,238.163 634.288,240.472 635.284,242.796 636.279,245.135 637.275,247.488 638.27,249.855 639.266,252.237 640.261,254.633 641.256,257.043 642.252,259.468 
  643.247,261.906 644.243,264.358 645.238,266.824 646.233,269.304 647.229,271.798 648.224,274.305 649.22,276.825 650.215,279.359 651.211,281.906 652.206,284.466 
  653.201,287.039 654.197,289.626 655.192,292.225 656.188,294.837 657.183,297.461 658.178,300.098 659.174,302.748 660.169,305.41 661.165,308.084 662.16,310.771 
  663.156,313.469 664.151,316.179 665.146,318.902 666.142,321.636 667.137,324.382 668.133,327.139 669.128,329.908 670.123,332.688 671.119,335.479 672.114,338.282 
  673.11,341.095 674.105,343.92 675.101,346.755 676.096,349.601 677.091,352.457 678.087,355.325 679.082,358.202 680.078,361.09 681.073,363.988 682.068,366.896 
  683.064,369.814 684.059,372.742 685.055,375.679 686.05,378.626 687.046,381.583 688.041,384.549 689.036,387.524 690.032,390.509 691.027,393.503 692.023,396.505 
  693.018,399.517 694.013,402.537 695.009,405.566 696.004,408.603 697,411.648 697.995,414.702 698.991,417.764 699.986,420.834 700.981,423.913 701.977,426.998 
  702.972,430.092 703.968,433.193 704.963,436.302 705.958,439.417 706.954,442.541 707.949,445.671 708.945,448.808 709.94,451.952 710.936,455.103 711.931,458.26 
  712.926,461.424 713.922,464.595 714.917,467.771 715.913,470.954 716.908,474.143 717.903,477.338 718.899,480.538 719.894,483.744 720.89,486.956 721.885,490.173 
  722.881,493.396 723.876,496.624 724.871,499.856 725.867,503.094 726.862,506.337 727.858,509.584 728.853,512.836 729.848,516.092 730.844,519.352 731.839,522.617 
  732.835,525.886 733.83,529.159 734.826,532.436 735.821,535.716 736.816,539 737.812,542.288 738.807,545.578 739.803,548.873 740.798,552.17 741.793,555.47 
  742.789,558.773 743.784,562.078 744.78,565.387 745.775,568.697 746.771,572.011 747.766,575.326 748.761,578.643 749.757,581.963 750.752,585.284 751.748,588.607 
  752.743,591.932 753.738,595.258 754.734,598.585 755.729,601.914 756.725,605.244 757.72,608.574 758.716,611.906 759.711,615.238 760.706,618.571 761.702,621.904 
  762.697,625.238 763.693,628.572 764.688,631.906 765.683,635.24 766.679,638.574 767.674,641.907 768.67,645.241 769.665,648.573 770.661,651.905 771.656,655.236 
  772.651,658.566 773.647,661.896 774.642,665.224 775.638,668.551 776.633,671.876 777.628,675.2 778.624,678.522 779.619,681.842 780.615,685.161 781.61,688.477 
  782.606,691.791 783.601,695.103 784.596,698.413 785.592,701.72 786.587,705.024 787.583,708.326 788.578,711.624 789.573,714.92 790.569,718.212 791.564,721.502 
  792.56,724.787 793.555,728.07 794.551,731.348 795.546,734.623 796.541,737.894 797.537,741.161 798.532,744.423 799.528,747.682 800.523,750.936 801.518,754.185 
  802.514,757.43 803.509,760.67 804.505,763.906 805.5,767.136 806.496,770.361 807.491,773.581 808.486,776.795 809.482,780.004 810.477,783.208 811.473,786.405 
  812.468,789.597 813.463,792.783 814.459,795.963 815.454,799.136 816.45,802.304 817.445,805.464 818.441,808.618 819.436,811.766 820.431,814.907 821.427,818.04 
  822.422,821.167 823.418,824.286 824.413,827.399 825.408,830.504 826.404,833.601 827.399,836.691 828.395,839.773 829.39,842.847 830.386,845.913 831.381,848.971 
  832.376,852.02 833.372,855.062 834.367,858.095 835.363,861.119 836.358,864.135 837.353,867.142 838.349,870.14 839.344,873.129 840.34,876.109 841.335,879.08 
  842.331,882.042 843.326,884.994 844.321,887.936 845.317,890.869 846.312,893.792 847.308,896.705 848.303,899.608 849.298,902.5 850.294,905.383 851.289,908.255 
  852.285,911.117 853.28,913.969 854.276,916.809 855.271,919.639 856.266,922.458 857.262,925.266 858.257,928.063 859.253,930.849 860.248,933.623 861.243,936.386 
  862.239,939.138 863.234,941.878 864.23,944.606 865.225,947.322 866.221,950.027 867.216,1224.27 868.211,1226.95 869.207,1229.62 870.202,1232.27 871.198,1234.92 
  872.193,1237.55 873.188,1240.16 874.184,1242.77 875.179,1245.36 876.175,1247.94 877.17,1250.51 878.166,1253.06 879.161,1255.6 880.156,1258.13 881.152,1260.64 
  882.147,1263.14 883.143,1265.63 884.138,1268.1 885.133,1270.56 886.129,1273.01 887.124,1275.44 888.12,1277.86 889.115,1280.26 890.111,1282.65 891.106,1285.02 
  892.101,1287.38 893.097,1289.73 894.092,1292.06 895.088,1294.38 896.083,1296.68 897.078,1298.97 898.074,1301.24 899.069,1303.49 900.065,1305.74 901.06,1307.96 
  902.056,1310.17 903.051,1312.37 904.046,1314.55 905.042,1316.72 906.037,1318.86 907.033,1321 908.028,1323.12 909.023,1325.22 910.019,1327.3 911.014,1329.37 
  912.01,1331.43 913.005,1333.47 914.001,1335.49 914.996,1337.49 915.991,1339.48 916.987,1341.46 917.982,1343.41 918.978,1345.35 919.973,1347.27 920.968,1349.18 
  921.964,1351.07 922.959,1352.94 923.955,1354.8 924.95,1356.63 925.946,1358.45 926.941,1360.26 927.936,1362.05 928.932,1363.81 929.927,1365.57 930.923,1367.3 
  931.918,1369.02 932.913,1370.72 933.909,1372.4 934.904,1374.06 935.9,1375.71 936.895,1377.34 937.891,1378.95 938.886,1380.54 939.881,1382.12 940.877,1383.67 
  941.872,1385.21 942.868,1386.73 943.863,1388.23 944.858,1389.72 945.854,1391.18 946.849,1392.63 947.845,1394.06 948.84,1395.47 949.836,1396.86 950.831,1398.23 
  951.826,1399.59 952.822,1400.92 953.817,1402.24 954.813,1403.54 955.808,1404.81 956.803,1406.07 957.799,1407.31 958.794,1408.54 959.79,1409.74 960.785,1410.92 
  961.781,1412.09 962.776,1413.23 963.771,1414.36 964.767,1415.47 965.762,1416.55 966.758,1417.62 967.753,1418.67 968.748,1419.7 969.744,1420.71 970.739,1421.7 
  971.735,1422.67 972.73,1423.62 973.726,1424.55 974.721,1425.47 975.716,1426.36 976.712,1427.23 977.707,1428.08 978.703,1428.91 979.698,1429.73 980.693,1430.52 
  981.689,1431.29 982.684,1432.05 983.68,1432.78 984.675,1433.49 985.671,1434.19 986.666,1434.86 987.661,1435.51 988.657,1436.15 989.652,1436.76 990.648,1437.35 
  991.643,1437.93 992.638,1438.48 993.634,1439.01 994.629,1439.52 995.625,1440.02 996.62,1440.49 997.616,1440.94 998.611,1441.37 999.606,1441.78 1000.6,1442.17 
  1001.6,1442.54 1002.59,1442.89 1003.59,1443.22 1004.58,1443.53 1005.58,1443.82 1006.57,1444.09 1007.57,1444.33 1008.57,1444.56 1009.56,1444.77 1010.56,1444.96 
  1011.55,1445.12 1012.55,1445.27 1013.54,1445.39 1014.54,1445.5 1015.53,1445.58 1016.53,1445.65 1017.52,1445.69 1018.52,1445.71 1019.51,1445.72 1020.51,1445.7 
  1021.51,1445.66 1022.5,1445.6 1023.5,1445.52 1024.49,1445.42 1025.49,1445.3 1026.48,1445.16 1027.48,1445 1028.47,1444.82 1029.47,1444.62 1030.46,1444.39 
  1031.46,1444.15 1032.46,1443.89 1033.45,1443.6 1034.45,1443.3 1035.44,1442.98 1036.44,1442.63 1037.43,1442.27 1038.43,1441.88 1039.42,1441.47 1040.42,1441.05 
  1041.41,1440.6 1042.41,1440.14 1043.4,1439.65 1044.4,1439.14 1045.4,1438.61 1046.39,1438.07 1047.39,1437.5 1048.38,1436.91 1049.38,1436.3 1050.37,1435.67 
  1051.37,1435.03 1052.36,1434.36 1053.36,1433.67 1054.35,1432.96 1055.35,1432.23 1056.35,1431.48 1057.34,1430.72 1058.34,1429.93 1059.33,1429.12 1060.33,1428.29 
  1061.32,1427.44 1062.32,1426.58 1063.31,1425.69 1064.31,1424.78 1065.3,1423.86 1066.3,1422.91 1067.29,1421.94 1068.29,1420.96 1069.29,1419.95 1070.28,1418.93 
  1071.28,1417.89 1072.27,1416.82 1073.27,1415.74 1074.26,1414.64 1075.26,1413.52 1076.25,1412.38 1077.25,1411.22 1078.24,1410.04 1079.24,1408.84 1080.24,1407.62 
  1081.23,1406.39 1082.23,1405.13 1083.22,1403.86 1084.22,1402.56 1085.21,1401.25 1086.21,1399.92 1087.2,1398.57 1088.2,1397.2 1089.19,1395.82 1090.19,1394.41 
  1091.18,1392.99 1092.18,1391.55 1093.18,1390.08 1094.17,1388.61 1095.17,1387.11 1096.16,1385.59 1097.16,1384.06 1098.15,1382.51 1099.15,1380.94 1100.14,1379.35 
  1101.14,1377.74 1102.13,1376.12 1103.13,1374.48 1104.13,1372.82 1105.12,1371.14 1106.12,1369.44 1107.11,1367.73 1108.11,1366 1109.1,1364.25 1110.1,1362.49 
  1111.09,1360.71 1112.09,1358.91 1113.08,1357.09 1114.08,1355.26 1115.07,1353.41 1116.07,1351.54 1117.07,1349.65 1118.06,1347.75 1119.06,1345.83 1120.05,1343.9 
  1121.05,1341.95 1122.04,1339.98 1123.04,1337.99 1124.03,1335.99 1125.03,1333.97 1126.02,1331.94 1127.02,1329.89 1128.02,1327.82 1129.01,1325.74 1130.01,1323.64 
  1131,1321.53 1132,1319.4 1132.99,1317.25 1133.99,1315.09 1134.98,1312.92 1135.98,1310.72 1136.97,1308.52 1137.97,1306.29 1138.96,1304.06 1139.96,1301.8 
  1140.96,1299.54 1141.95,1297.25 1142.95,1294.95 1143.94,1292.64 1144.94,1290.31 1145.93,1287.97 1146.93,1285.62 1147.92,1283.24 1148.92,1280.86 1149.91,1278.46 
  1150.91,1276.05 1151.91,1273.62 1152.9,1271.18 1153.9,1268.72 1154.89,1266.25 1155.89,1263.77 1156.88,1261.27 1157.88,1258.76 1158.87,1256.24 1159.87,1253.7 
  1160.86,1251.15 1161.86,1248.58 1162.85,1246.01 1163.85,1243.42 1164.85,1240.82 1165.84,1238.2 1166.84,1235.57 1167.83,1232.93 1168.83,1230.28 1169.82,1227.62 
  1170.82,1224.94 1171.81,1222.25 1172.81,1219.55 1173.8,1216.83 1174.8,1214.11 1175.8,1211.37 1176.79,1208.62 1177.79,1205.86 1178.78,1203.09 1179.78,1200.31 
  1180.77,1197.51 1181.77,1194.71 1182.76,1191.89 1183.76,1189.07 1184.75,1186.23 1185.75,1183.38 1186.74,1180.52 1187.74,1177.65 1188.74,1174.77 1189.73,1171.88 
  1190.73,1168.98 1191.72,1166.07 1192.72,1163.15 1193.71,1160.22 1194.71,1157.28 1195.7,1154.33 1196.7,1151.37 1197.69,1148.4 1198.69,1145.42 1199.69,1142.44 
  1200.68,1139.44 1201.68,1136.44 1202.67,1133.42 1203.67,1130.4 1204.66,1127.37 1205.66,1124.33 1206.65,1121.28 1207.65,1118.23 1208.64,1115.16 1209.64,1112.09 
  1210.63,1109.01 1211.63,1105.92 1212.63,1102.83 1213.62,1099.72 1214.62,1096.61 1215.61,1093.5 1216.61,1090.37 1217.6,1087.24 1218.6,1084.1 1219.59,1080.95 
  1220.59,1077.8 1221.58,1074.64 1222.58,1071.48 1223.58,1068.3 1224.57,1065.13 1225.57,1061.94 1226.56,1058.75 1227.56,1055.56 1228.55,1052.35 1229.55,1049.15 
  1230.54,1045.93 1231.54,1042.71 1232.53,1039.49 1233.53,1036.26 1234.52,1033.03 1235.52,1029.79 1236.52,1026.55 1237.51,1023.3 1238.51,1020.04 1239.5,1016.79 
  1240.5,1013.52 1241.49,1010.26 1242.49,1006.99 1243.48,1003.72 1244.48,1000.44 1245.47,997.156 1246.47,993.872 1247.47,990.583 1248.46,987.292 1249.46,983.997 
  1250.45,980.699 1251.45,977.398 1252.44,974.094 1253.44,970.788 1254.43,967.479 1255.43,964.168 1256.42,960.854 1257.42,957.538 1258.41,954.22 1259.41,950.9 
  1260.41,947.579 1261.4,944.255 1262.4,940.93 1263.39,937.604 1264.39,934.276 1265.38,930.947 1266.38,927.617 1267.37,924.286 1268.37,920.954 1269.36,917.622 
  1270.36,914.289 1271.36,910.955 1272.35,907.622 1273.35,904.288 1274.34,900.954 1275.34,897.62 1276.33,894.286 1277.33,890.953 1278.32,887.62 1279.32,884.287 
  1280.31,880.955 1281.31,877.624 1282.3,874.294 1283.3,870.965 1284.3,867.638 1285.29,864.311 1286.29,860.986 1287.28,857.663 1288.28,854.341 1289.27,851.021 
  1290.27,847.703 1291.26,844.387 1292.26,841.074 1293.25,837.762 1294.25,834.453 1295.25,831.147 1296.24,827.843 1297.24,824.543 1298.23,821.245 1299.23,817.95 
  1300.22,814.658 1301.22,811.37 1302.21,808.085 1303.21,804.804 1304.2,801.526 1305.2,798.252 1306.19,794.982 1307.19,791.716 1308.19,788.455 1309.18,785.197 
  1310.18,781.945 1311.17,778.696 1312.17,775.452 1313.16,772.214 1314.16,768.98 1315.15,765.751 1316.15,762.527 1317.14,759.308 1318.14,756.095 1319.14,752.887 
  1320.13,749.685 1321.13,746.489 1322.12,743.299 1323.12,740.115 1324.11,736.936 1325.11,733.765 1326.1,730.599 1327.1,727.44 1328.09,724.287 1329.09,721.142 
  1330.08,718.003 1331.08,714.871 1332.08,711.746 1333.07,708.628 1334.07,705.518 1335.06,702.415 1336.06,699.319 1337.05,696.231 1338.05,693.151 1339.04,690.079 
  1340.04,687.015 1341.03,683.959 1342.03,680.912 1343.03,677.872 1344.02,674.841 1345.02,671.819 1346.01,668.805 1347.01,665.801 1348,662.805 1349,659.818 
  1349.99,656.84 1350.99,653.872 1351.98,650.913 1352.98,647.963 1353.97,645.023 1354.97,642.093 1355.97,639.173 1356.96,636.262 1357.96,633.362 1358.95,630.471 
  1359.95,627.591 1360.94,624.721 1361.94,621.862 1362.93,619.014 1363.93,616.176 1364.92,613.348 1365.92,610.532 1366.92,607.727 1367.91,604.933 1368.91,602.15 
  1369.9,599.378 1370.9,596.618 1371.89,593.869 1372.89,591.132 1373.88,588.407 1374.88,585.694 1375.87,582.992 1376.87,580.303 1377.86,577.625 1378.86,574.96 
  1379.86,572.308 1380.85,569.667 1381.85,567.04 1382.84,564.425 1383.84,561.822 1384.83,559.233 1385.83,556.656 1386.82,554.093 1387.82,551.543 1388.81,549.005 
  1389.81,546.482 1390.81,543.971 1391.8,541.474 1392.8,538.991 1393.79,536.522 1394.79,534.066 1395.78,531.624 1396.78,529.196 1397.77,526.782 1398.77,524.383 
  1399.76,521.997 1400.76,519.626 1401.75,517.27 1402.75,514.928 1403.75,512.6 1404.74,510.287 1405.74,507.989 1406.73,505.706 1407.73,503.438 1408.72,501.185 
  1409.72,498.947 1410.71,496.724 1411.71,494.517 1412.7,492.325 1413.7,490.148 1414.7,487.987 1415.69,485.842 1416.69,483.712 1417.68,481.598 1418.68,479.5 
  1419.67,477.418 1420.67,475.351 1421.66,473.301 1422.66,471.268 1423.65,469.25 1424.65,467.249 1425.64,465.264 1426.64,463.296 1427.64,461.344 1428.63,459.409 
  1429.63,457.49 1430.62,455.588 1431.62,453.703 1432.61,451.836 1433.61,449.985 1434.6,448.151 1435.6,446.334 1436.59,444.534 1437.59,442.752 1438.59,440.987 
  1439.58,439.239 1440.58,437.509 1441.57,435.797 1442.57,434.102 1443.56,432.424 1444.56,430.765 1445.55,429.123 1446.55,427.499 1447.54,425.893 1448.54,424.305 
  1449.53,422.735 1450.53,421.183 1451.53,419.649 1452.52,418.133 1453.52,416.636 1454.51,415.157 1455.51,413.696 1456.5,412.254 1457.5,410.83 1458.49,409.425 
  1459.49,408.038 1460.48,406.67 1461.48,405.32 1462.48,403.99 1463.47,402.678 1464.47,401.385 1465.46,400.111 1466.46,398.856 1467.45,397.62 1468.45,396.402 
  1469.44,395.204 1470.44,394.025 1471.43,392.866 1472.43,391.725 1473.42,390.604 1474.42,389.502 1475.42,388.419 1476.41,387.356 1477.41,386.312 1478.4,385.287 
  1479.4,384.282 1480.39,383.297 1481.39,382.331 1482.38,381.385 1483.38,380.458 1484.37,379.552 1485.37,378.664 1486.37,377.797 1487.36,376.949 1488.36,376.121 
  1489.35,375.313 1490.35,374.525 1491.34,373.757 1492.34,373.009 1493.33,372.28 1494.33,371.572 1495.32,370.884 1496.32,370.215 1497.31,369.567 1498.31,368.939 
  1499.31,368.331 1500.3,367.743 1501.3,367.175 1502.29,366.628 1503.29,366.1 1504.28,365.593 1505.28,365.106 1506.27,364.64 1507.27,364.193 1508.26,363.767 
  1509.26,363.361 1510.26,362.976 1511.25,362.611 1512.25,362.266 1513.24,361.942 1514.24,361.638 1515.23,361.354 1516.23,361.091 1517.22,360.848 1518.22,360.626 
  1519.21,360.424 1520.21,360.242 1521.2,360.081 1522.2,359.94 1523.2,359.82 1524.19,359.72 1525.19,359.641 1526.18,359.582 1527.18,359.544 1528.17,359.526 
  1529.17,359.528 1530.16,359.551 1531.16,359.595 1532.15,359.659 1533.15,359.743 1534.15,359.848 1535.14,359.973 1536.14,360.119 1537.13,360.285 1538.13,360.472 
  1539.12,360.679 1540.12,360.907 1541.11,361.155 1542.11,361.423 1543.1,361.712 1544.1,362.021 1545.09,362.35 1546.09,362.7 1547.09,363.07 1548.08,363.461 
  1549.08,363.872 1550.07,364.303 1551.07,364.754 1552.06,365.226 1553.06,365.718 1554.05,366.23 1555.05,366.763 1556.04,367.315 1557.04,367.888 1558.04,368.481 
  1559.03,369.094 1560.03,369.727 1561.02,370.381 1562.02,371.054 1563.01,371.747 1564.01,372.461 1565,373.194 1566,373.947 1566.99,374.72 1567.99,375.514 
  1568.98,376.326 1569.98,377.159 1570.98,378.012 1571.97,378.884 1572.97,379.776 1573.96,380.688 1574.96,381.62 1575.95,382.571 1576.95,383.542 1577.94,384.532 
  1578.94,385.542 1579.93,386.571 1580.93,387.62 1581.93,388.688 1582.92,389.775 1583.92,390.882 1584.91,392.008 1585.91,393.154 1586.9,394.318 1587.9,395.502 
  1588.89,396.705 1589.89,397.927 1590.88,399.168 1591.88,400.428 1592.87,401.706 1593.87,403.004 1594.87,404.321 1595.86,405.656 1596.86,407.01 1597.85,408.383 
  1598.85,409.774 1599.84,411.184 1600.84,412.612 1601.83,414.059 1602.83,415.525 1603.82,417.008 1604.82,418.51 1605.82,420.031 1606.81,421.569 1607.81,423.125 
  1608.8,424.7 1609.8,426.293 1610.79,427.903 1611.79,429.532 1612.78,431.178 1613.78,432.842 1614.77,434.524 1615.77,436.223 1616.76,437.94 1617.76,439.675 
  1618.76,441.427 1619.75,443.196 1620.75,444.983 1621.74,446.786 1622.74,448.608 1623.73,450.446 1624.73,452.301 1625.72,454.173 1626.72,456.062 1627.71,457.968 
  1628.71,459.891 1629.71,461.83 1630.7,463.786 1631.7,465.759 1632.69,467.748 1633.69,469.753 1634.68,471.775 1635.68,473.812 1636.67,475.866 1637.67,477.937 
  1638.66,480.023 1639.66,482.125 1640.65,484.243 1641.65,486.376 1642.65,488.526 1643.64,490.691 1644.64,492.871 1645.63,495.067 1646.63,497.279 1647.62,499.505 
  1648.62,501.747 1649.61,504.004 1650.61,506.276 1651.6,508.563 1652.6,510.864 1653.6,513.181 1654.59,515.512 1655.59,517.858 1656.58,520.218 1657.58,522.592 
  1658.57,524.981 1659.57,527.385 1660.56,529.802 1661.56,532.233 1662.55,534.679 1663.55,537.138 1664.54,539.611 1665.54,542.097 1666.54,544.598 1667.53,547.111 
  1668.53,549.639 1669.52,552.179 1670.52,554.733 1671.51,557.299 1672.51,559.879 1673.5,562.472 1674.5,565.077 1675.49,567.696 1676.49,570.326 1677.49,572.97 
  1678.48,575.626 1679.48,578.294 1680.47,580.974 1681.47,583.666 1682.46,586.371 1683.46,589.087 1684.45,591.816 1685.45,594.555 1686.44,597.307 1687.44,600.07 
  1688.43,602.844 1689.43,605.63 1690.43,608.427 1691.42,611.235 1692.42,614.054 1693.41,616.884 1694.41,619.725 1695.4,622.576 1696.4,625.438 1697.39,628.31 
  1698.39,631.193 1699.38,634.086 1700.38,636.989 1701.38,639.902 1702.37,642.825 1703.37,645.757 1704.36,648.7 1705.36,651.652 1706.35,654.613 1707.35,657.584 
  1708.34,660.564 1709.34,663.553 1710.33,666.551 1711.33,669.558 1712.32,672.574 1713.32,675.598 1714.32,678.631 1715.31,681.673 1716.31,684.723 1717.3,687.781 
  1718.3,690.847 1719.29,693.921 1720.29,697.003 1721.28,700.092 1722.28,431.641 1723.27,434.746 1724.27,437.859 1725.27,440.978 1726.26,444.105 1727.26,447.239 
  1728.25,450.379 1729.25,453.527 1730.24,456.681 1731.24,459.842 1732.23,463.009 1733.23,466.182 1734.22,469.362 1735.22,472.548 1736.21,475.74 1737.21,478.937 
  1738.21,482.141 1739.2,485.35 1740.2,488.564 1741.19,491.784 1742.19,495.009 1743.18,498.239 1744.18,501.475 1745.17,504.715 1746.17,507.96 1747.16,511.209 
  1748.16,514.463 1749.16,517.722 1750.15,520.984 1751.15,524.251 1752.14,527.522 1753.14,530.797 1754.13,534.075 1755.13,537.358 1756.12,540.643 1757.12,543.933 
  1758.11,547.225 1759.11,550.521 1760.1,553.819 1761.1,557.121 1762.1,560.425 1763.09,563.732 1764.09,567.042 1765.08,570.354 1766.08,573.668 1767.07,576.984 
  1768.07,580.303 1769.06,583.623 1770.06,586.945 1771.05,590.269 1772.05,593.595 1773.05,596.921 1774.04,600.249 1775.04,603.579 1776.03,606.909 1777.03,610.24 
  1778.02,613.572 1779.02,616.905 1780.01,620.238 1781.01,623.571 1782,626.905 1783,630.239 1783.99,633.573 1784.99,636.907 1785.99,640.241 1786.98,643.574 
  1787.98,646.907 1788.97,650.239 1789.97,653.571 1790.96,656.901 1791.96,660.231 1792.95,663.56 1793.95,666.887 1794.94,670.213 1795.94,673.538 1796.94,676.861 
  1797.93,680.182 1798.93,683.502 1799.92,686.819 1800.92,690.134 1801.91,693.448 1802.91,696.758 1803.9,700.067 1804.9,703.372 1805.89,706.675 1806.89,709.975 
  1807.88,713.273 1808.88,716.567 1809.88,719.857 1810.87,723.145 1811.87,726.429 1812.86,729.709 1813.86,732.986 1814.85,736.259 1815.85,739.528 1816.84,742.793 
  1817.84,746.053 1818.83,749.309 1819.83,752.561 1820.83,755.808 1821.82,759.051 1822.82,762.289 1823.81,765.521 1824.81,768.749 1825.8,771.972 1826.8,775.189 
  1827.79,778.401 1828.79,781.607 1829.78,784.807 1830.78,788.002 1831.77,791.191 1832.77,794.374 1833.77,797.55 1834.76,800.721 1835.76,803.885 1836.75,807.042 
  1837.75,810.193 1838.74,813.337 1839.74,816.474 1840.73,819.605 1841.73,822.728 1842.72,825.844 1843.72,828.952 1844.72,832.053 1845.71,835.147 1846.71,838.233 
  1847.7,841.311 1848.7,844.381 1849.69,847.443 1850.69,850.497 1851.68,853.542 1852.68,856.58 1853.67,859.608 1854.67,862.628 1855.66,865.64 1856.66,868.642 
  1857.66,871.636 1858.65,874.621 1859.65,877.596 1860.64,880.562 1861.64,883.519 1862.63,886.466 1863.63,889.404 1864.62,892.331 1865.62,895.249 1866.61,898.157 
  1867.61,901.055 1868.61,903.943 1869.6,906.821 1870.6,909.688 1871.59,912.544 1872.59,915.39 1873.58,918.225 1874.58,921.05 1875.57,923.863 1876.57,926.666 
  1877.56,929.457 1878.56,932.237 1879.55,935.006 1880.55,937.763 1881.55,940.509 1882.54,943.243 1883.54,945.966 1884.53,948.676 1885.53,951.375 1886.52,954.061 
  1887.52,956.735 1888.51,959.397 1889.51,962.047 1890.5,964.684 1891.5,967.308 1892.5,969.92 1893.49,972.519 1894.49,975.106 1895.48,977.679 1896.48,980.239 
  1897.47,982.786 1898.47,985.32 1899.46,987.84 1900.46,990.347 1901.45,992.841 1902.45,995.321 1903.44,997.787 1904.44,1000.24 1905.44,1002.68 1906.43,1005.1 
  1907.43,1007.51 1908.42,1009.91 1909.42,1012.29 1910.41,1014.66 1911.41,1017.01 1912.4,1019.35 1913.4,1021.67 1914.39,1023.98 1915.39,1026.28 1916.39,1028.56 
  1917.38,1030.82 1918.38,1033.07 1919.37,1035.3 1920.37,1037.52 1921.36,1039.73 1922.36,1041.91 1923.35,1044.09 1924.35,1046.24 1925.34,1048.39 1926.34,1050.51 
  1927.33,1052.62 1928.33,1054.72 1929.33,1056.79 1930.32,1058.86 1931.32,1060.9 1932.31,1062.93 1933.31,1064.95 1934.3,1066.94 1935.3,1068.92 1936.29,1070.89 
  1937.29,1072.83 1938.28,1074.77 1939.28,1076.68 1940.28,1078.58 1941.27,1080.46 1942.27,1082.32 1943.26,1084.17 1944.26,1086 1945.25,1087.81 1946.25,1089.61 
  1947.24,1091.38 1948.24,1093.14 1949.23,1094.89 1950.23,1096.61 1951.22,1098.32 1952.22,1100.01 1953.22,1101.69 1954.21,1103.34 1955.21,1104.98 1956.2,1106.6 
  1957.2,1108.2 1958.19,1109.78 1959.19,1111.35 1960.18,1112.9 1961.18,1114.43 1962.17,1115.94 1963.17,1117.43 1964.17,1118.9 1965.16,1120.36 1966.16,1121.8 
  1967.15,1123.22 1968.15,1124.62 1969.14,1126 1970.14,1127.36 1971.13,1128.71 1972.13,1130.03 1973.12,1131.34 1974.12,1132.63 1975.11,1133.9 1976.11,1135.15 
  1977.11,1136.38 1978.1,1137.59 1979.1,1138.79 1980.09,1139.96 1981.09,1141.11 1982.08,1142.25 1983.08,1143.37 1984.07,1144.46 1985.07,1145.54 1986.06,1146.6 
  1987.06,1147.64 1988.06,1148.66 1989.05,1149.66 1990.05,1150.64 1991.04,1151.6 1992.04,1152.54 1993.03,1153.46 1994.03,1154.37 1995.02,1155.25 1996.02,1156.11 
  1997.01,1156.95 1998.01,1157.78 1999,1158.58 2000,1159.36 2001,1160.13 2001.99,1160.87 2002.99,1161.59 2003.98,1162.3 2004.98,1162.98 2005.97,1163.64 
  2006.97,1164.29 2007.96,1164.91 2008.96,1165.51 2009.95,1166.09 2010.95,1166.66 2011.95,1167.2 2012.94,1167.72 2013.94,1168.22 2014.93,1168.71 2015.93,1169.17 
  2016.92,1169.61 2017.92,1170.03 2018.91,1170.43 2019.91,1170.81 2020.9,1171.17 2021.9,1171.51 2022.89,1171.83 2023.89,1172.13 2024.89,1172.41 2025.88,1172.67 
  2026.88,1172.9 2027.87,1173.12 2028.87,1173.32 2029.86,1173.49 2030.86,1173.65 2031.85,1173.79 2032.85,1173.9 2033.84,1173.99 2034.84,1174.07 2035.84,1174.12 
  2036.83,1174.16 2037.83,1174.17 2038.82,1174.16 2039.82,1174.13 2040.81,1174.08 2041.81,1174.02 2042.8,1173.93 2043.8,1173.82 2044.79,1173.69 2045.79,1173.53 
  2046.78,1173.36 2047.78,1173.17 2048.78,1172.96 2049.77,1172.73 2050.77,1172.47 2051.76,1172.2 2052.76,1171.91 2053.75,1171.59 2054.75,1171.26 2055.74,1170.9 
  2056.74,1170.53 2057.73,1170.13 2058.73,1169.72 2059.73,1169.28 2060.72,1168.82 2061.72,1168.35 2062.71,1167.85 2063.71,1167.33 2064.7,1166.79 2065.7,1166.24 
  2066.69,1165.66 2067.69,1165.06 2068.68,1164.44 2069.68,1163.8 2070.67,1163.15 2071.67,1162.47 2072.67,1161.77 2073.66,1161.05 2074.66,1160.31 2075.65,1159.55 
  2076.65,1158.78 2077.64,1157.98 2078.64,1157.16 2079.63,1156.32 2080.63,1155.47 2081.62,1154.59 2082.62,1153.69 2083.62,1152.77 2084.61,1151.84 2085.61,1150.88 
  2086.6,1149.91 2087.6,1148.91 2088.59,1147.9 2089.59,1146.86 2090.58,1145.81 2091.58,1144.74 2092.57,1143.64 2093.57,1142.53 2094.56,1141.4 2095.56,1140.25 
  2096.56,1139.08 2097.55,1137.89 2098.55,1136.68 2099.54,1135.46 2100.54,1134.21 2101.53,1132.95 2102.53,1131.66 2103.52,1130.36 2104.52,1129.04 2105.51,1127.7 
  2106.51,1126.34 2107.51,1124.96 2108.5,1123.57 2109.5,1122.15 2110.49,1120.72 2111.49,1119.27 2112.48,1117.8 2113.48,1116.31 2114.47,1114.8 2115.47,1113.28 
  2116.46,1111.74 2117.46,1110.18 2118.45,1108.6 2119.45,1107 2120.45,1105.38 2121.44,1103.75 2122.44,1102.1 2123.43,1100.43 2124.43,1098.75 2125.42,1097.04 
  2126.42,1095.32 2127.41,1093.58 2128.41,1091.83 2129.4,1090.05 2130.4,1088.26 2131.4,1086.45 2132.39,1084.63 2133.39,1082.79 2134.38,1080.93 2135.38,1079.05 
  2136.37,1077.16 2137.37,1075.25 2138.36,1073.32 2139.36,1071.38 2140.35,1069.42 2141.35,1067.44 2142.34,1065.45 2143.34,1063.44 2144.34,1061.41 2145.33,1059.37 
  2146.33,1057.31 2147.32,1055.24 2148.32,1053.15 2149.31,1051.04 2150.31,1048.92 2151.3,1046.78 2152.3,1044.63 2153.29,1042.46 2154.29,1040.27 2155.29,1038.07 
  2156.28,1035.86 2157.28,1033.63 2158.27,1031.38 2159.27,1029.12 2160.26,1026.85 2161.26,1024.56 2162.25,1022.25 2163.25,1019.93 2164.24,1017.6 2165.24,1015.25 
  2166.23,1012.88 2167.23,1010.5 2168.23,1008.11 2169.22,1005.71 2170.22,1003.28 2171.21,1000.85 2172.21,998.401 2173.2,995.939 2174.2,993.462 2175.19,990.972 
  2176.19,988.468 2177.18,985.951 2178.18,983.421 2179.18,980.877 2180.17,978.32 2181.17,975.75 2182.16,973.167 2183.16,970.571 2184.15,967.963 2185.15,965.341 
  2186.14,962.707 2187.14,960.061 2188.13,957.402 2189.13,954.731 2190.12,952.047 2191.12,949.352 2192.12,946.644 2193.11,943.925 2194.11,941.194 2195.1,938.451 
  2196.1,935.697 2197.09,932.931 2198.09,930.153 2199.08,927.365 2200.08,924.565 2201.07,921.754 2202.07,918.933 2203.07,916.1 2204.06,913.257 2205.06,910.403 
  2206.05,907.538 2207.05,904.663 2208.04,901.778 2209.04,898.883 2210.03,895.977 2211.03,893.062 2212.02,890.136 2213.02,887.201 2214.01,884.256 2215.01,881.302 
  2216.01,878.338 2217,875.365 2218,872.383 2218.99,869.392 2219.99,866.391 2220.98,863.382 2221.98,860.364 2222.97,857.338 2223.97,854.302 2224.96,851.259 
  2225.96,848.207 2226.96,845.147 2227.95,842.079 2228.95,839.003 2229.94,835.919 2230.94,832.827 2231.93,829.728 2232.93,826.621 2233.92,823.507 2234.92,820.386 
  2235.91,817.257 2236.91,814.122 2237.9,810.98 2238.9,807.83 2239.9,804.675 2240.89,801.512 2241.89,798.344 2242.88,795.168 2243.88,791.987 2244.87,788.8 
  2245.87,785.607 2246.86,782.407 2247.86,779.203 2248.85,775.992 2249.85,772.776 2250.85,769.555 2251.84,766.329 2252.84,763.097 2253.83,759.861 2254.83,756.62 
  2255.82,753.373 2256.82,750.123 2257.81,746.868 2258.81,743.608 2259.8,740.344 2260.8,737.076 2261.79,733.805 2262.79,730.529 2263.79,727.249 2264.78,723.966 
  2265.78,720.68 2266.77,717.39 2267.77,714.096 2268.76,710.8 2269.76,707.501 2270.75,704.198 2271.75,700.893 2272.74,697.586 2273.74,694.275 2274.74,690.963 
  2275.73,687.648 2276.73,684.331 2277.72,681.012 2278.72,677.691 2279.71,674.369 2280.71,671.045 2281.7,667.719 2282.7,664.392 2283.69,661.063 2284.69,657.734 
  2285.68,654.404 2286.68,651.072 2287.68,647.74 2288.67,644.407 2289.67,641.074 2290.66,637.74 2291.66,634.407 
  "/>
<path clip-path="url(#clip960)" d="
M1988.36 250.738 L2280.8 250.738 L2280.8 95.2176 L1988.36 95.2176  Z
  " fill="#ffffff" fill-rule="evenodd" fill-opacity="1"/>
<polyline clip-path="url(#clip960)" style="stroke:#000000; stroke-linecap:butt; stroke-linejoin:round; stroke-width:4; stroke-opacity:1; fill:none" points="
  1988.36,250.738 2280.8,250.738 2280.8,95.2176 1988.36,95.2176 1988.36,250.738 
  "/>
<polyline clip-path="url(#clip960)" style="stroke:#009af9; stroke-linecap:butt; stroke-linejoin:round; stroke-width:4; stroke-opacity:1; fill:none" points="
  2012.36,147.058 2156.36,147.058 
  "/>
<path clip-path="url(#clip960)" d="M2194.21 166.745 Q2192.4 171.375 2190.69 172.787 Q2188.98 174.199 2186.11 174.199 L2182.7 174.199 L2182.7 170.634 L2185.2 170.634 Q2186.96 170.634 2187.93 169.8 Q2188.91 168.967 2190.09 165.865 L2190.85 163.921 L2180.36 138.412 L2184.88 138.412 L2192.98 158.689 L2201.08 138.412 L2205.6 138.412 L2194.21 166.745 Z" fill="#000000" fill-rule="evenodd" fill-opacity="1" /><path clip-path="url(#clip960)" d="M2212.89 160.402 L2220.53 160.402 L2220.53 134.037 L2212.22 135.703 L2212.22 131.444 L2220.48 129.778 L2225.16 129.778 L2225.16 160.402 L2232.8 160.402 L2232.8 164.338 L2212.89 164.338 L2212.89 160.402 Z" fill="#000000" fill-rule="evenodd" fill-opacity="1" /><polyline clip-path="url(#clip960)" style="stroke:#e26f46; stroke-linecap:butt; stroke-linejoin:round; stroke-width:4; stroke-opacity:1; fill:none" points="
  2012.36,198.898 2156.36,198.898 
  "/>
<path clip-path="url(#clip960)" d="M2194.21 218.585 Q2192.4 223.215 2190.69 224.627 Q2188.98 226.039 2186.11 226.039 L2182.7 226.039 L2182.7 222.474 L2185.2 222.474 Q2186.96 222.474 2187.93 221.64 Q2188.91 220.807 2190.09 217.705 L2190.85 215.761 L2180.36 190.252 L2184.88 190.252 L2192.98 210.529 L2201.08 190.252 L2205.6 190.252 L2194.21 218.585 Z" fill="#000000" fill-rule="evenodd" fill-opacity="1" /><path clip-path="url(#clip960)" d="M2216.11 212.242 L2232.42 212.242 L2232.42 216.178 L2210.48 216.178 L2210.48 212.242 Q2213.14 209.488 2217.73 204.858 Q2222.33 200.205 2223.51 198.863 Q2225.76 196.34 2226.64 194.604 Q2227.54 192.844 2227.54 191.155 Q2227.54 188.4 2225.6 186.664 Q2223.67 184.928 2220.57 184.928 Q2218.37 184.928 2215.92 185.692 Q2213.49 186.455 2210.71 188.006 L2210.71 183.284 Q2213.54 182.15 2215.99 181.571 Q2218.44 180.993 2220.48 180.993 Q2225.85 180.993 2229.05 183.678 Q2232.24 186.363 2232.24 190.854 Q2232.24 192.983 2231.43 194.905 Q2230.64 196.803 2228.54 199.395 Q2227.96 200.067 2224.86 203.284 Q2221.75 206.479 2216.11 212.242 Z" fill="#000000" fill-rule="evenodd" fill-opacity="1" /></svg>
