<?xml version="1.0" encoding="utf-8"?>
<svg xmlns="http://www.w3.org/2000/svg" xmlns:xlink="http://www.w3.org/1999/xlink" width="600" height="400" viewBox="0 0 2400 1600">
<defs>
  <clipPath id="clip040">
    <rect x="0" y="0" width="2400" height="1600"/>
  </clipPath>
</defs>
<path clip-path="url(#clip040)" d="
M0 1600 L2400 1600 L2400 0 L0 0  Z
  " fill="#ffffff" fill-rule="evenodd" fill-opacity="1"/>
<defs>
  <clipPath id="clip041">
    <rect x="480" y="0" width="1681" height="1600"/>
  </clipPath>
</defs>
<path clip-path="url(#clip040)" d="
M193.936 1486.45 L2352.76 1486.45 L2352.76 47.2441 L193.936 47.2441  Z
  " fill="#ffffff" fill-rule="evenodd" fill-opacity="1"/>
<defs>
  <clipPath id="clip042">
    <rect x="193" y="47" width="2160" height="1440"/>
  </clipPath>
</defs>
<polyline clip-path="url(#clip042)" style="stroke:#000000; stroke-linecap:butt; stroke-linejoin:round; stroke-width:2; stroke-opacity:0.1; fill:none" points="
  254.039,1486.45 254.039,47.2441 
  "/>
<polyline clip-path="url(#clip042)" style="stroke:#000000; stroke-linecap:butt; stroke-linejoin:round; stroke-width:2; stroke-opacity:0.1; fill:none" points="
  751.748,1486.45 751.748,47.2441 
  "/>
<polyline clip-path="url(#clip042)" style="stroke:#000000; stroke-linecap:butt; stroke-linejoin:round; stroke-width:2; stroke-opacity:0.1; fill:none" points="
  1249.46,1486.45 1249.46,47.2441 
  "/>
<polyline clip-path="url(#clip042)" style="stroke:#000000; stroke-linecap:butt; stroke-linejoin:round; stroke-width:2; stroke-opacity:0.1; fill:none" points="
  1747.16,1486.45 1747.16,47.2441 
  "/>
<polyline clip-path="url(#clip042)" style="stroke:#000000; stroke-linecap:butt; stroke-linejoin:round; stroke-width:2; stroke-opacity:0.1; fill:none" points="
  2244.87,1486.45 2244.87,47.2441 
  "/>
<polyline clip-path="url(#clip040)" style="stroke:#000000; stroke-linecap:butt; stroke-linejoin:round; stroke-width:4; stroke-opacity:1; fill:none" points="
  193.936,1486.45 2352.76,1486.45 
  "/>
<polyline clip-path="url(#clip040)" style="stroke:#000000; stroke-linecap:butt; stroke-linejoin:round; stroke-width:4; stroke-opacity:1; fill:none" points="
  254.039,1486.45 254.039,1467.55 
  "/>
<polyline clip-path="url(#clip040)" style="stroke:#000000; stroke-linecap:butt; stroke-linejoin:round; stroke-width:4; stroke-opacity:1; fill:none" points="
  751.748,1486.45 751.748,1467.55 
  "/>
<polyline clip-path="url(#clip040)" style="stroke:#000000; stroke-linecap:butt; stroke-linejoin:round; stroke-width:4; stroke-opacity:1; fill:none" points="
  1249.46,1486.45 1249.46,1467.55 
  "/>
<polyline clip-path="url(#clip040)" style="stroke:#000000; stroke-linecap:butt; stroke-linejoin:round; stroke-width:4; stroke-opacity:1; fill:none" points="
  1747.16,1486.45 1747.16,1467.55 
  "/>
<polyline clip-path="url(#clip040)" style="stroke:#000000; stroke-linecap:butt; stroke-linejoin:round; stroke-width:4; stroke-opacity:1; fill:none" points="
  2244.87,1486.45 2244.87,1467.55 
  "/>
<path clip-path="url(#clip040)" d="M254.039 1517.37 Q250.428 1517.37 248.599 1520.93 Q246.794 1524.47 246.794 1531.6 Q246.794 1538.71 248.599 1542.27 Q250.428 1545.82 254.039 1545.82 Q257.673 1545.82 259.479 1542.27 Q261.308 1538.71 261.308 1531.6 Q261.308 1524.47 259.479 1520.93 Q257.673 1517.37 254.039 1517.37 M254.039 1513.66 Q259.849 1513.66 262.905 1518.27 Q265.984 1522.85 265.984 1531.6 Q265.984 1540.33 262.905 1544.94 Q259.849 1549.52 254.039 1549.52 Q248.229 1549.52 245.15 1544.94 Q242.095 1540.33 242.095 1531.6 Q242.095 1522.85 245.15 1518.27 Q248.229 1513.66 254.039 1513.66 Z" fill="#000000" fill-rule="evenodd" fill-opacity="1" /><path clip-path="url(#clip040)" d="M711.366 1514.29 L729.722 1514.29 L729.722 1518.22 L715.648 1518.22 L715.648 1526.7 Q716.667 1526.35 717.685 1526.19 Q718.704 1526 719.722 1526 Q725.509 1526 728.889 1529.17 Q732.269 1532.34 732.269 1537.76 Q732.269 1543.34 728.796 1546.44 Q725.324 1549.52 719.005 1549.52 Q716.829 1549.52 714.56 1549.15 Q712.315 1548.78 709.908 1548.04 L709.908 1543.34 Q711.991 1544.47 714.213 1545.03 Q716.435 1545.58 718.912 1545.58 Q722.917 1545.58 725.255 1543.48 Q727.593 1541.37 727.593 1537.76 Q727.593 1534.15 725.255 1532.04 Q722.917 1529.94 718.912 1529.94 Q717.037 1529.94 715.162 1530.35 Q713.31 1530.77 711.366 1531.65 L711.366 1514.29 Z" fill="#000000" fill-rule="evenodd" fill-opacity="1" /><path clip-path="url(#clip040)" d="M751.481 1517.37 Q747.87 1517.37 746.042 1520.93 Q744.236 1524.47 744.236 1531.6 Q744.236 1538.71 746.042 1542.27 Q747.87 1545.82 751.481 1545.82 Q755.116 1545.82 756.921 1542.27 Q758.75 1538.71 758.75 1531.6 Q758.75 1524.47 756.921 1520.93 Q755.116 1517.37 751.481 1517.37 M751.481 1513.66 Q757.292 1513.66 760.347 1518.27 Q763.426 1522.85 763.426 1531.6 Q763.426 1540.33 760.347 1544.94 Q757.292 1549.52 751.481 1549.52 Q745.671 1549.52 742.593 1544.94 Q739.537 1540.33 739.537 1531.6 Q739.537 1522.85 742.593 1518.27 Q745.671 1513.66 751.481 1513.66 Z" fill="#000000" fill-rule="evenodd" fill-opacity="1" /><path clip-path="url(#clip040)" d="M781.643 1517.37 Q778.032 1517.37 776.203 1520.93 Q774.398 1524.47 774.398 1531.6 Q774.398 1538.71 776.203 1542.27 Q778.032 1545.82 781.643 1545.82 Q785.278 1545.82 787.083 1542.27 Q788.912 1538.71 788.912 1531.6 Q788.912 1524.47 787.083 1520.93 Q785.278 1517.37 781.643 1517.37 M781.643 1513.66 Q787.453 1513.66 790.509 1518.27 Q793.588 1522.85 793.588 1531.6 Q793.588 1540.33 790.509 1544.94 Q787.453 1549.52 781.643 1549.52 Q775.833 1549.52 772.754 1544.94 Q769.699 1540.33 769.699 1531.6 Q769.699 1522.85 772.754 1518.27 Q775.833 1513.66 781.643 1513.66 Z" fill="#000000" fill-rule="evenodd" fill-opacity="1" /><path clip-path="url(#clip040)" d="M1193.98 1544.91 L1201.62 1544.91 L1201.62 1518.55 L1193.31 1520.21 L1193.31 1515.95 L1201.57 1514.29 L1206.25 1514.29 L1206.25 1544.91 L1213.89 1544.91 L1213.89 1548.85 L1193.98 1548.85 L1193.98 1544.91 Z" fill="#000000" fill-rule="evenodd" fill-opacity="1" /><path clip-path="url(#clip040)" d="M1233.33 1517.37 Q1229.72 1517.37 1227.89 1520.93 Q1226.09 1524.47 1226.09 1531.6 Q1226.09 1538.71 1227.89 1542.27 Q1229.72 1545.82 1233.33 1545.82 Q1236.97 1545.82 1238.77 1542.27 Q1240.6 1538.71 1240.6 1531.6 Q1240.6 1524.47 1238.77 1520.93 Q1236.97 1517.37 1233.33 1517.37 M1233.33 1513.66 Q1239.14 1513.66 1242.2 1518.27 Q1245.28 1522.85 1245.28 1531.6 Q1245.28 1540.33 1242.2 1544.94 Q1239.14 1549.52 1233.33 1549.52 Q1227.52 1549.52 1224.44 1544.94 Q1221.39 1540.33 1221.39 1531.6 Q1221.39 1522.85 1224.44 1518.27 Q1227.52 1513.66 1233.33 1513.66 Z" fill="#000000" fill-rule="evenodd" fill-opacity="1" /><path clip-path="url(#clip040)" d="M1263.5 1517.37 Q1259.88 1517.37 1258.06 1520.93 Q1256.25 1524.47 1256.25 1531.6 Q1256.25 1538.71 1258.06 1542.27 Q1259.88 1545.82 1263.5 1545.82 Q1267.13 1545.82 1268.94 1542.27 Q1270.76 1538.71 1270.76 1531.6 Q1270.76 1524.47 1268.94 1520.93 Q1267.13 1517.37 1263.5 1517.37 M1263.5 1513.66 Q1269.31 1513.66 1272.36 1518.27 Q1275.44 1522.85 1275.44 1531.6 Q1275.44 1540.33 1272.36 1544.94 Q1269.31 1549.52 1263.5 1549.52 Q1257.69 1549.52 1254.61 1544.94 Q1251.55 1540.33 1251.55 1531.6 Q1251.55 1522.85 1254.61 1518.27 Q1257.69 1513.66 1263.5 1513.66 Z" fill="#000000" fill-rule="evenodd" fill-opacity="1" /><path clip-path="url(#clip040)" d="M1293.66 1517.37 Q1290.05 1517.37 1288.22 1520.93 Q1286.41 1524.47 1286.41 1531.6 Q1286.41 1538.71 1288.22 1542.27 Q1290.05 1545.82 1293.66 1545.82 Q1297.29 1545.82 1299.1 1542.27 Q1300.93 1538.71 1300.93 1531.6 Q1300.93 1524.47 1299.1 1520.93 Q1297.29 1517.37 1293.66 1517.37 M1293.66 1513.66 Q1299.47 1513.66 1302.52 1518.27 Q1305.6 1522.85 1305.6 1531.6 Q1305.6 1540.33 1302.52 1544.94 Q1299.47 1549.52 1293.66 1549.52 Q1287.85 1549.52 1284.77 1544.94 Q1281.71 1540.33 1281.71 1531.6 Q1281.71 1522.85 1284.77 1518.27 Q1287.85 1513.66 1293.66 1513.66 Z" fill="#000000" fill-rule="evenodd" fill-opacity="1" /><path clip-path="url(#clip040)" d="M1691.69 1544.91 L1699.33 1544.91 L1699.33 1518.55 L1691.02 1520.21 L1691.02 1515.95 L1699.28 1514.29 L1703.96 1514.29 L1703.96 1544.91 L1711.6 1544.91 L1711.6 1548.85 L1691.69 1548.85 L1691.69 1544.91 Z" fill="#000000" fill-rule="evenodd" fill-opacity="1" /><path clip-path="url(#clip040)" d="M1721.09 1514.29 L1739.44 1514.29 L1739.44 1518.22 L1725.37 1518.22 L1725.37 1526.7 Q1726.39 1526.35 1727.41 1526.19 Q1728.43 1526 1729.44 1526 Q1735.23 1526 1738.61 1529.17 Q1741.99 1532.34 1741.99 1537.76 Q1741.99 1543.34 1738.52 1546.44 Q1735.05 1549.52 1728.73 1549.52 Q1726.55 1549.52 1724.28 1549.15 Q1722.04 1548.78 1719.63 1548.04 L1719.63 1543.34 Q1721.71 1544.47 1723.94 1545.03 Q1726.16 1545.58 1728.63 1545.58 Q1732.64 1545.58 1734.98 1543.48 Q1737.31 1541.37 1737.31 1537.76 Q1737.31 1534.15 1734.98 1532.04 Q1732.64 1529.94 1728.63 1529.94 Q1726.76 1529.94 1724.88 1530.35 Q1723.03 1530.77 1721.09 1531.65 L1721.09 1514.29 Z" fill="#000000" fill-rule="evenodd" fill-opacity="1" /><path clip-path="url(#clip040)" d="M1761.2 1517.37 Q1757.59 1517.37 1755.76 1520.93 Q1753.96 1524.47 1753.96 1531.6 Q1753.96 1538.71 1755.76 1542.27 Q1757.59 1545.82 1761.2 1545.82 Q1764.84 1545.82 1766.64 1542.27 Q1768.47 1538.71 1768.47 1531.6 Q1768.47 1524.47 1766.64 1520.93 Q1764.84 1517.37 1761.2 1517.37 M1761.2 1513.66 Q1767.01 1513.66 1770.07 1518.27 Q1773.15 1522.85 1773.15 1531.6 Q1773.15 1540.33 1770.07 1544.94 Q1767.01 1549.52 1761.2 1549.52 Q1755.39 1549.52 1752.31 1544.94 Q1749.26 1540.33 1749.26 1531.6 Q1749.26 1522.85 1752.31 1518.27 Q1755.39 1513.66 1761.2 1513.66 Z" fill="#000000" fill-rule="evenodd" fill-opacity="1" /><path clip-path="url(#clip040)" d="M1791.37 1517.37 Q1787.75 1517.37 1785.93 1520.93 Q1784.12 1524.47 1784.12 1531.6 Q1784.12 1538.71 1785.93 1542.27 Q1787.75 1545.82 1791.37 1545.82 Q1795 1545.82 1796.81 1542.27 Q1798.63 1538.71 1798.63 1531.6 Q1798.63 1524.47 1796.81 1520.93 Q1795 1517.37 1791.37 1517.37 M1791.37 1513.66 Q1797.18 1513.66 1800.23 1518.27 Q1803.31 1522.85 1803.31 1531.6 Q1803.31 1540.33 1800.23 1544.94 Q1797.18 1549.52 1791.37 1549.52 Q1785.56 1549.52 1782.48 1544.94 Q1779.42 1540.33 1779.42 1531.6 Q1779.42 1522.85 1782.48 1518.27 Q1785.56 1513.66 1791.37 1513.66 Z" fill="#000000" fill-rule="evenodd" fill-opacity="1" /><path clip-path="url(#clip040)" d="M2193.48 1544.91 L2209.8 1544.91 L2209.8 1548.85 L2187.86 1548.85 L2187.86 1544.91 Q2190.52 1542.16 2195.1 1537.53 Q2199.71 1532.88 2200.89 1531.53 Q2203.14 1529.01 2204.02 1527.27 Q2204.92 1525.51 2204.92 1523.82 Q2204.92 1521.07 2202.97 1519.33 Q2201.05 1517.6 2197.95 1517.6 Q2195.75 1517.6 2193.3 1518.36 Q2190.87 1519.13 2188.09 1520.68 L2188.09 1515.95 Q2190.91 1514.82 2193.37 1514.24 Q2195.82 1513.66 2197.86 1513.66 Q2203.23 1513.66 2206.42 1516.35 Q2209.62 1519.03 2209.62 1523.52 Q2209.62 1525.65 2208.81 1527.57 Q2208.02 1529.47 2205.91 1532.07 Q2205.34 1532.74 2202.23 1535.95 Q2199.13 1539.15 2193.48 1544.91 Z" fill="#000000" fill-rule="evenodd" fill-opacity="1" /><path clip-path="url(#clip040)" d="M2229.62 1517.37 Q2226.01 1517.37 2224.18 1520.93 Q2222.37 1524.47 2222.37 1531.6 Q2222.37 1538.71 2224.18 1542.27 Q2226.01 1545.82 2229.62 1545.82 Q2233.25 1545.82 2235.06 1542.27 Q2236.89 1538.71 2236.89 1531.6 Q2236.89 1524.47 2235.06 1520.93 Q2233.25 1517.37 2229.62 1517.37 M2229.62 1513.66 Q2235.43 1513.66 2238.48 1518.27 Q2241.56 1522.85 2241.56 1531.6 Q2241.56 1540.33 2238.48 1544.94 Q2235.43 1549.52 2229.62 1549.52 Q2223.81 1549.52 2220.73 1544.94 Q2217.67 1540.33 2217.67 1531.6 Q2217.67 1522.85 2220.73 1518.27 Q2223.81 1513.66 2229.62 1513.66 Z" fill="#000000" fill-rule="evenodd" fill-opacity="1" /><path clip-path="url(#clip040)" d="M2259.78 1517.37 Q2256.17 1517.37 2254.34 1520.93 Q2252.53 1524.47 2252.53 1531.6 Q2252.53 1538.71 2254.34 1542.27 Q2256.17 1545.82 2259.78 1545.82 Q2263.41 1545.82 2265.22 1542.27 Q2267.05 1538.71 2267.05 1531.6 Q2267.05 1524.47 2265.22 1520.93 Q2263.41 1517.37 2259.78 1517.37 M2259.78 1513.66 Q2265.59 1513.66 2268.65 1518.27 Q2271.72 1522.85 2271.72 1531.6 Q2271.72 1540.33 2268.65 1544.94 Q2265.59 1549.52 2259.78 1549.52 Q2253.97 1549.52 2250.89 1544.94 Q2247.84 1540.33 2247.84 1531.6 Q2247.84 1522.85 2250.89 1518.27 Q2253.97 1513.66 2259.78 1513.66 Z" fill="#000000" fill-rule="evenodd" fill-opacity="1" /><path clip-path="url(#clip040)" d="M2289.94 1517.37 Q2286.33 1517.37 2284.5 1520.93 Q2282.7 1524.47 2282.7 1531.6 Q2282.7 1538.71 2284.5 1542.27 Q2286.33 1545.82 2289.94 1545.82 Q2293.58 1545.82 2295.38 1542.27 Q2297.21 1538.71 2297.21 1531.6 Q2297.21 1524.47 2295.38 1520.93 Q2293.58 1517.37 2289.94 1517.37 M2289.94 1513.66 Q2295.75 1513.66 2298.81 1518.27 Q2301.89 1522.85 2301.89 1531.6 Q2301.89 1540.33 2298.81 1544.94 Q2295.75 1549.52 2289.94 1549.52 Q2284.13 1549.52 2281.05 1544.94 Q2278 1540.33 2278 1531.6 Q2278 1522.85 2281.05 1518.27 Q2284.13 1513.66 2289.94 1513.66 Z" fill="#000000" fill-rule="evenodd" fill-opacity="1" /><polyline clip-path="url(#clip042)" style="stroke:#000000; stroke-linecap:butt; stroke-linejoin:round; stroke-width:2; stroke-opacity:0.1; fill:none" points="
  193.936,1304.19 2352.76,1304.19 
  "/>
<polyline clip-path="url(#clip042)" style="stroke:#000000; stroke-linecap:butt; stroke-linejoin:round; stroke-width:2; stroke-opacity:0.1; fill:none" points="
  193.936,967.004 2352.76,967.004 
  "/>
<polyline clip-path="url(#clip042)" style="stroke:#000000; stroke-linecap:butt; stroke-linejoin:round; stroke-width:2; stroke-opacity:0.1; fill:none" points="
  193.936,629.813 2352.76,629.813 
  "/>
<polyline clip-path="url(#clip042)" style="stroke:#000000; stroke-linecap:butt; stroke-linejoin:round; stroke-width:2; stroke-opacity:0.1; fill:none" points="
  193.936,292.623 2352.76,292.623 
  "/>
<polyline clip-path="url(#clip040)" style="stroke:#000000; stroke-linecap:butt; stroke-linejoin:round; stroke-width:4; stroke-opacity:1; fill:none" points="
  193.936,1486.45 193.936,47.2441 
  "/>
<polyline clip-path="url(#clip040)" style="stroke:#000000; stroke-linecap:butt; stroke-linejoin:round; stroke-width:4; stroke-opacity:1; fill:none" points="
  193.936,1304.19 212.834,1304.19 
  "/>
<polyline clip-path="url(#clip040)" style="stroke:#000000; stroke-linecap:butt; stroke-linejoin:round; stroke-width:4; stroke-opacity:1; fill:none" points="
  193.936,967.004 212.834,967.004 
  "/>
<polyline clip-path="url(#clip040)" style="stroke:#000000; stroke-linecap:butt; stroke-linejoin:round; stroke-width:4; stroke-opacity:1; fill:none" points="
  193.936,629.813 212.834,629.813 
  "/>
<polyline clip-path="url(#clip040)" style="stroke:#000000; stroke-linecap:butt; stroke-linejoin:round; stroke-width:4; stroke-opacity:1; fill:none" points="
  193.936,292.623 212.834,292.623 
  "/>
<path clip-path="url(#clip040)" d="M50.9921 1304.65 L80.6679 1304.65 L80.6679 1308.58 L50.9921 1308.58 L50.9921 1304.65 Z" fill="#000000" fill-rule="evenodd" fill-opacity="1" /><path clip-path="url(#clip040)" d="M90.8067 1286.91 L109.163 1286.91 L109.163 1290.85 L95.0891 1290.85 L95.0891 1299.32 Q96.1076 1298.98 97.1261 1298.81 Q98.1447 1298.63 99.1632 1298.63 Q104.95 1298.63 108.33 1301.8 Q111.709 1304.97 111.709 1310.39 Q111.709 1315.97 108.237 1319.07 Q104.765 1322.15 98.4456 1322.15 Q96.2697 1322.15 94.0012 1321.78 Q91.7558 1321.41 89.3484 1320.66 L89.3484 1315.97 Q91.4317 1317.1 93.6539 1317.66 Q95.8761 1318.21 98.353 1318.21 Q102.358 1318.21 104.696 1316.1 Q107.033 1314 107.033 1310.39 Q107.033 1306.78 104.696 1304.67 Q102.358 1302.56 98.353 1302.56 Q96.478 1302.56 94.603 1302.98 Q92.7512 1303.4 90.8067 1304.28 L90.8067 1286.91 Z" fill="#000000" fill-rule="evenodd" fill-opacity="1" /><path clip-path="url(#clip040)" d="M120.922 1315.6 L125.807 1315.6 L125.807 1321.47 L120.922 1321.47 L120.922 1315.6 Z" fill="#000000" fill-rule="evenodd" fill-opacity="1" /><path clip-path="url(#clip040)" d="M145.992 1289.99 Q142.381 1289.99 140.552 1293.56 Q138.746 1297.1 138.746 1304.23 Q138.746 1311.34 140.552 1314.9 Q142.381 1318.44 145.992 1318.44 Q149.626 1318.44 151.431 1314.9 Q153.26 1311.34 153.26 1304.23 Q153.26 1297.1 151.431 1293.56 Q149.626 1289.99 145.992 1289.99 M145.992 1286.29 Q151.802 1286.29 154.857 1290.9 Q157.936 1295.48 157.936 1304.23 Q157.936 1312.96 154.857 1317.56 Q151.802 1322.15 145.992 1322.15 Q140.181 1322.15 137.103 1317.56 Q134.047 1312.96 134.047 1304.23 Q134.047 1295.48 137.103 1290.9 Q140.181 1286.29 145.992 1286.29 Z" fill="#000000" fill-rule="evenodd" fill-opacity="1" /><path clip-path="url(#clip040)" d="M51.9875 967.456 L81.6633 967.456 L81.6633 971.391 L51.9875 971.391 L51.9875 967.456 Z" fill="#000000" fill-rule="evenodd" fill-opacity="1" /><path clip-path="url(#clip040)" d="M95.7836 980.349 L112.103 980.349 L112.103 984.284 L90.1586 984.284 L90.1586 980.349 Q92.8206 977.594 97.4039 972.965 Q102.01 968.312 103.191 966.969 Q105.436 964.446 106.316 962.71 Q107.219 960.951 107.219 959.261 Q107.219 956.507 105.274 954.77 Q103.353 953.034 100.251 953.034 Q98.0521 953.034 95.5984 953.798 Q93.1678 954.562 90.3901 956.113 L90.3901 951.391 Q93.2141 950.257 95.6678 949.678 Q98.1215 949.099 100.159 949.099 Q105.529 949.099 108.723 951.784 Q111.918 954.47 111.918 958.96 Q111.918 961.09 111.108 963.011 Q110.321 964.909 108.214 967.502 Q107.635 968.173 104.534 971.391 Q101.432 974.585 95.7836 980.349 Z" fill="#000000" fill-rule="evenodd" fill-opacity="1" /><path clip-path="url(#clip040)" d="M121.918 978.405 L126.802 978.405 L126.802 984.284 L121.918 984.284 L121.918 978.405 Z" fill="#000000" fill-rule="evenodd" fill-opacity="1" /><path clip-path="url(#clip040)" d="M137.033 949.724 L155.39 949.724 L155.39 953.659 L141.316 953.659 L141.316 962.132 Q142.334 961.784 143.353 961.622 Q144.371 961.437 145.39 961.437 Q151.177 961.437 154.556 964.608 Q157.936 967.78 157.936 973.196 Q157.936 978.775 154.464 981.877 Q150.992 984.955 144.672 984.955 Q142.496 984.955 140.228 984.585 Q137.982 984.215 135.575 983.474 L135.575 978.775 Q137.658 979.909 139.881 980.465 Q142.103 981.02 144.58 981.02 Q148.584 981.02 150.922 978.914 Q153.26 976.807 153.26 973.196 Q153.26 969.585 150.922 967.479 Q148.584 965.372 144.58 965.372 Q142.705 965.372 140.83 965.789 Q138.978 966.206 137.033 967.085 L137.033 949.724 Z" fill="#000000" fill-rule="evenodd" fill-opacity="1" /><path clip-path="url(#clip040)" d="M100.76 615.612 Q97.1493 615.612 95.3206 619.177 Q93.515 622.719 93.515 629.848 Q93.515 636.955 95.3206 640.519 Q97.1493 644.061 100.76 644.061 Q104.395 644.061 106.2 640.519 Q108.029 636.955 108.029 629.848 Q108.029 622.719 106.2 619.177 Q104.395 615.612 100.76 615.612 M100.76 611.908 Q106.571 611.908 109.626 616.515 Q112.705 621.098 112.705 629.848 Q112.705 638.575 109.626 643.181 Q106.571 647.765 100.76 647.765 Q94.9502 647.765 91.8715 643.181 Q88.816 638.575 88.816 629.848 Q88.816 621.098 91.8715 616.515 Q94.9502 611.908 100.76 611.908 Z" fill="#000000" fill-rule="evenodd" fill-opacity="1" /><path clip-path="url(#clip040)" d="M120.922 641.214 L125.807 641.214 L125.807 647.093 L120.922 647.093 L120.922 641.214 Z" fill="#000000" fill-rule="evenodd" fill-opacity="1" /><path clip-path="url(#clip040)" d="M145.992 615.612 Q142.381 615.612 140.552 619.177 Q138.746 622.719 138.746 629.848 Q138.746 636.955 140.552 640.519 Q142.381 644.061 145.992 644.061 Q149.626 644.061 151.431 640.519 Q153.26 636.955 153.26 629.848 Q153.26 622.719 151.431 619.177 Q149.626 615.612 145.992 615.612 M145.992 611.908 Q151.802 611.908 154.857 616.515 Q157.936 621.098 157.936 629.848 Q157.936 638.575 154.857 643.181 Q151.802 647.765 145.992 647.765 Q140.181 647.765 137.103 643.181 Q134.047 638.575 134.047 629.848 Q134.047 621.098 137.103 616.515 Q140.181 611.908 145.992 611.908 Z" fill="#000000" fill-rule="evenodd" fill-opacity="1" /><path clip-path="url(#clip040)" d="M95.7836 305.968 L112.103 305.968 L112.103 309.903 L90.1586 309.903 L90.1586 305.968 Q92.8206 303.213 97.4039 298.583 Q102.01 293.931 103.191 292.588 Q105.436 290.065 106.316 288.329 Q107.219 286.569 107.219 284.88 Q107.219 282.125 105.274 280.389 Q103.353 278.653 100.251 278.653 Q98.0521 278.653 95.5984 279.417 Q93.1678 280.181 90.3901 281.732 L90.3901 277.009 Q93.2141 275.875 95.6678 275.296 Q98.1215 274.718 100.159 274.718 Q105.529 274.718 108.723 277.403 Q111.918 280.088 111.918 284.579 Q111.918 286.708 111.108 288.63 Q110.321 290.528 108.214 293.12 Q107.635 293.792 104.534 297.009 Q101.432 300.204 95.7836 305.968 Z" fill="#000000" fill-rule="evenodd" fill-opacity="1" /><path clip-path="url(#clip040)" d="M121.918 304.023 L126.802 304.023 L126.802 309.903 L121.918 309.903 L121.918 304.023 Z" fill="#000000" fill-rule="evenodd" fill-opacity="1" /><path clip-path="url(#clip040)" d="M137.033 275.343 L155.39 275.343 L155.39 279.278 L141.316 279.278 L141.316 287.75 Q142.334 287.403 143.353 287.241 Q144.371 287.056 145.39 287.056 Q151.177 287.056 154.556 290.227 Q157.936 293.398 157.936 298.815 Q157.936 304.393 154.464 307.495 Q150.992 310.574 144.672 310.574 Q142.496 310.574 140.228 310.204 Q137.982 309.833 135.575 309.092 L135.575 304.393 Q137.658 305.528 139.881 306.083 Q142.103 306.639 144.58 306.639 Q148.584 306.639 150.922 304.532 Q153.26 302.426 153.26 298.815 Q153.26 295.204 150.922 293.097 Q148.584 290.991 144.58 290.991 Q142.705 290.991 140.83 291.407 Q138.978 291.824 137.033 292.704 L137.033 275.343 Z" fill="#000000" fill-rule="evenodd" fill-opacity="1" /><polyline clip-path="url(#clip042)" style="stroke:#009af9; stroke-linecap:butt; stroke-linejoin:round; stroke-width:4; stroke-opacity:1; fill:none" points="
  255.035,578.564 256.03,575.535 257.026,572.993 258.021,569.918 259.016,567.271 260.012,564.151 261.007,561.492 262.003,558.405 262.998,555.795 263.993,552.785 
  264.989,550.253 265.984,547.339 266.98,544.894 267.975,542.078 268.971,539.717 269.966,536.992 270.961,534.705 271.957,532.06 272.952,529.838 273.948,527.261 
  274.943,525.093 275.938,522.574 276.934,520.453 277.929,517.986 278.925,515.905 279.92,513.483 280.916,511.436 281.911,509.054 282.906,507.037 283.902,504.688 
  284.897,502.696 285.893,500.376 286.888,498.404 287.883,496.108 288.879,494.151 289.874,491.873 290.87,489.927 291.865,487.663 292.861,485.723 293.856,483.467 
  294.851,481.529 295.847,479.279 296.842,477.339 297.838,475.089 298.833,473.143 299.828,470.89 300.824,468.936 301.819,466.677 302.815,464.71 303.81,462.441 
  304.806,460.459 305.801,458.178 306.796,456.179 307.792,453.883 308.787,451.863 309.783,449.55 310.778,447.508 311.773,445.175 312.769,443.109 313.764,440.754 
  314.76,438.663 315.755,436.285 316.751,434.166 317.746,431.763 318.741,429.616 319.737,427.187 320.732,425.011 321.728,422.555 322.723,420.349 323.718,417.866 
  324.714,415.629 325.709,413.117 326.705,410.849 327.7,408.309 328.696,406.01 329.691,403.442 330.686,401.111 331.682,398.515 332.677,396.154 333.673,393.529 
  334.668,391.137 335.663,388.484 336.659,386.063 337.654,383.383 338.65,380.933 339.645,378.227 340.641,375.749 341.636,373.018 342.631,370.513 343.627,367.757 
  344.622,365.226 345.618,362.448 346.613,359.893 347.608,357.093 348.604,354.515 349.599,351.696 350.595,349.097 351.59,346.258 352.586,343.64 353.581,340.785 
  354.576,338.149 355.572,335.28 356.567,332.628 357.563,329.746 358.558,327.081 359.553,324.188 360.549,321.511 361.544,318.61 362.54,315.924 363.535,313.015 
  364.531,310.322 365.526,307.41 366.521,304.712 367.517,301.797 368.512,299.097 369.508,296.183 370.503,293.482 371.498,290.571 372.494,287.872 373.489,284.966 
  374.485,282.272 375.48,279.372 376.476,276.686 377.471,273.796 378.466,271.119 379.462,268.241 380.457,265.576 381.453,262.713 382.448,260.061 383.443,257.215 
  384.439,254.581 385.434,251.754 386.43,249.138 387.425,246.332 388.421,243.738 389.416,240.956 390.411,238.385 391.407,235.629 392.402,233.084 393.398,230.356 
  394.393,227.839 395.388,225.141 396.384,222.654 397.379,219.989 398.375,217.534 399.37,214.903 400.366,212.482 401.361,209.887 402.356,207.502 403.352,204.946 
  404.347,202.599 405.343,200.082 406.338,197.775 407.333,195.3 408.329,193.034 409.324,190.603 410.32,188.379 411.315,185.993 412.311,183.814 413.306,181.474 
  414.301,179.341 415.297,177.049 416.292,174.964 417.288,172.72 418.283,170.683 419.278,168.49 420.274,166.503 421.269,164.361 422.265,162.425 423.26,160.335 
  424.256,158.451 425.251,156.415 426.246,154.583 427.242,152.601 428.237,150.822 429.233,148.895 430.228,147.171 431.223,145.299 432.219,143.63 433.214,141.815 
  434.21,140.2 435.205,138.441 436.201,136.883 437.196,135.181 438.191,133.679 439.187,132.034 440.182,130.588 441.178,129.001 442.173,127.612 443.168,126.082 
  444.164,124.749 445.159,123.277 446.155,122.001 447.15,120.586 448.146,119.367 449.141,118.01 450.136,116.847 451.132,115.547 452.127,114.441 453.123,113.198 
  454.118,112.148 455.113,110.962 456.109,109.967 457.104,108.837 458.1,107.898 459.095,106.824 460.091,105.94 461.086,104.921 462.081,104.092 463.077,103.128 
  464.072,102.352 465.068,101.443 466.063,100.72 467.058,99.8649 468.054,99.1948 469.049,98.3926 470.045,97.7745 471.04,97.0247 472.036,96.4579 473.031,95.7597 
  474.026,95.2435 475.022,94.5963 476.017,94.1299 477.013,93.5329 478.008,93.1155 479.003,92.5679 479.999,92.1988 480.994,91.6997 481.99,91.3781 482.985,90.9268 
  483.981,90.6518 484.976,90.2475 485.971,90.0184 486.967,89.6601 487.962,89.476 488.958,89.1631 489.953,89.0232 490.948,88.7548 491.944,88.6583 492.939,88.4335 
  493.935,88.3797 494.93,88.1977 495.926,88.1857 496.921,88.0458 497.916,88.0748 498.912,87.9763 499.907,88.0455 500.903,87.9875 501.898,88.0963 502.893,88.0781 
  503.889,88.2257 504.884,88.2466 505.88,88.4324 506.875,88.4917 507.871,88.7148 508.866,88.8119 509.861,89.0719 510.857,89.2061 511.852,89.5023 512.848,89.673 
  513.843,90.0048 514.838,90.2115 515.834,90.5784 516.829,90.8205 517.825,91.222 518.82,91.499 519.816,91.9346 520.811,92.246 521.806,92.7153 522.802,93.0607 
  523.797,93.5633 524.793,93.9424 525.788,94.4778 526.783,94.8902 527.779,95.4581 528.774,95.9035 529.77,96.5037 530.765,96.9817 531.761,97.614 532.756,98.1244 
  533.751,98.7885 534.747,99.3312 535.742,100.027 536.738,100.602 537.733,101.329 538.728,101.935 539.724,102.694 540.719,103.332 541.715,104.122 542.71,104.792 
  543.706,105.613 544.701,106.315 545.696,107.167 546.692,107.9 547.687,108.783 548.683,109.549 549.678,110.463 550.673,111.26 551.669,112.206 552.664,113.034 
  553.66,114.011 554.655,114.872 555.651,115.88 556.646,116.773 557.641,117.813 558.637,118.738 559.632,119.809 560.628,120.766 561.623,121.87 562.618,122.859 
  563.614,123.995 564.609,125.017 565.605,126.184 566.6,127.239 567.596,128.439 568.591,129.527 569.586,130.76 570.582,131.88 571.577,133.146 572.573,134.3 
  573.568,135.598 574.563,136.786 575.559,138.117 576.554,139.339 577.55,140.704 578.545,141.959 579.541,143.357 580.536,144.647 581.531,146.079 582.527,147.402 
  583.522,148.868 584.518,150.226 585.513,151.726 586.508,153.119 587.504,154.653 588.499,156.08 589.495,157.649 590.49,159.111 591.486,160.714 592.481,162.211 
  593.476,163.849 594.472,165.381 595.467,167.053 596.463,168.62 597.458,170.327 598.453,171.929 599.449,173.671 600.444,175.308 601.44,177.084 602.435,178.756 
  603.431,180.567 604.426,182.274 605.421,184.12 606.417,185.862 607.412,187.742 608.408,189.519 609.403,191.434 610.398,193.246 611.394,195.195 612.389,197.041 
  613.385,199.024 614.38,200.905 615.376,202.922 616.371,204.837 617.366,206.888 618.362,208.836 619.357,210.921 620.353,212.903 621.348,215.02 622.343,217.036 
  623.339,219.186 624.334,221.235 625.33,223.418 626.325,225.499 627.321,227.714 628.316,229.828 629.311,232.074 630.307,234.22 631.302,236.498 632.298,238.674 
  633.293,240.983 634.288,243.191 635.284,245.529 636.279,247.768 637.275,250.136 638.27,252.404 639.266,254.802 640.261,257.1 641.256,259.526 642.252,261.852 
  643.247,264.307 644.243,266.661 645.238,269.143 646.233,271.525 647.229,274.034 648.224,276.443 649.22,278.978 650.215,281.413 651.211,283.974 652.206,286.435 
  653.201,289.021 654.197,291.506 655.192,294.117 656.188,296.627 657.183,299.261 658.178,301.794 659.174,304.451 660.169,307.008 661.165,309.687 662.16,312.266 
  663.156,314.967 664.151,317.567 665.146,320.289 666.142,322.91 667.137,325.652 668.133,328.294 669.128,331.056 670.123,333.717 671.119,336.498 672.114,339.178 
  673.11,341.977 674.105,344.675 675.101,347.492 676.096,350.208 677.091,353.042 678.087,355.775 679.082,358.626 680.078,361.375 681.073,364.242 682.068,367.007 
  683.064,369.889 684.059,372.67 685.055,375.566 686.05,378.362 687.046,381.273 688.041,384.083 689.036,387.008 690.032,389.832 691.027,392.77 692.023,395.607 
  693.018,398.558 694.013,401.408 695.009,404.372 696.004,407.235 697,410.21 697.995,413.086 698.991,416.073 699.986,418.96 700.981,421.959 701.977,424.858 
  702.972,427.868 703.968,430.778 704.963,433.8 705.958,436.721 706.954,439.753 707.949,442.686 708.945,445.729 709.94,448.672 710.936,451.725 711.931,454.679 
  712.926,457.743 713.922,460.708 714.917,463.783 715.913,466.758 716.908,469.843 717.903,472.829 718.899,475.924 719.894,478.921 720.89,482.027 721.885,485.035 
  722.881,488.151 723.876,491.17 724.871,494.297 725.867,497.327 726.862,500.465 727.858,503.506 728.853,506.655 729.848,509.707 730.844,512.868 731.839,515.932 
  732.835,519.104 733.83,522.18 734.826,525.364 735.821,528.453 736.816,531.649 737.812,534.75 738.807,537.959 739.803,541.073 740.798,544.294 741.793,547.421 
  742.789,550.656 743.784,553.797 744.78,557.045 745.775,560.2 746.771,563.463 747.766,566.632 748.761,569.909 749.757,573.094 750.752,576.386 751.748,579.585 
  752.743,582.893 753.738,586.108 754.734,589.431 755.729,592.663 756.725,596.002 757.72,599.251 758.716,602.607 759.711,605.872 760.706,609.246 761.702,612.529 
  762.697,615.92 763.693,619.221 764.688,622.629 765.683,625.949 766.679,629.376 767.674,632.715 768.67,636.161 769.665,639.518 770.661,642.984 771.656,646.361 
  772.651,649.846 773.647,653.243 774.642,656.748 775.638,660.166 776.633,663.691 777.628,667.129 778.624,670.675 779.619,674.134 780.615,677.7 781.61,681.181 
  782.606,684.768 783.601,688.27 784.596,691.878 785.592,695.401 786.587,699.032 787.583,702.576 788.578,706.228 789.573,709.794 790.569,713.467 791.564,717.055 
  792.56,720.75 793.555,724.36 794.551,728.076 795.546,731.708 796.541,735.445 797.537,739.099 798.532,742.858 799.528,746.532 800.523,750.312 801.518,754.008 
  802.514,757.809 803.509,761.525 804.505,765.347 805.5,769.084 806.496,772.926 807.491,776.683 808.486,780.544 809.482,784.321 810.477,788.202 811.473,791.998 
  812.468,795.898 813.463,799.713 814.459,803.63 815.454,807.463 816.45,811.398 817.445,815.248 818.441,819.2 819.436,823.067 820.431,827.035 821.427,830.917 
  822.422,834.9 823.418,838.797 824.413,842.794 825.408,846.705 826.404,850.716 827.399,854.639 828.395,858.662 829.39,862.597 830.386,866.631 831.381,870.577 
  832.376,874.62 833.372,878.576 834.367,882.628 835.363,886.591 836.358,890.651 837.353,894.621 838.349,898.686 839.344,902.662 840.34,906.732 841.335,910.713 
  842.331,914.786 843.326,918.768 844.321,922.843 845.317,926.827 846.312,930.902 847.308,934.885 848.303,938.959 849.298,942.94 850.294,947.01 851.289,950.988 
  852.285,955.053 853.28,959.025 854.276,963.084 855.271,967.049 856.266,971.1 857.262,975.056 858.257,979.097 859.253,983.042 860.248,987.071 861.243,991.004 
  862.239,995.019 863.234,998.938 864.23,1002.94 865.225,1006.84 866.221,1010.82 867.216,1149.58 868.211,1153.55 869.207,1157.41 870.202,1161.35 871.198,1165.19 
  872.193,1169.11 873.188,1172.93 874.184,1176.82 875.179,1180.62 876.175,1184.48 877.17,1188.25 878.166,1192.09 879.161,1195.82 880.156,1199.63 881.152,1203.33 
  882.147,1207.11 883.143,1210.78 884.138,1214.52 885.133,1218.15 886.129,1221.86 887.124,1225.45 888.12,1229.12 889.115,1232.68 890.111,1236.3 891.106,1239.82 
  892.101,1243.4 893.097,1246.88 894.092,1250.42 895.088,1253.85 896.083,1257.34 897.078,1260.73 898.074,1264.17 899.069,1267.51 900.065,1270.91 901.06,1274.19 
  902.056,1277.54 903.051,1280.78 904.046,1284.07 905.042,1287.26 906.037,1290.5 907.033,1293.63 908.028,1296.82 909.023,1299.89 910.019,1303.02 911.014,1306.03 
  912.01,1309.11 913.005,1312.07 914.001,1315.08 914.996,1317.98 915.991,1320.93 916.987,1323.77 917.982,1326.66 918.978,1329.44 919.973,1332.27 920.968,1334.98 
  921.964,1337.74 922.959,1340.39 923.955,1343.09 924.95,1345.67 925.946,1348.31 926.941,1350.83 927.936,1353.39 928.932,1355.84 929.927,1358.35 930.923,1360.73 
  931.918,1363.16 932.913,1365.48 933.909,1367.84 934.904,1370.09 935.9,1372.38 936.895,1374.56 937.891,1376.78 938.886,1378.89 939.881,1381.05 940.877,1383.08 
  941.872,1385.17 942.868,1387.13 943.863,1389.15 944.858,1391.04 945.854,1392.99 946.849,1394.81 947.845,1396.68 948.84,1398.44 949.836,1400.24 950.831,1401.92 
  951.826,1403.65 952.822,1405.27 953.817,1406.93 954.813,1408.47 955.808,1410.06 956.803,1411.53 957.799,1413.05 958.794,1414.45 959.79,1415.9 960.785,1417.23 
  961.781,1418.61 962.776,1419.87 963.771,1421.18 964.767,1422.37 965.762,1423.61 966.758,1424.74 967.753,1425.91 968.748,1426.96 969.744,1428.07 970.739,1429.06 
  971.735,1430.1 972.73,1431.02 973.726,1431.99 974.721,1432.85 975.716,1433.75 976.712,1434.55 977.707,1435.39 978.703,1436.11 979.698,1436.89 980.693,1437.56 
  981.689,1438.27 982.684,1438.87 983.68,1439.53 984.675,1440.07 985.671,1440.66 986.666,1441.14 987.661,1441.67 988.657,1442.09 989.652,1442.57 990.648,1442.93 
  991.643,1443.34 992.638,1443.65 993.634,1444.01 994.629,1444.25 995.625,1444.56 996.62,1444.75 997.616,1445 998.611,1445.14 999.606,1445.33 1000.6,1445.42 
  1001.6,1445.56 1002.59,1445.6 1003.59,1445.69 1004.58,1445.67 1005.58,1445.72 1006.57,1445.65 1007.57,1445.64 1008.57,1445.53 1009.56,1445.48 1010.56,1445.32 
  1011.55,1445.21 1012.55,1445.01 1013.54,1444.86 1014.54,1444.61 1015.53,1444.42 1016.53,1444.13 1017.52,1443.89 1018.52,1443.56 1019.51,1443.28 1020.51,1442.9 
  1021.51,1442.59 1022.5,1442.17 1023.5,1441.81 1024.49,1441.35 1025.49,1440.96 1026.48,1440.46 1027.48,1440.03 1028.47,1439.5 1029.47,1439.03 1030.46,1438.46 
  1031.46,1437.96 1032.46,1437.35 1033.45,1436.81 1034.45,1436.17 1035.44,1435.6 1036.44,1434.93 1037.43,1434.32 1038.43,1433.62 1039.42,1432.98 1040.42,1432.25 
  1041.41,1431.58 1042.41,1430.81 1043.4,1430.11 1044.4,1429.31 1045.4,1428.58 1046.39,1427.76 1047.39,1427 1048.38,1426.14 1049.38,1425.36 1050.37,1424.47 
  1051.37,1423.66 1052.36,1422.75 1053.36,1421.91 1054.35,1420.97 1055.35,1420.1 1056.35,1419.14 1057.34,1418.24 1058.34,1417.25 1059.33,1416.33 1060.33,1415.32 
  1061.32,1414.37 1062.32,1413.33 1063.31,1412.36 1064.31,1411.29 1065.3,1410.3 1066.3,1409.21 1067.29,1408.19 1068.29,1407.07 1069.29,1406.03 1070.28,1404.89 
  1071.28,1403.82 1072.27,1402.66 1073.27,1401.56 1074.26,1400.38 1075.26,1399.26 1076.25,1398.05 1077.25,1396.91 1078.24,1395.68 1079.24,1394.51 1080.24,1393.26 
  1081.23,1392.07 1082.23,1390.79 1083.22,1389.58 1084.22,1388.27 1085.21,1387.03 1086.21,1385.71 1087.2,1384.45 1088.2,1383.09 1089.19,1381.81 1090.19,1380.43 
  1091.18,1379.12 1092.18,1377.72 1093.18,1376.39 1094.17,1374.96 1095.17,1373.61 1096.16,1372.16 1097.16,1370.77 1098.15,1369.3 1099.15,1367.89 1100.14,1366.39 
  1101.14,1364.95 1102.13,1363.43 1103.13,1361.97 1104.13,1360.41 1105.12,1358.93 1106.12,1357.35 1107.11,1355.84 1108.11,1354.23 1109.1,1352.69 1110.1,1351.06 
  1111.09,1349.49 1112.09,1347.83 1113.08,1346.23 1114.08,1344.54 1115.07,1342.92 1116.07,1341.2 1117.07,1339.55 1118.06,1337.81 1119.06,1336.13 1120.05,1334.35 
  1121.05,1332.64 1122.04,1330.84 1123.04,1329.1 1124.03,1327.27 1125.03,1325.5 1126.02,1323.63 1127.02,1321.83 1128.02,1319.94 1129.01,1318.11 1130.01,1316.18 
  1131,1314.32 1132,1312.36 1132.99,1310.47 1133.99,1308.48 1134.98,1306.56 1135.98,1304.54 1136.97,1302.58 1137.97,1300.53 1138.96,1298.54 1139.96,1296.45 
  1140.96,1294.43 1141.95,1292.31 1142.95,1290.26 1143.94,1288.1 1144.94,1286.02 1145.93,1283.83 1146.93,1281.71 1147.92,1279.49 1148.92,1277.34 1149.91,1275.09 
  1150.91,1272.9 1151.91,1270.61 1152.9,1268.39 1153.9,1266.07 1154.89,1263.81 1155.89,1261.46 1156.88,1259.17 1157.88,1256.78 1158.87,1254.45 1159.87,1252.03 
  1160.86,1249.67 1161.86,1247.22 1162.85,1244.82 1163.85,1242.34 1164.85,1239.91 1165.84,1237.38 1166.84,1234.92 1167.83,1232.37 1168.83,1229.87 1169.82,1227.28 
  1170.82,1224.75 1171.81,1222.13 1172.81,1219.56 1173.8,1216.91 1174.8,1214.31 1175.8,1211.62 1176.79,1208.99 1177.79,1206.27 1178.78,1203.61 1179.78,1200.85 
  1180.77,1198.16 1181.77,1195.37 1182.76,1192.64 1183.76,1189.82 1184.75,1187.07 1185.75,1184.22 1186.74,1181.43 1187.74,1178.55 1188.74,1175.73 1189.73,1172.81 
  1190.73,1169.97 1191.72,1167.02 1192.72,1164.14 1193.71,1161.17 1194.71,1158.27 1195.7,1155.27 1196.7,1152.33 1197.69,1149.3 1198.69,1146.34 1199.69,1143.28 
  1200.68,1140.29 1201.68,1137.21 1202.67,1134.19 1203.67,1131.09 1204.66,1128.04 1205.66,1124.91 1206.65,1121.84 1207.65,1118.69 1208.64,1115.59 1209.64,1112.41 
  1210.63,1109.3 1211.63,1106.09 1212.63,1102.96 1213.62,1099.73 1214.62,1096.57 1215.61,1093.32 1216.61,1090.14 1217.6,1086.87 1218.6,1083.67 1219.59,1080.39 
  1220.59,1077.17 1221.58,1073.86 1222.58,1070.62 1223.58,1067.3 1224.57,1064.05 1225.57,1060.71 1226.56,1057.44 1227.56,1054.08 1228.55,1050.8 1229.55,1047.42 
  1230.54,1044.12 1231.54,1040.74 1232.53,1037.43 1233.53,1034.03 1234.52,1030.7 1235.52,1027.3 1236.52,1023.96 1237.51,1020.54 1238.51,1017.19 1239.5,1013.76 
  1240.5,1010.41 1241.49,1006.97 1242.49,1003.6 1243.48,1000.16 1244.48,996.783 1245.47,993.329 1246.47,989.951 1247.47,986.492 1248.46,983.107 1249.46,979.643 
  1250.45,976.255 1251.45,972.787 1252.44,969.395 1253.44,965.924 1254.43,962.529 1255.43,959.056 1256.42,955.66 1257.42,952.186 1258.41,948.789 1259.41,945.315 
  1260.41,941.919 1261.4,938.445 1262.4,935.05 1263.39,931.579 1264.39,928.186 1265.38,924.717 1266.38,921.327 1267.37,917.861 1268.37,914.475 1269.36,911.014 
  1270.36,907.633 1271.36,904.177 1272.35,900.801 1273.35,897.351 1274.34,893.982 1275.34,890.539 1276.33,887.177 1277.33,883.741 1278.32,880.387 1279.32,876.96 
  1280.31,873.614 1281.31,870.196 1282.3,866.86 1283.3,863.452 1284.3,860.126 1285.29,856.728 1286.29,853.413 1287.28,850.026 1288.28,846.722 1289.27,843.347 
  1290.27,840.055 1291.26,836.692 1292.26,833.413 1293.25,830.064 1294.25,826.798 1295.25,823.461 1296.24,820.209 1297.24,816.887 1298.23,813.649 1299.23,810.341 
  1300.22,807.118 1301.22,803.825 1302.21,800.617 1303.21,797.34 1304.2,794.148 1305.2,790.886 1306.19,787.71 1307.19,784.464 1308.19,781.305 1309.18,778.076 
  1310.18,774.933 1311.17,771.721 1312.17,768.595 1313.16,765.4 1314.16,762.292 1315.15,759.115 1316.15,756.024 1317.14,752.865 1318.14,749.792 1319.14,746.651 
  1320.13,743.596 1321.13,740.473 1322.12,737.437 1323.12,734.332 1324.11,731.314 1325.11,728.228 1326.1,725.229 1327.1,722.162 1328.09,719.182 1329.09,716.133 
  1330.08,713.172 1331.08,710.143 1332.08,707.201 1333.07,704.19 1334.07,701.267 1335.06,698.276 1336.06,695.372 1337.05,692.4 1338.05,689.516 1339.04,686.563 
  1340.04,683.698 1341.03,680.765 1342.03,677.919 1343.03,675.004 1344.02,672.178 1345.02,669.283 1346.01,666.476 1347.01,663.6 1348,660.812 1349,657.956 
  1349.99,655.187 1350.99,652.35 1351.98,649.6 1352.98,646.782 1353.97,644.052 1354.97,641.253 1355.97,638.542 1356.96,635.762 1357.96,633.07 1358.95,630.309 
  1359.95,627.636 1360.94,624.895 1361.94,622.241 1362.93,619.518 1363.93,616.883 1364.92,614.179 1365.92,611.562 1366.92,608.877 1367.91,606.28 1368.91,603.614 
  1369.9,601.035 1370.9,598.387 1371.89,595.827 1372.89,593.198 1373.88,590.657 1374.88,588.047 1375.87,585.524 1376.87,582.933 1377.86,580.429 1378.86,577.856 
  1379.86,575.371 1380.85,572.817 1381.85,570.35 1382.84,567.815 1383.84,565.367 1384.83,562.85 1385.83,560.421 1386.82,557.923 1387.82,555.512 1388.81,553.033 
  1389.81,550.641 1390.81,548.181 1391.8,545.808 1392.8,543.367 1393.79,541.013 1394.79,538.59 1395.78,536.256 1396.78,533.853 1397.77,531.538 1398.77,529.154 
  1399.76,526.858 1400.76,524.493 1401.75,522.217 1402.75,519.873 1403.75,517.617 1404.74,515.292 1405.74,513.056 1406.73,510.751 1407.73,508.535 1408.72,506.251 
  1409.72,504.056 1410.71,501.792 1411.71,499.618 1412.7,497.375 1413.7,495.222 1414.7,493.001 1415.69,490.869 1416.69,488.67 1417.68,486.56 1418.68,484.383 
  1419.67,482.296 1420.67,480.141 1421.66,478.076 1422.66,475.944 1423.65,473.903 1424.65,471.794 1425.64,469.777 1426.64,467.692 1427.64,465.699 1428.63,463.638 
  1429.63,461.67 1430.62,459.634 1431.62,457.691 1432.61,455.681 1433.61,453.764 1434.6,451.78 1435.6,449.889 1436.59,447.931 1437.59,446.067 1438.59,444.138 
  1439.58,442.301 1440.58,440.399 1441.57,438.591 1442.57,436.718 1443.56,434.939 1444.56,433.095 1445.55,431.345 1446.55,429.531 1447.54,427.812 1448.54,426.029 
  1449.53,424.341 1450.53,422.589 1451.53,420.933 1452.52,419.213 1453.52,417.59 1454.51,415.903 1455.51,414.313 1456.5,412.66 1457.5,411.104 1458.49,409.486 
  1459.49,407.965 1460.48,406.382 1461.48,404.897 1462.48,403.35 1463.47,401.901 1464.47,400.391 1465.46,398.98 1466.46,397.507 1467.45,396.134 1468.45,394.7 
  1469.44,393.367 1470.44,391.972 1471.43,390.678 1472.43,389.323 1473.42,388.07 1474.42,386.756 1475.42,385.544 1476.41,384.273 1477.41,383.103 1478.4,381.874 
  1479.4,380.747 1480.39,379.561 1481.39,378.478 1482.38,377.336 1483.38,376.298 1484.37,375.201 1485.37,374.208 1486.37,373.157 1487.36,372.21 1488.36,371.205 
  1489.35,370.305 1490.35,369.347 1491.34,368.494 1492.34,367.584 1493.33,366.779 1494.33,365.918 1495.32,365.162 1496.32,364.349 1497.31,363.643 1498.31,362.88 
  1499.31,362.224 1500.3,361.511 1501.3,360.905 1502.29,360.243 1503.29,359.689 1504.28,359.078 1505.28,358.575 1506.27,358.016 1507.27,357.565 1508.26,357.059 
  1509.26,356.661 1510.26,356.207 1511.25,355.861 1512.25,355.46 1513.24,355.168 1514.24,354.821 1515.23,354.582 1516.23,354.288 1517.22,354.104 1518.22,353.864 
  1519.21,353.733 1520.21,353.547 1521.2,353.471 1522.2,353.339 1523.2,353.317 1524.19,353.24 1525.19,353.272 1526.18,353.249 1527.18,353.336 1528.17,353.367 
  1529.17,353.508 1530.16,353.594 1531.16,353.79 1532.15,353.93 1533.15,354.18 1534.15,354.374 1535.14,354.678 1536.14,354.926 1537.13,355.283 1538.13,355.585 
  1539.12,355.996 1540.12,356.351 1541.11,356.816 1542.11,357.224 1543.1,357.741 1544.1,358.201 1545.09,358.771 1546.09,359.284 1547.09,359.905 1548.08,360.469 
  1549.08,361.142 1550.07,361.757 1551.07,362.481 1552.06,363.146 1553.06,363.919 1554.05,364.634 1555.05,365.457 1556.04,366.221 1557.04,367.093 1558.04,367.905 
  1559.03,368.824 1560.03,369.683 1561.02,370.65 1562.02,371.555 1563.01,372.567 1564.01,373.518 1565,374.576 1566,375.571 1566.99,376.673 1567.99,377.712 
  1568.98,378.857 1569.98,379.938 1570.98,381.124 1571.97,382.247 1572.97,383.475 1573.96,384.637 1574.96,385.905 1575.95,387.106 1576.95,388.412 1577.94,389.652 
  1578.94,390.995 1579.93,392.271 1580.93,393.65 1581.93,394.961 1582.92,396.375 1583.92,397.72 1584.91,399.167 1585.91,400.546 1586.9,402.025 1587.9,403.434 
  1588.89,404.944 1589.89,406.384 1590.88,407.923 1591.88,409.391 1592.87,410.958 1593.87,412.453 1594.87,414.047 1595.86,415.568 1596.86,417.187 1597.85,418.732 
  1598.85,420.375 1599.84,421.943 1600.84,423.608 1601.83,425.198 1602.83,426.884 1603.82,428.493 1604.82,430.199 1605.82,431.827 1606.81,433.551 1607.81,435.196 
  1608.8,436.937 1609.8,438.598 1610.79,440.353 1611.79,442.03 1612.78,443.799 1613.78,445.488 1614.77,447.27 1615.77,448.971 1616.76,450.764 1617.76,452.475 
  1618.76,454.278 1619.75,455.998 1620.75,457.81 1621.74,459.538 1622.74,461.357 1623.73,463.092 1624.73,464.917 1625.72,466.657 1626.72,468.487 1627.71,470.231 
  1628.71,472.065 1629.71,473.812 1630.7,475.649 1631.7,477.398 1632.69,479.236 1633.69,480.987 1634.68,482.825 1635.68,484.576 1636.67,486.414 1637.67,488.164 
  1638.66,490.001 1639.66,491.748 1640.65,493.583 1641.65,495.328 1642.65,497.16 1643.64,498.901 1644.64,500.729 1645.63,502.467 1646.63,504.29 1647.62,506.023 
  1648.62,507.841 1649.61,509.568 1650.61,511.381 1651.6,513.103 1652.6,514.909 1653.6,516.624 1654.59,518.425 1655.59,520.132 1656.58,521.926 1657.58,523.626 
  1658.57,525.413 1659.57,527.106 1660.56,528.885 1661.56,530.57 1662.55,532.342 1663.55,534.019 1664.54,535.783 1665.54,537.453 1666.54,539.209 1667.53,540.871 
  1668.53,542.619 1669.52,544.273 1670.52,546.014 1671.51,547.66 1672.51,549.394 1673.5,551.033 1674.5,552.759 1675.49,554.391 1676.49,556.111 1677.49,557.736 
  1678.48,559.449 1679.48,561.068 1680.47,562.775 1681.47,564.388 1682.46,566.089 1683.46,567.697 1684.45,569.393 1685.45,570.996 1686.44,572.689 1687.44,574.288 
  1688.43,575.976 1689.43,577.572 1690.43,579.258 1691.42,580.851 1692.42,582.535 1693.41,584.126 1694.41,585.809 1695.4,587.399 1696.4,589.082 1697.39,590.673 
  1698.39,592.356 1699.38,593.947 1700.38,595.632 1701.38,597.226 1702.37,598.914 1703.37,600.511 1704.36,602.202 1705.36,603.803 1706.35,605.5 1707.35,607.106 
  1708.34,608.809 1709.34,610.422 1710.33,612.132 1711.33,613.753 1712.32,615.472 1713.32,617.101 1714.32,618.83 1715.31,620.47 1716.31,622.209 1717.3,623.86 
  1718.3,625.612 1719.29,627.276 1720.29,629.041 1721.28,630.719 1722.28,497.623 1723.27,499.316 1724.27,501.112 1725.27,502.822 1726.26,504.635 1727.26,506.363 
  1728.25,508.195 1729.25,509.942 1730.24,511.794 1731.24,513.561 1732.23,515.434 1733.23,517.223 1734.22,519.119 1735.22,520.93 1736.21,522.849 1737.21,524.685 
  1738.21,526.629 1739.2,528.49 1740.2,530.46 1741.19,532.347 1742.19,534.344 1743.18,536.259 1744.18,538.285 1745.17,540.228 1746.17,542.283 1747.16,544.256 
  1748.16,546.34 1749.16,548.344 1750.15,550.46 1751.15,552.495 1752.14,554.644 1753.14,556.711 1754.13,558.893 1755.13,560.993 1756.12,563.209 1757.12,565.344 
  1758.11,567.593 1759.11,569.763 1760.1,572.048 1761.1,574.253 1762.1,576.574 1763.09,578.815 1764.09,581.173 1765.08,583.451 1766.08,585.845 1767.07,588.16 
  1768.07,590.592 1769.06,592.943 1770.06,595.413 1771.05,597.803 1772.05,600.31 1773.05,602.738 1774.04,605.283 1775.04,607.749 1776.03,610.333 1777.03,612.836 
  1778.02,615.459 1779.02,618 1780.01,620.661 1781.01,623.24 1782,625.939 1783,628.557 1783.99,631.293 1784.99,633.948 1785.99,636.722 1786.98,639.414 
  1787.98,642.226 1788.97,644.955 1789.97,647.803 1790.96,650.568 1791.96,653.452 1792.95,656.253 1793.95,659.173 1794.94,662.009 1795.94,664.963 1796.94,667.833 
  1797.93,670.822 1798.93,673.726 1799.92,676.748 1800.92,679.683 1801.91,682.738 1802.91,685.705 1803.9,688.791 1804.9,691.788 1805.89,694.904 1806.89,697.931 
  1807.88,701.076 1808.88,704.131 1809.88,707.303 1810.87,710.385 1811.87,713.583 1812.86,716.691 1813.86,719.915 1814.85,723.046 1815.85,726.293 1816.84,729.447 
  1817.84,732.716 1818.83,735.892 1819.83,739.181 1820.83,742.376 1821.82,745.685 1822.82,748.897 1823.81,752.223 1824.81,755.451 1825.8,758.793 1826.8,762.036 
  1827.79,765.391 1828.79,768.647 1829.78,772.014 1830.78,775.28 1831.77,778.658 1832.77,781.933 1833.77,785.319 1834.76,788.602 1835.76,791.994 1836.75,795.282 
  1837.75,798.679 1838.74,801.97 1839.74,805.369 1840.73,808.662 1841.73,812.062 1842.72,815.354 1843.72,818.753 1844.72,822.043 1845.71,825.438 1846.71,828.724 
  1847.7,832.114 1848.7,835.393 1849.69,838.776 1850.69,842.047 1851.68,845.421 1852.68,848.682 1853.67,852.045 1854.67,855.293 1855.66,858.644 1856.66,861.878 
  1857.66,865.214 1858.65,868.432 1859.65,871.751 1860.64,874.951 1861.64,878.252 1862.63,881.432 1863.63,884.713 1864.62,887.872 1865.62,891.13 1866.61,894.266 
  1867.61,897.501 1868.61,900.612 1869.6,903.821 1870.6,906.905 1871.59,910.088 1872.59,913.144 1873.58,916.297 1874.58,919.323 1875.57,922.447 1876.57,925.442 
  1877.56,928.533 1878.56,931.496 1879.55,934.554 1880.55,937.482 1881.55,940.506 1882.54,943.399 1883.54,946.387 1884.53,949.243 1885.53,952.194 1886.52,955.012 
  1887.52,957.925 1888.51,960.704 1889.51,963.578 1890.5,966.317 1891.5,969.151 1892.5,971.848 1893.49,974.641 1894.49,977.297 1895.48,980.047 1896.48,982.66 
  1897.47,985.367 1898.47,987.937 1899.46,990.601 1900.46,993.126 1901.45,995.745 1902.45,998.226 1903.44,1000.8 1904.44,1003.24 1905.44,1005.77 1906.43,1008.15 
  1907.43,1010.64 1908.42,1012.98 1909.42,1015.42 1910.41,1017.72 1911.41,1020.11 1912.4,1022.36 1913.4,1024.7 1914.39,1026.91 1915.39,1029.21 1916.39,1031.36 
  1917.38,1033.62 1918.38,1035.72 1919.37,1037.93 1920.37,1039.99 1921.36,1042.15 1922.36,1044.17 1923.35,1046.28 1924.35,1048.25 1925.34,1050.32 1926.34,1052.24 
  1927.33,1054.27 1928.33,1056.14 1929.33,1058.12 1930.32,1059.95 1931.32,1061.89 1932.31,1063.67 1933.31,1065.56 1934.3,1067.31 1935.3,1069.15 1936.29,1070.85 
  1937.29,1072.65 1938.28,1074.31 1939.28,1076.07 1940.28,1077.68 1941.27,1079.4 1942.27,1080.97 1943.26,1082.64 1944.26,1084.17 1945.25,1085.81 1946.25,1087.3 
  1947.24,1088.9 1948.24,1090.35 1949.23,1091.9 1950.23,1093.32 1951.22,1094.83 1952.22,1096.21 1953.22,1097.69 1954.21,1099.03 1955.21,1100.47 1956.2,1101.77 
  1957.2,1103.19 1958.19,1104.45 1959.19,1105.83 1960.18,1107.06 1961.18,1108.4 1962.17,1109.6 1963.17,1110.91 1964.17,1112.07 1965.16,1113.35 1966.16,1114.48 
  1967.15,1115.73 1968.15,1116.83 1969.14,1118.05 1970.14,1119.12 1971.13,1120.31 1972.13,1121.35 1973.12,1122.51 1974.12,1123.52 1975.11,1124.65 1976.11,1125.64 
  1977.11,1126.74 1978.1,1127.7 1979.1,1128.78 1980.09,1129.71 1981.09,1130.76 1982.08,1131.67 1983.08,1132.69 1984.07,1133.57 1985.07,1134.58 1986.06,1135.43 
  1987.06,1136.41 1988.06,1137.24 1989.05,1138.2 1990.05,1139.01 1991.04,1139.94 1992.04,1140.72 1993.03,1141.63 1994.03,1142.39 1995.02,1143.28 1996.02,1144.02 
  1997.01,1144.88 1998.01,1145.6 1999,1146.44 2000,1147.14 2001,1147.96 2001.99,1148.63 2002.99,1149.43 2003.98,1150.08 2004.98,1150.86 2005.97,1151.49 
  2006.97,1152.24 2007.96,1152.85 2008.96,1153.58 2009.95,1154.16 2010.95,1154.87 2011.95,1155.43 2012.94,1156.12 2013.94,1156.66 2014.93,1157.33 2015.93,1157.84 
  2016.92,1158.48 2017.92,1158.97 2018.91,1159.59 2019.91,1160.05 2020.9,1160.65 2021.9,1161.09 2022.89,1161.66 2023.89,1162.07 2024.89,1162.62 2025.88,1163.01 
  2026.88,1163.53 2027.87,1163.89 2028.87,1164.38 2029.86,1164.71 2030.86,1165.17 2031.85,1165.48 2032.85,1165.91 2033.84,1166.19 2034.84,1166.59 2035.84,1166.84 
  2036.83,1167.21 2037.83,1167.42 2038.82,1167.77 2039.82,1167.94 2040.81,1168.26 2041.81,1168.4 2042.8,1168.68 2043.8,1168.79 2044.79,1169.03 2045.79,1169.1 
  2046.78,1169.31 2047.78,1169.34 2048.78,1169.51 2049.77,1169.51 2050.77,1169.64 2051.76,1169.59 2052.76,1169.68 2053.75,1169.6 2054.75,1169.65 2055.74,1169.52 
  2056.74,1169.53 2057.73,1169.36 2058.73,1169.32 2059.73,1169.11 2060.72,1169.02 2061.72,1168.76 2062.71,1168.63 2063.71,1168.32 2064.7,1168.15 2065.7,1167.79 
  2066.69,1167.57 2067.69,1167.16 2068.68,1166.88 2069.68,1166.42 2070.67,1166.1 2071.67,1165.59 2072.67,1165.21 2073.66,1164.65 2074.66,1164.22 2075.65,1163.6 
  2076.65,1163.11 2077.64,1162.44 2078.64,1161.9 2079.63,1161.16 2080.63,1160.57 2081.62,1159.78 2082.62,1159.12 2083.62,1158.28 2084.61,1157.56 2085.61,1156.66 
  2086.6,1155.89 2087.6,1154.92 2088.59,1154.09 2089.59,1153.06 2090.58,1152.17 2091.58,1151.08 2092.57,1150.13 2093.57,1148.98 2094.56,1147.97 2095.56,1146.75 
  2096.56,1145.68 2097.55,1144.41 2098.55,1143.27 2099.54,1141.93 2100.54,1140.73 2101.53,1139.33 2102.53,1138.07 2103.52,1136.61 2104.52,1135.29 2105.51,1133.76 
  2106.51,1132.38 2107.51,1130.79 2108.5,1129.34 2109.5,1127.69 2110.49,1126.18 2111.49,1124.47 2112.48,1122.9 2113.48,1121.12 2114.47,1119.5 2115.47,1117.66 
  2116.46,1115.97 2117.46,1114.07 2118.45,1112.32 2119.45,1110.37 2120.45,1108.56 2121.44,1106.54 2122.44,1104.68 2123.43,1102.61 2124.43,1100.69 2125.42,1098.56 
  2126.42,1096.58 2127.41,1094.4 2128.41,1092.37 2129.4,1090.13 2130.4,1088.05 2131.4,1085.75 2132.39,1083.63 2133.39,1081.28 2134.38,1079.1 2135.38,1076.71 
  2136.37,1074.48 2137.37,1072.04 2138.36,1069.76 2139.36,1067.28 2140.35,1064.96 2141.35,1062.43 2142.34,1060.07 2143.34,1057.49 2144.34,1055.1 2145.33,1052.48 
  2146.33,1050.05 2147.32,1047.39 2148.32,1044.92 2149.31,1042.24 2150.31,1039.73 2151.3,1037.01 2152.3,1034.48 2153.29,1031.72 2154.29,1029.16 2155.29,1026.38 
  2156.28,1023.79 2157.28,1020.98 2158.27,1018.37 2159.27,1015.54 2160.26,1012.9 2161.26,1010.05 2162.25,1007.4 2163.25,1004.53 2164.24,1001.86 2165.24,998.974 
  2166.23,996.293 2167.23,993.392 2168.23,990.701 2169.22,987.789 2170.22,985.089 2171.21,982.169 2172.21,979.464 2173.2,976.538 2174.2,973.83 2175.19,970.9 
  2176.19,968.192 2177.18,965.262 2178.18,962.556 2179.18,959.627 2180.17,956.926 2181.17,954.002 2182.16,951.307 2183.16,948.389 2184.15,945.705 2185.15,942.795 
  2186.14,940.122 2187.14,937.224 2188.13,934.565 2189.13,931.68 2190.12,929.037 2191.12,926.168 2192.12,923.543 2193.11,920.691 2194.11,918.086 2195.1,915.253 
  2196.1,912.67 2197.09,909.857 2198.09,907.299 2199.08,904.508 2200.08,901.975 2201.07,899.208 2202.07,896.702 2203.07,893.96 2204.06,891.482 2205.06,888.767 
  2206.05,886.318 2207.05,883.63 2208.04,881.212 2209.04,878.552 2210.03,876.165 2211.03,873.534 2212.02,871.178 2213.02,868.578 2214.01,866.254 2215.01,863.683 
  2216.01,861.392 2217,858.851 2218,856.593 2218.99,854.082 2219.99,851.857 2220.98,849.375 2221.98,847.182 2222.97,844.73 2223.97,842.568 2224.96,840.144 
  2225.96,838.014 2226.96,835.618 2227.95,833.518 2228.95,831.148 2229.94,829.077 2230.94,826.732 2231.93,824.689 2232.93,822.368 2233.92,820.35 2234.92,818.05 
  2235.91,816.058 2236.91,813.777 2237.9,811.806 2238.9,809.543 2239.9,807.592 2240.89,805.343 2241.89,803.409 2242.88,801.172 2243.88,799.253 2244.87,797.024 
  2245.87,795.117 2246.86,792.893 2247.86,790.994 2248.85,788.772 2249.85,786.877 2250.85,784.653 2251.84,782.76 2252.84,780.529 2253.83,778.633 2254.83,776.391 
  2255.82,774.488 2256.82,772.231 2257.81,770.316 2258.81,768.039 2259.8,766.108 2260.8,763.805 2261.79,761.852 2262.79,759.519 2263.79,757.54 2264.78,755.17 
  2265.78,753.16 2266.77,750.748 2267.77,748.702 2268.76,746.242 2269.76,744.156 2270.75,741.642 2271.75,739.509 2272.74,736.934 2273.74,734.748 2274.74,732.102 
  2275.73,729.854 2276.73,727.128 2277.72,724.808 2278.72,721.988 2279.71,719.587 2280.71,716.663 2281.7,714.176 2282.7,711.142 2283.69,708.574 2284.69,705.436 
  2285.68,702.81 2286.68,699.591 2287.68,696.958 2288.67,693.712 2289.67,691.159 2290.66,687.97 2291.66,685.504 
  "/>
<polyline clip-path="url(#clip042)" style="stroke:#e26f46; stroke-linecap:butt; stroke-linejoin:round; stroke-width:4; stroke-opacity:1; fill:none" points="
  255.035,629.813 256.03,626.501 257.026,623.19 258.021,619.878 259.016,616.567 260.012,613.256 261.007,609.946 262.003,606.637 262.998,603.328 263.993,600.021 
  264.989,596.714 265.984,593.409 266.98,590.106 267.975,586.803 268.971,583.503 269.966,580.204 270.961,576.907 271.957,573.612 272.952,570.319 273.948,567.028 
  274.943,563.74 275.938,560.454 276.934,557.171 277.929,553.891 278.925,550.613 279.92,547.339 280.916,544.067 281.911,540.799 282.906,537.534 283.902,534.273 
  284.897,531.015 285.893,527.761 286.888,524.51 287.883,521.264 288.879,518.022 289.874,514.784 290.87,511.55 291.865,508.321 292.861,505.097 293.856,501.877 
  294.851,498.662 295.847,495.451 296.842,492.246 297.838,489.047 298.833,485.852 299.828,482.663 300.824,479.479 301.819,476.301 302.815,473.129 303.81,469.963 
  304.806,466.803 305.801,463.648 306.796,460.501 307.792,457.359 308.787,454.224 309.783,451.096 310.778,447.974 311.773,444.86 312.769,441.752 313.764,438.651 
  314.76,435.558 315.755,432.471 316.751,429.393 317.746,426.322 318.741,423.258 319.737,420.202 320.732,417.155 321.728,414.115 322.723,411.083 323.718,408.06 
  324.714,405.045 325.709,402.038 326.705,399.04 327.7,396.051 328.696,393.07 329.691,390.099 330.686,387.136 331.682,384.183 332.677,381.238 333.673,378.304 
  334.668,375.378 335.663,372.463 336.659,369.557 337.654,366.66 338.65,363.774 339.645,360.898 340.641,358.032 341.636,355.176 342.631,352.33 343.627,349.495 
  344.622,346.671 345.618,343.857 346.613,341.054 347.608,338.262 348.604,335.48 349.599,332.71 350.595,329.951 351.59,327.204 352.586,324.467 353.581,321.743 
  354.576,319.03 355.572,316.328 356.567,313.639 357.563,310.961 358.558,308.295 359.553,305.642 360.549,303.001 361.544,300.372 362.54,297.755 363.535,295.151 
  364.531,292.56 365.526,289.981 366.521,287.415 367.517,284.862 368.512,282.322 369.508,279.795 370.503,277.281 371.498,274.781 372.494,272.294 373.489,269.82 
  374.485,267.36 375.48,264.914 376.476,262.481 377.471,260.062 378.466,257.658 379.462,255.267 380.457,252.89 381.453,250.527 382.448,248.179 383.443,245.845 
  384.439,243.526 385.434,241.221 386.43,238.931 387.425,236.656 388.421,234.395 389.416,232.149 390.411,229.919 391.407,227.703 392.402,225.503 393.398,223.317 
  394.393,221.147 395.388,218.993 396.384,216.854 397.379,214.73 398.375,212.623 399.37,210.53 400.366,208.454 401.361,206.394 402.356,204.349 403.352,202.321 
  404.347,200.308 405.343,198.312 406.338,196.332 407.333,194.369 408.329,192.422 409.324,190.491 410.32,188.577 411.315,186.679 412.311,184.799 413.306,182.935 
  414.301,181.088 415.297,179.257 416.292,177.444 417.288,175.648 418.283,173.869 419.278,172.107 420.274,170.362 421.269,168.635 422.265,166.925 423.26,165.232 
  424.256,163.557 425.251,161.9 426.246,160.26 427.242,158.638 428.237,157.033 429.233,155.447 430.228,153.878 431.223,152.327 432.219,150.795 433.214,149.28 
  434.21,147.783 435.205,146.305 436.201,144.845 437.196,143.403 438.191,141.979 439.187,140.574 440.182,139.187 441.178,137.819 442.173,136.469 443.168,135.138 
  444.164,133.826 445.159,132.532 446.155,131.257 447.15,130.001 448.146,128.763 449.141,127.545 450.136,126.345 451.132,125.164 452.127,124.003 453.123,122.86 
  454.118,121.737 455.113,120.632 456.109,119.547 457.104,118.481 458.1,117.435 459.095,116.407 460.091,115.399 461.086,114.411 462.081,113.442 463.077,112.492 
  464.072,111.562 465.068,110.651 466.063,109.76 467.058,108.888 468.054,108.036 469.049,107.204 470.045,106.392 471.04,105.599 472.036,104.826 473.031,104.073 
  474.026,103.339 475.022,102.626 476.017,101.932 477.013,101.258 478.008,100.604 479.003,99.9701 479.999,99.3561 480.994,98.7621 481.99,98.1881 482.985,97.6341 
  483.981,97.1002 484.976,96.5864 485.971,96.0926 486.967,95.619 487.962,95.1655 488.958,94.7322 489.953,94.319 490.948,93.926 491.944,93.5532 492.939,93.2006 
  493.935,92.8682 494.93,92.556 495.926,92.2642 496.921,91.9925 497.916,91.7412 498.912,91.5101 499.907,91.2993 500.903,91.1088 501.898,90.9386 502.893,90.7887 
  503.889,90.6591 504.884,90.5498 505.88,90.4609 506.875,90.3922 507.871,90.344 508.866,90.316 509.861,90.3084 510.857,90.3211 511.852,90.3541 512.848,90.4075 
  513.843,90.4812 514.838,90.5752 515.834,90.6896 516.829,90.8242 517.825,90.9792 518.82,91.1545 519.816,91.3501 520.811,91.5659 521.806,91.8021 522.802,92.0585 
  523.797,92.3352 524.793,92.6322 525.788,92.9494 526.783,93.2868 527.779,93.6445 528.774,94.0223 529.77,94.4204 530.765,94.8386 531.761,95.277 532.756,95.7355 
  533.751,96.2142 534.747,96.713 535.742,97.2318 536.738,97.7707 537.733,98.3297 538.728,98.9087 539.724,99.5078 540.719,100.127 541.715,100.766 542.71,101.425 
  543.706,102.103 544.701,102.802 545.696,103.521 546.692,104.259 547.687,105.017 548.683,105.795 549.678,106.593 550.673,107.41 551.669,108.248 552.664,109.104 
  553.66,109.981 554.655,110.877 555.651,111.792 556.646,112.727 557.641,113.682 558.637,114.656 559.632,115.65 560.628,116.662 561.623,117.694 562.618,118.746 
  563.614,119.817 564.609,120.907 565.605,122.016 566.6,123.144 567.596,124.291 568.591,125.458 569.586,126.643 570.582,127.847 571.577,129.071 572.573,130.313 
  573.568,131.574 574.563,132.854 575.559,134.152 576.554,135.469 577.55,136.805 578.545,138.159 579.541,139.532 580.536,140.924 581.531,142.334 582.527,143.762 
  583.522,145.208 584.518,146.673 585.513,148.156 586.508,149.657 587.504,151.176 588.499,152.713 589.495,154.269 590.49,155.842 591.486,157.433 592.481,159.042 
  593.476,160.668 594.472,162.312 595.467,163.974 596.463,165.654 597.458,167.351 598.453,169.065 599.449,170.797 600.444,172.546 601.44,174.312 602.435,176.095 
  603.431,177.896 604.426,179.713 605.421,181.548 606.417,183.399 607.412,185.267 608.408,187.152 609.403,189.054 610.398,190.972 611.394,192.907 612.389,194.858 
  613.385,196.826 614.38,198.81 615.376,200.81 616.371,202.826 617.366,204.859 618.362,206.907 619.357,208.972 620.353,211.052 621.348,213.148 622.343,215.26 
  623.339,217.387 624.334,219.53 625.33,221.689 626.325,223.862 627.321,226.051 628.316,228.256 629.311,230.475 630.307,232.71 631.302,234.959 632.298,237.223 
  633.293,239.502 634.288,241.796 635.284,244.105 636.279,246.428 637.275,248.765 638.27,251.117 639.266,253.483 640.261,255.863 641.256,258.257 642.252,260.666 
  643.247,263.088 644.243,265.524 645.238,267.974 646.233,270.437 647.229,272.914 648.224,275.405 649.22,277.908 650.215,280.425 651.211,282.956 652.206,285.499 
  653.201,288.055 654.197,290.624 655.192,293.206 656.188,295.801 657.183,298.408 658.178,301.028 659.174,303.66 660.169,306.304 661.165,308.961 662.16,311.629 
  663.156,314.31 664.151,317.003 665.146,319.707 666.142,322.423 667.137,325.15 668.133,327.89 669.128,330.64 670.123,333.402 671.119,336.175 672.114,338.959 
  673.11,341.753 674.105,344.559 675.101,347.376 676.096,350.203 677.091,353.041 678.087,355.889 679.082,358.747 680.078,361.616 681.073,364.495 682.068,367.384 
  683.064,370.282 684.059,373.191 685.055,376.109 686.05,379.036 687.046,381.974 688.041,384.92 689.036,387.876 690.032,390.841 691.027,393.814 692.023,396.797 
  693.018,399.789 694.013,402.789 695.009,405.798 696.004,408.815 697,411.84 697.995,414.874 698.991,417.916 699.986,420.966 700.981,424.023 701.977,427.089 
  702.972,430.162 703.968,433.242 704.963,436.33 705.958,439.426 706.954,442.528 707.949,445.638 708.945,448.754 709.94,451.877 710.936,455.007 711.931,458.144 
  712.926,461.287 713.922,464.436 714.917,467.592 715.913,470.754 716.908,473.922 717.903,477.095 718.899,480.275 719.894,483.46 720.89,486.65 721.885,489.846 
  722.881,493.047 723.876,496.254 724.871,499.465 725.867,502.681 726.862,505.902 727.858,509.128 728.853,512.358 729.848,515.593 730.844,518.832 731.839,522.075 
  732.835,525.323 733.83,528.574 734.826,531.829 735.821,535.088 736.816,538.35 737.812,541.616 738.807,544.885 739.803,548.157 740.798,551.432 741.793,554.711 
  742.789,557.992 743.784,561.276 744.78,564.562 745.775,567.851 746.771,571.142 747.766,574.435 748.761,577.731 749.757,581.028 750.752,584.328 751.748,587.629 
  752.743,590.931 753.738,594.235 754.734,597.541 755.729,600.848 756.725,604.155 757.72,607.464 758.716,610.773 759.711,614.084 760.706,617.395 761.702,620.706 
  762.697,624.018 763.693,627.329 764.688,630.641 765.683,633.953 766.679,637.265 767.674,640.577 768.67,643.888 769.665,647.198 770.661,650.508 771.656,653.817 
  772.651,657.126 773.647,660.433 774.642,663.739 775.638,667.044 776.633,670.347 777.628,673.649 778.624,676.949 779.619,680.247 780.615,683.544 781.61,686.838 
  782.606,690.131 783.601,693.421 784.596,696.708 785.592,699.994 786.587,703.276 787.583,706.556 788.578,709.833 789.573,713.106 790.569,716.377 791.564,719.645 
  792.56,722.909 793.555,726.169 794.551,729.426 795.546,732.679 796.541,735.928 797.537,739.174 798.532,742.415 799.528,745.652 800.523,748.884 801.518,752.112 
  802.514,755.336 803.509,758.554 804.505,761.768 805.5,764.977 806.496,768.181 807.491,771.379 808.486,774.573 809.482,777.76 810.477,780.943 811.473,784.119 
  812.468,787.29 813.463,790.455 814.459,793.613 815.454,796.766 816.45,799.912 817.445,803.052 818.441,806.185 819.436,809.312 820.431,812.432 821.427,815.545 
  822.422,818.651 823.418,821.75 824.413,824.841 825.408,827.926 826.404,831.003 827.399,834.072 828.395,837.133 829.39,840.187 830.386,843.233 831.381,846.271 
  832.376,849.3 833.372,852.322 834.367,855.335 835.363,858.339 836.358,861.335 837.353,864.322 838.349,867.3 839.344,870.27 840.34,873.23 841.335,876.181 
  842.331,879.123 843.326,882.055 844.321,884.978 845.317,887.892 846.312,890.795 847.308,893.689 848.303,896.573 849.298,899.446 850.294,902.31 851.289,905.163 
  852.285,908.006 853.28,910.839 854.276,913.661 855.271,916.472 856.266,919.272 857.262,922.062 858.257,924.84 859.253,927.607 860.248,930.363 861.243,933.108 
  862.239,935.842 863.234,938.563 864.23,941.274 865.225,943.972 866.221,946.659 867.216,1219.09 868.211,1221.75 869.207,1224.4 870.202,1227.04 871.198,1229.66 
  872.193,1232.28 873.188,1234.88 874.184,1237.47 875.179,1240.04 876.175,1242.6 877.17,1245.15 878.166,1247.69 879.161,1250.21 880.156,1252.72 881.152,1255.22 
  882.147,1257.71 883.143,1260.18 884.138,1262.63 885.133,1265.08 886.129,1267.5 887.124,1269.92 888.12,1272.32 889.115,1274.71 890.111,1277.08 891.106,1279.44 
  892.101,1281.78 893.097,1284.12 894.092,1286.43 895.088,1288.73 896.083,1291.02 897.078,1293.29 898.074,1295.55 899.069,1297.79 900.065,1300.02 901.06,1302.23 
  902.056,1304.42 903.051,1306.61 904.046,1308.77 905.042,1310.92 906.037,1313.06 907.033,1315.18 908.028,1317.28 909.023,1319.37 910.019,1321.44 911.014,1323.5 
  912.01,1325.54 913.005,1327.56 914.001,1329.57 914.996,1331.56 915.991,1333.54 916.987,1335.5 917.982,1337.44 918.978,1339.37 919.973,1341.28 920.968,1343.17 
  921.964,1345.05 922.959,1346.91 923.955,1348.75 924.95,1350.58 925.946,1352.39 926.941,1354.18 927.936,1355.95 928.932,1357.71 929.927,1359.45 930.923,1361.17 
  931.918,1362.88 932.913,1364.57 933.909,1366.24 934.904,1367.89 935.9,1369.53 936.895,1371.14 937.891,1372.74 938.886,1374.33 939.881,1375.89 940.877,1377.44 
  941.872,1378.97 942.868,1380.48 943.863,1381.97 944.858,1383.44 945.854,1384.9 946.849,1386.33 947.845,1387.75 948.84,1389.15 949.836,1390.54 950.831,1391.9 
  951.826,1393.24 952.822,1394.57 953.817,1395.88 954.813,1397.17 955.808,1398.44 956.803,1399.69 957.799,1400.92 958.794,1402.14 959.79,1403.33 960.785,1404.51 
  961.781,1405.66 962.776,1406.8 963.771,1407.92 964.767,1409.02 965.762,1410.1 966.758,1411.16 967.753,1412.2 968.748,1413.23 969.744,1414.23 970.739,1415.21 
  971.735,1416.18 972.73,1417.12 973.726,1418.05 974.721,1418.95 975.716,1419.84 976.712,1420.71 977.707,1421.55 978.703,1422.38 979.698,1423.19 980.693,1423.98 
  981.689,1424.74 982.684,1425.49 983.68,1426.22 984.675,1426.93 985.671,1427.62 986.666,1428.29 987.661,1428.94 988.657,1429.56 989.652,1430.17 990.648,1430.76 
  991.643,1431.33 992.638,1431.88 993.634,1432.41 994.629,1432.92 995.625,1433.41 996.62,1433.88 997.616,1434.32 998.611,1434.75 999.606,1435.16 1000.6,1435.55 
  1001.6,1435.92 1002.59,1436.26 1003.59,1436.59 1004.58,1436.9 1005.58,1437.19 1006.57,1437.45 1007.57,1437.7 1008.57,1437.92 1009.56,1438.13 1010.56,1438.32 
  1011.55,1438.48 1012.55,1438.63 1013.54,1438.75 1014.54,1438.85 1015.53,1438.94 1016.53,1439 1017.52,1439.04 1018.52,1439.07 1019.51,1439.07 1020.51,1439.05 
  1021.51,1439.01 1022.5,1438.96 1023.5,1438.88 1024.49,1438.78 1025.49,1438.66 1026.48,1438.52 1027.48,1438.36 1028.47,1438.18 1029.47,1437.98 1030.46,1437.76 
  1031.46,1437.52 1032.46,1437.25 1033.45,1436.97 1034.45,1436.67 1035.44,1436.35 1036.44,1436.01 1037.43,1435.64 1038.43,1435.26 1039.42,1434.86 1040.42,1434.43 
  1041.41,1433.99 1042.41,1433.53 1043.4,1433.04 1044.4,1432.54 1045.4,1432.01 1046.39,1431.47 1047.39,1430.91 1048.38,1430.32 1049.38,1429.72 1050.37,1429.09 
  1051.37,1428.45 1052.36,1427.79 1053.36,1427.1 1054.35,1426.4 1055.35,1425.68 1056.35,1424.93 1057.34,1424.17 1058.34,1423.39 1059.33,1422.58 1060.33,1421.76 
  1061.32,1420.92 1062.32,1420.06 1063.31,1419.18 1064.31,1418.28 1065.3,1417.36 1066.3,1416.42 1067.29,1415.46 1068.29,1414.48 1069.29,1413.48 1070.28,1412.46 
  1071.28,1411.42 1072.27,1410.37 1073.27,1409.29 1074.26,1408.2 1075.26,1407.08 1076.25,1405.95 1077.25,1404.8 1078.24,1403.63 1079.24,1402.44 1080.24,1401.23 
  1081.23,1400 1082.23,1398.75 1083.22,1397.49 1084.22,1396.2 1085.21,1394.9 1086.21,1393.58 1087.2,1392.24 1088.2,1390.88 1089.19,1389.5 1090.19,1388.1 
  1091.18,1386.69 1092.18,1385.26 1093.18,1383.81 1094.17,1382.34 1095.17,1380.85 1096.16,1379.34 1097.16,1377.82 1098.15,1376.28 1099.15,1374.72 1100.14,1373.14 
  1101.14,1371.55 1102.13,1369.93 1103.13,1368.3 1104.13,1366.65 1105.12,1364.99 1106.12,1363.3 1107.11,1361.6 1108.11,1359.88 1109.1,1358.15 1110.1,1356.39 
  1111.09,1354.62 1112.09,1352.84 1113.08,1351.03 1114.08,1349.21 1115.07,1347.37 1116.07,1345.51 1117.07,1343.64 1118.06,1341.75 1119.06,1339.85 1120.05,1337.93 
  1121.05,1335.99 1122.04,1334.03 1123.04,1332.06 1124.03,1330.07 1125.03,1328.07 1126.02,1326.05 1127.02,1324.01 1128.02,1321.96 1129.01,1319.89 1130.01,1317.8 
  1131,1315.7 1132,1313.59 1132.99,1311.46 1133.99,1309.31 1134.98,1307.15 1135.98,1304.97 1136.97,1302.78 1137.97,1300.57 1138.96,1298.35 1139.96,1296.11 
  1140.96,1293.86 1141.95,1291.59 1142.95,1289.3 1143.94,1287.01 1144.94,1284.7 1145.93,1282.37 1146.93,1280.03 1147.92,1277.67 1148.92,1275.3 1149.91,1272.92 
  1150.91,1270.52 1151.91,1268.11 1152.9,1265.68 1153.9,1263.24 1154.89,1260.79 1155.89,1258.32 1156.88,1255.84 1157.88,1253.35 1158.87,1250.84 1159.87,1248.32 
  1160.86,1245.79 1161.86,1243.24 1162.85,1240.68 1163.85,1238.11 1164.85,1235.53 1165.84,1232.93 1166.84,1230.32 1167.83,1227.69 1168.83,1225.06 1169.82,1222.41 
  1170.82,1219.75 1171.81,1217.08 1172.81,1214.4 1173.8,1211.7 1174.8,1208.99 1175.8,1206.28 1176.79,1203.55 1177.79,1200.8 1178.78,1198.05 1179.78,1195.29 
  1180.77,1192.51 1181.77,1189.72 1182.76,1186.93 1183.76,1184.12 1184.75,1181.3 1185.75,1178.47 1186.74,1175.63 1187.74,1172.78 1188.74,1169.92 1189.73,1167.04 
  1190.73,1164.16 1191.72,1161.27 1192.72,1158.37 1193.71,1155.46 1194.71,1152.54 1195.7,1149.61 1196.7,1146.67 1197.69,1143.72 1198.69,1140.76 1199.69,1137.8 
  1200.68,1134.82 1201.68,1131.84 1202.67,1128.84 1203.67,1125.84 1204.66,1122.83 1205.66,1119.81 1206.65,1116.78 1207.65,1113.75 1208.64,1110.7 1209.64,1107.65 
  1210.63,1104.59 1211.63,1101.52 1212.63,1098.45 1213.62,1095.37 1214.62,1092.28 1215.61,1089.18 1216.61,1086.07 1217.6,1082.96 1218.6,1079.85 1219.59,1076.72 
  1220.59,1073.59 1221.58,1070.45 1222.58,1067.31 1223.58,1064.15 1224.57,1061 1225.57,1057.83 1226.56,1054.67 1227.56,1051.49 1228.55,1048.31 1229.55,1045.12 
  1230.54,1041.93 1231.54,1038.73 1232.53,1035.53 1233.53,1032.32 1234.52,1029.11 1235.52,1025.89 1236.52,1022.67 1237.51,1019.44 1238.51,1016.21 1239.5,1012.98 
  1240.5,1009.74 1241.49,1006.49 1242.49,1003.24 1243.48,999.992 1244.48,996.736 1245.47,993.477 1246.47,990.213 1247.47,986.947 1248.46,983.677 1249.46,980.404 
  1250.45,977.128 1251.45,973.849 1252.44,970.567 1253.44,967.283 1254.43,963.995 1255.43,960.706 1256.42,957.414 1257.42,954.12 1258.41,950.824 1259.41,947.526 
  1260.41,944.227 1261.4,940.925 1262.4,937.622 1263.39,934.318 1264.39,931.012 1265.38,927.705 1266.38,924.397 1267.37,921.088 1268.37,917.778 1269.36,914.468 
  1270.36,911.157 1271.36,907.846 1272.35,904.534 1273.35,901.222 1274.34,897.91 1275.34,894.598 1276.33,891.286 1277.33,887.975 1278.32,884.664 1279.32,881.354 
  1280.31,878.044 1281.31,874.735 1282.3,871.427 1283.3,868.12 1284.3,864.814 1285.29,861.51 1286.29,858.207 1287.28,854.905 1288.28,851.606 1289.27,848.308 
  1290.27,845.012 1291.26,841.718 1292.26,838.426 1293.25,835.137 1294.25,831.85 1295.25,828.565 1296.24,825.283 1297.24,822.004 1298.23,818.728 1299.23,815.455 
  1300.22,812.185 1301.22,808.919 1302.21,805.655 1303.21,802.396 1304.2,799.14 1305.2,795.888 1306.19,792.639 1307.19,789.395 1308.19,786.155 1309.18,782.919 
  1310.18,779.688 1311.17,776.461 1312.17,773.239 1313.16,770.021 1314.16,766.809 1315.15,763.601 1316.15,760.398 1317.14,757.201 1318.14,754.009 1319.14,750.823 
  1320.13,747.642 1321.13,744.467 1322.12,741.298 1323.12,738.135 1324.11,734.977 1325.11,731.826 1326.1,728.682 1327.1,725.543 1328.09,722.412 1329.09,719.287 
  1330.08,716.169 1331.08,713.057 1332.08,709.953 1333.07,706.856 1334.07,703.766 1335.06,700.684 1336.06,697.609 1337.05,694.541 1338.05,691.482 1339.04,688.43 
  1340.04,685.386 1341.03,682.351 1342.03,679.323 1343.03,676.304 1344.02,673.293 1345.02,670.29 1346.01,667.297 1347.01,664.312 1348,661.336 1349,658.369 
  1349.99,655.411 1350.99,652.462 1351.98,649.522 1352.98,646.592 1353.97,643.672 1354.97,640.761 1355.97,637.86 1356.96,634.969 1357.96,632.087 1358.95,629.216 
  1359.95,626.355 1360.94,623.504 1361.94,620.664 1362.93,617.834 1363.93,615.015 1364.92,612.207 1365.92,609.409 1366.92,606.622 1367.91,603.846 1368.91,601.082 
  1369.9,598.329 1370.9,595.587 1371.89,592.856 1372.89,590.137 1373.88,587.43 1374.88,584.735 1375.87,582.051 1376.87,579.379 1377.86,576.72 1378.86,574.072 
  1379.86,571.437 1380.85,568.814 1381.85,566.204 1382.84,563.606 1383.84,561.021 1384.83,558.449 1385.83,555.889 1386.82,553.343 1387.82,550.809 1388.81,548.289 
  1389.81,545.782 1390.81,543.288 1391.8,540.808 1392.8,538.341 1393.79,535.888 1394.79,533.448 1395.78,531.023 1396.78,528.611 1397.77,526.213 1398.77,523.829 
  1399.76,521.46 1400.76,519.104 1401.75,516.763 1402.75,514.437 1403.75,512.125 1404.74,509.827 1405.74,507.544 1406.73,505.276 1407.73,503.023 1408.72,500.785 
  1409.72,498.562 1410.71,496.354 1411.71,494.161 1412.7,491.983 1413.7,489.821 1414.7,487.674 1415.69,485.543 1416.69,483.427 1417.68,481.327 1418.68,479.243 
  1419.67,477.175 1420.67,475.122 1421.66,473.086 1422.66,471.065 1423.65,469.061 1424.65,467.073 1425.64,465.101 1426.64,463.146 1427.64,461.207 1428.63,459.285 
  1429.63,457.379 1430.62,455.49 1431.62,453.617 1432.61,451.762 1433.61,449.923 1434.6,448.101 1435.6,446.296 1436.59,444.509 1437.59,442.738 1438.59,440.985 
  1439.58,439.249 1440.58,437.53 1441.57,435.829 1442.57,434.145 1443.56,432.479 1444.56,430.83 1445.55,429.199 1446.55,427.586 1447.54,425.991 1448.54,424.413 
  1449.53,422.853 1450.53,421.311 1451.53,419.788 1452.52,418.282 1453.52,416.795 1454.51,415.325 1455.51,413.874 1456.5,412.441 1457.5,411.027 1458.49,409.631 
  1459.49,408.254 1460.48,406.895 1461.48,405.554 1462.48,404.232 1463.47,402.929 1464.47,401.645 1465.46,400.379 1466.46,399.132 1467.45,397.904 1468.45,396.695 
  1469.44,395.505 1470.44,394.334 1471.43,393.182 1472.43,392.049 1473.42,390.935 1474.42,389.84 1475.42,388.764 1476.41,387.708 1477.41,386.671 1478.4,385.654 
  1479.4,384.655 1480.39,383.676 1481.39,382.717 1482.38,381.777 1483.38,380.856 1484.37,379.956 1485.37,379.074 1486.37,378.213 1487.36,377.371 1488.36,376.548 
  1489.35,375.745 1490.35,374.963 1491.34,374.199 1492.34,373.456 1493.33,372.733 1494.33,372.029 1495.32,371.345 1496.32,370.681 1497.31,370.037 1498.31,369.413 
  1499.31,368.809 1500.3,368.225 1501.3,367.661 1502.29,367.117 1503.29,366.593 1504.28,366.09 1505.28,365.606 1506.27,365.142 1507.27,364.699 1508.26,364.276 
  1509.26,363.873 1510.26,363.49 1511.25,363.127 1512.25,362.784 1513.24,362.462 1514.24,362.16 1515.23,361.878 1516.23,361.617 1517.22,361.376 1518.22,361.155 
  1519.21,360.954 1520.21,360.774 1521.2,360.614 1522.2,360.474 1523.2,360.354 1524.19,360.255 1525.19,360.177 1526.18,360.118 1527.18,360.08 1528.17,360.062 
  1529.17,360.065 1530.16,360.088 1531.16,360.131 1532.15,360.194 1533.15,360.278 1534.15,360.382 1535.14,360.507 1536.14,360.652 1537.13,360.817 1538.13,361.002 
  1539.12,361.208 1540.12,361.434 1541.11,361.68 1542.11,361.947 1543.1,362.234 1544.1,362.541 1545.09,362.868 1546.09,363.216 1547.09,363.583 1548.08,363.971 
  1549.08,364.38 1550.07,364.808 1551.07,365.256 1552.06,365.725 1553.06,366.214 1554.05,366.722 1555.05,367.251 1556.04,367.8 1557.04,368.369 1558.04,368.958 
  1559.03,369.567 1560.03,370.196 1561.02,370.845 1562.02,371.514 1563.01,372.203 1564.01,372.912 1565,373.64 1566,374.388 1566.99,375.156 1567.99,375.944 
  1568.98,376.752 1569.98,377.579 1570.98,378.426 1571.97,379.293 1572.97,380.179 1573.96,381.085 1574.96,382.01 1575.95,382.955 1576.95,383.919 1577.94,384.903 
  1578.94,385.906 1579.93,386.929 1580.93,387.97 1581.93,389.031 1582.92,390.112 1583.92,391.211 1584.91,392.33 1585.91,393.468 1586.9,394.625 1587.9,395.801 
  1588.89,396.996 1589.89,398.209 1590.88,399.442 1591.88,400.694 1592.87,401.964 1593.87,403.253 1594.87,404.561 1595.86,405.887 1596.86,407.233 1597.85,408.596 
  1598.85,409.978 1599.84,411.379 1600.84,412.798 1601.83,414.235 1602.83,415.691 1603.82,417.165 1604.82,418.657 1605.82,420.167 1606.81,421.695 1607.81,423.241 
  1608.8,424.806 1609.8,426.388 1610.79,427.988 1611.79,429.605 1612.78,431.241 1613.78,432.894 1614.77,434.564 1615.77,436.253 1616.76,437.958 1617.76,439.681 
  1618.76,441.422 1619.75,443.179 1620.75,444.954 1621.74,446.746 1622.74,448.555 1623.73,450.381 1624.73,452.224 1625.72,454.084 1626.72,455.96 1627.71,457.854 
  1628.71,459.764 1629.71,461.69 1630.7,463.633 1631.7,465.593 1632.69,467.568 1633.69,469.56 1634.68,471.569 1635.68,473.593 1636.67,475.634 1637.67,477.69 
  1638.66,479.762 1639.66,481.851 1640.65,483.955 1641.65,486.074 1642.65,488.209 1643.64,490.36 1644.64,492.526 1645.63,494.707 1646.63,496.904 1647.62,499.116 
  1648.62,501.343 1649.61,503.585 1650.61,505.842 1651.6,508.114 1652.6,510.4 1653.6,512.701 1654.59,515.017 1655.59,517.347 1656.58,519.692 1657.58,522.051 
  1658.57,524.424 1659.57,526.811 1660.56,529.212 1661.56,531.628 1662.55,534.057 1663.55,536.5 1664.54,538.956 1665.54,541.427 1666.54,543.91 1667.53,546.407 
  1668.53,548.918 1669.52,551.442 1670.52,553.978 1671.51,556.528 1672.51,559.091 1673.5,561.666 1674.5,564.255 1675.49,566.856 1676.49,569.469 1677.49,572.095 
  1678.48,574.733 1679.48,577.384 1680.47,580.046 1681.47,582.721 1682.46,585.407 1683.46,588.106 1684.45,590.816 1685.45,593.538 1686.44,596.271 1687.44,599.016 
  1688.43,601.772 1689.43,604.539 1690.43,607.318 1691.42,610.107 1692.42,612.908 1693.41,615.719 1694.41,618.541 1695.4,621.373 1696.4,624.216 1697.39,627.069 
  1698.39,629.933 1699.38,632.807 1700.38,635.69 1701.38,638.584 1702.37,641.488 1703.37,644.401 1704.36,647.324 1705.36,650.256 1706.35,653.198 1707.35,656.149 
  1708.34,659.11 1709.34,662.079 1710.33,665.057 1711.33,668.044 1712.32,671.04 1713.32,674.045 1714.32,677.058 1715.31,680.079 1716.31,683.109 1717.3,686.146 
  1718.3,689.192 1719.29,692.246 1720.29,695.308 1721.28,698.377 1722.28,431.701 1723.27,434.785 1724.27,437.877 1725.27,440.976 1726.26,444.082 1727.26,447.195 
  1728.25,450.315 1729.25,453.442 1730.24,456.575 1731.24,459.715 1732.23,462.861 1733.23,466.013 1734.22,469.172 1735.22,472.337 1736.21,475.508 1737.21,478.684 
  1738.21,481.866 1739.2,485.054 1740.2,488.247 1741.19,491.446 1742.19,494.65 1743.18,497.859 1744.18,501.072 1745.17,504.291 1746.17,507.515 1747.16,510.743 
  1748.16,513.975 1749.16,517.212 1750.15,520.453 1751.15,523.698 1752.14,526.948 1753.14,530.201 1754.13,533.458 1755.13,536.718 1756.12,539.982 1757.12,543.25 
  1758.11,546.52 1759.11,549.794 1760.1,553.071 1761.1,556.351 1762.1,559.633 1763.09,562.918 1764.09,566.206 1765.08,569.496 1766.08,572.788 1767.07,576.083 
  1768.07,579.379 1769.06,582.678 1770.06,585.978 1771.05,589.28 1772.05,592.583 1773.05,595.888 1774.04,599.194 1775.04,602.501 1776.03,605.809 1777.03,609.119 
  1778.02,612.429 1779.02,615.739 1780.01,619.05 1781.01,622.362 1782,625.673 1783,628.985 1783.99,632.297 1784.99,635.609 1785.99,638.921 1786.98,642.232 
  1787.98,645.543 1788.97,648.853 1789.97,652.163 1790.96,655.472 1791.96,658.779 1792.95,662.086 1793.95,665.391 1794.94,668.695 1795.94,671.998 1796.94,675.299 
  1797.93,678.598 1798.93,681.896 1799.92,685.191 1800.92,688.485 1801.91,691.776 1802.91,695.065 1803.9,698.351 1804.9,701.635 1805.89,704.916 1806.89,708.195 
  1807.88,711.47 1808.88,714.742 1809.88,718.011 1810.87,721.277 1811.87,724.539 1812.86,727.798 1813.86,731.053 1814.85,734.304 1815.85,737.551 1816.84,740.795 
  1817.84,744.034 1818.83,747.268 1819.83,750.499 1820.83,753.725 1821.82,756.946 1822.82,760.162 1823.81,763.373 1824.81,766.58 1825.8,769.781 1826.8,772.977 
  1827.79,776.167 1828.79,779.352 1829.78,782.532 1830.78,785.705 1831.77,788.873 1832.77,792.035 1833.77,795.19 1834.76,798.34 1835.76,801.483 1836.75,804.619 
  1837.75,807.749 1838.74,810.873 1839.74,813.989 1840.73,817.099 1841.73,820.201 1842.72,823.296 1843.72,826.384 1844.72,829.465 1845.71,832.538 1846.71,835.604 
  1847.7,838.661 1848.7,841.711 1849.69,844.753 1850.69,847.787 1851.68,850.812 1852.68,853.829 1853.67,856.838 1854.67,859.838 1855.66,862.83 1856.66,865.812 
  1857.66,868.786 1858.65,871.751 1859.65,874.707 1860.64,877.653 1861.64,880.59 1862.63,883.518 1863.63,886.436 1864.62,889.345 1865.62,892.243 1866.61,895.132 
  1867.61,898.011 1868.61,900.88 1869.6,903.738 1870.6,906.586 1871.59,909.424 1872.59,912.251 1873.58,915.068 1874.58,917.873 1875.57,920.668 1876.57,923.452 
  1877.56,926.225 1878.56,928.987 1879.55,931.737 1880.55,934.476 1881.55,937.204 1882.54,939.92 1883.54,942.624 1884.53,945.317 1885.53,947.997 1886.52,950.666 
  1887.52,953.323 1888.51,955.967 1889.51,958.599 1890.5,961.219 1891.5,963.826 1892.5,966.421 1893.49,969.002 1894.49,971.572 1895.48,974.128 1896.48,976.671 
  1897.47,979.201 1898.47,981.718 1899.46,984.222 1900.46,986.713 1901.45,989.19 1902.45,991.653 1903.44,994.103 1904.44,996.539 1905.44,998.961 1906.43,1001.37 
  1907.43,1003.76 1908.42,1006.14 1909.42,1008.51 1910.41,1010.86 1911.41,1013.2 1912.4,1015.52 1913.4,1017.83 1914.39,1020.12 1915.39,1022.4 1916.39,1024.67 
  1917.38,1026.92 1918.38,1029.15 1919.37,1031.37 1920.37,1033.58 1921.36,1035.76 1922.36,1037.94 1923.35,1040.1 1924.35,1042.24 1925.34,1044.37 1926.34,1046.48 
  1927.33,1048.57 1928.33,1050.66 1929.33,1052.72 1930.32,1054.77 1931.32,1056.8 1932.31,1058.82 1933.31,1060.82 1934.3,1062.8 1935.3,1064.77 1936.29,1066.72 
  1937.29,1068.65 1938.28,1070.57 1939.28,1072.47 1940.28,1074.36 1941.27,1076.23 1942.27,1078.08 1943.26,1079.91 1944.26,1081.73 1945.25,1083.53 1946.25,1085.31 
  1947.24,1087.08 1948.24,1088.83 1949.23,1090.56 1950.23,1092.28 1951.22,1093.97 1952.22,1095.65 1953.22,1097.31 1954.21,1098.96 1955.21,1100.59 1956.2,1102.19 
  1957.2,1103.78 1958.19,1105.36 1959.19,1106.91 1960.18,1108.45 1961.18,1109.97 1962.17,1111.47 1963.17,1112.95 1964.17,1114.42 1965.16,1115.87 1966.16,1117.29 
  1967.15,1118.7 1968.15,1120.09 1969.14,1121.47 1970.14,1122.82 1971.13,1124.16 1972.13,1125.47 1973.12,1126.77 1974.12,1128.05 1975.11,1129.31 1976.11,1130.56 
  1977.11,1131.78 1978.1,1132.98 1979.1,1134.17 1980.09,1135.34 1981.09,1136.48 1982.08,1137.61 1983.08,1138.72 1984.07,1139.81 1985.07,1140.88 1986.06,1141.93 
  1987.06,1142.96 1988.06,1143.98 1989.05,1144.97 1990.05,1145.94 1991.04,1146.9 1992.04,1147.83 1993.03,1148.75 1994.03,1149.65 1995.02,1150.52 1996.02,1151.38 
  1997.01,1152.22 1998.01,1153.03 1999,1153.83 2000,1154.61 2001,1155.37 2001.99,1156.11 2002.99,1156.82 2003.98,1157.52 2004.98,1158.2 2005.97,1158.86 
  2006.97,1159.5 2007.96,1160.12 2008.96,1160.72 2009.95,1161.3 2010.95,1161.86 2011.95,1162.4 2012.94,1162.91 2013.94,1163.41 2014.93,1163.89 2015.93,1164.35 
  2016.92,1164.79 2017.92,1165.21 2018.91,1165.6 2019.91,1165.98 2020.9,1166.34 2021.9,1166.68 2022.89,1166.99 2023.89,1167.29 2024.89,1167.57 2025.88,1167.82 
  2026.88,1168.06 2027.87,1168.28 2028.87,1168.47 2029.86,1168.65 2030.86,1168.8 2031.85,1168.94 2032.85,1169.05 2033.84,1169.15 2034.84,1169.22 2035.84,1169.27 
  2036.83,1169.31 2037.83,1169.32 2038.82,1169.31 2039.82,1169.28 2040.81,1169.23 2041.81,1169.17 2042.8,1169.08 2043.8,1168.97 2044.79,1168.84 2045.79,1168.69 
  2046.78,1168.52 2047.78,1168.33 2048.78,1168.12 2049.77,1167.89 2050.77,1167.63 2051.76,1167.36 2052.76,1167.07 2053.75,1166.76 2054.75,1166.43 2055.74,1166.07 
  2056.74,1165.7 2057.73,1165.31 2058.73,1164.89 2059.73,1164.46 2060.72,1164.01 2061.72,1163.53 2062.71,1163.04 2063.71,1162.53 2064.7,1161.99 2065.7,1161.44 
  2066.69,1160.86 2067.69,1160.27 2068.68,1159.66 2069.68,1159.02 2070.67,1158.37 2071.67,1157.69 2072.67,1157 2073.66,1156.29 2074.66,1155.55 2075.65,1154.8 
  2076.65,1154.03 2077.64,1153.24 2078.64,1152.42 2079.63,1151.59 2080.63,1150.74 2081.62,1149.87 2082.62,1148.98 2083.62,1148.07 2084.61,1147.13 2085.61,1146.19 
  2086.6,1145.22 2087.6,1144.23 2088.59,1143.22 2089.59,1142.19 2090.58,1141.15 2091.58,1140.08 2092.57,1138.99 2093.57,1137.89 2094.56,1136.77 2095.56,1135.62 
  2096.56,1134.46 2097.55,1133.28 2098.55,1132.08 2099.54,1130.86 2100.54,1129.63 2101.53,1128.37 2102.53,1127.09 2103.52,1125.8 2104.52,1124.49 2105.51,1123.16 
  2106.51,1121.81 2107.51,1120.44 2108.5,1119.05 2109.5,1117.65 2110.49,1116.22 2111.49,1114.78 2112.48,1113.32 2113.48,1111.84 2114.47,1110.35 2115.47,1108.83 
  2116.46,1107.3 2117.46,1105.75 2118.45,1104.18 2119.45,1102.59 2120.45,1100.99 2121.44,1099.37 2122.44,1097.73 2123.43,1096.07 2124.43,1094.39 2125.42,1092.7 
  2126.42,1090.99 2127.41,1089.26 2128.41,1087.52 2129.4,1085.76 2130.4,1083.98 2131.4,1082.18 2132.39,1080.37 2133.39,1078.54 2134.38,1076.69 2135.38,1074.83 
  2136.37,1072.95 2137.37,1071.05 2138.36,1069.14 2139.36,1067.21 2140.35,1065.26 2141.35,1063.29 2142.34,1061.31 2143.34,1059.32 2144.34,1057.31 2145.33,1055.28 
  2146.33,1053.23 2147.32,1051.17 2148.32,1049.1 2149.31,1047 2150.31,1044.9 2151.3,1042.77 2152.3,1040.63 2153.29,1038.48 2154.29,1036.31 2155.29,1034.12 
  2156.28,1031.92 2157.28,1029.71 2158.27,1027.48 2159.27,1025.23 2160.26,1022.97 2161.26,1020.7 2162.25,1018.41 2163.25,1016.1 2164.24,1013.78 2165.24,1011.45 
  2166.23,1009.1 2167.23,1006.74 2168.23,1004.36 2169.22,1001.97 2170.22,999.564 2171.21,997.146 2172.21,994.713 2173.2,992.267 2174.2,989.807 2175.19,987.333 
  2176.19,984.846 2177.18,982.346 2178.18,979.832 2179.18,977.305 2180.17,974.765 2181.17,972.212 2182.16,969.646 2183.16,967.067 2184.15,964.476 2185.15,961.872 
  2186.14,959.255 2187.14,956.626 2188.13,953.985 2189.13,951.331 2190.12,948.666 2191.12,945.988 2192.12,943.299 2193.11,940.597 2194.11,937.884 2195.1,935.159 
  2196.1,932.423 2197.09,929.676 2198.09,926.917 2199.08,924.146 2200.08,921.365 2201.07,918.573 2202.07,915.77 2203.07,912.956 2204.06,910.132 2205.06,907.297 
  2206.05,904.451 2207.05,901.595 2208.04,898.729 2209.04,895.853 2210.03,892.966 2211.03,890.07 2212.02,887.164 2213.02,884.248 2214.01,881.323 2215.01,878.388 
  2216.01,875.444 2217,872.491 2218,869.528 2218.99,866.557 2219.99,863.576 2220.98,860.587 2221.98,857.589 2222.97,854.582 2223.97,851.567 2224.96,848.544 
  2225.96,845.512 2226.96,842.472 2227.95,839.424 2228.95,836.369 2229.94,833.305 2230.94,830.234 2231.93,827.155 2232.93,824.069 2233.92,820.976 2234.92,817.875 
  2235.91,814.767 2236.91,811.653 2237.9,808.531 2238.9,805.403 2239.9,802.268 2240.89,799.126 2241.89,795.978 2242.88,792.824 2243.88,789.664 2244.87,786.498 
  2245.87,783.326 2246.86,780.148 2247.86,776.964 2248.85,773.775 2249.85,770.58 2250.85,767.38 2251.84,764.175 2252.84,760.965 2253.83,757.75 2254.83,754.53 
  2255.82,751.306 2256.82,748.076 2257.81,744.843 2258.81,741.605 2259.8,738.363 2260.8,735.116 2261.79,731.866 2262.79,728.612 2263.79,725.354 2264.78,722.093 
  2265.78,718.828 2266.77,715.56 2267.77,712.288 2268.76,709.014 2269.76,705.736 2270.75,702.456 2271.75,699.172 2272.74,695.887 2273.74,692.598 2274.74,689.308 
  2275.73,686.015 2276.73,682.72 2277.72,679.423 2278.72,676.124 2279.71,672.823 2280.71,669.521 2281.7,666.218 2282.7,662.912 2283.69,659.606 2284.69,656.299 
  2285.68,652.99 2286.68,649.681 2287.68,646.371 2288.67,643.06 2289.67,639.749 2290.66,636.437 2291.66,633.125 
  "/>
<path clip-path="url(#clip040)" d="
M1988.36 250.738 L2280.8 250.738 L2280.8 95.2176 L1988.36 95.2176  Z
  " fill="#ffffff" fill-rule="evenodd" fill-opacity="1"/>
<polyline clip-path="url(#clip040)" style="stroke:#000000; stroke-linecap:butt; stroke-linejoin:round; stroke-width:4; stroke-opacity:1; fill:none" points="
  1988.36,250.738 2280.8,250.738 2280.8,95.2176 1988.36,95.2176 1988.36,250.738 
  "/>
<polyline clip-path="url(#clip040)" style="stroke:#009af9; stroke-linecap:butt; stroke-linejoin:round; stroke-width:4; stroke-opacity:1; fill:none" points="
  2012.36,147.058 2156.36,147.058 
  "/>
<path clip-path="url(#clip040)" d="M2194.21 166.745 Q2192.4 171.375 2190.69 172.787 Q2188.98 174.199 2186.11 174.199 L2182.7 174.199 L2182.7 170.634 L2185.2 170.634 Q2186.96 170.634 2187.93 169.8 Q2188.91 168.967 2190.09 165.865 L2190.85 163.921 L2180.36 138.412 L2184.88 138.412 L2192.98 158.689 L2201.08 138.412 L2205.6 138.412 L2194.21 166.745 Z" fill="#000000" fill-rule="evenodd" fill-opacity="1" /><path clip-path="url(#clip040)" d="M2212.89 160.402 L2220.53 160.402 L2220.53 134.037 L2212.22 135.703 L2212.22 131.444 L2220.48 129.778 L2225.16 129.778 L2225.16 160.402 L2232.8 160.402 L2232.8 164.338 L2212.89 164.338 L2212.89 160.402 Z" fill="#000000" fill-rule="evenodd" fill-opacity="1" /><polyline clip-path="url(#clip040)" style="stroke:#e26f46; stroke-linecap:butt; stroke-linejoin:round; stroke-width:4; stroke-opacity:1; fill:none" points="
  2012.36,198.898 2156.36,198.898 
  "/>
<path clip-path="url(#clip040)" d="M2194.21 218.585 Q2192.4 223.215 2190.69 224.627 Q2188.98 226.039 2186.11 226.039 L2182.7 226.039 L2182.7 222.474 L2185.2 222.474 Q2186.96 222.474 2187.93 221.64 Q2188.91 220.807 2190.09 217.705 L2190.85 215.761 L2180.36 190.252 L2184.88 190.252 L2192.98 210.529 L2201.08 190.252 L2205.6 190.252 L2194.21 218.585 Z" fill="#000000" fill-rule="evenodd" fill-opacity="1" /><path clip-path="url(#clip040)" d="M2216.11 212.242 L2232.42 212.242 L2232.42 216.178 L2210.48 216.178 L2210.48 212.242 Q2213.14 209.488 2217.73 204.858 Q2222.33 200.205 2223.51 198.863 Q2225.76 196.34 2226.64 194.604 Q2227.54 192.844 2227.54 191.155 Q2227.54 188.4 2225.6 186.664 Q2223.67 184.928 2220.57 184.928 Q2218.37 184.928 2215.92 185.692 Q2213.49 186.455 2210.71 188.006 L2210.71 183.284 Q2213.54 182.15 2215.99 181.571 Q2218.44 180.993 2220.48 180.993 Q2225.85 180.993 2229.05 183.678 Q2232.24 186.363 2232.24 190.854 Q2232.24 192.983 2231.43 194.905 Q2230.64 196.803 2228.54 199.395 Q2227.96 200.067 2224.86 203.284 Q2221.75 206.479 2216.11 212.242 Z" fill="#000000" fill-rule="evenodd" fill-opacity="1" /></svg>
